<svg xmlns="http://www.w3.org/2000/svg" width="216" height="233" viewBox="0 0 216 233" version="1.1"><path d="M 75 9.500 C 73.625 10.286, 72.976 10.945, 73.559 10.965 C 74.141 10.984, 75.491 10.339, 76.559 9.532 C 79.028 7.664, 78.239 7.648, 75 9.500 M 71 11.500 C 71 11.775, 71.225 12, 71.500 12 C 71.775 12, 72 11.775, 72 11.500 C 72 11.225, 71.775 11, 71.500 11 C 71.225 11, 71 11.225, 71 11.500 M 69 12.500 C 69 12.775, 69.225 13, 69.500 13 C 69.775 13, 70 12.775, 70 12.500 C 70 12.225, 69.775 12, 69.500 12 C 69.225 12, 69 12.225, 69 12.500 M 67 13.500 C 67 13.775, 67.225 14, 67.500 14 C 67.775 14, 68 13.775, 68 13.500 C 68 13.225, 67.775 13, 67.500 13 C 67.225 13, 67 13.225, 67 13.500 M 65 14.500 C 65 14.775, 65.225 15, 65.500 15 C 65.775 15, 66 14.775, 66 14.500 C 66 14.225, 65.775 14, 65.500 14 C 65.225 14, 65 14.225, 65 14.500 M 63 15.500 C 63 15.775, 63.225 16, 63.500 16 C 63.775 16, 64 15.775, 64 15.500 C 64 15.225, 63.775 15, 63.500 15 C 63.225 15, 63 15.225, 63 15.500 M 59 17.500 C 57.625 18.286, 56.976 18.945, 57.559 18.965 C 58.141 18.984, 59.491 18.339, 60.559 17.532 C 63.028 15.664, 62.239 15.648, 59 17.500 M 54 20 C 53.099 20.582, 52.975 20.975, 53.691 20.985 C 54.346 20.993, 55.160 20.550, 55.500 20 C 56.267 18.758, 55.921 18.758, 54 20 M 51 21.500 C 51 21.775, 51.225 22, 51.500 22 C 51.775 22, 52 21.775, 52 21.500 C 52 21.225, 51.775 21, 51.500 21 C 51.225 21, 51 21.225, 51 21.500 M 49 22.500 C 49 22.775, 49.225 23, 49.500 23 C 49.775 23, 50 22.775, 50 22.500 C 50 22.225, 49.775 22, 49.500 22 C 49.225 22, 49 22.225, 49 22.500 M 47 23.500 C 47 23.775, 47.225 24, 47.500 24 C 47.775 24, 48 23.775, 48 23.500 C 48 23.225, 47.775 23, 47.500 23 C 47.225 23, 47 23.225, 47 23.500 M 40.750 26.566 C 38.138 27.926, 36 29.262, 36 29.536 C 36 29.810, 38.250 28.894, 41 27.500 C 43.750 26.106, 46 24.749, 46 24.483 C 46 23.822, 46.090 23.786, 40.750 26.566 M 32.507 30.989 C 32.157 31.555, 32.558 31.723, 33.448 31.382 C 35.180 30.717, 35.497 30, 34.059 30 C 33.541 30, 32.843 30.445, 32.507 30.989 M 30 32.500 C 30 32.775, 30.225 33, 30.500 33 C 30.775 33, 31 32.775, 31 32.500 C 31 32.225, 30.775 32, 30.500 32 C 30.225 32, 30 32.225, 30 32.500 M 28 33.500 C 28 33.775, 28.225 34, 28.500 34 C 28.775 34, 29 33.775, 29 33.500 C 29 33.225, 28.775 33, 28.500 33 C 28.225 33, 28 33.225, 28 33.500 M 26 34.500 C 26 34.775, 26.225 35, 26.500 35 C 26.775 35, 27 34.775, 27 34.500 C 27 34.225, 26.775 34, 26.500 34 C 26.225 34, 26 34.225, 26 34.500 M 24 35.500 C 24 35.775, 24.225 36, 24.500 36 C 24.775 36, 25 35.775, 25 35.500 C 25 35.225, 24.775 35, 24.500 35 C 24.225 35, 24 35.225, 24 35.500 M 22 36.500 C 22 36.775, 22.225 37, 22.500 37 C 22.775 37, 23 36.775, 23 36.500 C 23 36.225, 22.775 36, 22.500 36 C 22.225 36, 22 36.225, 22 36.500 M 20 37.500 C 20 37.775, 20.225 38, 20.500 38 C 20.775 38, 21 37.775, 21 37.500 C 21 37.225, 20.775 37, 20.500 37 C 20.225 37, 20 37.225, 20 37.500 M 18 38.500 C 18 38.775, 18.225 39, 18.500 39 C 18.775 39, 19 38.775, 19 38.500 C 19 38.225, 18.775 38, 18.500 38 C 18.225 38, 18 38.225, 18 38.500 M 16 39.500 C 16 39.775, 16.225 40, 16.500 40 C 16.775 40, 17 39.775, 17 39.500 C 17 39.225, 16.775 39, 16.500 39 C 16.225 39, 16 39.225, 16 39.500 M 14 40.500 C 14 40.775, 14.225 41, 14.500 41 C 14.775 41, 15 40.775, 15 40.500 C 15 40.225, 14.775 40, 14.500 40 C 14.225 40, 14 40.225, 14 40.500 M 12 41.500 C 12 41.775, 12.225 42, 12.500 42 C 12.775 42, 13 41.775, 13 41.500 C 13 41.225, 12.775 41, 12.500 41 C 12.225 41, 12 41.225, 12 41.500 M 10 42.500 C 10 42.775, 10.225 43, 10.500 43 C 10.775 43, 11 42.775, 11 42.500 C 11 42.225, 10.775 42, 10.500 42 C 10.225 42, 10 42.225, 10 42.500 M 104 43.221 C 100.577 44.212, 76.922 51.509, 56 58.029 C 44.417 61.639, 40.700 60.557, 102.500 71.563 C 139.140 78.088, 132.520 77.867, 161.709 73.538 C 171.173 72.135, 181.133 70.740, 183.841 70.438 C 186.548 70.137, 190.055 69.543, 191.632 69.120 C 194.500 68.349, 194.500 68.349, 191.500 67.614 C 189.850 67.210, 170.725 61.443, 149 54.799 C 127.275 48.156, 109.050 42.605, 108.500 42.464 C 107.950 42.323, 105.925 42.664, 104 43.221 M 7.459 44.067 C 7.096 44.653, 7.014 45.348, 7.276 45.610 C 7.538 45.872, 8.019 45.392, 8.345 44.543 C 9.021 42.781, 8.445 42.471, 7.459 44.067 M 7 47.500 C 7 47.775, 7.225 48, 7.500 48 C 7.775 48, 8 47.775, 8 47.500 C 8 47.225, 7.775 47, 7.500 47 C 7.225 47, 7 47.225, 7 47.500 M 19 86.500 C 19 86.775, 19.225 87, 19.500 87 C 19.775 87, 20 86.775, 20 86.500 C 20 86.225, 19.775 86, 19.500 86 C 19.225 86, 19 86.225, 19 86.500 M 21 88.500 C 21 88.775, 21.225 89, 21.500 89 C 21.775 89, 22 88.775, 22 88.500 C 22 88.225, 21.775 88, 21.500 88 C 21.225 88, 21 88.225, 21 88.500 M 22 90.378 C 22 90.585, 22.788 91.373, 23.750 92.128 C 25.336 93.371, 25.371 93.336, 24.128 91.750 C 22.821 90.084, 22 89.555, 22 90.378 M 95 93.500 C 95 93.775, 95.225 94, 95.500 94 C 95.775 94, 96 93.775, 96 93.500 C 96 93.225, 95.775 93, 95.500 93 C 95.225 93, 95 93.225, 95 93.500 M 84.333 94.667 C 84.700 95.033, 85.300 95.033, 85.667 94.667 C 86.033 94.300, 85.733 94, 85 94 C 84.267 94, 83.967 94.300, 84.333 94.667 M 75.333 95.667 C 75.700 96.033, 76.300 96.033, 76.667 95.667 C 77.033 95.300, 76.733 95, 76 95 C 75.267 95, 74.967 95.300, 75.333 95.667 M 27.500 97 C 27.840 97.550, 28.343 98, 28.618 98 C 28.893 98, 28.840 97.550, 28.500 97 C 28.160 96.450, 27.657 96, 27.382 96 C 27.107 96, 27.160 96.450, 27.500 97 M 55 97.500 C 55 97.775, 55.225 98, 55.500 98 C 55.775 98, 56 97.775, 56 97.500 C 56 97.225, 55.775 97, 55.500 97 C 55.225 97, 55 97.225, 55 97.500 M 42 117.500 C 42 117.775, 42.225 118, 42.500 118 C 42.775 118, 43 117.775, 43 117.500 C 43 117.225, 42.775 117, 42.500 117 C 42.225 117, 42 117.225, 42 117.500 M 173 126.294 C 173 136.487, 176.465 135.032, 144.774 138.148 C 132.275 139.376, 122.150 140.467, 122.274 140.572 C 122.398 140.677, 130.600 141.540, 140.500 142.490 C 150.400 143.440, 166.825 145.027, 177 146.017 C 187.175 147.008, 195.591 147.730, 195.702 147.623 C 195.813 147.516, 193.985 144.970, 191.640 141.964 C 189.294 138.959, 184.141 132.281, 180.188 127.123 C 173 117.747, 173 117.747, 173 126.294 M 19 164.500 C 19 164.775, 19.225 165, 19.500 165 C 19.775 165, 20 164.775, 20 164.500 C 20 164.225, 19.775 164, 19.500 164 C 19.225 164, 19 164.225, 19 164.500 M 21 165.500 C 21 165.775, 21.225 166, 21.500 166 C 21.775 166, 22 165.775, 22 165.500 C 22 165.225, 21.775 165, 21.500 165 C 21.225 165, 21 165.225, 21 165.500 M 28 167.500 C 28 167.775, 28.225 168, 28.500 168 C 28.775 168, 29 167.775, 29 167.500 C 29 167.225, 28.775 167, 28.500 167 C 28.225 167, 28 167.225, 28 167.500 M 32 168.500 C 32 168.775, 32.225 169, 32.500 169 C 32.775 169, 33 168.775, 33 168.500 C 33 168.225, 32.775 168, 32.500 168 C 32.225 168, 32 168.225, 32 168.500 M 41.333 171.667 C 41.700 172.033, 42.300 172.033, 42.667 171.667 C 43.033 171.300, 42.733 171, 42 171 C 41.267 171, 40.967 171.300, 41.333 171.667 M 44.333 172.667 C 44.700 173.033, 45.300 173.033, 45.667 172.667 C 46.033 172.300, 45.733 172, 45 172 C 44.267 172, 43.967 172.300, 44.333 172.667 M 48 173.500 C 48 173.775, 48.225 174, 48.500 174 C 48.775 174, 49 173.775, 49 173.500 C 49 173.225, 48.775 173, 48.500 173 C 48.225 173, 48 173.225, 48 173.500 M 55 175.500 C 55 175.775, 55.225 176, 55.500 176 C 55.775 176, 56 175.775, 56 175.500 C 56 175.225, 55.775 175, 55.500 175 C 55.225 175, 55 175.225, 55 175.500 M 61 177.500 C 61 177.775, 61.225 178, 61.500 178 C 61.775 178, 62 177.775, 62 177.500 C 62 177.225, 61.775 177, 61.500 177 C 61.225 177, 61 177.225, 61 177.500 M 64.333 178.667 C 64.700 179.033, 65.300 179.033, 65.667 178.667 C 66.033 178.300, 65.733 178, 65 178 C 64.267 178, 63.967 178.300, 64.333 178.667 M 72 180.500 C 72 180.775, 72.225 181, 72.500 181 C 72.775 181, 73 180.775, 73 180.500 C 73 180.225, 72.775 180, 72.500 180 C 72.225 180, 72 180.225, 72 180.500 M 7.158 183 C 7.158 184.375, 7.385 184.938, 7.662 184.250 C 7.940 183.563, 7.940 182.438, 7.662 181.750 C 7.385 181.063, 7.158 181.625, 7.158 183 M 74 181.500 C 74 181.775, 74.225 182, 74.500 182 C 74.775 182, 75 181.775, 75 181.500 C 75 181.225, 74.775 181, 74.500 181 C 74.225 181, 74 181.225, 74 181.500 M 81 183.500 C 81 183.775, 81.225 184, 81.500 184 C 81.775 184, 82 183.775, 82 183.500 C 82 183.225, 81.775 183, 81.500 183 C 81.225 183, 81 183.225, 81 183.500 M 85 184.500 C 85 184.775, 85.225 185, 85.500 185 C 85.775 185, 86 184.775, 86 184.500 C 86 184.225, 85.775 184, 85.500 184 C 85.225 184, 85 184.225, 85 184.500 M 88 185.500 C 88 185.775, 88.225 186, 88.500 186 C 88.775 186, 89 185.775, 89 185.500 C 89 185.225, 88.775 185, 88.500 185 C 88.225 185, 88 185.225, 88 185.500 M 7 186.500 C 7 186.775, 7.225 187, 7.500 187 C 7.775 187, 8 186.775, 8 186.500 C 8 186.225, 7.775 186, 7.500 186 C 7.225 186, 7 186.225, 7 186.500 M 7 188.449 C 7 188.724, 8.350 189.647, 10 190.500 C 11.650 191.353, 13 191.826, 13 191.551 C 13 191.276, 11.650 190.353, 10 189.500 C 8.350 188.647, 7 188.174, 7 188.449 M 101 189.500 C 101 189.775, 101.225 190, 101.500 190 C 101.775 190, 102 189.775, 102 189.500 C 102 189.225, 101.775 189, 101.500 189 C 101.225 189, 101 189.225, 101 189.500 M 105 190.500 C 105 190.775, 105.225 191, 105.500 191 C 105.775 191, 106 190.775, 106 190.500 C 106 190.225, 105.775 190, 105.500 190 C 105.225 190, 105 190.225, 105 190.500 M 14 192.500 C 14 192.775, 14.225 193, 14.500 193 C 14.775 193, 15 192.775, 15 192.500 C 15 192.225, 14.775 192, 14.500 192 C 14.225 192, 14 192.225, 14 192.500 M 16 193.393 C 16 193.609, 16.698 194.054, 17.552 194.382 C 18.442 194.723, 18.843 194.555, 18.493 193.989 C 17.906 193.038, 16 192.583, 16 193.393 M 20 195.500 C 20 195.775, 20.225 196, 20.500 196 C 20.775 196, 21 195.775, 21 195.500 C 21 195.225, 20.775 195, 20.500 195 C 20.225 195, 20 195.225, 20 195.500 M 22 196.500 C 22 196.775, 22.225 197, 22.500 197 C 22.775 197, 23 196.775, 23 196.500 C 23 196.225, 22.775 196, 22.500 196 C 22.225 196, 22 196.225, 22 196.500 M 24 197.500 C 24 197.775, 24.225 198, 24.500 198 C 24.775 198, 25 197.775, 25 197.500 C 25 197.225, 24.775 197, 24.500 197 C 24.225 197, 24 197.225, 24 197.500 M 26 198.500 C 26 198.775, 26.225 199, 26.500 199 C 26.775 199, 27 198.775, 27 198.500 C 27 198.225, 26.775 198, 26.500 198 C 26.225 198, 26 198.225, 26 198.500 M 28 199.500 C 28 199.775, 28.225 200, 28.500 200 C 28.775 200, 29 199.775, 29 199.500 C 29 199.225, 28.775 199, 28.500 199 C 28.225 199, 28 199.225, 28 199.500 M 30 200.500 C 30 200.775, 30.225 201, 30.500 201 C 30.775 201, 31 200.775, 31 200.500 C 31 200.225, 30.775 200, 30.500 200 C 30.225 200, 30 200.225, 30 200.500 M 32 201.500 C 32 201.775, 32.225 202, 32.500 202 C 32.775 202, 33 201.775, 33 201.500 C 33 201.225, 32.775 201, 32.500 201 C 32.225 201, 32 201.225, 32 201.500 M 34 202.500 C 34 202.775, 34.225 203, 34.500 203 C 34.775 203, 35 202.775, 35 202.500 C 35 202.225, 34.775 202, 34.500 202 C 34.225 202, 34 202.225, 34 202.500 M 36 203.500 C 36 203.775, 36.225 204, 36.500 204 C 36.775 204, 37 203.775, 37 203.500 C 37 203.225, 36.775 203, 36.500 203 C 36.225 203, 36 203.225, 36 203.500 M 38 204.500 C 38 204.775, 38.225 205, 38.500 205 C 38.775 205, 39 204.775, 39 204.500 C 39 204.225, 38.775 204, 38.500 204 C 38.225 204, 38 204.225, 38 204.500 M 40 205.500 C 40 205.775, 40.225 206, 40.500 206 C 40.775 206, 41 205.775, 41 205.500 C 41 205.225, 40.775 205, 40.500 205 C 40.225 205, 40 205.225, 40 205.500 M 42 206.500 C 42 206.775, 42.225 207, 42.500 207 C 42.775 207, 43 206.775, 43 206.500 C 43 206.225, 42.775 206, 42.500 206 C 42.225 206, 42 206.225, 42 206.500 M 44 207.500 C 44 207.775, 44.225 208, 44.500 208 C 44.775 208, 45 207.775, 45 207.500 C 45 207.225, 44.775 207, 44.500 207 C 44.225 207, 44 207.225, 44 207.500 M 46.733 209.124 C 47.412 209.808, 48.219 210.115, 48.526 209.807 C 48.834 209.499, 48.279 208.940, 47.293 208.564 C 45.868 208.022, 45.753 208.136, 46.733 209.124 M 50.733 211.124 C 51.412 211.808, 52.219 212.115, 52.526 211.807 C 52.834 211.499, 52.279 210.940, 51.293 210.564 C 49.868 210.022, 49.753 210.136, 50.733 211.124 M 54.733 213.124 C 55.412 213.808, 56.219 214.115, 56.526 213.807 C 56.834 213.499, 56.279 212.940, 55.293 212.564 C 53.868 212.022, 53.753 212.136, 54.733 213.124 M 58 214.459 C 58 214.734, 59.800 215.878, 62 217 C 64.200 218.122, 66 218.816, 66 218.541 C 66 218.266, 64.200 217.122, 62 216 C 59.800 214.878, 58 214.184, 58 214.459 M 67 219.500 C 67 219.775, 67.225 220, 67.500 220 C 67.775 220, 68 219.775, 68 219.500 C 68 219.225, 67.775 219, 67.500 219 C 67.225 219, 67 219.225, 67 219.500 M 69 220.500 C 69 220.775, 69.225 221, 69.500 221 C 69.775 221, 70 220.775, 70 220.500 C 70 220.225, 69.775 220, 69.500 220 C 69.225 220, 69 220.225, 69 220.500 M 71.083 221.365 C 71.313 221.565, 72.625 222.265, 74 222.920 C 76.357 224.042, 76.389 224.022, 74.559 222.555 C 72.966 221.279, 69.711 220.164, 71.083 221.365 M 77 224.500 C 77 224.775, 77.225 225, 77.500 225 C 77.775 225, 78 224.775, 78 224.500 C 78 224.225, 77.775 224, 77.500 224 C 77.225 224, 77 224.225, 77 224.500" stroke="none" fill="#18486e" fill-rule="evenodd"/><path d="M 106.762 9 C 79.024 9.500, 79.024 9.500, 82.203 13 C 91.729 23.490, 104.947 38.546, 106.531 40.712 C 107.400 41.900, 109.078 40.525, 115.541 33.336 C 119.909 28.476, 125.588 22.250, 128.161 19.500 C 135.375 11.788, 137.174 9.262, 135.741 8.854 C 135.058 8.659, 122.018 8.725, 106.762 9 M 191 35.500 C 191 35.775, 191.225 36, 191.500 36 C 191.775 36, 192 35.775, 192 35.500 C 192 35.225, 191.775 35, 191.500 35 C 191.225 35, 191 35.225, 191 35.500 M 21 36.500 C 21 36.775, 21.225 37, 21.500 37 C 21.775 37, 22 36.775, 22 36.500 C 22 36.225, 21.775 36, 21.500 36 C 21.225 36, 21 36.225, 21 36.500 M 17 38.500 C 17 38.775, 17.225 39, 17.500 39 C 17.775 39, 18 38.775, 18 38.500 C 18 38.225, 17.775 38, 17.500 38 C 17.225 38, 17 38.225, 17 38.500 M 15 39.500 C 15 39.775, 15.225 40, 15.500 40 C 15.775 40, 16 39.775, 16 39.500 C 16 39.225, 15.775 39, 15.500 39 C 15.225 39, 15 39.225, 15 39.500 M 13 40.500 C 13 40.775, 13.225 41, 13.500 41 C 13.775 41, 14 40.775, 14 40.500 C 14 40.225, 13.775 40, 13.500 40 C 13.225 40, 13 40.225, 13 40.500 M 201 40.500 C 201 40.775, 201.225 41, 201.500 41 C 201.775 41, 202 40.775, 202 40.500 C 202 40.225, 201.775 40, 201.500 40 C 201.225 40, 201 40.225, 201 40.500 M 11 41.500 C 11 41.775, 11.225 42, 11.500 42 C 11.775 42, 12 41.775, 12 41.500 C 12 41.225, 11.775 41, 11.500 41 C 11.225 41, 11 41.225, 11 41.500 M 9 42.500 C 9 42.775, 9.225 43, 9.500 43 C 9.775 43, 10 42.775, 10 42.500 C 10 42.225, 9.775 42, 9.500 42 C 9.225 42, 9 42.225, 9 42.500 M 110 42.500 C 110 42.775, 110.225 43, 110.500 43 C 110.775 43, 111 42.775, 111 42.500 C 111 42.225, 110.775 42, 110.500 42 C 110.225 42, 110 42.225, 110 42.500 M 7 43.500 C 7 43.775, 7.225 44, 7.500 44 C 7.775 44, 8 43.775, 8 43.500 C 8 43.225, 7.775 43, 7.500 43 C 7.225 43, 7 43.225, 7 43.500 M 113 43.500 C 113 43.775, 113.225 44, 113.500 44 C 113.775 44, 114 43.775, 114 43.500 C 114 43.225, 113.775 43, 113.500 43 C 113.225 43, 113 43.225, 113 43.500 M 39.550 50.669 C 37.378 54.426, 34.184 59.750, 32.454 62.500 C 25.570 73.438, 18.961 85.294, 19.466 85.800 C 19.760 86.093, 20 85.871, 20 85.305 C 20 84.740, 21.013 84.446, 22.250 84.652 C 24.699 85.060, 97.866 92.152, 99.500 92.139 C 100.050 92.135, 102.975 92.068, 106 91.989 C 111.172 91.855, 133.913 93.827, 135 94.504 C 135.275 94.675, 135.275 90.951, 135 86.229 C 134.500 77.642, 134.500 77.642, 118.500 74.807 C 103.668 72.178, 66.398 65.556, 50.785 62.775 C 44.069 61.579, 44.069 61.579, 43.785 52.709 C 43.500 43.838, 43.500 43.838, 39.550 50.669 M 116 44.500 C 116 44.775, 116.225 45, 116.500 45 C 116.775 45, 117 44.775, 117 44.500 C 117 44.225, 116.775 44, 116.500 44 C 116.225 44, 116 44.225, 116 44.500 M 208 44.500 C 208 44.775, 208.225 45, 208.500 45 C 208.775 45, 209 44.775, 209 44.500 C 209 44.225, 208.775 44, 208.500 44 C 208.225 44, 208 44.225, 208 44.500 M 123 46.500 C 123 46.775, 123.225 47, 123.500 47 C 123.775 47, 124 46.775, 124 46.500 C 124 46.225, 123.775 46, 123.500 46 C 123.225 46, 123 46.225, 123 46.500 M 126 47.500 C 126 47.775, 126.225 48, 126.500 48 C 126.775 48, 127 47.775, 127 47.500 C 127 47.225, 126.775 47, 126.500 47 C 126.225 47, 126 47.225, 126 47.500 M 133 49.500 C 133 49.775, 133.225 50, 133.500 50 C 133.775 50, 134 49.775, 134 49.500 C 134 49.225, 133.775 49, 133.500 49 C 133.225 49, 133 49.225, 133 49.500 M 136 50.500 C 136 50.775, 136.225 51, 136.500 51 C 136.775 51, 137 50.775, 137 50.500 C 137 50.225, 136.775 50, 136.500 50 C 136.225 50, 136 50.225, 136 50.500 M 139 51.500 C 139 51.775, 139.225 52, 139.500 52 C 139.775 52, 140 51.775, 140 51.500 C 140 51.225, 139.775 51, 139.500 51 C 139.225 51, 139 51.225, 139 51.500 M 142.333 52.667 C 142.700 53.033, 143.300 53.033, 143.667 52.667 C 144.033 52.300, 143.733 52, 143 52 C 142.267 52, 141.967 52.300, 142.333 52.667 M 145 53.500 C 145 53.775, 145.225 54, 145.500 54 C 145.775 54, 146 53.775, 146 53.500 C 146 53.225, 145.775 53, 145.500 53 C 145.225 53, 145 53.225, 145 53.500 M 148 54.500 C 148 54.775, 148.225 55, 148.500 55 C 148.775 55, 149 54.775, 149 54.500 C 149 54.225, 148.775 54, 148.500 54 C 148.225 54, 148 54.225, 148 54.500 M 152 55.500 C 152 55.775, 152.225 56, 152.500 56 C 152.775 56, 153 55.775, 153 55.500 C 153 55.225, 152.775 55, 152.500 55 C 152.225 55, 152 55.225, 152 55.500 M 155 56.500 C 155 56.775, 155.225 57, 155.500 57 C 155.775 57, 156 56.775, 156 56.500 C 156 56.225, 155.775 56, 155.500 56 C 155.225 56, 155 56.225, 155 56.500 M 159 57.500 C 159 57.775, 159.225 58, 159.500 58 C 159.775 58, 160 57.775, 160 57.500 C 160 57.225, 159.775 57, 159.500 57 C 159.225 57, 159 57.225, 159 57.500 M 162 58.500 C 162 58.775, 162.225 59, 162.500 59 C 162.775 59, 163 58.775, 163 58.500 C 163 58.225, 162.775 58, 162.500 58 C 162.225 58, 162 58.225, 162 58.500 M 165 59.500 C 165 59.775, 165.225 60, 165.500 60 C 165.775 60, 166 59.775, 166 59.500 C 166 59.225, 165.775 59, 165.500 59 C 165.225 59, 165 59.225, 165 59.500 M 168 60.500 C 168 60.775, 168.225 61, 168.500 61 C 168.775 61, 169 60.775, 169 60.500 C 169 60.225, 168.775 60, 168.500 60 C 168.225 60, 168 60.225, 168 60.500 M 172 61.500 C 172 61.775, 172.225 62, 172.500 62 C 172.775 62, 173 61.775, 173 61.500 C 173 61.225, 172.775 61, 172.500 61 C 172.225 61, 172 61.225, 172 61.500 M 175 62.500 C 175 62.775, 175.225 63, 175.500 63 C 175.775 63, 176 62.775, 176 62.500 C 176 62.225, 175.775 62, 175.500 62 C 175.225 62, 175 62.225, 175 62.500 M 178 63.500 C 178 63.775, 178.225 64, 178.500 64 C 178.775 64, 179 63.775, 179 63.500 C 179 63.225, 178.775 63, 178.500 63 C 178.225 63, 178 63.225, 178 63.500 M 182 64.500 C 182 64.775, 182.225 65, 182.500 65 C 182.775 65, 183 64.775, 183 64.500 C 183 64.225, 182.775 64, 182.500 64 C 182.225 64, 182 64.225, 182 64.500 M 185 65.500 C 185 65.775, 185.225 66, 185.500 66 C 185.775 66, 186 65.775, 186 65.500 C 186 65.225, 185.775 65, 185.500 65 C 185.225 65, 185 65.225, 185 65.500 M 188 66.500 C 188 66.775, 188.225 67, 188.500 67 C 188.775 67, 189 66.775, 189 66.500 C 189 66.225, 188.775 66, 188.500 66 C 188.225 66, 188 66.225, 188 66.500 M 192 67.500 C 192 67.775, 192.225 68, 192.500 68 C 192.775 68, 193 67.775, 193 67.500 C 193 67.225, 192.775 67, 192.500 67 C 192.225 67, 192 67.225, 192 67.500 M 195.500 69 C 195.840 69.550, 196.343 70, 196.618 70 C 196.893 70, 196.840 69.550, 196.500 69 C 196.160 68.450, 195.657 68, 195.382 68 C 195.107 68, 195.160 68.450, 195.500 69 M 159 74.500 C 159 74.775, 159.225 75, 159.500 75 C 159.775 75, 160 74.775, 160 74.500 C 160 74.225, 159.775 74, 159.500 74 C 159.225 74, 159 74.225, 159 74.500 M 23 90.500 C 23 90.775, 23.225 91, 23.500 91 C 23.775 91, 24 90.775, 24 90.500 C 24 90.225, 23.775 90, 23.500 90 C 23.225 90, 23 90.225, 23 90.500 M 90.333 93.667 C 90.700 94.033, 91.300 94.033, 91.667 93.667 C 92.033 93.300, 91.733 93, 91 93 C 90.267 93, 89.967 93.300, 90.333 93.667 M 80.333 94.667 C 80.700 95.033, 81.300 95.033, 81.667 94.667 C 82.033 94.300, 81.733 94, 81 94 C 80.267 94, 79.967 94.300, 80.333 94.667 M 137.813 94.683 C 138.534 94.972, 139.397 94.936, 139.729 94.604 C 140.061 94.272, 139.471 94.036, 138.417 94.079 C 137.252 94.127, 137.015 94.364, 137.813 94.683 M 27 95.500 C 27 95.775, 27.225 96, 27.500 96 C 27.775 96, 28 95.775, 28 95.500 C 28 95.225, 27.775 95, 27.500 95 C 27.225 95, 27 95.225, 27 95.500 M 70.333 95.667 C 70.700 96.033, 71.300 96.033, 71.667 95.667 C 72.033 95.300, 71.733 95, 71 95 C 70.267 95, 69.967 95.300, 70.333 95.667 M 146.813 95.683 C 147.534 95.972, 148.397 95.936, 148.729 95.604 C 149.061 95.272, 148.471 95.036, 147.417 95.079 C 146.252 95.127, 146.015 95.364, 146.813 95.683 M 61.333 96.667 C 61.700 97.033, 62.300 97.033, 62.667 96.667 C 63.033 96.300, 62.733 96, 62 96 C 61.267 96, 60.967 96.300, 61.333 96.667 M 156.269 96.693 C 157.242 96.947, 158.592 96.930, 159.269 96.656 C 159.946 96.382, 159.150 96.175, 157.500 96.195 C 155.850 96.215, 155.296 96.439, 156.269 96.693 M 51.333 97.667 C 51.700 98.033, 52.300 98.033, 52.667 97.667 C 53.033 97.300, 52.733 97, 52 97 C 51.267 97, 50.967 97.300, 51.333 97.667 M 165.750 97.662 C 166.438 97.940, 167.563 97.940, 168.250 97.662 C 168.938 97.385, 168.375 97.158, 167 97.158 C 165.625 97.158, 165.063 97.385, 165.750 97.662 M 176.813 98.683 C 177.534 98.972, 178.397 98.936, 178.729 98.604 C 179.061 98.272, 178.471 98.036, 177.417 98.079 C 176.252 98.127, 176.015 98.364, 176.813 98.683 M 30 99.500 C 30 99.775, 30.225 100, 30.500 100 C 30.775 100, 31 99.775, 31 99.500 C 31 99.225, 30.775 99, 30.500 99 C 30.225 99, 30 99.225, 30 99.500 M 185.269 99.693 C 186.242 99.947, 187.592 99.930, 188.269 99.656 C 188.946 99.382, 188.150 99.175, 186.500 99.195 C 184.850 99.215, 184.296 99.439, 185.269 99.693 M 195 100 C 194.099 100.582, 193.975 100.975, 194.691 100.985 C 195.346 100.993, 196.160 100.550, 196.500 100 C 197.267 98.758, 196.921 98.758, 195 100 M 33 103.500 C 33 103.775, 33.225 104, 33.500 104 C 33.775 104, 34 103.775, 34 103.500 C 34 103.225, 33.775 103, 33.500 103 C 33.225 103, 33 103.225, 33 103.500 M 37 108.500 C 37 108.775, 37.225 109, 37.500 109 C 37.775 109, 38 108.775, 38 108.500 C 38 108.225, 37.775 108, 37.500 108 C 37.225 108, 37 108.225, 37 108.500 M 40 112.500 C 40 112.775, 40.225 113, 40.500 113 C 40.775 113, 41 112.775, 41 112.500 C 41 112.225, 40.775 112, 40.500 112 C 40.225 112, 40 112.225, 40 112.500 M 43 116.500 C 43 116.775, 43.225 117, 43.500 117 C 43.775 117, 44 116.775, 44 116.500 C 44 116.225, 43.775 116, 43.500 116 C 43.225 116, 43 116.225, 43 116.500 M 172.160 126.250 C 172.323 135.655, 172.719 134.534, 173.222 123.248 C 173.375 119.810, 173.162 116.997, 172.750 116.998 C 172.338 116.999, 172.072 121.162, 172.160 126.250 M 176 121.500 C 176 121.775, 176.225 122, 176.500 122 C 176.775 122, 177 121.775, 177 121.500 C 177 121.225, 176.775 121, 176.500 121 C 176.225 121, 176 121.225, 176 121.500 M 178.500 125 C 178.840 125.550, 179.343 126, 179.618 126 C 179.893 126, 179.840 125.550, 179.500 125 C 179.160 124.450, 178.657 124, 178.382 124 C 178.107 124, 178.160 124.450, 178.500 125 M 182.500 130 C 182.840 130.550, 183.343 131, 183.618 131 C 183.893 131, 183.840 130.550, 183.500 130 C 183.160 129.450, 182.657 129, 182.382 129 C 182.107 129, 182.160 129.450, 182.500 130 M 19.813 132.683 C 20.534 132.972, 21.397 132.936, 21.729 132.604 C 22.061 132.272, 21.471 132.036, 20.417 132.079 C 19.252 132.127, 19.015 132.364, 19.813 132.683 M 28.750 133.662 C 29.438 133.940, 30.563 133.940, 31.250 133.662 C 31.938 133.385, 31.375 133.158, 30 133.158 C 28.625 133.158, 28.063 133.385, 28.750 133.662 M 185 133.500 C 185 133.775, 185.225 134, 185.500 134 C 185.775 134, 186 133.775, 186 133.500 C 186 133.225, 185.775 133, 185.500 133 C 185.225 133, 185 133.225, 185 133.500 M 38.750 134.662 C 39.438 134.940, 40.563 134.940, 41.250 134.662 C 41.938 134.385, 41.375 134.158, 40 134.158 C 38.625 134.158, 38.063 134.385, 38.750 134.662 M 48.813 135.683 C 49.534 135.972, 50.397 135.936, 50.729 135.604 C 51.061 135.272, 50.471 135.036, 49.417 135.079 C 48.252 135.127, 48.015 135.364, 48.813 135.683 M 165.333 135.667 C 165.700 136.033, 166.300 136.033, 166.667 135.667 C 167.033 135.300, 166.733 135, 166 135 C 165.267 135, 164.967 135.300, 165.333 135.667 M 58.269 136.693 C 59.242 136.947, 60.592 136.930, 61.269 136.656 C 61.946 136.382, 61.150 136.175, 59.500 136.195 C 57.850 136.215, 57.296 136.439, 58.269 136.693 M 155.333 136.667 C 155.700 137.033, 156.300 137.033, 156.667 136.667 C 157.033 136.300, 156.733 136, 156 136 C 155.267 136, 154.967 136.300, 155.333 136.667 M 68.269 137.693 C 69.242 137.947, 70.592 137.930, 71.269 137.656 C 71.946 137.382, 71.150 137.175, 69.500 137.195 C 67.850 137.215, 67.296 137.439, 68.269 137.693 M 144.750 137.662 C 145.438 137.940, 146.563 137.940, 147.250 137.662 C 147.938 137.385, 147.375 137.158, 146 137.158 C 144.625 137.158, 144.063 137.385, 144.750 137.662 M 79.250 138.709 C 80.733 139.074, 81 140.347, 81 147.070 C 81 154.604, 81.112 155.004, 83.250 155.077 C 84.487 155.119, 86.175 155.318, 87 155.520 C 88.883 155.980, 121.016 161.736, 148 166.447 C 159.275 168.415, 169.512 170.253, 170.750 170.532 C 172.871 171.009, 173.001 171.538, 173.017 179.769 C 173.036 189.823, 171.967 190.644, 182.491 172.500 C 185.681 167, 189.946 159.800, 191.967 156.500 C 193.989 153.200, 195.929 150.012, 196.278 149.417 C 196.710 148.679, 191.099 147.781, 178.706 146.603 C 168.693 145.652, 151.500 143.947, 140.500 142.814 C 129.500 141.682, 116.450 140.835, 111.500 140.933 C 106.550 141.030, 98.225 140.626, 93 140.035 C 87.775 139.444, 82.150 138.807, 80.500 138.620 C 78.850 138.433, 78.287 138.473, 79.250 138.709 M 136.813 138.683 C 137.534 138.972, 138.397 138.936, 138.729 138.604 C 139.061 138.272, 138.471 138.036, 137.417 138.079 C 136.252 138.127, 136.015 138.364, 136.813 138.683 M 189 138.500 C 189 138.775, 189.225 139, 189.500 139 C 189.775 139, 190 138.775, 190 138.500 C 190 138.225, 189.775 138, 189.500 138 C 189.225 138, 189 138.225, 189 138.500 M 126.333 139.667 C 126.700 140.033, 127.300 140.033, 127.667 139.667 C 128.033 139.300, 127.733 139, 127 139 C 126.267 139, 125.967 139.300, 126.333 139.667 M 191.500 142 C 191.840 142.550, 192.343 143, 192.618 143 C 192.893 143, 192.840 142.550, 192.500 142 C 192.160 141.450, 191.657 141, 191.382 141 C 191.107 141, 191.160 141.450, 191.500 142 M 195 146.500 C 195 146.775, 195.225 147, 195.500 147 C 195.775 147, 196 146.775, 196 146.500 C 196 146.225, 195.775 146, 195.500 146 C 195.225 146, 195 146.225, 195 146.500 M 20 164.500 C 20 164.775, 20.225 165, 20.500 165 C 20.775 165, 21 164.775, 21 164.500 C 21 164.225, 20.775 164, 20.500 164 C 20.225 164, 20 164.225, 20 164.500 M 23 165.500 C 23 165.775, 23.225 166, 23.500 166 C 23.775 166, 24 165.775, 24 165.500 C 24 165.225, 23.775 165, 23.500 165 C 23.225 165, 23 165.225, 23 165.500 M 27 166.500 C 27 166.775, 27.225 167, 27.500 167 C 27.775 167, 28 166.775, 28 166.500 C 28 166.225, 27.775 166, 27.500 166 C 27.225 166, 27 166.225, 27 166.500 M 30 167.500 C 30 167.775, 30.225 168, 30.500 168 C 30.775 168, 31 167.775, 31 167.500 C 31 167.225, 30.775 167, 30.500 167 C 30.225 167, 30 167.225, 30 167.500 M 33 168.500 C 33 168.775, 33.225 169, 33.500 169 C 33.775 169, 34 168.775, 34 168.500 C 34 168.225, 33.775 168, 33.500 168 C 33.225 168, 33 168.225, 33 168.500 M 40 170.500 C 40 170.775, 40.225 171, 40.500 171 C 40.775 171, 41 170.775, 41 170.500 C 41 170.225, 40.775 170, 40.500 170 C 40.225 170, 40 170.225, 40 170.500 M 43 171.500 C 43 171.775, 43.225 172, 43.500 172 C 43.775 172, 44 171.775, 44 171.500 C 44 171.225, 43.775 171, 43.500 171 C 43.225 171, 43 171.225, 43 171.500 M 46 172.500 C 46 172.775, 46.225 173, 46.500 173 C 46.775 173, 47 172.775, 47 172.500 C 47 172.225, 46.775 172, 46.500 172 C 46.225 172, 46 172.225, 46 172.500 M 50 173.500 C 50 173.775, 50.225 174, 50.500 174 C 50.775 174, 51 173.775, 51 173.500 C 51 173.225, 50.775 173, 50.500 173 C 50.225 173, 50 173.225, 50 173.500 M 53 174.500 C 53 174.775, 53.225 175, 53.500 175 C 53.775 175, 54 174.775, 54 174.500 C 54 174.225, 53.775 174, 53.500 174 C 53.225 174, 53 174.225, 53 174.500 M 60 176.500 C 60 176.775, 60.225 177, 60.500 177 C 60.775 177, 61 176.775, 61 176.500 C 61 176.225, 60.775 176, 60.500 176 C 60.225 176, 60 176.225, 60 176.500 M 63 177.500 C 63 177.775, 63.225 178, 63.500 178 C 63.775 178, 64 177.775, 64 177.500 C 64 177.225, 63.775 177, 63.500 177 C 63.225 177, 63 177.225, 63 177.500 M 66 178.500 C 66 178.775, 66.225 179, 66.500 179 C 66.775 179, 67 178.775, 67 178.500 C 67 178.225, 66.775 178, 66.500 178 C 66.225 178, 66 178.225, 66 178.500 M 73 180.500 C 73 180.775, 73.225 181, 73.500 181 C 73.775 181, 74 180.775, 74 180.500 C 74 180.225, 73.775 180, 73.500 180 C 73.225 180, 73 180.225, 73 180.500 M 76 181.500 C 76 181.775, 76.225 182, 76.500 182 C 76.775 182, 77 181.775, 77 181.500 C 77 181.225, 76.775 181, 76.500 181 C 76.225 181, 76 181.225, 76 181.500 M 80 182.500 C 80 182.775, 80.225 183, 80.500 183 C 80.775 183, 81 182.775, 81 182.500 C 81 182.225, 80.775 182, 80.500 182 C 80.225 182, 80 182.225, 80 182.500 M 83 183.500 C 83 183.775, 83.225 184, 83.500 184 C 83.775 184, 84 183.775, 84 183.500 C 84 183.225, 83.775 183, 83.500 183 C 83.225 183, 83 183.225, 83 183.500 M 86 184.500 C 86 184.775, 86.225 185, 86.500 185 C 86.775 185, 87 184.775, 87 184.500 C 87 184.225, 86.775 184, 86.500 184 C 86.225 184, 86 184.225, 86 184.500 M 90 185.500 C 90 185.775, 90.225 186, 90.500 186 C 90.775 186, 91 185.775, 91 185.500 C 91 185.225, 90.775 185, 90.500 185 C 90.225 185, 90 185.225, 90 185.500 M 93 186.500 C 93 186.775, 93.225 187, 93.500 187 C 93.775 187, 94 186.775, 94 186.500 C 94 186.225, 93.775 186, 93.500 186 C 93.225 186, 93 186.225, 93 186.500 M 96 187.500 C 96 187.775, 96.225 188, 96.500 188 C 96.775 188, 97 187.775, 97 187.500 C 97 187.225, 96.775 187, 96.500 187 C 96.225 187, 96 187.225, 96 187.500 M 208 188.500 C 208 188.775, 208.225 189, 208.500 189 C 208.775 189, 209 188.775, 209 188.500 C 209 188.225, 208.775 188, 208.500 188 C 208.225 188, 208 188.225, 208 188.500 M 103 189.500 C 103 189.775, 103.225 190, 103.500 190 C 103.775 190, 104 189.775, 104 189.500 C 104 189.225, 103.775 189, 103.500 189 C 103.225 189, 103 189.225, 103 189.500 M 106 190.500 C 106 190.775, 106.225 191, 106.500 191 C 106.775 191, 107 190.775, 107 190.500 C 107 190.225, 106.775 190, 106.500 190 C 106.225 190, 106 190.225, 106 190.500 M 107.480 191.779 C 106.919 192.176, 101.519 198.120, 95.480 204.989 C 89.441 211.858, 83.268 218.833, 81.761 220.489 C 79.023 223.500, 79.023 223.500, 94.073 223.776 C 102.351 223.928, 115.593 223.928, 123.499 223.776 C 137.874 223.500, 137.874 223.500, 128.687 213.478 C 123.634 207.966, 117.025 200.667, 114 197.257 C 110.943 193.811, 108.047 191.378, 107.480 191.779 M 15 193.500 C 15 193.775, 15.225 194, 15.500 194 C 15.775 194, 16 193.775, 16 193.500 C 16 193.225, 15.775 193, 15.500 193 C 15.225 193, 15 193.225, 15 193.500 M 17 194.500 C 17 194.775, 17.225 195, 17.500 195 C 17.775 195, 18 194.775, 18 194.500 C 18 194.225, 17.775 194, 17.500 194 C 17.225 194, 17 194.225, 17 194.500 M 19 195.500 C 19 195.775, 19.225 196, 19.500 196 C 19.775 196, 20 195.775, 20 195.500 C 20 195.225, 19.775 195, 19.500 195 C 19.225 195, 19 195.225, 19 195.500 M 21 196.500 C 21 196.775, 21.225 197, 21.500 197 C 21.775 197, 22 196.775, 22 196.500 C 22 196.225, 21.775 196, 21.500 196 C 21.225 196, 21 196.225, 21 196.500 M 23 197.500 C 23 197.775, 23.225 198, 23.500 198 C 23.775 198, 24 197.775, 24 197.500 C 24 197.225, 23.775 197, 23.500 197 C 23.225 197, 23 197.225, 23 197.500 M 25 198.500 C 25 198.775, 25.225 199, 25.500 199 C 25.775 199, 26 198.775, 26 198.500 C 26 198.225, 25.775 198, 25.500 198 C 25.225 198, 25 198.225, 25 198.500 M 27 199.500 C 27 199.775, 27.225 200, 27.500 200 C 27.775 200, 28 199.775, 28 199.500 C 28 199.225, 27.775 199, 27.500 199 C 27.225 199, 27 199.225, 27 199.500 M 29 200.500 C 29 200.775, 29.225 201, 29.500 201 C 29.775 201, 30 200.775, 30 200.500 C 30 200.225, 29.775 200, 29.500 200 C 29.225 200, 29 200.225, 29 200.500 M 31 201.500 C 31 201.775, 31.225 202, 31.500 202 C 31.775 202, 32 201.775, 32 201.500 C 32 201.225, 31.775 201, 31.500 201 C 31.225 201, 31 201.225, 31 201.500 M 33 202.500 C 33 202.775, 33.225 203, 33.500 203 C 33.775 203, 34 202.775, 34 202.500 C 34 202.225, 33.775 202, 33.500 202 C 33.225 202, 33 202.225, 33 202.500 M 35 203.500 C 35 203.775, 35.225 204, 35.500 204 C 35.775 204, 36 203.775, 36 203.500 C 36 203.225, 35.775 203, 35.500 203 C 35.225 203, 35 203.225, 35 203.500 M 177 204.500 C 177 204.775, 177.225 205, 177.500 205 C 177.775 205, 178 204.775, 178 204.500 C 178 204.225, 177.775 204, 177.500 204 C 177.225 204, 177 204.225, 177 204.500 M 46 206.500 C 46 206.775, 46.225 207, 46.500 207 C 46.775 207, 47 206.775, 47 206.500 C 47 206.225, 46.775 206, 46.500 206 C 46.225 206, 46 206.225, 46 206.500 M 59 214.500 C 59 214.775, 59.225 215, 59.500 215 C 59.775 215, 60 214.775, 60 214.500 C 60 214.225, 59.775 214, 59.500 214 C 59.225 214, 59 214.225, 59 214.500" stroke="none" fill="#2e73b8" fill-rule="evenodd"/><path d="M 92.750 7.748 C 101.137 7.915, 114.862 7.915, 123.250 7.748 C 131.637 7.581, 124.775 7.444, 108 7.444 C 91.225 7.444, 84.362 7.581, 92.750 7.748 M 139 8.500 C 139 8.775, 139.225 9, 139.500 9 C 139.775 9, 140 8.775, 140 8.500 C 140 8.225, 139.775 8, 139.500 8 C 139.225 8, 139 8.225, 139 8.500 M 141 9.500 C 141 9.775, 141.225 10, 141.500 10 C 141.775 10, 142 9.775, 142 9.500 C 142 9.225, 141.775 9, 141.500 9 C 141.225 9, 141 9.225, 141 9.500 M 143 10.500 C 143 10.775, 143.225 11, 143.500 11 C 143.775 11, 144 10.775, 144 10.500 C 144 10.225, 143.775 10, 143.500 10 C 143.225 10, 143 10.225, 143 10.500 M 145 11.500 C 145 11.775, 145.225 12, 145.500 12 C 145.775 12, 146 11.775, 146 11.500 C 146 11.225, 145.775 11, 145.500 11 C 145.225 11, 145 11.225, 145 11.500 M 147 12.500 C 147 12.775, 147.225 13, 147.500 13 C 147.775 13, 148 12.775, 148 12.500 C 148 12.225, 147.775 12, 147.500 12 C 147.225 12, 147 12.225, 147 12.500 M 149 13.500 C 149 13.775, 149.225 14, 149.500 14 C 149.775 14, 150 13.775, 150 13.500 C 150 13.225, 149.775 13, 149.500 13 C 149.225 13, 149 13.225, 149 13.500 M 151 14.500 C 151 14.775, 151.225 15, 151.500 15 C 151.775 15, 152 14.775, 152 14.500 C 152 14.225, 151.775 14, 151.500 14 C 151.225 14, 151 14.225, 151 14.500 M 153 15.500 C 153 15.775, 153.225 16, 153.500 16 C 153.775 16, 154 15.775, 154 15.500 C 154 15.225, 153.775 15, 153.500 15 C 153.225 15, 153 15.225, 153 15.500 M 155 16.500 C 155 16.775, 155.225 17, 155.500 17 C 155.775 17, 156 16.775, 156 16.500 C 156 16.225, 155.775 16, 155.500 16 C 155.225 16, 155 16.225, 155 16.500 M 58 17.500 C 58 17.775, 58.225 18, 58.500 18 C 58.775 18, 59 17.775, 59 17.500 C 59 17.225, 58.775 17, 58.500 17 C 58.225 17, 58 17.225, 58 17.500 M 157 17.500 C 157 17.775, 157.225 18, 157.500 18 C 157.775 18, 158 17.775, 158 17.500 C 158 17.225, 157.775 17, 157.500 17 C 157.225 17, 157 17.225, 157 17.500 M 159 18.500 C 159 18.775, 159.225 19, 159.500 19 C 159.775 19, 160 18.775, 160 18.500 C 160 18.225, 159.775 18, 159.500 18 C 159.225 18, 159 18.225, 159 18.500 M 54 19.500 C 54 19.775, 54.225 20, 54.500 20 C 54.775 20, 55 19.775, 55 19.500 C 55 19.225, 54.775 19, 54.500 19 C 54.225 19, 54 19.225, 54 19.500 M 161 19.500 C 161 19.775, 161.225 20, 161.500 20 C 161.775 20, 162 19.775, 162 19.500 C 162 19.225, 161.775 19, 161.500 19 C 161.225 19, 161 19.225, 161 19.500 M 52 20.500 C 52 20.775, 52.225 21, 52.500 21 C 52.775 21, 53 20.775, 53 20.500 C 53 20.225, 52.775 20, 52.500 20 C 52.225 20, 52 20.225, 52 20.500 M 163 20.500 C 163 20.775, 163.225 21, 163.500 21 C 163.775 21, 164 20.775, 164 20.500 C 164 20.225, 163.775 20, 163.500 20 C 163.225 20, 163 20.225, 163 20.500 M 50 21.500 C 50 21.775, 50.225 22, 50.500 22 C 50.775 22, 51 21.775, 51 21.500 C 51 21.225, 50.775 21, 50.500 21 C 50.225 21, 50 21.225, 50 21.500 M 165 21.500 C 165 21.775, 165.225 22, 165.500 22 C 165.775 22, 166 21.775, 166 21.500 C 166 21.225, 165.775 21, 165.500 21 C 165.225 21, 165 21.225, 165 21.500 M 48 22.500 C 48 22.775, 48.225 23, 48.500 23 C 48.775 23, 49 22.775, 49 22.500 C 49 22.225, 48.775 22, 48.500 22 C 48.225 22, 48 22.225, 48 22.500 M 167 22.500 C 167 22.775, 167.225 23, 167.500 23 C 167.775 23, 168 22.775, 168 22.500 C 168 22.225, 167.775 22, 167.500 22 C 167.225 22, 167 22.225, 167 22.500 M 46 23.500 C 46 23.775, 46.225 24, 46.500 24 C 46.775 24, 47 23.775, 47 23.500 C 47 23.225, 46.775 23, 46.500 23 C 46.225 23, 46 23.225, 46 23.500 M 169 23.500 C 169 23.775, 169.225 24, 169.500 24 C 169.775 24, 170 23.775, 170 23.500 C 170 23.225, 169.775 23, 169.500 23 C 169.225 23, 169 23.225, 169 23.500 M 44 24.500 C 44 24.775, 44.225 25, 44.500 25 C 44.775 25, 45 24.775, 45 24.500 C 45 24.225, 44.775 24, 44.500 24 C 44.225 24, 44 24.225, 44 24.500 M 171 24.500 C 171 24.775, 171.225 25, 171.500 25 C 171.775 25, 172 24.775, 172 24.500 C 172 24.225, 171.775 24, 171.500 24 C 171.225 24, 171 24.225, 171 24.500 M 42 25.500 C 42 25.775, 42.225 26, 42.500 26 C 42.775 26, 43 25.775, 43 25.500 C 43 25.225, 42.775 25, 42.500 25 C 42.225 25, 42 25.225, 42 25.500 M 173 25.500 C 173 25.775, 173.225 26, 173.500 26 C 173.775 26, 174 25.775, 174 25.500 C 174 25.225, 173.775 25, 173.500 25 C 173.225 25, 173 25.225, 173 25.500 M 40 26.500 C 40 26.775, 40.225 27, 40.500 27 C 40.775 27, 41 26.775, 41 26.500 C 41 26.225, 40.775 26, 40.500 26 C 40.225 26, 40 26.225, 40 26.500 M 175 26.500 C 175 26.775, 175.225 27, 175.500 27 C 175.775 27, 176 26.775, 176 26.500 C 176 26.225, 175.775 26, 175.500 26 C 175.225 26, 175 26.225, 175 26.500 M 38 27.500 C 38 27.775, 38.225 28, 38.500 28 C 38.775 28, 39 27.775, 39 27.500 C 39 27.225, 38.775 27, 38.500 27 C 38.225 27, 38 27.225, 38 27.500 M 177 27.500 C 177 27.775, 177.225 28, 177.500 28 C 177.775 28, 178 27.775, 178 27.500 C 178 27.225, 177.775 27, 177.500 27 C 177.225 27, 177 27.225, 177 27.500 M 36 28.500 C 36 28.775, 36.225 29, 36.500 29 C 36.775 29, 37 28.775, 37 28.500 C 37 28.225, 36.775 28, 36.500 28 C 36.225 28, 36 28.225, 36 28.500 M 179 28.500 C 179 28.775, 179.225 29, 179.500 29 C 179.775 29, 180 28.775, 180 28.500 C 180 28.225, 179.775 28, 179.500 28 C 179.225 28, 179 28.225, 179 28.500 M 34 29.500 C 34 29.775, 34.225 30, 34.500 30 C 34.775 30, 35 29.775, 35 29.500 C 35 29.225, 34.775 29, 34.500 29 C 34.225 29, 34 29.225, 34 29.500 M 181 29.500 C 181 29.775, 181.225 30, 181.500 30 C 181.775 30, 182 29.775, 182 29.500 C 182 29.225, 181.775 29, 181.500 29 C 181.225 29, 181 29.225, 181 29.500 M 32 30.500 C 32 30.775, 32.225 31, 32.500 31 C 32.775 31, 33 30.775, 33 30.500 C 33 30.225, 32.775 30, 32.500 30 C 32.225 30, 32 30.225, 32 30.500 M 183 30.500 C 183 30.775, 183.225 31, 183.500 31 C 183.775 31, 184 30.775, 184 30.500 C 184 30.225, 183.775 30, 183.500 30 C 183.225 30, 183 30.225, 183 30.500 M 30 31.500 C 30 31.775, 30.225 32, 30.500 32 C 30.775 32, 31 31.775, 31 31.500 C 31 31.225, 30.775 31, 30.500 31 C 30.225 31, 30 31.225, 30 31.500 M 185 31.500 C 185 31.775, 185.225 32, 185.500 32 C 185.775 32, 186 31.775, 186 31.500 C 186 31.225, 185.775 31, 185.500 31 C 185.225 31, 185 31.225, 185 31.500 M 28 32.500 C 28 32.775, 28.225 33, 28.500 33 C 28.775 33, 29 32.775, 29 32.500 C 29 32.225, 28.775 32, 28.500 32 C 28.225 32, 28 32.225, 28 32.500 M 187 32.500 C 187 32.775, 187.225 33, 187.500 33 C 187.775 33, 188 32.775, 188 32.500 C 188 32.225, 187.775 32, 187.500 32 C 187.225 32, 187 32.225, 187 32.500 M 26 33.500 C 26 33.775, 26.225 34, 26.500 34 C 26.775 34, 27 33.775, 27 33.500 C 27 33.225, 26.775 33, 26.500 33 C 26.225 33, 26 33.225, 26 33.500 M 189 33.500 C 189 33.775, 189.225 34, 189.500 34 C 189.775 34, 190 33.775, 190 33.500 C 190 33.225, 189.775 33, 189.500 33 C 189.225 33, 189 33.225, 189 33.500 M 24 34.500 C 24 34.775, 24.225 35, 24.500 35 C 24.775 35, 25 34.775, 25 34.500 C 25 34.225, 24.775 34, 24.500 34 C 24.225 34, 24 34.225, 24 34.500 M 191 34.500 C 191 34.775, 191.225 35, 191.500 35 C 191.775 35, 192 34.775, 192 34.500 C 192 34.225, 191.775 34, 191.500 34 C 191.225 34, 191 34.225, 191 34.500 M 22 35.500 C 22 35.775, 22.225 36, 22.500 36 C 22.775 36, 23 35.775, 23 35.500 C 23 35.225, 22.775 35, 22.500 35 C 22.225 35, 22 35.225, 22 35.500 M 193 35.500 C 193 35.775, 193.225 36, 193.500 36 C 193.775 36, 194 35.775, 194 35.500 C 194 35.225, 193.775 35, 193.500 35 C 193.225 35, 193 35.225, 193 35.500 M 20 36.500 C 20 36.775, 20.225 37, 20.500 37 C 20.775 37, 21 36.775, 21 36.500 C 21 36.225, 20.775 36, 20.500 36 C 20.225 36, 20 36.225, 20 36.500 M 195 36.500 C 195 36.775, 195.225 37, 195.500 37 C 195.775 37, 196 36.775, 196 36.500 C 196 36.225, 195.775 36, 195.500 36 C 195.225 36, 195 36.225, 195 36.500 M 18 37.500 C 18 37.775, 18.225 38, 18.500 38 C 18.775 38, 19 37.775, 19 37.500 C 19 37.225, 18.775 37, 18.500 37 C 18.225 37, 18 37.225, 18 37.500 M 197 37.500 C 197 37.775, 197.225 38, 197.500 38 C 197.775 38, 198 37.775, 198 37.500 C 198 37.225, 197.775 37, 197.500 37 C 197.225 37, 197 37.225, 197 37.500 M 16 38.500 C 16 38.775, 16.225 39, 16.500 39 C 16.775 39, 17 38.775, 17 38.500 C 17 38.225, 16.775 38, 16.500 38 C 16.225 38, 16 38.225, 16 38.500 M 199 38.500 C 199 38.775, 199.225 39, 199.500 39 C 199.775 39, 200 38.775, 200 38.500 C 200 38.225, 199.775 38, 199.500 38 C 199.225 38, 199 38.225, 199 38.500 M 14 39.500 C 14 39.775, 14.225 40, 14.500 40 C 14.775 40, 15 39.775, 15 39.500 C 15 39.225, 14.775 39, 14.500 39 C 14.225 39, 14 39.225, 14 39.500 M 201 39.500 C 201 39.775, 201.225 40, 201.500 40 C 201.775 40, 202 39.775, 202 39.500 C 202 39.225, 201.775 39, 201.500 39 C 201.225 39, 201 39.225, 201 39.500 M 12 40.500 C 12 40.775, 12.225 41, 12.500 41 C 12.775 41, 13 40.775, 13 40.500 C 13 40.225, 12.775 40, 12.500 40 C 12.225 40, 12 40.225, 12 40.500 M 203 40.500 C 203 40.775, 203.225 41, 203.500 41 C 203.775 41, 204 40.775, 204 40.500 C 204 40.225, 203.775 40, 203.500 40 C 203.225 40, 203 40.225, 203 40.500 M 10 41.500 C 10 41.775, 10.225 42, 10.500 42 C 10.775 42, 11 41.775, 11 41.500 C 11 41.225, 10.775 41, 10.500 41 C 10.225 41, 10 41.225, 10 41.500 M 205 41.500 C 205 41.775, 205.225 42, 205.500 42 C 205.775 42, 206 41.775, 206 41.500 C 206 41.225, 205.775 41, 205.500 41 C 205.225 41, 205 41.225, 205 41.500 M 8 42.500 C 8 42.775, 8.225 43, 8.500 43 C 8.775 43, 9 42.775, 9 42.500 C 9 42.225, 8.775 42, 8.500 42 C 8.225 42, 8 42.225, 8 42.500 M 207.763 43.118 C 208.759 44.395, 208.971 60.044, 208.763 117.273 C 208.618 157.168, 208.838 189.601, 209.250 189.346 C 209.662 189.091, 210 156.339, 210 116.563 C 210 48.878, 209.888 44.157, 208.250 42.872 C 206.695 41.653, 206.641 41.680, 207.763 43.118 M 6 45.500 C 6 45.775, 6.225 46, 6.500 46 C 6.775 46, 7 45.775, 7 45.500 C 7 45.225, 6.775 45, 6.500 45 C 6.225 45, 6 45.225, 6 45.500 M 6 47.500 C 6 47.775, 6.225 48, 6.500 48 C 6.775 48, 7 47.775, 7 47.500 C 7 47.225, 6.775 47, 6.500 47 C 6.225 47, 6 47.225, 6 47.500 M 23.154 89.371 C 45.213 118.188, 43.472 116.701, 43.787 106.992 C 44.128 96.448, 40.535 97.952, 72.740 94.871 C 85.522 93.648, 95.860 92.527, 95.713 92.380 C 95.499 92.166, 22.321 85, 20.352 85 C 20.053 85, 21.314 86.967, 23.154 89.371 M 72 156.213 C 68.425 156.741, 55.150 158.640, 42.500 160.434 C 16.388 164.138, 14.563 162.243, 56.500 174.966 C 111.650 191.697, 106.817 190.760, 119.312 187.147 C 130.321 183.963, 140.255 180.954, 161 174.518 C 173.369 170.681, 176.941 171.907, 129 163.542 C 111.675 160.519, 93.900 157.360, 89.500 156.522 C 80.701 154.846, 81.209 154.855, 72 156.213 M 6 188.500 C 6 188.775, 6.225 189, 6.500 189 C 6.775 189, 7 188.775, 7 188.500 C 7 188.225, 6.775 188, 6.500 188 C 6.225 188, 6 188.225, 6 188.500 M 206 190.500 C 206 190.775, 206.225 191, 206.500 191 C 206.775 191, 207 190.775, 207 190.500 C 207 190.225, 206.775 190, 206.500 190 C 206.225 190, 206 190.225, 206 190.500 M 204 191.500 C 204 191.775, 204.225 192, 204.500 192 C 204.775 192, 205 191.775, 205 191.500 C 205 191.225, 204.775 191, 204.500 191 C 204.225 191, 204 191.225, 204 191.500 M 202 192.500 C 202 192.775, 202.225 193, 202.500 193 C 202.775 193, 203 192.775, 203 192.500 C 203 192.225, 202.775 192, 202.500 192 C 202.225 192, 202 192.225, 202 192.500 M 196.750 195.068 C 194.688 196.157, 193 197.271, 193 197.544 C 193 197.817, 194.800 197.122, 197 196 C 199.200 194.878, 201 193.743, 201 193.480 C 201 192.826, 200.993 192.828, 196.750 195.068 M 24 198.500 C 24 198.775, 24.225 199, 24.500 199 C 24.775 199, 25 198.775, 25 198.500 C 25 198.225, 24.775 198, 24.500 198 C 24.225 198, 24 198.225, 24 198.500 M 189.507 198.989 C 189.157 199.555, 189.558 199.723, 190.448 199.382 C 192.180 198.717, 192.497 198, 191.059 198 C 190.541 198, 189.843 198.445, 189.507 198.989 M 26 199.500 C 26 199.775, 26.225 200, 26.500 200 C 26.775 200, 27 199.775, 27 199.500 C 27 199.225, 26.775 199, 26.500 199 C 26.225 199, 26 199.225, 26 199.500 M 28 200.500 C 28 200.775, 28.225 201, 28.500 201 C 28.775 201, 29 200.775, 29 200.500 C 29 200.225, 28.775 200, 28.500 200 C 28.225 200, 28 200.225, 28 200.500 M 187 200.500 C 187 200.775, 187.225 201, 187.500 201 C 187.775 201, 188 200.775, 188 200.500 C 188 200.225, 187.775 200, 187.500 200 C 187.225 200, 187 200.225, 187 200.500 M 30 201.500 C 30 201.775, 30.225 202, 30.500 202 C 30.775 202, 31 201.775, 31 201.500 C 31 201.225, 30.775 201, 30.500 201 C 30.225 201, 30 201.225, 30 201.500 M 185 201.500 C 185 201.775, 185.225 202, 185.500 202 C 185.775 202, 186 201.775, 186 201.500 C 186 201.225, 185.775 201, 185.500 201 C 185.225 201, 185 201.225, 185 201.500 M 32 202.500 C 32 202.775, 32.225 203, 32.500 203 C 32.775 203, 33 202.775, 33 202.500 C 33 202.225, 32.775 202, 32.500 202 C 32.225 202, 32 202.225, 32 202.500 M 183 202.500 C 183 202.775, 183.225 203, 183.500 203 C 183.775 203, 184 202.775, 184 202.500 C 184 202.225, 183.775 202, 183.500 202 C 183.225 202, 183 202.225, 183 202.500 M 34 203.500 C 34 203.775, 34.225 204, 34.500 204 C 34.775 204, 35 203.775, 35 203.500 C 35 203.225, 34.775 203, 34.500 203 C 34.225 203, 34 203.225, 34 203.500 M 181 203.500 C 181 203.775, 181.225 204, 181.500 204 C 181.775 204, 182 203.775, 182 203.500 C 182 203.225, 181.775 203, 181.500 203 C 181.225 203, 181 203.225, 181 203.500 M 36 204.500 C 36 204.775, 36.225 205, 36.500 205 C 36.775 205, 37 204.775, 37 204.500 C 37 204.225, 36.775 204, 36.500 204 C 36.225 204, 36 204.225, 36 204.500 M 179 204.500 C 179 204.775, 179.225 205, 179.500 205 C 179.775 205, 180 204.775, 180 204.500 C 180 204.225, 179.775 204, 179.500 204 C 179.225 204, 179 204.225, 179 204.500 M 38 205.500 C 38 205.775, 38.225 206, 38.500 206 C 38.775 206, 39 205.775, 39 205.500 C 39 205.225, 38.775 205, 38.500 205 C 38.225 205, 38 205.225, 38 205.500 M 177 205.500 C 177 205.775, 177.225 206, 177.500 206 C 177.775 206, 178 205.775, 178 205.500 C 178 205.225, 177.775 205, 177.500 205 C 177.225 205, 177 205.225, 177 205.500 M 40 206.500 C 40 206.775, 40.225 207, 40.500 207 C 40.775 207, 41 206.775, 41 206.500 C 41 206.225, 40.775 206, 40.500 206 C 40.225 206, 40 206.225, 40 206.500 M 175 206.500 C 175 206.775, 175.225 207, 175.500 207 C 175.775 207, 176 206.775, 176 206.500 C 176 206.225, 175.775 206, 175.500 206 C 175.225 206, 175 206.225, 175 206.500 M 42 207.500 C 42 207.775, 42.225 208, 42.500 208 C 42.775 208, 43 207.775, 43 207.500 C 43 207.225, 42.775 207, 42.500 207 C 42.225 207, 42 207.225, 42 207.500 M 173 207.500 C 173 207.775, 173.225 208, 173.500 208 C 173.775 208, 174 207.775, 174 207.500 C 174 207.225, 173.775 207, 173.500 207 C 173.225 207, 173 207.225, 173 207.500 M 44 208.500 C 44 208.775, 44.225 209, 44.500 209 C 44.775 209, 45 208.775, 45 208.500 C 45 208.225, 44.775 208, 44.500 208 C 44.225 208, 44 208.225, 44 208.500 M 171 208.500 C 171 208.775, 171.225 209, 171.500 209 C 171.775 209, 172 208.775, 172 208.500 C 172 208.225, 171.775 208, 171.500 208 C 171.225 208, 171 208.225, 171 208.500 M 46 209.500 C 46 209.775, 46.225 210, 46.500 210 C 46.775 210, 47 209.775, 47 209.500 C 47 209.225, 46.775 209, 46.500 209 C 46.225 209, 46 209.225, 46 209.500 M 169 209.500 C 169 209.775, 169.225 210, 169.500 210 C 169.775 210, 170 209.775, 170 209.500 C 170 209.225, 169.775 209, 169.500 209 C 169.225 209, 169 209.225, 169 209.500 M 48 210.500 C 48 210.775, 48.225 211, 48.500 211 C 48.775 211, 49 210.775, 49 210.500 C 49 210.225, 48.775 210, 48.500 210 C 48.225 210, 48 210.225, 48 210.500 M 167 210.500 C 167 210.775, 167.225 211, 167.500 211 C 167.775 211, 168 210.775, 168 210.500 C 168 210.225, 167.775 210, 167.500 210 C 167.225 210, 167 210.225, 167 210.500 M 50 211.500 C 50 211.775, 50.225 212, 50.500 212 C 50.775 212, 51 211.775, 51 211.500 C 51 211.225, 50.775 211, 50.500 211 C 50.225 211, 50 211.225, 50 211.500 M 165 211.500 C 165 211.775, 165.225 212, 165.500 212 C 165.775 212, 166 211.775, 166 211.500 C 166 211.225, 165.775 211, 165.500 211 C 165.225 211, 165 211.225, 165 211.500 M 52 212.500 C 52 212.775, 52.225 213, 52.500 213 C 52.775 213, 53 212.775, 53 212.500 C 53 212.225, 52.775 212, 52.500 212 C 52.225 212, 52 212.225, 52 212.500 M 163 212.500 C 163 212.775, 163.225 213, 163.500 213 C 163.775 213, 164 212.775, 164 212.500 C 164 212.225, 163.775 212, 163.500 212 C 163.225 212, 163 212.225, 163 212.500 M 54 213.500 C 54 213.775, 54.225 214, 54.500 214 C 54.775 214, 55 213.775, 55 213.500 C 55 213.225, 54.775 213, 54.500 213 C 54.225 213, 54 213.225, 54 213.500 M 161 213.500 C 161 213.775, 161.225 214, 161.500 214 C 161.775 214, 162 213.775, 162 213.500 C 162 213.225, 161.775 213, 161.500 213 C 161.225 213, 161 213.225, 161 213.500 M 56 214.500 C 56 214.775, 56.225 215, 56.500 215 C 56.775 215, 57 214.775, 57 214.500 C 57 214.225, 56.775 214, 56.500 214 C 56.225 214, 56 214.225, 56 214.500 M 159 214.500 C 159 214.775, 159.225 215, 159.500 215 C 159.775 215, 160 214.775, 160 214.500 C 160 214.225, 159.775 214, 159.500 214 C 159.225 214, 159 214.225, 159 214.500 M 58 215.500 C 58 215.775, 58.225 216, 58.500 216 C 58.775 216, 59 215.775, 59 215.500 C 59 215.225, 58.775 215, 58.500 215 C 58.225 215, 58 215.225, 58 215.500 M 157 215.500 C 157 215.775, 157.225 216, 157.500 216 C 157.775 216, 158 215.775, 158 215.500 C 158 215.225, 157.775 215, 157.500 215 C 157.225 215, 157 215.225, 157 215.500 M 60 216.500 C 60 216.775, 60.225 217, 60.500 217 C 60.775 217, 61 216.775, 61 216.500 C 61 216.225, 60.775 216, 60.500 216 C 60.225 216, 60 216.225, 60 216.500 M 155 216.500 C 155 216.775, 155.225 217, 155.500 217 C 155.775 217, 156 216.775, 156 216.500 C 156 216.225, 155.775 216, 155.500 216 C 155.225 216, 155 216.225, 155 216.500 M 62 217.500 C 62 217.775, 62.225 218, 62.500 218 C 62.775 218, 63 217.775, 63 217.500 C 63 217.225, 62.775 217, 62.500 217 C 62.225 217, 62 217.225, 62 217.500 M 153 217.500 C 153 217.775, 153.225 218, 153.500 218 C 153.775 218, 154 217.775, 154 217.500 C 154 217.225, 153.775 217, 153.500 217 C 153.225 217, 153 217.225, 153 217.500 M 64 218.500 C 64 218.775, 64.225 219, 64.500 219 C 64.775 219, 65 218.775, 65 218.500 C 65 218.225, 64.775 218, 64.500 218 C 64.225 218, 64 218.225, 64 218.500 M 151 218.500 C 151 218.775, 151.225 219, 151.500 219 C 151.775 219, 152 218.775, 152 218.500 C 152 218.225, 151.775 218, 151.500 218 C 151.225 218, 151 218.225, 151 218.500 M 66 219.500 C 66 219.775, 66.225 220, 66.500 220 C 66.775 220, 67 219.775, 67 219.500 C 67 219.225, 66.775 219, 66.500 219 C 66.225 219, 66 219.225, 66 219.500 M 149 219.500 C 149 219.775, 149.225 220, 149.500 220 C 149.775 220, 150 219.775, 150 219.500 C 150 219.225, 149.775 219, 149.500 219 C 149.225 219, 149 219.225, 149 219.500 M 68 220.500 C 68 220.775, 68.225 221, 68.500 221 C 68.775 221, 69 220.775, 69 220.500 C 69 220.225, 68.775 220, 68.500 220 C 68.225 220, 68 220.225, 68 220.500 M 147 220.500 C 147 220.775, 147.225 221, 147.500 221 C 147.775 221, 148 220.775, 148 220.500 C 148 220.225, 147.775 220, 147.500 220 C 147.225 220, 147 220.225, 147 220.500 M 70 221.500 C 70 221.775, 70.225 222, 70.500 222 C 70.775 222, 71 221.775, 71 221.500 C 71 221.225, 70.775 221, 70.500 221 C 70.225 221, 70 221.225, 70 221.500 M 145 221.500 C 145 221.775, 145.225 222, 145.500 222 C 145.775 222, 146 221.775, 146 221.500 C 146 221.225, 145.775 221, 145.500 221 C 145.225 221, 145 221.225, 145 221.500 M 143 222.500 C 143 222.775, 143.225 223, 143.500 223 C 143.775 223, 144 222.775, 144 222.500 C 144 222.225, 143.775 222, 143.500 222 C 143.225 222, 143 222.225, 143 222.500 M 141 223.500 C 141 223.775, 141.225 224, 141.500 224 C 141.775 224, 142 223.775, 142 223.500 C 142 223.225, 141.775 223, 141.500 223 C 141.225 223, 141 223.225, 141 223.500 M 139 224.500 C 139 224.775, 139.225 225, 139.500 225 C 139.775 225, 140 224.775, 140 224.500 C 140 224.225, 139.775 224, 139.500 224 C 139.225 224, 139 224.225, 139 224.500 M 109.287 225.740 C 112.469 225.939, 117.419 225.937, 120.287 225.736 C 123.154 225.535, 120.550 225.372, 114.500 225.374 C 108.450 225.376, 106.104 225.541, 109.287 225.740" stroke="none" fill="#99bce2" fill-rule="evenodd"/><path d="M 57.250 19.013 C 45.563 24.989, 36 29.648, 36 29.368 C 36 29.087, 35.289 29.568, 34.419 30.438 C 33.550 31.307, 32.425 31.763, 31.919 31.450 C 31.414 31.138, 31 31.385, 31 32 C 31 32.615, 30.550 32.840, 30 32.500 C 29.450 32.160, 29 32.385, 29 33 C 29 33.615, 28.550 33.840, 28 33.500 C 27.450 33.160, 27 33.385, 27 34 C 27 34.615, 26.550 34.840, 26 34.500 C 25.450 34.160, 25 34.434, 25 35.108 C 25 35.782, 24.721 36.055, 24.381 35.714 C 24.040 35.374, 23.104 35.753, 22.300 36.557 C 21.496 37.361, 20.425 37.763, 19.919 37.450 C 19.414 37.138, 19 37.282, 19 37.770 C 19 38.258, 16.716 39.728, 13.925 41.035 C 11.134 42.343, 8.426 44.204, 7.908 45.172 C 7.336 46.240, 7.071 74.765, 7.233 117.645 C 7.500 188.357, 7.500 188.357, 21.500 195.594 C 29.200 199.575, 36.015 203.292, 36.643 203.856 C 37.272 204.419, 38.060 204.607, 38.393 204.273 C 38.727 203.940, 39 204.218, 39 204.892 C 39 205.566, 39.450 205.840, 40 205.500 C 40.550 205.160, 41 205.385, 41 206 C 41 206.615, 41.450 206.840, 42 206.500 C 42.550 206.160, 43 206.385, 43 207 C 43 207.615, 43.450 207.840, 44 207.500 C 44.550 207.160, 45 207.385, 45 208 C 45 208.615, 45.414 208.862, 45.919 208.550 C 46.425 208.237, 47.448 208.548, 48.193 209.241 C 48.938 209.933, 50.208 210.649, 51.014 210.830 C 51.821 211.012, 52.710 211.462, 52.991 211.830 C 53.271 212.199, 54.175 212.646, 55 212.825 C 55.825 213.004, 56.651 213.569, 56.835 214.081 C 57.020 214.593, 57.602 214.746, 58.129 214.420 C 58.656 214.094, 59.652 214.296, 60.341 214.868 C 61.030 215.440, 65.537 217.954, 70.357 220.454 C 79.120 225, 79.120 225, 108.810 224.772 C 138.500 224.545, 138.500 224.545, 108.762 224.022 C 79.024 223.500, 79.024 223.500, 81.762 220.489 C 83.268 218.833, 89.441 211.858, 95.480 204.989 C 101.519 198.120, 106.849 192.222, 107.325 191.882 C 107.801 191.542, 106.910 190.904, 105.345 190.464 C 102.032 189.531, 101.969 189.511, 100 188.740 C 97.171 187.631, 91.151 185.895, 88.422 185.400 C 86.920 185.128, 84.860 184.460, 83.845 183.917 C 82.830 183.374, 82 183.226, 82 183.587 C 82 183.949, 81.438 183.782, 80.750 183.216 C 80.063 182.651, 78.100 181.970, 76.388 181.703 C 74.676 181.436, 72.343 180.719, 71.204 180.109 C 70.064 179.499, 68.067 179, 66.766 179 C 65.465 179, 63.860 178.460, 63.200 177.800 C 62.540 177.140, 62 176.970, 62 177.422 C 62 177.875, 61.424 177.766, 60.719 177.182 C 60.014 176.597, 58.222 175.898, 56.735 175.628 C 55.249 175.359, 53.628 174.888, 53.133 174.582 C 52.638 174.276, 50.493 173.760, 48.367 173.434 C 46.240 173.109, 43.150 172.180, 41.500 171.371 C 39.850 170.562, 36.700 169.455, 34.500 168.912 C 29.757 167.739, 28.973 167.504, 27 166.663 C 25.690 166.104, 22.011 165.298, 19.750 165.074 C 19.337 165.033, 19 157.570, 19 148.488 C 19 131.976, 19 131.976, 22.750 132.510 C 24.813 132.803, 39.775 134.398, 56 136.054 C 72.225 137.709, 88.875 139.480, 93 139.988 C 109.473 142.018, 108 144.359, 108 116.149 C 108 91.299, 108 91.299, 102.750 92.158 C 99.862 92.631, 95.475 93.245, 93 93.524 C 83.707 94.568, 78.352 95.112, 73.500 95.504 C 68.851 95.879, 56.774 97.170, 54.500 97.535 C 53.950 97.623, 51.362 97.764, 48.750 97.848 C 44 98, 44 98, 44 107.441 C 44 113.499, 43.586 117.138, 42.845 117.595 C 42.124 118.041, 41.963 117.869, 42.415 117.137 C 43.116 116.004, 31.054 99.395, 28.300 97.700 C 27.585 97.260, 27 96.300, 27 95.565 C 27 94.831, 25.836 93.467, 24.413 92.535 C 22.991 91.603, 22.082 90.584, 22.395 90.272 C 22.708 89.959, 21.984 88.854, 20.787 87.816 C 18.621 85.936, 18.619 85.914, 20.521 82.714 C 21.571 80.946, 24.696 75.647, 27.465 70.938 C 44.995 41.125, 43.468 42.805, 43.788 52.987 C 43.999 59.683, 44.402 62.004, 45.288 61.632 C 49.070 60.043, 99.910 44.272, 103.750 43.497 C 105.537 43.136, 107 42.443, 107 41.955 C 107 41.202, 101.720 34.531, 99.913 33 C 99.588 32.725, 96.595 29.350, 93.262 25.500 C 89.929 21.650, 85.391 16.475, 83.178 14 C 79.155 9.500, 79.155 9.500, 106.827 8.976 C 134.500 8.452, 134.500 8.452, 106.500 8.300 C 78.500 8.147, 78.500 8.147, 57.250 19.013 M 135.813 8.683 C 136.534 8.972, 137.397 8.936, 137.729 8.604 C 138.061 8.272, 137.471 8.036, 136.417 8.079 C 135.252 8.127, 135.015 8.364, 135.813 8.683 M 109 42.500 C 109 42.775, 109.225 43, 109.500 43 C 109.775 43, 110 42.775, 110 42.500 C 110 42.225, 109.775 42, 109.500 42 C 109.225 42, 109 42.225, 109 42.500 M 112 43.500 C 112 43.775, 112.225 44, 112.500 44 C 112.775 44, 113 43.775, 113 43.500 C 113 43.225, 112.775 43, 112.500 43 C 112.225 43, 112 43.225, 112 43.500 M 115 44.500 C 115 44.775, 115.225 45, 115.500 45 C 115.775 45, 116 44.775, 116 44.500 C 116 44.225, 115.775 44, 115.500 44 C 115.225 44, 115 44.225, 115 44.500 M 119 45.500 C 119 45.775, 119.225 46, 119.500 46 C 119.775 46, 120 45.775, 120 45.500 C 120 45.225, 119.775 45, 119.500 45 C 119.225 45, 119 45.225, 119 45.500 M 122 46.500 C 122 46.775, 122.225 47, 122.500 47 C 122.775 47, 123 46.775, 123 46.500 C 123 46.225, 122.775 46, 122.500 46 C 122.225 46, 122 46.225, 122 46.500 M 125 47.500 C 125 47.775, 125.225 48, 125.500 48 C 125.775 48, 126 47.775, 126 47.500 C 126 47.225, 125.775 47, 125.500 47 C 125.225 47, 125 47.225, 125 47.500 M 129 48.500 C 129 48.775, 129.225 49, 129.500 49 C 129.775 49, 130 48.775, 130 48.500 C 130 48.225, 129.775 48, 129.500 48 C 129.225 48, 129 48.225, 129 48.500 M 132 49.500 C 132 49.775, 132.225 50, 132.500 50 C 132.775 50, 133 49.775, 133 49.500 C 133 49.225, 132.775 49, 132.500 49 C 132.225 49, 132 49.225, 132 49.500 M 135 50.500 C 135 50.775, 135.225 51, 135.500 51 C 135.775 51, 136 50.775, 136 50.500 C 136 50.225, 135.775 50, 135.500 50 C 135.225 50, 135 50.225, 135 50.500 M 138 51.500 C 138 51.775, 138.225 52, 138.500 52 C 138.775 52, 139 51.775, 139 51.500 C 139 51.225, 138.775 51, 138.500 51 C 138.225 51, 138 51.225, 138 51.500 M 141 52.500 C 141 52.775, 141.225 53, 141.500 53 C 141.775 53, 142 52.775, 142 52.500 C 142 52.225, 141.775 52, 141.500 52 C 141.225 52, 141 52.225, 141 52.500 M 151 55.500 C 151 55.775, 151.225 56, 151.500 56 C 151.775 56, 152 55.775, 152 55.500 C 152 55.225, 151.775 55, 151.500 55 C 151.225 55, 151 55.225, 151 55.500 M 154 56.500 C 154 56.775, 154.225 57, 154.500 57 C 154.775 57, 155 56.775, 155 56.500 C 155 56.225, 154.775 56, 154.500 56 C 154.225 56, 154 56.225, 154 56.500 M 158 57.500 C 158 57.775, 158.225 58, 158.500 58 C 158.775 58, 159 57.775, 159 57.500 C 159 57.225, 158.775 57, 158.500 57 C 158.225 57, 158 57.225, 158 57.500 M 161 58.500 C 161 58.775, 161.225 59, 161.500 59 C 161.775 59, 162 58.775, 162 58.500 C 162 58.225, 161.775 58, 161.500 58 C 161.225 58, 161 58.225, 161 58.500 M 164 59.500 C 164 59.775, 164.225 60, 164.500 60 C 164.775 60, 165 59.775, 165 59.500 C 165 59.225, 164.775 59, 164.500 59 C 164.225 59, 164 59.225, 164 59.500 M 171 61.500 C 171 61.775, 171.225 62, 171.500 62 C 171.775 62, 172 61.775, 172 61.500 C 172 61.225, 171.775 61, 171.500 61 C 171.225 61, 171 61.225, 171 61.500 M 50.333 62.667 C 50.700 63.033, 51.300 63.033, 51.667 62.667 C 52.033 62.300, 51.733 62, 51 62 C 50.267 62, 49.967 62.300, 50.333 62.667 M 174 62.500 C 174 62.775, 174.225 63, 174.500 63 C 174.775 63, 175 62.775, 175 62.500 C 175 62.225, 174.775 62, 174.500 62 C 174.225 62, 174 62.225, 174 62.500 M 54.750 63.662 C 55.438 63.940, 56.563 63.940, 57.250 63.662 C 57.938 63.385, 57.375 63.158, 56 63.158 C 54.625 63.158, 54.063 63.385, 54.750 63.662 M 177 63.500 C 177 63.775, 177.225 64, 177.500 64 C 177.775 64, 178 63.775, 178 63.500 C 178 63.225, 177.775 63, 177.500 63 C 177.225 63, 177 63.225, 177 63.500 M 61.333 64.667 C 61.700 65.033, 62.300 65.033, 62.667 64.667 C 63.033 64.300, 62.733 64, 62 64 C 61.267 64, 60.967 64.300, 61.333 64.667 M 181 64.500 C 181 64.775, 181.225 65, 181.500 65 C 181.775 65, 182 64.775, 182 64.500 C 182 64.225, 181.775 64, 181.500 64 C 181.225 64, 181 64.225, 181 64.500 M 66.813 65.683 C 67.534 65.972, 68.397 65.936, 68.729 65.604 C 69.061 65.272, 68.471 65.036, 67.417 65.079 C 66.252 65.127, 66.015 65.364, 66.813 65.683 M 184 65.500 C 184 65.775, 184.225 66, 184.500 66 C 184.775 66, 185 65.775, 185 65.500 C 185 65.225, 184.775 65, 184.500 65 C 184.225 65, 184 65.225, 184 65.500 M 72.333 66.667 C 72.700 67.033, 73.300 67.033, 73.667 66.667 C 74.033 66.300, 73.733 66, 73 66 C 72.267 66, 71.967 66.300, 72.333 66.667 M 187 66.500 C 187 66.775, 187.225 67, 187.500 67 C 187.775 67, 188 66.775, 188 66.500 C 188 66.225, 187.775 66, 187.500 66 C 187.225 66, 187 66.225, 187 66.500 M 78.333 67.667 C 78.700 68.033, 79.300 68.033, 79.667 67.667 C 80.033 67.300, 79.733 67, 79 67 C 78.267 67, 77.967 67.300, 78.333 67.667 M 191 67.500 C 191 67.775, 191.225 68, 191.500 68 C 191.775 68, 192 67.775, 192 67.500 C 192 67.225, 191.775 67, 191.500 67 C 191.225 67, 191 67.225, 191 67.500 M 83.813 68.683 C 84.534 68.972, 85.397 68.936, 85.729 68.604 C 86.061 68.272, 85.471 68.036, 84.417 68.079 C 83.252 68.127, 83.015 68.364, 83.813 68.683 M 191.595 69.097 C 189.998 69.544, 186.398 70.162, 183.595 70.470 C 180.793 70.778, 174.450 71.687, 169.500 72.491 C 164.550 73.295, 158.925 74.105, 157 74.293 C 155.075 74.480, 149.225 75.246, 144 75.995 C 134.500 77.357, 134.500 77.357, 134.821 85.595 C 135.142 93.832, 135.142 93.832, 139.821 94.435 C 145.849 95.213, 193.104 100, 194.750 100 C 195.696 100, 196 96.245, 196 84.559 C 196 76.066, 195.662 68.930, 195.250 68.701 C 194.838 68.472, 193.193 68.650, 191.595 69.097 M 88.333 69.667 C 88.700 70.033, 89.300 70.033, 89.667 69.667 C 90.033 69.300, 89.733 69, 89 69 C 88.267 69, 87.967 69.300, 88.333 69.667 M 94.813 70.683 C 95.534 70.972, 96.397 70.936, 96.729 70.604 C 97.061 70.272, 96.471 70.036, 95.417 70.079 C 94.252 70.127, 94.015 70.364, 94.813 70.683 M 100.333 71.667 C 100.700 72.033, 101.300 72.033, 101.667 71.667 C 102.033 71.300, 101.733 71, 101 71 C 100.267 71, 99.967 71.300, 100.333 71.667 M 106.333 72.667 C 106.700 73.033, 107.300 73.033, 107.667 72.667 C 108.033 72.300, 107.733 72, 107 72 C 106.267 72, 105.967 72.300, 106.333 72.667 M 111.813 73.683 C 112.534 73.972, 113.397 73.936, 113.729 73.604 C 114.061 73.272, 113.471 73.036, 112.417 73.079 C 111.252 73.127, 111.015 73.364, 111.813 73.683 M 117 74.500 C 117 74.775, 117.225 75, 117.500 75 C 117.775 75, 118 74.775, 118 74.500 C 118 74.225, 117.775 74, 117.500 74 C 117.225 74, 117 74.225, 117 74.500 M 122.813 75.683 C 123.534 75.972, 124.397 75.936, 124.729 75.604 C 125.061 75.272, 124.471 75.036, 123.417 75.079 C 122.252 75.127, 122.015 75.364, 122.813 75.683 M 128.333 76.667 C 128.700 77.033, 129.300 77.033, 129.667 76.667 C 130.033 76.300, 129.733 76, 129 76 C 128.267 76, 127.967 76.300, 128.333 76.667 M 174.500 120 C 174.840 120.550, 175.343 121, 175.618 121 C 175.893 121, 175.840 120.550, 175.500 120 C 175.160 119.450, 174.657 119, 174.382 119 C 174.107 119, 174.160 119.450, 174.500 120 M 177 123.500 C 177 123.775, 177.225 124, 177.500 124 C 177.775 124, 178 123.775, 178 123.500 C 178 123.225, 177.775 123, 177.500 123 C 177.225 123, 177 123.225, 177 123.500 M 181 128.500 C 181 128.775, 181.225 129, 181.500 129 C 181.775 129, 182 128.775, 182 128.500 C 182 128.225, 181.775 128, 181.500 128 C 181.225 128, 181 128.225, 181 128.500 M 184 132.500 C 184 132.775, 184.225 133, 184.500 133 C 184.775 133, 185 132.775, 185 132.500 C 185 132.225, 184.775 132, 184.500 132 C 184.225 132, 184 132.225, 184 132.500 M 167.813 135.683 C 168.534 135.972, 169.397 135.936, 169.729 135.604 C 170.061 135.272, 169.471 135.036, 168.417 135.079 C 167.252 135.127, 167.015 135.364, 167.813 135.683 M 157.813 136.683 C 158.534 136.972, 159.397 136.936, 159.729 136.604 C 160.061 136.272, 159.471 136.036, 158.417 136.079 C 157.252 136.127, 157.015 136.364, 157.813 136.683 M 187.500 137 C 187.840 137.550, 188.343 138, 188.618 138 C 188.893 138, 188.840 137.550, 188.500 137 C 188.160 136.450, 187.657 136, 187.382 136 C 187.107 136, 187.160 136.450, 187.500 137 M 148.813 137.683 C 149.534 137.972, 150.397 137.936, 150.729 137.604 C 151.061 137.272, 150.471 137.036, 149.417 137.079 C 148.252 137.127, 148.015 137.364, 148.813 137.683 M 139.333 138.667 C 139.700 139.033, 140.300 139.033, 140.667 138.667 C 141.033 138.300, 140.733 138, 140 138 C 139.267 138, 138.967 138.300, 139.333 138.667 M 128.813 139.683 C 129.534 139.972, 130.397 139.936, 130.729 139.604 C 131.061 139.272, 130.471 139.036, 129.417 139.079 C 128.252 139.127, 128.015 139.364, 128.813 139.683 M 120.333 140.667 C 120.700 141.033, 121.300 141.033, 121.667 140.667 C 122.033 140.300, 121.733 140, 121 140 C 120.267 140, 119.967 140.300, 120.333 140.667 M 190 140.500 C 190 140.775, 190.225 141, 190.500 141 C 190.775 141, 191 140.775, 191 140.500 C 191 140.225, 190.775 140, 190.500 140 C 190.225 140, 190 140.225, 190 140.500 M 126.269 141.693 C 127.242 141.947, 128.592 141.930, 129.269 141.656 C 129.946 141.382, 129.150 141.175, 127.500 141.195 C 125.850 141.215, 125.296 141.439, 126.269 141.693 M 137.269 142.693 C 138.242 142.947, 139.592 142.930, 140.269 142.656 C 140.946 142.382, 140.150 142.175, 138.500 142.195 C 136.850 142.215, 136.296 142.439, 137.269 142.693 M 146.750 143.662 C 147.438 143.940, 148.563 143.940, 149.250 143.662 C 149.938 143.385, 149.375 143.158, 148 143.158 C 146.625 143.158, 146.063 143.385, 146.750 143.662 M 157.250 144.689 C 158.213 144.941, 159.787 144.941, 160.750 144.689 C 161.713 144.438, 160.925 144.232, 159 144.232 C 157.075 144.232, 156.287 144.438, 157.250 144.689 M 168.750 145.662 C 169.438 145.940, 170.563 145.940, 171.250 145.662 C 171.938 145.385, 171.375 145.158, 170 145.158 C 168.625 145.158, 168.063 145.385, 168.750 145.662 M 194 145.500 C 194 145.775, 194.225 146, 194.500 146 C 194.775 146, 195 145.775, 195 145.500 C 195 145.225, 194.775 145, 194.500 145 C 194.225 145, 194 145.225, 194 145.500 M 178.750 146.662 C 179.438 146.940, 180.563 146.940, 181.250 146.662 C 181.938 146.385, 181.375 146.158, 180 146.158 C 178.625 146.158, 178.063 146.385, 178.750 146.662 M 189.269 147.693 C 190.242 147.947, 191.592 147.930, 192.269 147.656 C 192.946 147.382, 192.150 147.175, 190.500 147.195 C 188.850 147.215, 188.296 147.439, 189.269 147.693 M 87 155.500 C 87 155.775, 87.225 156, 87.500 156 C 87.775 156, 88 155.775, 88 155.500 C 88 155.225, 87.775 155, 87.500 155 C 87.225 155, 87 155.225, 87 155.500 M 46 206.500 C 46 206.775, 46.225 207, 46.500 207 C 46.775 207, 47 206.775, 47 206.500 C 47 206.225, 46.775 206, 46.500 206 C 46.225 206, 46 206.225, 46 206.500" stroke="none" fill="#1f5b99" fill-rule="evenodd"/><path d="M 76 8.500 C 76 8.775, 76.225 9, 76.500 9 C 76.775 9, 77 8.775, 77 8.500 C 77 8.225, 76.775 8, 76.500 8 C 76.225 8, 76 8.225, 76 8.500 M 135.455 11.279 C 133.984 13.050, 130.688 16.750, 128.132 19.500 C 117.658 30.766, 107.793 42, 108.374 42 C 108.714 42, 117.207 44.521, 127.247 47.602 C 137.286 50.683, 156.887 56.652, 170.806 60.866 C 196.111 68.528, 196.111 68.528, 196.111 84.375 C 196.111 93.091, 195.974 100.335, 195.806 100.474 C 195.637 100.612, 192.125 100.350, 188 99.891 C 183.875 99.431, 171.275 98.129, 160 96.997 C 148.725 95.864, 137.925 94.729, 136 94.472 C 129.133 93.559, 113.453 92.034, 110.750 92.017 C 108 92, 108 92, 108 116.500 C 108 141, 108 141, 110.405 141 C 111.727 141, 119.040 140.309, 126.655 139.463 C 143.733 137.568, 169.065 135.005, 170.750 135.002 C 171.657 135.001, 172 132.532, 172 126 C 172 121.050, 172.338 117.021, 172.750 117.046 C 173.391 117.085, 194.223 144.091, 196.186 147.428 C 196.563 148.069, 194.943 151.723, 192.586 155.547 C 190.228 159.371, 185.687 167, 182.495 172.500 C 171.963 190.644, 173.036 189.815, 173.017 179.817 C 173.002 171.916, 172.813 171.076, 170.925 170.476 C 169.783 170.114, 168.583 170.083, 168.258 170.409 C 167.933 170.734, 168.529 171.030, 169.583 171.066 C 172.027 171.150, 147.285 179.053, 120 186.904 C 107.500 190.500, 107.500 190.500, 110 193.016 C 114.766 197.811, 137.502 223.174, 137.823 224.053 C 138.189 225.055, 176.102 206.369, 177.235 204.629 C 177.639 204.008, 177.976 203.860, 177.985 204.300 C 178.003 205.273, 207.198 190.100, 208.235 188.579 C 208.639 187.985, 208.976 155.438, 208.985 116.250 C 209 46.323, 208.963 44.963, 207 43 C 205.189 41.189, 204.307 40.825, 202.362 41.085 C 202.011 41.132, 201.448 40.743, 201.112 40.220 C 200.235 38.857, 192.003 34.807, 191.985 35.730 C 191.976 36.153, 191.639 35.992, 191.235 35.370 C 190.831 34.749, 178.717 28.349, 164.315 21.149 C 138.130 8.057, 138.130 8.057, 135.455 11.279 M 74 9.500 C 74 9.775, 74.225 10, 74.500 10 C 74.775 10, 75 9.775, 75 9.500 C 75 9.225, 74.775 9, 74.500 9 C 74.225 9, 74 9.225, 74 9.500 M 72 10.500 C 72 10.775, 72.225 11, 72.500 11 C 72.775 11, 73 10.775, 73 10.500 C 73 10.225, 72.775 10, 72.500 10 C 72.225 10, 72 10.225, 72 10.500 M 70 11.500 C 70 11.775, 70.225 12, 70.500 12 C 70.775 12, 71 11.775, 71 11.500 C 71 11.225, 70.775 11, 70.500 11 C 70.225 11, 70 11.225, 70 11.500 M 68 12.500 C 68 12.775, 68.225 13, 68.500 13 C 68.775 13, 69 12.775, 69 12.500 C 69 12.225, 68.775 12, 68.500 12 C 68.225 12, 68 12.225, 68 12.500 M 66 13.500 C 66 13.775, 66.225 14, 66.500 14 C 66.775 14, 67 13.775, 67 13.500 C 67 13.225, 66.775 13, 66.500 13 C 66.225 13, 66 13.225, 66 13.500 M 64 14.500 C 64 14.775, 64.225 15, 64.500 15 C 64.775 15, 65 14.775, 65 14.500 C 65 14.225, 64.775 14, 64.500 14 C 64.225 14, 64 14.225, 64 14.500 M 62 15.500 C 62 15.775, 62.225 16, 62.500 16 C 62.775 16, 63 15.775, 63 15.500 C 63 15.225, 62.775 15, 62.500 15 C 62.225 15, 62 15.225, 62 15.500 M 60 16.500 C 60 16.775, 60.225 17, 60.500 17 C 60.775 17, 61 16.775, 61 16.500 C 61 16.225, 60.775 16, 60.500 16 C 60.225 16, 60 16.225, 60 16.500 M 56 18.500 C 56 18.775, 56.225 19, 56.500 19 C 56.775 19, 57 18.775, 57 18.500 C 57 18.225, 56.775 18, 56.500 18 C 56.225 18, 56 18.225, 56 18.500 M 6 44.500 C 6 44.775, 6.225 45, 6.500 45 C 6.775 45, 7 44.775, 7 44.500 C 7 44.225, 6.775 44, 6.500 44 C 6.225 44, 6 44.225, 6 44.500 M 6 46.500 C 6 46.775, 6.225 47, 6.500 47 C 6.775 47, 7 46.775, 7 46.500 C 7 46.225, 6.775 46, 6.500 46 C 6.225 46, 6 46.225, 6 46.500 M 6.474 118 C 6.474 156.775, 6.598 172.638, 6.750 153.250 C 6.901 133.863, 6.901 102.138, 6.750 82.750 C 6.598 63.363, 6.474 79.225, 6.474 118 M 20 84.500 C 20 84.775, 20.225 85, 20.500 85 C 20.775 85, 21 84.775, 21 84.500 C 21 84.225, 20.775 84, 20.500 84 C 20.225 84, 20 84.225, 20 84.500 M 26.750 85.662 C 27.438 85.940, 28.563 85.940, 29.250 85.662 C 29.938 85.385, 29.375 85.158, 28 85.158 C 26.625 85.158, 26.063 85.385, 26.750 85.662 M 20.500 87 C 20.840 87.550, 21.343 88, 21.618 88 C 21.893 88, 21.840 87.550, 21.500 87 C 21.160 86.450, 20.657 86, 20.382 86 C 20.107 86, 20.160 86.450, 20.500 87 M 37.269 86.693 C 38.242 86.947, 39.592 86.930, 40.269 86.656 C 40.946 86.382, 40.150 86.175, 38.500 86.195 C 36.850 86.215, 36.296 86.439, 37.269 86.693 M 48.269 87.693 C 49.242 87.947, 50.592 87.930, 51.269 87.656 C 51.946 87.382, 51.150 87.175, 49.500 87.195 C 47.850 87.215, 47.296 87.439, 48.269 87.693 M 58.750 88.662 C 59.438 88.940, 60.563 88.940, 61.250 88.662 C 61.938 88.385, 61.375 88.158, 60 88.158 C 58.625 88.158, 58.063 88.385, 58.750 88.662 M 69.269 89.693 C 70.242 89.947, 71.592 89.930, 72.269 89.656 C 72.946 89.382, 72.150 89.175, 70.500 89.195 C 68.850 89.215, 68.296 89.439, 69.269 89.693 M 79.750 90.662 C 80.438 90.940, 81.563 90.940, 82.250 90.662 C 82.938 90.385, 82.375 90.158, 81 90.158 C 79.625 90.158, 79.063 90.385, 79.750 90.662 M 24 91.500 C 24 91.775, 24.225 92, 24.500 92 C 24.775 92, 25 91.775, 25 91.500 C 25 91.225, 24.775 91, 24.500 91 C 24.225 91, 24 91.225, 24 91.500 M 90.269 91.693 C 91.242 91.947, 92.592 91.930, 93.269 91.656 C 93.946 91.382, 93.150 91.175, 91.500 91.195 C 89.850 91.215, 89.296 91.439, 90.269 91.693 M 96.813 92.683 C 97.534 92.972, 98.397 92.936, 98.729 92.604 C 99.061 92.272, 98.471 92.036, 97.417 92.079 C 96.252 92.127, 96.015 92.364, 96.813 92.683 M 87.813 93.683 C 88.534 93.972, 89.397 93.936, 89.729 93.604 C 90.061 93.272, 89.471 93.036, 88.417 93.079 C 87.252 93.127, 87.015 93.364, 87.813 93.683 M 77.813 94.683 C 78.534 94.972, 79.397 94.936, 79.729 94.604 C 80.061 94.272, 79.471 94.036, 78.417 94.079 C 77.252 94.127, 77.015 94.364, 77.813 94.683 M 67.813 95.683 C 68.534 95.972, 69.397 95.936, 69.729 95.604 C 70.061 95.272, 69.471 95.036, 68.417 95.079 C 67.252 95.127, 67.015 95.364, 67.813 95.683 M 28.500 97 C 28.840 97.550, 29.343 98, 29.618 98 C 29.893 98, 29.840 97.550, 29.500 97 C 29.160 96.450, 28.657 96, 28.382 96 C 28.107 96, 28.160 96.450, 28.500 97 M 57.750 96.662 C 58.438 96.940, 59.563 96.940, 60.250 96.662 C 60.938 96.385, 60.375 96.158, 59 96.158 C 57.625 96.158, 57.063 96.385, 57.750 96.662 M 47.750 97.662 C 48.438 97.940, 49.563 97.940, 50.250 97.662 C 50.938 97.385, 50.375 97.158, 49 97.158 C 47.625 97.158, 47.063 97.385, 47.750 97.662 M 31.500 101 C 31.840 101.550, 32.343 102, 32.618 102 C 32.893 102, 32.840 101.550, 32.500 101 C 32.160 100.450, 31.657 100, 31.382 100 C 31.107 100, 31.160 100.450, 31.500 101 M 34.500 105 C 34.840 105.550, 35.343 106, 35.618 106 C 35.893 106, 35.840 105.550, 35.500 105 C 35.160 104.450, 34.657 104, 34.382 104 C 34.107 104, 34.160 104.450, 34.500 105 M 38 109.500 C 38 109.775, 38.225 110, 38.500 110 C 38.775 110, 39 109.775, 39 109.500 C 39 109.225, 38.775 109, 38.500 109 C 38.225 109, 38 109.225, 38 109.500 M 41.500 114 C 41.840 114.550, 42.343 115, 42.618 115 C 42.893 115, 42.840 114.550, 42.500 114 C 42.160 113.450, 41.657 113, 41.382 113 C 41.107 113, 41.160 113.450, 41.500 114 M 19 148.361 C 19 163.723, 19 163.723, 21.250 163.359 C 24.566 162.823, 65.754 157.128, 71 156.480 C 81.701 155.158, 81 155.824, 81 146.982 C 81 139.123, 81 139.123, 76.750 138.551 C 69.405 137.564, 23.889 133, 21.387 133 C 19 133, 19 133, 19 148.361 M 84.333 155.667 C 84.700 156.033, 85.300 156.033, 85.667 155.667 C 86.033 155.300, 85.733 155, 85 155 C 84.267 155, 83.967 155.300, 84.333 155.667 M 89.333 156.667 C 89.700 157.033, 90.300 157.033, 90.667 156.667 C 91.033 156.300, 90.733 156, 90 156 C 89.267 156, 88.967 156.300, 89.333 156.667 M 94.813 157.683 C 95.534 157.972, 96.397 157.936, 96.729 157.604 C 97.061 157.272, 96.471 157.036, 95.417 157.079 C 94.252 157.127, 94.015 157.364, 94.813 157.683 M 101.333 158.667 C 101.700 159.033, 102.300 159.033, 102.667 158.667 C 103.033 158.300, 102.733 158, 102 158 C 101.267 158, 100.967 158.300, 101.333 158.667 M 106.333 159.667 C 106.700 160.033, 107.300 160.033, 107.667 159.667 C 108.033 159.300, 107.733 159, 107 159 C 106.267 159, 105.967 159.300, 106.333 159.667 M 112.333 160.667 C 112.700 161.033, 113.300 161.033, 113.667 160.667 C 114.033 160.300, 113.733 160, 113 160 C 112.267 160, 111.967 160.300, 112.333 160.667 M 118.333 161.667 C 118.700 162.033, 119.300 162.033, 119.667 161.667 C 120.033 161.300, 119.733 161, 119 161 C 118.267 161, 117.967 161.300, 118.333 161.667 M 123.813 162.683 C 124.534 162.972, 125.397 162.936, 125.729 162.604 C 126.061 162.272, 125.471 162.036, 124.417 162.079 C 123.252 162.127, 123.015 162.364, 123.813 162.683 M 129.333 163.667 C 129.700 164.033, 130.300 164.033, 130.667 163.667 C 131.033 163.300, 130.733 163, 130 163 C 129.267 163, 128.967 163.300, 129.333 163.667 M 21 164.500 C 21 164.775, 21.225 165, 21.500 165 C 21.775 165, 22 164.775, 22 164.500 C 22 164.225, 21.775 164, 21.500 164 C 21.225 164, 21 164.225, 21 164.500 M 134.333 164.667 C 134.700 165.033, 135.300 165.033, 135.667 164.667 C 136.033 164.300, 135.733 164, 135 164 C 134.267 164, 133.967 164.300, 134.333 164.667 M 24 165.500 C 24 165.775, 24.225 166, 24.500 166 C 24.775 166, 25 165.775, 25 165.500 C 25 165.225, 24.775 165, 24.500 165 C 24.225 165, 24 165.225, 24 165.500 M 140.333 165.667 C 140.700 166.033, 141.300 166.033, 141.667 165.667 C 142.033 165.300, 141.733 165, 141 165 C 140.267 165, 139.967 165.300, 140.333 165.667 M 146.333 166.667 C 146.700 167.033, 147.300 167.033, 147.667 166.667 C 148.033 166.300, 147.733 166, 147 166 C 146.267 166, 145.967 166.300, 146.333 166.667 M 31 167.500 C 31 167.775, 31.225 168, 31.500 168 C 31.775 168, 32 167.775, 32 167.500 C 32 167.225, 31.775 167, 31.500 167 C 31.225 167, 31 167.225, 31 167.500 M 152.333 167.667 C 152.700 168.033, 153.300 168.033, 153.667 167.667 C 154.033 167.300, 153.733 167, 153 167 C 152.267 167, 151.967 167.300, 152.333 167.667 M 34 168.500 C 34 168.775, 34.225 169, 34.500 169 C 34.775 169, 35 168.775, 35 168.500 C 35 168.225, 34.775 168, 34.500 168 C 34.225 168, 34 168.225, 34 168.500 M 157.333 168.667 C 157.700 169.033, 158.300 169.033, 158.667 168.667 C 159.033 168.300, 158.733 168, 158 168 C 157.267 168, 156.967 168.300, 157.333 168.667 M 37.333 169.667 C 37.700 170.033, 38.300 170.033, 38.667 169.667 C 39.033 169.300, 38.733 169, 38 169 C 37.267 169, 36.967 169.300, 37.333 169.667 M 163.333 169.667 C 163.700 170.033, 164.300 170.033, 164.667 169.667 C 165.033 169.300, 164.733 169, 164 169 C 163.267 169, 162.967 169.300, 163.333 169.667 M 41 170.500 C 41 170.775, 41.225 171, 41.500 171 C 41.775 171, 42 170.775, 42 170.500 C 42 170.225, 41.775 170, 41.500 170 C 41.225 170, 41 170.225, 41 170.500 M 44 171.500 C 44 171.775, 44.225 172, 44.500 172 C 44.775 172, 45 171.775, 45 171.500 C 45 171.225, 44.775 171, 44.500 171 C 44.225 171, 44 171.225, 44 171.500 M 47 172.500 C 47 172.775, 47.225 173, 47.500 173 C 47.775 173, 48 172.775, 48 172.500 C 48 172.225, 47.775 172, 47.500 172 C 47.225 172, 47 172.225, 47 172.500 M 51 173.500 C 51 173.775, 51.225 174, 51.500 174 C 51.775 174, 52 173.775, 52 173.500 C 52 173.225, 51.775 173, 51.500 173 C 51.225 173, 51 173.225, 51 173.500 M 54 174.500 C 54 174.775, 54.225 175, 54.500 175 C 54.775 175, 55 174.775, 55 174.500 C 55 174.225, 54.775 174, 54.500 174 C 54.225 174, 54 174.225, 54 174.500 M 57 175.500 C 57 175.775, 57.225 176, 57.500 176 C 57.775 176, 58 175.775, 58 175.500 C 58 175.225, 57.775 175, 57.500 175 C 57.225 175, 57 175.225, 57 175.500 M 61 176.500 C 61 176.775, 61.225 177, 61.500 177 C 61.775 177, 62 176.775, 62 176.500 C 62 176.225, 61.775 176, 61.500 176 C 61.225 176, 61 176.225, 61 176.500 M 64 177.500 C 64 177.775, 64.225 178, 64.500 178 C 64.775 178, 65 177.775, 65 177.500 C 65 177.225, 64.775 177, 64.500 177 C 64.225 177, 64 177.225, 64 177.500 M 67 178.500 C 67 178.775, 67.225 179, 67.500 179 C 67.775 179, 68 178.775, 68 178.500 C 68 178.225, 67.775 178, 67.500 178 C 67.225 178, 67 178.225, 67 178.500 M 70 179.500 C 70 179.775, 70.225 180, 70.500 180 C 70.775 180, 71 179.775, 71 179.500 C 71 179.225, 70.775 179, 70.500 179 C 70.225 179, 70 179.225, 70 179.500 M 74 180.500 C 74 180.775, 74.225 181, 74.500 181 C 74.775 181, 75 180.775, 75 180.500 C 75 180.225, 74.775 180, 74.500 180 C 74.225 180, 74 180.225, 74 180.500 M 77 181.500 C 77 181.775, 77.225 182, 77.500 182 C 77.775 182, 78 181.775, 78 181.500 C 78 181.225, 77.775 181, 77.500 181 C 77.225 181, 77 181.225, 77 181.500 M 81 182.500 C 81 182.775, 81.225 183, 81.500 183 C 81.775 183, 82 182.775, 82 182.500 C 82 182.225, 81.775 182, 81.500 182 C 81.225 182, 81 182.225, 81 182.500 M 84 183.500 C 84 183.775, 84.225 184, 84.500 184 C 84.775 184, 85 183.775, 85 183.500 C 85 183.225, 84.775 183, 84.500 183 C 84.225 183, 84 183.225, 84 183.500 M 87 184.500 C 87 184.775, 87.225 185, 87.500 185 C 87.775 185, 88 184.775, 88 184.500 C 88 184.225, 87.775 184, 87.500 184 C 87.225 184, 87 184.225, 87 184.500 M 91 185.500 C 91 185.775, 91.225 186, 91.500 186 C 91.775 186, 92 185.775, 92 185.500 C 92 185.225, 91.775 185, 91.500 185 C 91.225 185, 91 185.225, 91 185.500 M 94 186.500 C 94 186.775, 94.225 187, 94.500 187 C 94.775 187, 95 186.775, 95 186.500 C 95 186.225, 94.775 186, 94.500 186 C 94.225 186, 94 186.225, 94 186.500 M 97 187.500 C 97 187.775, 97.225 188, 97.500 188 C 97.775 188, 98 187.775, 98 187.500 C 98 187.225, 97.775 187, 97.500 187 C 97.225 187, 97 187.225, 97 187.500 M 100.333 188.667 C 100.700 189.033, 101.300 189.033, 101.667 188.667 C 102.033 188.300, 101.733 188, 101 188 C 100.267 188, 99.967 188.300, 100.333 188.667 M 7 189.500 C 7 189.775, 7.225 190, 7.500 190 C 7.775 190, 8 189.775, 8 189.500 C 8 189.225, 7.775 189, 7.500 189 C 7.225 189, 7 189.225, 7 189.500 M 104 189.500 C 104 189.775, 104.225 190, 104.500 190 C 104.775 190, 105 189.775, 105 189.500 C 105 189.225, 104.775 189, 104.500 189 C 104.225 189, 104 189.225, 104 189.500 M 9 190.500 C 9 190.775, 9.225 191, 9.500 191 C 9.775 191, 10 190.775, 10 190.500 C 10 190.225, 9.775 190, 9.500 190 C 9.225 190, 9 190.225, 9 190.500 M 11 191.500 C 11 191.775, 11.225 192, 11.500 192 C 11.775 192, 12 191.775, 12 191.500 C 12 191.225, 11.775 191, 11.500 191 C 11.225 191, 11 191.225, 11 191.500 M 13 192.500 C 13 192.775, 13.225 193, 13.500 193 C 13.775 193, 14 192.775, 14 192.500 C 14 192.225, 13.775 192, 13.500 192 C 13.225 192, 13 192.225, 13 192.500 M 72 222.500 C 72 222.775, 72.225 223, 72.500 223 C 72.775 223, 73 222.775, 73 222.500 C 73 222.225, 72.775 222, 72.500 222 C 72.225 222, 72 222.225, 72 222.500 M 74 223.500 C 74 223.775, 74.225 224, 74.500 224 C 74.775 224, 75 223.775, 75 223.500 C 75 223.225, 74.775 223, 74.500 223 C 74.225 223, 74 223.225, 74 223.500 M 76 224.500 C 76 224.775, 76.225 225, 76.500 225 C 76.775 225, 77 224.775, 77 224.500 C 77 224.225, 76.775 224, 76.500 224 C 76.225 224, 76 224.225, 76 224.500" stroke="none" fill="#5095d0" fill-rule="evenodd"/></svg>