<svg xmlns="http://www.w3.org/2000/svg" width="1712" height="2048" viewBox="0 0 1712 2048" version="1.1"><path d="M 116.256 420.277 L 64.012 443.500 64.013 1028 L 64.014 1612.500 115.257 1635.217 C 143.441 1647.712, 167.287 1658.222, 168.250 1658.574 C 169.915 1659.183, 170 1628.738, 170 1028.107 C 170 680.998, 169.662 397.012, 169.250 397.027 C 168.838 397.042, 144.990 407.504, 116.256 420.277 M 704.813 595.359 C 626.336 617.436, 562.436 635.765, 562.813 636.089 C 563.191 636.413, 585.100 640.158, 611.500 644.411 C 637.900 648.664, 702.336 659.111, 754.691 667.627 L 849.881 683.109 992.191 660.032 C 1070.461 647.340, 1134.881 636.838, 1135.346 636.695 C 1135.811 636.553, 1071.461 618.472, 992.346 596.515 C 913.231 574.559, 848.275 556.285, 848 555.906 C 847.725 555.527, 783.291 573.281, 704.813 595.359 M 707.756 1395.325 C 630.346 1409.721, 567.013 1421.725, 567.014 1422 C 567.016 1422.275, 630.351 1438.386, 707.758 1457.802 L 848.500 1493.104 988.500 1458.017 C 1065.500 1438.719, 1129.318 1422.599, 1130.318 1422.195 C 1131.410 1421.754, 1076.527 1411.151, 992.818 1395.631 C 916.193 1381.424, 852.375 1369.655, 851 1369.476 C 849.625 1369.297, 785.165 1380.929, 707.756 1395.325" stroke="none" fill="#570d05" fill-rule="evenodd"/><path d="M 703.258 139.826 L 560.015 215.500 560.258 425.917 C 560.463 604.450, 560.710 636.404, 561.889 636.796 C 562.653 637.051, 563.036 636.864, 562.740 636.380 C 562.444 635.896, 626.394 617.438, 704.851 595.362 L 847.500 555.225 847.752 309.612 C 847.891 174.526, 847.666 64.034, 847.252 64.076 C 846.838 64.117, 782.041 98.205, 703.258 139.826 M 1320.500 417.421 L 1136.500 438.598 1136.245 537.799 C 1136.075 604.055, 1135.653 637, 1134.976 637 C 1134.418 637, 1070.196 647.350, 992.261 660 C 914.327 672.650, 850.210 683, 849.781 683 C 849.351 683, 849 706.175, 849 734.500 C 849 763.471, 848.615 786, 848.120 786 C 847.637 786, 783.130 792.975, 704.773 801.500 C 626.416 810.025, 562.011 817, 561.651 817 C 561.290 817, 561.109 911.369, 561.248 1026.709 L 561.500 1236.419 703 1252.654 C 780.825 1261.584, 845.513 1268.915, 846.750 1268.945 L 849 1269 849 1318.892 L 849 1368.783 851.250 1369.307 C 852.487 1369.595, 916.148 1381.439, 992.717 1395.627 C 1076.654 1411.180, 1131.450 1421.762, 1130.717 1422.277 C 1129.999 1422.781, 1130.524 1422.852, 1132 1422.450 C 1133.375 1422.076, 1134.950 1421.709, 1135.500 1421.635 C 1136.159 1421.546, 1136.588 1454.891, 1136.757 1519.500 L 1137.014 1617.500 1323.757 1638.799 C 1426.466 1650.514, 1510.838 1660.077, 1511.250 1660.049 C 1511.662 1660.022, 1512 1375.600, 1512 1028 L 1512 396 1508.250 396.122 C 1506.188 396.189, 1421.700 405.774, 1320.500 417.421 M 170.497 1028 C 170.497 1375.325, 170.611 1517.413, 170.750 1343.750 C 170.889 1170.088, 170.889 885.913, 170.750 712.250 C 170.611 538.588, 170.497 680.675, 170.497 1028 M 849 1027.500 L 849 1269 851.750 1268.933 C 853.263 1268.897, 917.950 1261.581, 995.500 1252.675 L 1136.500 1236.484 1136.752 1026.742 C 1136.891 911.384, 1136.847 817, 1136.654 817 C 1136.462 817, 1072.223 810.026, 993.902 801.502 C 915.581 792.978, 850.938 786.003, 850.250 786.002 C 849.253 786, 849 834.966, 849 1027.500 M 561 1627.635 L 561 1833.770 704.533 1908.885 C 783.476 1950.198, 848.276 1984, 848.533 1984 C 848.790 1984, 849 1873.594, 849 1738.654 L 849 1493.308 745.250 1467.201 C 688.188 1452.842, 624.850 1436.948, 604.500 1431.881 C 584.150 1426.813, 567.275 1422.389, 567 1422.050 C 566.725 1421.711, 565.263 1421.448, 563.750 1421.467 L 561 1421.500 561 1627.635" stroke="none" fill="#7c170b" fill-rule="evenodd"/><path d="M 848 309.849 C 848 543.283, 848.089 555.892, 849.750 556.391 C 850.712 556.680, 914.832 574.497, 992.238 595.985 C 1069.643 617.472, 1133.656 635.314, 1134.488 635.634 C 1135.834 636.150, 1135.999 613.193, 1135.995 425.857 L 1135.989 215.500 992.943 140 C 914.267 98.475, 849.469 64.350, 848.948 64.167 C 848.352 63.957, 848 155.264, 848 309.849 M 170.500 1027.647 C 170.500 1449.464, 170.834 1660.905, 171.500 1660.671 C 172.050 1660.478, 259.912 1638.345, 366.750 1611.486 L 561 1562.653 561 1491.767 C 561 1452.780, 561.372 1421.112, 561.826 1421.392 C 562.280 1421.673, 626.920 1410, 705.469 1395.451 C 784.019 1380.903, 848.447 1369, 848.643 1369 C 848.839 1369, 849 1346.577, 849 1319.170 L 849 1269.341 868.750 1267.096 C 879.612 1265.862, 944.300 1258.469, 1012.500 1250.669 L 1136.500 1236.487 1136.752 1026.744 C 1136.891 911.385, 1136.847 817, 1136.654 817 C 1136.462 817, 1072.223 810.026, 993.902 801.502 C 915.581 792.978, 850.938 786.003, 850.250 786.002 C 849.266 786, 849 775.074, 849 734.710 L 849 683.419 779.750 672.140 C 741.663 665.937, 677.200 655.481, 636.500 648.905 C 595.800 642.329, 561.938 636.749, 561.250 636.506 C 560.267 636.157, 560 621.798, 560 569.252 L 560 502.440 373.750 450.682 C 271.313 422.215, 183.675 397.877, 179 396.598 L 170.500 394.271 170.500 1027.647 M 1512 1028 C 1512 1404.027, 1512.366 1660.032, 1512.904 1659.833 C 1513.400 1659.650, 1543.998 1642.625, 1580.899 1622 L 1647.991 1584.500 1647.991 1028 L 1647.991 471.500 1580.899 434 C 1543.998 413.375, 1513.400 396.350, 1512.904 396.167 C 1512.366 395.968, 1512 651.973, 1512 1028 M 703.500 801.570 C 626.500 810.019, 562.936 816.948, 562.248 816.966 C 561.248 816.993, 561.046 859.279, 561.248 1026.709 L 561.500 1236.419 703 1252.654 C 780.825 1261.584, 845.513 1268.915, 846.750 1268.945 L 849 1269 849 1027.500 L 849 786 846.250 786.104 C 844.737 786.161, 780.500 793.121, 703.500 801.570 M 992.250 1457.422 L 849 1493.454 849 1738.810 C 849 1883.318, 849.369 1984.030, 849.898 1983.833 C 850.391 1983.650, 915.191 1949.795, 993.898 1908.599 L 1137 1833.699 1137 1627.908 C 1137 1514.724, 1136.662 1421.954, 1136.250 1421.754 C 1135.838 1421.554, 1071.037 1437.604, 992.250 1457.422" stroke="none" fill="#e35342" fill-rule="evenodd"/></svg>