<svg xmlns="http://www.w3.org/2000/svg" width="250" height="255" viewBox="0 0 250 255" version="1.1"><path d="M 72.543 45.453 C 60.466 53.360, 50.261 60.656, 49.863 61.665 C 49.466 62.674, 49.109 68.983, 49.070 75.685 L 49 87.870 38 96.500 L 27 105.130 27 128.026 C 27 154.455, 25.451 150.506, 40.250 161.798 L 49 168.474 49.015 180.487 C 49.024 188.155, 49.487 193.404, 50.293 195 C 52.111 198.595, 99.584 226.267, 102.400 225.373 C 103.521 225.017, 108.839 222.113, 114.219 218.918 L 124 213.110 133.781 218.918 C 139.161 222.113, 144.479 225.017, 145.600 225.373 C 148.416 226.267, 195.889 198.595, 197.707 195 C 198.513 193.404, 198.976 188.155, 198.985 180.487 L 199 168.474 207.750 161.798 C 222.549 150.506, 221 154.455, 221 128.026 L 221 105.130 210 96.500 L 199 87.870 198.986 76.185 C 198.979 69.758, 198.705 63.500, 198.377 62.277 C 197.710 59.789, 154.509 31, 151.442 31 C 150.474 31, 144.118 34.600, 137.318 39 C 130.518 43.400, 124.525 47, 124 47 C 123.475 47, 117.482 43.400, 110.682 39 C 103.882 34.600, 97.459 31.017, 96.409 31.037 C 95.359 31.058, 84.619 37.545, 72.543 45.453 M 90.250 48.493 L 85 52.053 85 67.416 C 85 80.752, 84.761 83.073, 83.190 85.014 C 81.218 87.449, 76.626 88.023, 74.675 86.079 C 73.961 85.368, 73.304 80.014, 73 72.441 L 72.500 59.974 67.250 63.513 L 62 67.053 62 77.345 L 62 87.638 70.278 93.319 C 74.831 96.443, 78.881 99, 79.278 99 C 79.675 99, 83.375 97.112, 87.500 94.805 L 95 90.610 95 78.760 C 95 67.511, 95.125 66.784, 97.455 64.455 C 100.408 61.501, 102.020 61.386, 105.139 63.909 C 107.387 65.727, 107.513 66.482, 107.775 79.659 C 107.971 89.518, 107.676 94.219, 106.753 96 C 105.983 97.484, 101.301 100.889, 95.228 104.380 L 85 110.260 85 119.121 L 85 127.982 94.872 132.936 C 100.301 135.660, 105.026 138.626, 105.372 139.527 C 105.717 140.427, 106 145.419, 106 150.621 L 106 160.078 111.988 156.789 L 117.976 153.500 117.988 144.840 L 118 136.179 111.450 132.043 C 104.709 127.785, 102.724 124.982, 103.984 121.500 C 104.856 119.094, 108.531 117.053, 110.834 117.697 C 111.750 117.953, 116.325 120.714, 121 123.831 L 129.500 129.500 129.771 149.250 L 130.042 169 137.771 168.968 C 142.977 168.947, 146.134 168.457, 147.441 167.468 C 149.690 165.767, 155.266 165.537, 158.055 167.030 C 160.925 168.566, 163.277 173.756, 162.507 176.858 C 160.811 183.695, 153.558 186.707, 147.459 183.108 C 144.749 181.509, 142.208 181, 136.943 181 L 130 181 130 191.761 L 130 202.521 138.053 207.347 C 143.179 210.419, 146.717 211.939, 147.788 211.528 C 148.713 211.173, 157.688 206.071, 167.734 200.191 L 185.998 189.500 185.999 177.797 C 185.999 171.360, 186.486 165.060, 187.080 163.797 C 187.675 162.534, 190.557 159.700, 193.485 157.500 C 196.413 155.300, 198.627 153.205, 198.404 152.845 C 197.217 150.924, 187.989 146.578, 184.732 146.405 C 174.994 145.891, 170.837 136.259, 177.608 129.898 C 182.377 125.419, 191.538 127.819, 193.521 134.067 C 193.990 135.544, 206.678 144, 208.425 144 C 208.741 144, 209 136.621, 209 127.602 L 209 111.204 198.122 102.640 C 192.139 97.930, 186.964 93.348, 186.622 92.457 C 186.280 91.565, 186 89.073, 186 86.918 L 186 83 173.250 83.032 C 163.626 83.056, 160.024 83.424, 158.559 84.532 C 155.762 86.647, 149.741 86.371, 146.712 83.988 C 141.640 79.998, 142.404 71.394, 148.091 68.453 C 151.910 66.478, 154.932 66.637, 158.500 69 C 161.082 70.710, 163.207 70.988, 173.750 70.993 C 185.407 71, 186 70.902, 186 68.964 C 186 67.436, 181.950 64.281, 169.750 56.306 C 160.813 50.463, 152.825 45.514, 152 45.308 C 151.175 45.102, 145.887 47.914, 140.250 51.557 L 130 58.181 130.023 79.841 L 130.046 101.500 137.078 105.455 C 141.840 108.134, 145.425 109.444, 148.188 109.513 C 151.479 109.596, 152.842 110.259, 155.242 112.945 C 157.706 115.702, 158.121 116.868, 157.657 119.727 C 156.958 124.032, 155.418 125.926, 151.173 127.700 C 148.219 128.935, 147.434 128.890, 144.173 127.296 C 142.153 126.308, 139.921 124.279, 139.213 122.787 C 138.382 121.034, 134.619 118.127, 128.585 114.576 C 123.447 111.552, 118.964 108.349, 118.622 107.457 C 118.280 106.566, 118 95.119, 118 82.021 L 118 58.206 108.391 51.981 C 103.105 48.557, 98.043 45.571, 97.141 45.344 C 96.238 45.118, 93.138 46.535, 90.250 48.493 M 47.250 104.638 L 39 111.173 39 116.087 C 39 118.789, 39.246 121, 39.547 121 C 39.847 121, 43.604 118.975, 47.895 116.500 C 52.186 114.025, 56.340 112, 57.126 112 C 60.005 112, 63 115.062, 63 118.006 C 63 121.429, 60.602 123.411, 47.757 130.604 L 39.013 135.500 39.007 140.506 L 39 145.512 49.171 153.436 L 59.343 161.360 62.921 159.379 C 64.890 158.289, 69.301 155.846, 72.724 153.949 C 78.651 150.664, 79.080 150.573, 81.724 152.031 C 84.565 153.598, 85.893 158.173, 84.238 160.691 C 83.807 161.347, 78.740 164.554, 72.977 167.820 L 62.500 173.756 62.213 181.658 L 61.926 189.560 69.690 194.030 C 73.960 196.489, 77.806 198.651, 78.236 198.836 C 78.666 199.021, 83.891 196.434, 89.846 193.086 C 101.873 186.326, 105.092 185.684, 107.619 189.541 C 109.890 193.007, 108.309 196.270, 102.764 199.568 C 100.419 200.963, 96.772 203.129, 94.659 204.382 L 90.819 206.660 96.229 209.493 L 101.640 212.326 109.820 207.423 L 118 202.521 118 185.261 C 118 175.767, 117.760 168, 117.466 168 C 117.172 168, 108.862 172.500, 99 178 C 89.138 183.500, 79.998 188, 78.689 188 C 75.650 188, 73 185.084, 73 181.739 C 73 178.767, 74.703 177.399, 86.250 171.092 L 94 166.860 94 156.422 L 94 145.984 86.687 142.365 L 79.374 138.747 70.459 144.498 C 60.780 150.742, 57.598 151.457, 54.810 148.014 C 51.273 143.646, 52.993 141.131, 64.453 133.913 L 73 128.530 73 119.314 L 73 110.098 64.489 104.049 C 59.807 100.722, 55.870 98.023, 55.739 98.051 C 55.607 98.079, 51.788 101.043, 47.250 104.638" stroke="none" fill="#ffffff" fill-rule="evenodd"/><path d="M 0 127.504 L 0 255.008 125.250 254.754 L 250.500 254.500 250.754 127.250 L 251.008 0 125.504 0 L 0 0 0 127.504 M 0.485 128 C 0.485 198.125, 0.604 226.813, 0.750 191.750 C 0.896 156.688, 0.896 99.313, 0.750 64.250 C 0.604 29.188, 0.485 57.875, 0.485 128 M 72.543 45.453 C 60.466 53.360, 50.261 60.656, 49.863 61.665 C 49.466 62.674, 49.109 68.983, 49.070 75.685 L 49 87.870 38 96.500 L 27 105.130 27 128.026 C 27 154.455, 25.451 150.506, 40.250 161.798 L 49 168.474 49.015 180.487 C 49.024 188.155, 49.487 193.404, 50.293 195 C 52.111 198.595, 99.584 226.267, 102.400 225.373 C 103.521 225.017, 108.839 222.113, 114.219 218.918 L 124 213.110 133.781 218.918 C 139.161 222.113, 144.479 225.017, 145.600 225.373 C 148.416 226.267, 195.889 198.595, 197.707 195 C 198.513 193.404, 198.976 188.155, 198.985 180.487 L 199 168.474 207.750 161.798 C 222.549 150.506, 221 154.455, 221 128.026 L 221 105.130 210 96.500 L 199 87.870 198.986 76.185 C 198.979 69.758, 198.705 63.500, 198.377 62.277 C 197.710 59.789, 154.509 31, 151.442 31 C 150.474 31, 144.118 34.600, 137.318 39 C 130.518 43.400, 124.525 47, 124 47 C 123.475 47, 117.482 43.400, 110.682 39 C 103.882 34.600, 97.459 31.017, 96.409 31.037 C 95.359 31.058, 84.619 37.545, 72.543 45.453 M 90.250 48.493 L 85 52.053 85 67.416 C 85 80.752, 84.761 83.073, 83.190 85.014 C 81.218 87.449, 76.626 88.023, 74.675 86.079 C 73.961 85.368, 73.304 80.014, 73 72.441 L 72.500 59.974 67.250 63.513 L 62 67.053 62 77.345 L 62 87.638 70.278 93.319 C 74.831 96.443, 78.881 99, 79.278 99 C 79.675 99, 83.375 97.112, 87.500 94.805 L 95 90.610 95 78.760 C 95 67.511, 95.125 66.784, 97.455 64.455 C 100.408 61.501, 102.020 61.386, 105.139 63.909 C 107.387 65.727, 107.513 66.482, 107.775 79.659 C 107.971 89.518, 107.676 94.219, 106.753 96 C 105.983 97.484, 101.301 100.889, 95.228 104.380 L 85 110.260 85 119.121 L 85 127.982 94.872 132.936 C 100.301 135.660, 105.026 138.626, 105.372 139.527 C 105.717 140.427, 106 145.419, 106 150.621 L 106 160.078 111.988 156.789 L 117.976 153.500 117.988 144.840 L 118 136.179 111.450 132.043 C 104.709 127.785, 102.724 124.982, 103.984 121.500 C 104.856 119.094, 108.531 117.053, 110.834 117.697 C 111.750 117.953, 116.325 120.714, 121 123.831 L 129.500 129.500 129.771 149.250 L 130.042 169 137.771 168.968 C 142.977 168.947, 146.134 168.457, 147.441 167.468 C 149.690 165.767, 155.266 165.537, 158.055 167.030 C 160.925 168.566, 163.277 173.756, 162.507 176.858 C 160.811 183.695, 153.558 186.707, 147.459 183.108 C 144.749 181.509, 142.208 181, 136.943 181 L 130 181 130 191.761 L 130 202.521 138.053 207.347 C 143.179 210.419, 146.717 211.939, 147.788 211.528 C 148.713 211.173, 157.688 206.071, 167.734 200.191 L 185.998 189.500 185.999 177.797 C 185.999 171.360, 186.486 165.060, 187.080 163.797 C 187.675 162.534, 190.557 159.700, 193.485 157.500 C 196.413 155.300, 198.627 153.205, 198.404 152.845 C 197.217 150.924, 187.989 146.578, 184.732 146.405 C 174.994 145.891, 170.837 136.259, 177.608 129.898 C 182.377 125.419, 191.538 127.819, 193.521 134.067 C 193.990 135.544, 206.678 144, 208.425 144 C 208.741 144, 209 136.621, 209 127.602 L 209 111.204 198.122 102.640 C 192.139 97.930, 186.964 93.348, 186.622 92.457 C 186.280 91.565, 186 89.073, 186 86.918 L 186 83 173.250 83.032 C 163.626 83.056, 160.024 83.424, 158.559 84.532 C 155.762 86.647, 149.741 86.371, 146.712 83.988 C 141.640 79.998, 142.404 71.394, 148.091 68.453 C 151.910 66.478, 154.932 66.637, 158.500 69 C 161.082 70.710, 163.207 70.988, 173.750 70.993 C 185.407 71, 186 70.902, 186 68.964 C 186 67.436, 181.950 64.281, 169.750 56.306 C 160.813 50.463, 152.825 45.514, 152 45.308 C 151.175 45.102, 145.887 47.914, 140.250 51.557 L 130 58.181 130.023 79.841 L 130.046 101.500 137.078 105.455 C 141.840 108.134, 145.425 109.444, 148.188 109.513 C 151.479 109.596, 152.842 110.259, 155.242 112.945 C 157.706 115.702, 158.121 116.868, 157.657 119.727 C 156.958 124.032, 155.418 125.926, 151.173 127.700 C 148.219 128.935, 147.434 128.890, 144.173 127.296 C 142.153 126.308, 139.921 124.279, 139.213 122.787 C 138.382 121.034, 134.619 118.127, 128.585 114.576 C 123.447 111.552, 118.964 108.349, 118.622 107.457 C 118.280 106.566, 118 95.119, 118 82.021 L 118 58.206 108.391 51.981 C 103.105 48.557, 98.043 45.571, 97.141 45.344 C 96.238 45.118, 93.138 46.535, 90.250 48.493 M 47.250 104.638 L 39 111.173 39 116.087 C 39 118.789, 39.246 121, 39.547 121 C 39.847 121, 43.604 118.975, 47.895 116.500 C 52.186 114.025, 56.340 112, 57.126 112 C 60.005 112, 63 115.062, 63 118.006 C 63 121.429, 60.602 123.411, 47.757 130.604 L 39.013 135.500 39.007 140.506 L 39 145.512 49.171 153.436 L 59.343 161.360 62.921 159.379 C 64.890 158.289, 69.301 155.846, 72.724 153.949 C 78.651 150.664, 79.080 150.573, 81.724 152.031 C 84.565 153.598, 85.893 158.173, 84.238 160.691 C 83.807 161.347, 78.740 164.554, 72.977 167.820 L 62.500 173.756 62.213 181.658 L 61.926 189.560 69.690 194.030 C 73.960 196.489, 77.806 198.651, 78.236 198.836 C 78.666 199.021, 83.891 196.434, 89.846 193.086 C 101.873 186.326, 105.092 185.684, 107.619 189.541 C 109.890 193.007, 108.309 196.270, 102.764 199.568 C 100.419 200.963, 96.772 203.129, 94.659 204.382 L 90.819 206.660 96.229 209.493 L 101.640 212.326 109.820 207.423 L 118 202.521 118 185.261 C 118 175.767, 117.760 168, 117.466 168 C 117.172 168, 108.862 172.500, 99 178 C 89.138 183.500, 79.998 188, 78.689 188 C 75.650 188, 73 185.084, 73 181.739 C 73 178.767, 74.703 177.399, 86.250 171.092 L 94 166.860 94 156.422 L 94 145.984 86.687 142.365 L 79.374 138.747 70.459 144.498 C 60.780 150.742, 57.598 151.457, 54.810 148.014 C 51.273 143.646, 52.993 141.131, 64.453 133.913 L 73 128.530 73 119.314 L 73 110.098 64.489 104.049 C 59.807 100.722, 55.870 98.023, 55.739 98.051 C 55.607 98.079, 51.788 101.043, 47.250 104.638" stroke="none" fill="#a266ff" fill-rule="evenodd"/></svg>