<svg xmlns="http://www.w3.org/2000/svg" width="1200" height="1200" viewBox="0 0 1200 1200" version="1.1"><path d="M 588.385 195.617 C 582.673 197.643, 576.976 202.808, 573.468 209.141 L 570.500 214.500 570 251.068 L 569.500 287.637 575.341 285.818 C 584.477 282.973, 597.651 281.824, 607.750 282.993 C 615.822 283.926, 625.656 286.050, 627.661 287.292 C 628.122 287.578, 628.275 271.091, 628 250.656 L 627.500 213.500 624.788 208.887 C 621.544 203.368, 616.123 198.415, 610.565 195.890 C 605.590 193.631, 594.376 193.493, 588.385 195.617 M 672.214 418.555 C 659.399 439.468, 632.747 455.525, 607.280 457.678 C 603.276 458.017, 600.009 458.565, 600.021 458.897 C 600.032 459.229, 620.236 501.014, 644.920 551.753 C 669.603 602.493, 689.448 644.223, 689.020 644.488 C 688.592 644.752, 681.775 646.556, 673.871 648.498 C 629.374 659.425, 580.264 660.145, 534.495 650.540 C 523.916 648.320, 509 644.258, 509 643.597 C 509 643.422, 529.192 601.704, 553.870 550.890 L 598.741 458.500 591.620 457.771 C 565.976 455.144, 543.309 442.454, 529 422.713 C 525.975 418.540, 523.237 415.097, 522.916 415.063 C 522.595 415.028, 501.514 457.862, 476.070 510.250 C 450.626 562.638, 429.624 605.690, 429.398 605.923 C 428.751 606.590, 416.509 597.926, 404.532 588.324 C 383.464 571.434, 362.490 548.956, 345.930 525.522 C 338.366 514.818, 337.085 513.639, 330.871 511.672 C 326.608 510.322, 321.248 513.502, 294.174 533.443 C 278.699 544.840, 264.905 555.513, 263.519 557.160 C 261.516 559.540, 261 561.246, 261 565.489 C 261 570.564, 261.396 571.378, 269.099 582.162 C 298.099 622.759, 332.361 656.195, 373.250 683.802 C 380.812 688.908, 387 693.229, 387 693.404 C 387 693.579, 380.437 707.173, 372.414 723.611 C 330.405 809.698, 318.123 835.806, 316.486 842.500 C 315.164 847.911, 314.601 856.748, 314.008 881.426 C 313.586 898.985, 313.589 914.566, 314.014 916.049 C 316.711 925.454, 327.443 930.607, 336.206 926.705 C 339.798 925.106, 383.893 888.924, 388.992 883.393 C 391.190 881.009, 394.485 876.682, 396.314 873.779 C 398.143 870.876, 414.598 837.686, 432.879 800.024 C 451.160 762.363, 466.266 731.401, 466.447 731.220 C 466.627 731.039, 472.788 732.693, 480.138 734.895 C 545.696 754.540, 609.430 758.125, 675.500 745.883 C 688.661 743.445, 713.603 737.090, 723.944 733.542 C 728.038 732.137, 731.712 731.328, 732.109 731.744 C 732.506 732.160, 747.780 763.325, 766.052 801 C 784.324 838.675, 800.760 871.750, 802.577 874.500 C 804.395 877.250, 807.683 881.369, 809.885 883.653 C 815.457 889.434, 858.146 924.507, 862.096 926.549 C 869.343 930.297, 879.715 926.336, 883.491 918.377 C 885.145 914.891, 885.195 912.368, 884.235 880.571 C 883.043 841.122, 883.198 841.910, 872.098 818.700 C 868.363 810.890, 822.778 716.975, 770.798 610 C 718.818 503.025, 676.111 414.981, 675.894 414.346 C 675.677 413.712, 674.021 415.606, 672.214 418.555" stroke="none" fill="#4086f4" fill-rule="evenodd"/><path d="M 588.259 283.061 C 567.414 285.603, 545.437 297.866, 531.444 314.762 C 525.235 322.259, 516.870 338.307, 514.380 347.500 C 512.214 355.493, 511.392 378.224, 512.976 386.313 C 515.716 400.305, 521.756 413.649, 530.276 424.539 C 559.752 462.210, 614.729 468.980, 652.824 439.630 C 663.936 431.068, 671.400 421.632, 678.031 407.759 C 684.099 395.067, 686.193 385.745, 686.289 371 C 686.446 346.828, 679.008 327.772, 662.547 310.175 C 654.866 301.963, 646.504 296.048, 634.852 290.584 C 620.372 283.793, 603.972 281.145, 588.259 283.061 M 583.772 324.345 C 563.711 331.181, 550.935 348.892, 550.907 369.905 C 550.881 389.200, 561.029 405.526, 578.276 413.935 C 607.342 428.106, 642.207 409.400, 647.141 376.987 C 649.145 363.821, 644.782 349.136, 635.715 338.528 C 623.436 324.163, 601.711 318.231, 583.772 324.345 M 51.079 566.292 C 50.867 576.448, 56.310 594.486, 67.361 620.244 C 75.604 639.456, 81.025 655.468, 83.359 667.500 C 84.213 671.900, 85.132 676.625, 85.403 678 C 85.673 679.375, 85.686 677.198, 85.432 673.163 C 84.391 656.641, 78.559 636.330, 67.363 610.244 C 59.397 591.680, 54.566 578.149, 52.472 568.533 C 51.304 563.165, 51.150 562.918, 51.079 566.292 M 1147.640 567.489 C 1146.296 575.530, 1140.775 591.281, 1132.731 610.023 C 1121.451 636.308, 1115.810 655.773, 1114.567 672.700 C 1114.017 680.192, 1114.336 679.383, 1116.619 667.500 C 1118.884 655.710, 1124.299 639.733, 1132.717 620 C 1144.073 593.380, 1149.673 574.531, 1148.807 565.848 C 1148.502 562.790, 1148.401 562.933, 1147.640 567.489 M 78.482 795.080 C 79.221 804.109, 81.422 812.141, 85.559 820.911 C 93.060 836.815, 104.262 849.047, 129 868.348 C 168.538 899.196, 184.216 922.823, 202.425 979 C 219.312 1031.100, 238.142 1047.838, 291.998 1058.624 C 332.179 1066.671, 349.500 1072.835, 371 1086.737 C 383.417 1094.767, 391.793 1101.705, 407.500 1116.971 C 425.243 1134.217, 432.554 1140.489, 442.293 1146.821 C 455.458 1155.382, 467.122 1158.942, 484.500 1159.706 C 498.076 1160.302, 507.545 1158.925, 525 1153.813 C 530.775 1152.121, 540.675 1149.214, 547 1147.352 C 585.852 1135.912, 617.565 1136.531, 660.394 1149.567 C 686.260 1157.440, 694.208 1159.095, 709 1159.688 C 720.496 1160.148, 723.793 1159.919, 731.209 1158.143 C 751.644 1153.249, 762.705 1145.828, 792.538 1117 C 815.906 1094.419, 830.895 1083.640, 851.435 1074.644 C 865.560 1068.459, 878.163 1064.831, 904.152 1059.469 C 936 1052.898, 951.578 1046.801, 965.174 1035.587 C 979.481 1023.785, 987.778 1008.769, 999.479 973.500 C 1011.372 937.651, 1022.548 916.341, 1039.952 896.332 C 1047.283 887.904, 1057.405 878.942, 1075.221 865.103 C 1105.376 841.682, 1119.448 820.388, 1121.522 795.045 L 1122.057 788.500 1120.037 796 C 1114.065 818.169, 1101.011 834.669, 1070.997 857.985 C 1031.899 888.356, 1016.964 910.584, 998.869 965.335 C 988.810 995.767, 983.418 1006.453, 972.144 1018.303 C 957.273 1033.932, 940.140 1041.728, 905.825 1048.478 C 867.541 1056.009, 848.488 1063.052, 826.447 1077.818 C 815.065 1085.443, 806.563 1092.738, 785.930 1112.580 C 756.181 1141.189, 739.883 1149.333, 712.500 1149.274 C 698.016 1149.243, 687.879 1147.284, 662.373 1139.589 C 636.176 1131.685, 625.820 1129.812, 605.182 1129.245 C 579.566 1128.542, 565.896 1130.706, 534.593 1140.417 C 498.699 1151.553, 478.560 1152.341, 455.985 1143.494 C 443.202 1138.485, 432.726 1130.689, 413 1111.509 C 388.761 1087.941, 374.227 1076.662, 356.811 1067.905 C 339.074 1058.987, 326.601 1055.091, 295 1048.600 C 258.509 1041.104, 242.811 1034.021, 227.856 1018.303 C 216.582 1006.453, 211.190 995.767, 201.131 965.335 C 183.036 910.584, 168.101 888.356, 129.003 857.985 C 98.989 834.669, 85.935 818.169, 79.963 796 L 77.943 788.500 78.482 795.080" stroke="none" fill="#012c40" fill-rule="evenodd"/><path d="M 898.729 471.250 C 895.198 476.337, 887.733 487.363, 882.139 495.750 C 876.545 504.137, 871.764 511, 871.515 511 C 871.266 511, 868.011 509.031, 864.281 506.625 C 823.372 480.233, 771.055 473.330, 724.176 488.139 C 715.905 490.752, 713.956 491.724, 714.306 493.060 C 714.545 493.976, 747.979 563.140, 788.603 646.759 L 862.465 798.791 870.982 792.934 C 912.334 764.496, 938.584 720.667, 943.899 671.187 C 944.390 666.615, 945.032 662.635, 945.326 662.341 C 945.619 662.048, 958.554 662.733, 974.069 663.864 C 1003.247 665.992, 1004.913 665.900, 1006.977 662.043 C 1008.286 659.597, 1006.767 655.372, 1004.307 654.615 C 1003.313 654.310, 989.693 653.127, 974.040 651.987 C 958.387 650.847, 945.446 649.779, 945.282 649.615 C 945.117 649.451, 944.549 644.764, 944.019 639.201 C 939.879 595.750, 918.696 552.579, 887.827 524.683 L 880.979 518.495 897.489 494.076 C 906.570 480.646, 914 468.679, 914 467.484 C 914 464.631, 911 462, 907.746 462 C 905.600 462, 904.034 463.606, 898.729 471.250 M 803.256 534.645 C 796.452 537.999, 793.829 547.928, 797.960 554.701 C 803.934 564.500, 819.407 562.385, 823.076 551.270 C 826.921 539.619, 814.426 529.138, 803.256 534.645 M 872.121 675.710 C 865.335 679.053, 862.538 687.349, 865.874 694.239 C 872.315 707.546, 892.333 703.374, 892.333 688.725 C 892.333 682.983, 889.520 678.430, 884.456 675.979 C 879.503 673.581, 876.572 673.517, 872.121 675.710" stroke="none" fill="#3add85" fill-rule="evenodd"/><path d="M 588.614 51.037 C 572.945 53.500, 554.660 61.580, 531.006 76.494 C 510.292 89.553, 491.726 97.509, 472.971 101.363 C 457.250 104.593, 447.546 105.120, 409 104.842 C 371.722 104.573, 370.246 104.635, 362.500 106.805 C 342.497 112.408, 322.552 125.953, 311.516 141.430 C 309.135 144.768, 302.214 155.722, 296.135 165.772 C 283.688 186.350, 278.797 193.063, 268.012 204.370 C 249.737 223.530, 227.410 238.783, 200.393 250.566 C 170.849 263.451, 156.930 273.068, 147.062 287.410 C 136.239 303.141, 130.911 322.229, 127.500 357.500 C 122.080 413.545, 113.031 437.370, 81.541 478.500 C 60.456 506.041, 53.177 520.850, 50.825 541 C 48.819 558.183, 52.945 575.702, 66.488 607.500 C 75.531 628.732, 78.345 636.518, 81.411 648.788 C 86.270 668.238, 87.609 683.939, 86.090 703.632 C 85.092 716.564, 84.167 722.856, 79.351 749.500 C 77.045 762.258, 77.040 782.445, 79.341 792.311 C 85.053 816.794, 97.408 833.109, 128.500 857.224 C 167.988 887.851, 183.103 910.269, 201.430 965.387 C 208.800 987.553, 214.168 1000.023, 219.970 1008.457 C 228.117 1020.298, 238.454 1028.899, 253.025 1035.962 C 264.343 1041.449, 273.565 1044.131, 298 1049.041 C 349.267 1059.345, 371.351 1071.089, 410.299 1108.760 C 436.328 1133.937, 448.190 1141.880, 466.808 1146.603 C 474.063 1148.443, 478.919 1149, 487.721 1149 C 501.748 1149, 511.958 1147.032, 536.788 1139.540 C 558.952 1132.853, 570.704 1130.379, 587.350 1128.897 C 608.357 1127.026, 631.913 1129.995, 656.500 1137.614 C 684.114 1146.172, 693.635 1148.188, 709.023 1148.738 C 721.655 1149.190, 724.650 1148.979, 732.023 1147.123 C 751.101 1142.319, 763.786 1133.848, 790.445 1108.109 C 829.340 1070.557, 849.946 1059.754, 903.500 1048.836 C 934.238 1042.570, 948.680 1037.139, 962.707 1026.570 C 978.462 1014.700, 987.130 999.923, 998.482 965.588 C 1016.334 911.591, 1031.706 888.410, 1069 859.247 C 1100.418 834.680, 1111.029 822.117, 1117.893 801.365 C 1123.956 783.034, 1124.138 766.827, 1118.605 738 C 1114.787 718.107, 1113.685 707.606, 1113.623 690.500 C 1113.519 661.905, 1117.609 644.839, 1133.512 607.500 C 1142.428 586.566, 1146.292 574.626, 1148.559 561 C 1150.042 552.091, 1150.137 549.061, 1149.186 541 C 1146.837 521.076, 1139.095 505.312, 1118.506 478.522 C 1105.719 461.885, 1098.908 451.138, 1092.055 436.787 C 1080.119 411.792, 1075.244 391.191, 1071.549 350.121 C 1068.250 313.457, 1062.380 296.536, 1047.625 281.160 C 1036.703 269.778, 1025.845 262.897, 1000.127 251.058 C 972.611 238.392, 955.659 227.207, 937.293 209.600 C 923.755 196.621, 917.209 188.168, 905.528 168.575 C 890.122 142.735, 876.706 126.638, 862.925 117.459 C 854.719 111.993, 848.837 109.448, 838 106.675 C 829.873 104.595, 827.812 104.514, 791 104.810 C 752.401 105.121, 742.804 104.604, 727.029 101.363 C 708.504 97.557, 689.952 89.646, 669.500 76.833 C 646.984 62.727, 634.396 56.676, 619.831 52.957 C 610.633 50.609, 596.766 49.756, 588.614 51.037 M 588.385 195.617 C 582.673 197.643, 576.976 202.808, 573.468 209.141 L 570.500 214.500 570.203 250.741 L 569.907 286.982 562.363 290.468 C 539.118 301.208, 522.137 321.093, 514.340 346.703 C 511.961 354.519, 511.663 357.117, 511.671 370 C 511.682 386.338, 513.295 394.253, 519.252 407.198 L 522.612 414.500 476.371 509.500 C 450.938 561.750, 429.944 604.950, 429.716 605.500 C 428.613 608.167, 398.625 584.558, 381.469 567.515 C 367.482 553.621, 357.200 541.470, 345.917 525.503 C 341.517 519.277, 337.148 513.869, 336.208 513.487 C 331.726 511.663, 328.859 511.242, 325.724 511.949 C 321.908 512.810, 267.662 552.236, 263.519 557.160 C 261.516 559.540, 261 561.246, 261 565.489 C 261 570.564, 261.396 571.378, 269.099 582.162 C 298.099 622.759, 332.361 656.195, 373.250 683.802 C 380.813 688.908, 387 693.229, 387 693.404 C 387 693.579, 380.437 707.173, 372.414 723.611 C 330.405 809.698, 318.123 835.806, 316.486 842.500 C 315.164 847.911, 314.601 856.748, 314.008 881.426 C 313.586 898.985, 313.589 914.566, 314.014 916.049 C 316.711 925.454, 327.443 930.607, 336.206 926.705 C 339.798 925.106, 383.893 888.924, 388.992 883.393 C 391.190 881.009, 394.485 876.682, 396.314 873.779 C 398.143 870.876, 414.598 837.686, 432.879 800.024 C 451.160 762.363, 466.266 731.401, 466.447 731.220 C 466.627 731.039, 472.788 732.693, 480.138 734.895 C 545.696 754.540, 609.430 758.125, 675.500 745.883 C 688.661 743.445, 713.603 737.090, 723.944 733.542 C 728.038 732.137, 731.712 731.328, 732.109 731.744 C 732.506 732.160, 747.780 763.325, 766.052 801 C 784.324 838.675, 800.760 871.750, 802.577 874.500 C 804.395 877.250, 807.683 881.369, 809.885 883.653 C 815.457 889.434, 858.146 924.507, 862.096 926.549 C 869.343 930.297, 879.715 926.336, 883.491 918.377 C 885.145 914.891, 885.195 912.368, 884.235 880.571 C 883.030 840.687, 883.310 842.040, 870.911 816.191 C 866.560 807.120, 863 799.398, 863 799.030 C 863 798.662, 866.712 795.825, 871.250 792.726 C 912.125 764.811, 938.600 720.520, 943.899 671.187 C 944.390 666.615, 945.032 662.635, 945.326 662.341 C 945.619 662.048, 958.554 662.733, 974.069 663.864 C 1003.247 665.992, 1004.913 665.900, 1006.977 662.043 C 1008.286 659.597, 1006.767 655.372, 1004.307 654.615 C 1003.313 654.310, 989.693 653.127, 974.040 651.987 C 958.387 650.847, 945.446 649.779, 945.282 649.615 C 945.117 649.451, 944.549 644.764, 944.019 639.201 C 939.879 595.750, 918.696 552.579, 887.827 524.683 L 880.979 518.495 897.489 494.076 C 906.570 480.646, 914 468.679, 914 467.484 C 914 464.408, 910.730 461.786, 907.379 462.175 C 904.956 462.457, 902.461 465.645, 888.739 486 C 880.026 498.925, 872.530 509.867, 872.082 510.316 C 871.634 510.765, 868.170 509.134, 864.384 506.691 C 823.210 480.127, 770.265 473.222, 723.654 488.336 L 713.211 491.722 694.489 453.111 C 677.996 419.096, 675.891 414.202, 676.800 412 C 677.368 410.625, 678.989 406.746, 680.404 403.379 C 685.421 391.437, 686.492 385.537, 686.466 370 C 686.445 358.009, 686.049 354.115, 684.177 347.500 C 677.213 322.897, 660.665 302.952, 637.666 291.441 L 628.500 286.854 628 250.177 L 627.500 213.500 624.788 208.887 C 621.544 203.368, 616.123 198.415, 610.565 195.890 C 605.590 193.631, 594.376 193.493, 588.385 195.617 M 587 323.814 C 564.767 329.626, 549.516 350.854, 551.305 373.500 C 552.438 387.836, 558.843 399.883, 569.728 408.150 C 579.631 415.671, 585.312 417.451, 599.500 417.477 C 611.312 417.500, 611.622 417.442, 619.308 413.772 C 636.494 405.566, 647.040 389.098, 646.976 370.568 C 646.929 357.004, 643.097 347.384, 633.770 337.413 C 621.557 324.358, 604.214 319.315, 587 323.814 M 553.988 550.588 C 529.520 600.966, 509.359 642.565, 509.187 643.031 C 508.494 644.908, 535.394 651.381, 556.836 654.497 C 582.072 658.164, 618.879 657.992, 645.500 654.083 C 657.645 652.299, 686.771 645.878, 689.020 644.488 C 689.873 643.960, 600.615 459.705, 599.293 459.264 C 598.844 459.115, 578.457 500.210, 553.988 550.588 M 803.256 534.645 C 796.452 537.999, 793.829 547.928, 797.960 554.701 C 803.934 564.500, 819.407 562.385, 823.076 551.270 C 826.921 539.619, 814.426 529.138, 803.256 534.645 M 872.121 675.710 C 865.335 679.053, 862.538 687.349, 865.874 694.239 C 872.315 707.546, 892.333 703.374, 892.333 688.725 C 892.333 682.983, 889.520 678.430, 884.456 675.979 C 879.503 673.581, 876.572 673.517, 872.121 675.710" stroke="none" fill="#ffffff" fill-rule="evenodd"/></svg>