<svg xmlns="http://www.w3.org/2000/svg" width="664" height="376" viewBox="0 0 664 376" version="1.1"><path d="M 509.481 32.394 C 506.173 33.835, 500.875 39.407, 498.565 43.875 C 496.482 47.902, 494.640 56.191, 489.983 82.494 C 487.744 95.141, 485.594 105.800, 485.206 106.182 C 484.818 106.564, 472.125 110.770, 457 115.529 C 428.127 124.614, 419.253 128.431, 415.827 133.243 C 410.525 140.689, 411.805 148.953, 419.435 156.530 C 423.776 160.840, 427.191 162.758, 443.332 169.946 C 453.689 174.559, 462.719 178.333, 463.399 178.333 C 464.602 178.333, 489.221 162.902, 491.787 160.540 C 492.798 159.609, 488.546 157.581, 471.942 151.072 C 460.321 146.516, 451.192 142.415, 451.656 141.959 C 452.120 141.503, 461.950 138.150, 473.500 134.509 C 485.050 130.868, 497.239 127.002, 500.588 125.917 L 506.675 123.945 508.416 114.222 C 509.373 108.875, 511.595 96.494, 513.354 86.709 C 515.113 76.924, 516.990 68.869, 517.524 68.810 C 518.059 68.750, 524.348 78.439, 531.498 90.340 C 541.477 106.948, 544.965 111.981, 546.500 111.987 C 547.600 111.991, 552.775 110.846, 558 109.442 C 585.841 101.959, 601.345 98.011, 601.659 98.326 C 601.853 98.520, 593.459 108.744, 583.006 121.045 C 572.553 133.347, 564.006 144.107, 564.013 144.956 C 564.020 145.805, 569.373 156.625, 575.908 169 C 582.443 181.375, 587.403 191.645, 586.930 191.822 C 586.457 191.998, 577.504 189.786, 567.035 186.905 C 556.565 184.025, 547.729 181.937, 547.400 182.267 C 546.691 182.976, 550.849 208.208, 551.828 209.140 C 552.198 209.491, 561.725 212.609, 573 216.068 C 597.795 223.674, 604.859 224.344, 611.803 219.749 C 617.114 216.234, 620 210.658, 620 203.908 C 620 198.259, 619.083 196.228, 601.870 163.776 C 596.992 154.578, 593 146.325, 593 145.436 C 593 144.547, 600.742 134.748, 610.205 123.660 C 619.668 112.572, 629.566 100.966, 632.200 97.870 C 645.920 81.744, 643.031 69, 625.657 69 C 622.070 69, 610.129 71.693, 590.185 77 C 573.650 81.400, 559.677 85, 559.134 85 C 558.591 85, 552.463 75.579, 545.516 64.065 C 538.569 52.551, 531.527 41.414, 529.868 39.315 C 523.952 31.836, 516.538 29.319, 509.481 32.394" stroke="none" fill="#e25a1c" fill-rule="evenodd"/><path d="M 622.768 68.725 C 624.565 68.947, 627.265 68.943, 628.768 68.715 C 630.271 68.486, 628.800 68.304, 625.500 68.310 C 622.200 68.315, 620.971 68.502, 622.768 68.725 M 564.200 142.200 C 562.785 143.615, 562.616 146.644, 563.907 147.442 C 564.405 147.751, 564.577 147.100, 564.289 145.996 C 564 144.892, 564.322 143.317, 565.004 142.495 C 566.486 140.710, 565.903 140.497, 564.200 142.200 M 258.293 145.015 C 255.747 146.040, 253.566 149.362, 245.685 164.215 C 239.658 175.575, 239.105 177.443, 241.500 178.362 C 243.781 179.237, 246.175 178.070, 249.699 174.364 C 252.154 171.782, 253.721 171, 256.436 171 C 259.533 171, 260.155 171.435, 261.436 174.500 C 262.538 177.138, 263.496 178, 265.327 178 C 270.150 178, 270.374 176.271, 267.550 160.801 C 264.582 144.536, 263.608 142.876, 258.293 145.015 M 328.764 145.250 C 327.081 146.550, 321.785 174.240, 322.739 176.750 C 323 177.438, 324.461 178, 325.985 178 C 329.390 178, 330.550 176.620, 331.313 171.661 C 332.111 166.471, 333.571 165, 337.922 165 C 343.024 165, 343.931 166.269, 343.287 172.508 C 342.800 177.231, 342.961 177.853, 344.833 178.447 C 348.494 179.609, 350.819 177.448, 351.503 172.247 C 351.847 169.636, 352.945 163.007, 353.942 157.515 C 354.940 152.023, 355.538 146.961, 355.271 146.265 C 355.004 145.569, 353.275 145, 351.428 145 C 347.625 145, 346 147.055, 346 151.863 C 346 157.127, 340.972 159.661, 335.906 156.950 C 334.217 156.046, 334.034 155.227, 334.588 151.047 C 335.150 146.810, 334.972 146.055, 333.182 145.097 C 330.641 143.738, 330.726 143.735, 328.764 145.250 M 176.076 147.893 C 172.001 153.616, 160.928 175.369, 161.427 176.670 C 162.388 179.174, 167.133 178.113, 171.132 174.500 C 176.027 170.077, 179.182 169.966, 182.220 174.109 C 184.828 177.666, 188.796 179.604, 190.330 178.070 C 191.001 177.399, 190.917 174.657, 190.073 169.783 C 187.328 153.918, 185.929 147.620, 184.866 146.339 C 182.867 143.930, 178.326 144.733, 176.076 147.893 M 212.321 146.149 C 211.720 146.892, 210.263 153.125, 209.082 160 C 207.902 166.875, 206.710 173.240, 206.434 174.145 C 205.931 175.794, 208.332 179, 210.071 179 C 211.922 179, 215 174.941, 215 172.500 C 215 169.060, 218.342 166, 222.100 166 C 224.292 166, 226.196 165.004, 228.600 162.600 C 231.442 159.758, 232 158.474, 232 154.774 C 232 148.170, 228.920 145.674, 220.158 145.179 C 215.320 144.905, 213.104 145.180, 212.321 146.149 M 294.459 146.880 C 289.384 149.185, 285.379 153.880, 283.945 159.205 C 282.326 165.216, 283.552 169.787, 287.965 174.201 C 291.451 177.686, 292.222 178, 297.311 178 C 303.738 178, 306 176.395, 306 171.835 L 306 168.812 300.941 169.508 C 294.470 170.398, 292 168.536, 292 162.768 C 292 159.749, 292.686 158.160, 294.981 155.865 C 297.703 153.143, 298.464 152.910, 303.731 153.192 C 309.024 153.475, 309.526 153.318, 309.813 151.302 C 309.985 150.092, 309.631 148.180, 309.028 147.052 C 307.593 144.371, 300.174 144.284, 294.459 146.880 M 375.243 146.212 C 374.658 146.920, 373.875 149.300, 373.504 151.500 C 373.133 153.700, 371.965 160.151, 370.908 165.835 C 369.851 171.519, 369.241 176.582, 369.552 177.085 C 369.864 177.588, 373.861 178, 378.437 178 C 387.458 178, 389.424 177.017, 388.827 172.805 C 388.545 170.820, 387.840 170.458, 383.750 170.195 C 380.790 170.005, 379 169.421, 379 168.645 C 379 166.338, 381.208 165.159, 384.521 165.697 C 387.186 166.130, 388.027 165.818, 388.974 164.048 C 389.616 162.848, 390.011 160.353, 389.852 158.504 C 389.666 156.344, 390.204 154.432, 391.356 153.159 C 392.437 151.965, 393.021 150.048, 392.825 148.338 C 392.501 145.509, 392.475 145.499, 384.404 145.212 C 378.718 145.010, 375.991 145.308, 375.243 146.212 M 381.947 153.563 C 380.262 155.594, 382.084 157.426, 384.899 156.532 C 387.508 155.704, 387.586 154.384, 385.105 153.056 C 383.690 152.299, 382.890 152.428, 381.947 153.563 M 218.362 154.500 C 217.663 156.322, 218.577 159, 219.897 159 C 221.623 159, 223.928 155.977, 223.351 154.471 C 222.614 152.551, 219.102 152.572, 218.362 154.500 M 87.500 159.407 C 73.333 162.911, 59.375 174.393, 52.587 188.126 C 49.291 194.796, 48.861 196.532, 48.834 203.277 C 48.778 217.649, 52.511 224.285, 73.244 246.664 C 89.779 264.512, 92.204 267.908, 92.721 273.940 C 93.197 279.504, 90.925 283.593, 84.951 287.921 C 74.085 295.792, 60.613 291.346, 54.240 277.787 C 53.043 275.241, 51.627 272.887, 51.092 272.557 C 49.981 271.870, 25.799 284.332, 23.973 286.533 C 23.008 287.696, 23.485 289.490, 26.388 295.601 C 30.936 305.179, 34.720 309.977, 40.753 313.816 C 47.807 318.306, 56.012 320.385, 66.500 320.340 C 82.659 320.271, 94.970 315.701, 105.479 305.871 C 117.441 294.681, 124 281.075, 124 267.453 C 124 253.670, 119.787 246.575, 97.898 223.500 C 81.879 206.613, 79.010 202.923, 79.004 199.200 C 78.993 192.788, 86.112 187, 94.010 187 C 99.670 187, 102.848 188.911, 109.253 196.164 L 114.772 202.415 124.599 194.957 C 130.003 190.856, 135.454 186.923, 136.713 186.218 C 140.117 184.310, 139.525 181.594, 134.250 174.922 C 128.730 167.939, 119.955 161.658, 112.718 159.509 C 106.701 157.722, 94.511 157.673, 87.500 159.407 M 494 165.500 C 492.708 166.875, 491.091 168, 490.406 168 C 488.680 168, 477.268 174.286, 473.419 177.357 C 469.254 180.680, 469.160 181.219, 459.010 260 C 457.345 272.925, 455.049 290.570, 453.908 299.211 C 452.767 307.851, 452.122 315.389, 452.476 315.961 C 452.869 316.597, 458.344 317, 466.580 317 C 479.606 317, 480.072 316.927, 480.950 314.750 C 481.450 313.512, 482.830 304.850, 484.019 295.500 C 486.959 272.367, 488.979 259.646, 489.855 258.757 C 490.700 257.898, 492.892 260.971, 511.688 289.364 C 519.285 300.840, 526.784 311.752, 528.354 313.614 L 531.207 317 548.104 317 C 567.267 317, 567.923 316.662, 561.636 310.042 C 557.312 305.489, 513 243.345, 513 241.834 C 513 240.676, 516.948 236.229, 531.439 221.065 C 545.398 206.457, 545.551 206.056, 542.013 193.290 C 540.890 189.235, 540.280 184.852, 540.609 183.204 C 541.025 181.123, 540.757 180.121, 539.672 179.704 C 538.633 179.306, 535.242 182.345, 528.954 189.311 C 501.943 219.233, 494.515 226.885, 493.772 225.557 C 493.354 224.809, 493.656 220.441, 494.445 215.849 C 495.233 211.257, 496.347 203.225, 496.921 198 C 497.494 192.775, 498.644 184, 499.476 178.500 C 501.601 164.449, 501.526 163, 498.674 163 C 497.395 163, 495.292 164.125, 494 165.500 M 187.500 200.545 C 168.159 204.710, 149.129 219.468, 140.119 237.290 C 134.270 248.860, 133.314 253.817, 126.474 308 C 125.050 319.275, 123.202 333.393, 122.365 339.372 C 121.529 345.352, 121.217 350.603, 121.672 351.042 C 122.128 351.480, 127.804 351.987, 134.286 352.169 C 143.438 352.426, 146.260 352.195, 146.916 351.136 C 147.380 350.385, 148.315 344.760, 148.994 338.636 C 150.492 325.122, 152.679 312.921, 153.806 311.794 C 154.263 311.337, 158.036 312.533, 162.190 314.452 C 179.957 322.661, 200.746 321.106, 219.441 310.169 C 227.635 305.375, 240.758 292.068, 245.248 284 C 252.502 270.964, 253.510 267.015, 253.412 252 C 253.340 240.840, 252.954 237.487, 251.185 232.658 C 246.141 218.892, 233.011 206.309, 219.072 201.884 C 210.440 199.144, 196.710 198.562, 187.500 200.545 M 320.075 200.087 C 300.572 203.914, 282.327 217, 271.860 234.671 C 267.111 242.689, 262.997 256.920, 263.017 265.262 C 263.087 294.335, 280.758 315.205, 308.582 319.075 C 321.883 320.925, 342.053 316.620, 343.993 311.518 C 344.473 310.256, 345.359 304.787, 345.963 299.362 C 346.567 293.938, 347.329 287.813, 347.658 285.750 C 348.446 280.808, 347.266 280.899, 338.718 286.436 C 320.762 298.070, 300.809 292.976, 292.420 274.618 C 290.057 269.446, 289.802 267.907, 290.306 261.886 C 291.856 243.400, 307.346 227.861, 325.762 226.317 C 343.509 224.829, 355.570 235.789, 356.775 254.500 C 357.202 261.125, 354.701 284.895, 351.491 304.724 C 349.498 317.037, 349.463 317, 363.335 317 C 375.686 317, 376.978 316.486, 377.035 311.550 C 377.054 309.872, 377.732 304.900, 378.542 300.500 C 382.177 280.754, 385.182 254.364, 384.634 247 C 382.974 224.684, 367.843 206.459, 346.430 200.982 C 338.331 198.911, 327.880 198.556, 320.075 200.087 M 620.252 204.500 C 620.263 206.700, 620.468 207.482, 620.707 206.238 C 620.946 204.994, 620.937 203.194, 620.687 202.238 C 620.437 201.282, 620.241 202.300, 620.252 204.500 M 426.500 202.924 C 417.467 205.176, 406.622 213.985, 402.494 222.424 C 399.767 227.997, 396.170 250.232, 392.046 287 C 390.905 297.175, 389.509 307.488, 388.943 309.918 C 388.377 312.347, 388.145 314.935, 388.426 315.668 C 389.134 317.513, 413.268 317.587, 414.795 315.747 C 415.366 315.059, 416.534 309.096, 417.390 302.497 C 418.246 295.899, 419.843 283.525, 420.937 275 C 426.425 232.266, 426.502 231.963, 432.233 230.110 C 434.030 229.529, 438.771 229.123, 442.769 229.208 C 446.921 229.296, 450.508 228.892, 451.134 228.266 C 452.171 227.229, 454.163 213.619, 454.394 206 L 454.500 202.500 442 202.338 C 435.125 202.249, 428.150 202.513, 426.500 202.924 M 187.487 227.733 C 171.200 233.579, 161.478 245.642, 160.279 261.491 C 159.093 277.178, 166.721 287.664, 182.204 291.631 C 190.362 293.721, 196.668 292.809, 205.251 288.299 C 230.405 275.081, 234.363 242.175, 212.290 229.778 C 205.424 225.922, 194.941 225.057, 187.487 227.733 M 573.765 303.250 C 571.406 305.073, 572.676 316.318, 575.298 316.820 C 578.365 317.408, 579.848 315.286, 579.288 311.111 C 578.894 308.175, 579.156 307.154, 580.426 306.667 C 582.665 305.807, 583.559 308.478, 582.102 311.676 C 580.081 316.112, 582.196 317.362, 590.432 316.597 C 594.272 316.240, 597.764 315.397, 598.192 314.724 C 599.546 312.592, 599.104 304.331, 597.567 303.056 C 596.428 302.110, 595.710 302.290, 594.067 303.933 C 592.930 305.070, 592 306.505, 592 307.122 C 592 307.898, 591.536 307.860, 590.500 307 C 589.675 306.315, 589 305.183, 589 304.485 C 589 303.786, 588.288 302.941, 587.418 302.607 C 584.611 301.530, 575.431 301.962, 573.765 303.250" stroke="none" fill="#ffffff" fill-rule="evenodd"/></svg>