<svg xmlns="http://www.w3.org/2000/svg" width="494" height="505" viewBox="0 0 494 505" version="1.1"><path d="M 112.976 5.250 C 112.811 33.927, 113.159 79.492, 113.545 79.879 C 113.819 80.152, 128.095 80.343, 145.271 80.304 C 162.447 80.265, 177.251 80.627, 178.169 81.108 C 179.087 81.589, 180.156 83.435, 180.546 85.209 C 180.936 86.983, 181.601 89.124, 182.025 89.967 C 182.871 91.652, 189.184 111.181, 196.420 134.500 C 198.981 142.750, 201.557 150.850, 202.146 152.500 C 202.735 154.150, 203.908 157.830, 204.753 160.679 L 206.289 165.857 202.535 171.679 C 200.470 174.880, 197.932 178.625, 196.894 180 C 195.857 181.375, 194.121 184.141, 193.037 186.146 C 191.953 188.151, 190.472 190.401, 189.745 191.146 C 189.019 191.891, 187.356 194.300, 186.049 196.500 C 183.327 201.084, 165.459 228.899, 160.034 237 C 159.482 237.825, 157.110 241.513, 154.765 245.195 C 148.982 254.274, 136.239 274.030, 127.155 288 C 112.849 310.001, 109.926 314.509, 109 316 C 108.487 316.825, 105.734 321.100, 102.881 325.500 C 100.028 329.900, 96.242 335.750, 94.469 338.500 C 92.696 341.250, 86.403 350.925, 80.485 360 C 66.745 381.070, 63.847 385.592, 60.936 390.500 C 59.631 392.700, 58.204 394.950, 57.764 395.500 C 56.007 397.698, 40 422.275, 40 422.775 C 40 423.070, 38.950 424.704, 37.666 426.406 C 36.383 428.108, 34.042 431.750, 32.464 434.500 C 30.887 437.250, 29.323 439.725, 28.988 440 C 28.410 440.475, 17.631 456.620, 15.506 460.192 C 14.953 461.123, 12.314 465.312, 9.642 469.501 C 6.970 473.690, 4.945 477.257, 5.142 477.426 C 5.339 477.596, 27.392 478.049, 54.150 478.432 C 93.777 479, 103.008 478.886, 103.922 477.815 C 104.987 476.566, 110.415 468.581, 134.382 433 C 154.007 403.866, 165.247 387.501, 167.007 385.500 C 167.974 384.400, 169.483 382.080, 170.360 380.345 C 171.236 378.609, 172.598 376.545, 173.386 375.756 C 174.175 374.968, 176.300 371.888, 178.110 368.912 C 179.919 365.935, 181.700 363.275, 182.067 363 C 182.434 362.725, 184.481 359.859, 186.617 356.631 C 192.245 348.123, 193.304 346.560, 195.241 343.895 C 196.198 342.578, 201.474 334.750, 206.965 326.500 C 212.457 318.250, 217.748 310.422, 218.725 309.105 C 219.701 307.788, 221.175 305.683, 222 304.427 C 230.139 292.034, 239.563 278.436, 240.197 278.170 C 240.629 277.988, 241.661 276.413, 242.490 274.670 C 243.319 272.926, 245.046 270.282, 246.329 268.792 L 248.660 266.085 250.983 272.792 C 252.260 276.482, 253.611 279.950, 253.983 280.500 C 254.356 281.050, 256.148 285.550, 257.966 290.500 C 259.784 295.450, 261.601 299.950, 262.003 300.500 C 262.406 301.050, 263.535 303.975, 264.513 307 C 265.491 310.025, 267.510 315.200, 269 318.500 C 270.490 321.800, 272.509 326.975, 273.487 330 C 274.465 333.025, 275.621 335.955, 276.057 336.512 C 276.493 337.069, 277.841 340.219, 279.051 343.512 C 280.262 346.805, 282.321 351.876, 283.626 354.780 C 284.932 357.683, 286 360.318, 286 360.634 C 286 361.282, 296.069 387.101, 299.012 394 C 301.585 400.031, 312.658 427.958, 315.534 435.669 C 316.799 439.062, 318.804 444.012, 319.989 446.669 C 321.174 449.326, 323.071 454.200, 324.204 457.500 C 325.338 460.800, 326.597 463.950, 327.002 464.500 C 327.408 465.050, 328.305 467.300, 328.996 469.500 C 329.687 471.700, 331.295 475.750, 332.569 478.500 C 333.843 481.250, 336.078 486.822, 337.537 490.882 C 340.892 500.222, 343.286 504.518, 345.086 504.432 C 346.883 504.346, 363.841 499.198, 366.500 497.932 C 367.600 497.408, 373.675 495.439, 380 493.556 C 386.325 491.674, 396.450 488.555, 402.500 486.625 C 429.212 478.105, 440.149 474.673, 449.500 471.876 C 455 470.231, 460.918 468.236, 462.651 467.442 C 464.384 466.649, 466.317 466, 466.947 466 C 468.183 466, 483.220 461.404, 486.500 460.023 C 487.600 459.560, 489.288 458.930, 490.250 458.622 C 492.675 457.847, 492.526 456.799, 488.085 443.353 C 485.932 436.834, 480.976 421.600, 477.073 409.500 C 473.169 397.400, 469.596 386.904, 469.132 386.175 C 468.287 384.846, 464.815 385.743, 437 394.472 C 411.328 402.529, 405.336 404.257, 402.658 404.372 C 399.690 404.499, 399.612 404.362, 392.782 387 C 388.995 377.375, 385.073 367.700, 384.067 365.500 C 383.061 363.300, 381.547 359.475, 380.703 357 C 379.859 354.525, 378.459 351.150, 377.591 349.500 C 376.723 347.850, 376.010 346.166, 376.006 345.757 C 375.999 344.867, 365.559 318.232, 362.926 312.385 C 361.907 310.121, 360.133 305.621, 358.984 302.385 C 357.834 299.148, 356.464 295.712, 355.938 294.750 C 355.413 293.787, 353.857 289.962, 352.482 286.250 C 351.106 282.537, 349.554 278.600, 349.031 277.500 C 348.509 276.400, 346.653 271.675, 344.906 267 C 343.159 262.325, 341.414 258.050, 341.028 257.500 C 340.642 256.950, 339.283 253.575, 338.009 250 C 336.735 246.425, 334.911 241.700, 333.956 239.500 C 333.002 237.300, 329.687 228.975, 326.590 221 C 323.493 213.025, 320.353 205.375, 319.611 204 C 318.869 202.625, 317.265 198.575, 316.046 195 C 314.827 191.425, 312.809 186.250, 311.561 183.500 C 310.314 180.750, 308.492 176.025, 307.514 173 C 306.536 169.975, 305.370 167.034, 304.924 166.465 C 304.477 165.896, 302.910 162.071, 301.440 157.965 C 299.970 153.859, 298.422 150.050, 298 149.500 C 297.578 148.950, 296.043 145.125, 294.590 141 C 293.137 136.875, 291.289 132.150, 290.484 130.500 C 289.678 128.850, 287.403 123.225, 285.428 118 C 283.452 112.775, 281.198 107.082, 280.418 105.349 C 279.638 103.616, 279 101.942, 279 101.629 C 279 101.315, 277.932 98.683, 276.626 95.780 C 275.321 92.876, 273.276 87.800, 272.083 84.500 C 270.890 81.200, 269.304 77.150, 268.559 75.500 C 267.814 73.850, 264.672 65.975, 261.577 58 C 258.483 50.025, 255.112 41.700, 254.086 39.500 C 253.060 37.300, 251.656 33.700, 250.966 31.500 C 250.275 29.300, 248.689 25.250, 247.441 22.500 C 246.192 19.750, 243.998 14.385, 242.566 10.579 C 241.133 6.772, 239.464 3.060, 238.858 2.329 C 237.962 1.250, 226.033 1, 175.378 1 L 113 1 112.976 5.250" stroke="none" fill="#fb7e14" fill-rule="evenodd"/></svg>