<svg xmlns="http://www.w3.org/2000/svg" width="1279" height="1023" viewBox="0 0 1279 1023" version="1.1"><path d="M 627.500 128.087 C 621.450 128.493, 612.225 129.769, 607 130.922 C 594.835 133.608, 31.941 306.491, 26.545 309.198 C 14.634 315.175, 5.661 325.720, 1.873 338.193 C 0.193 343.722, -0.151 346.994, 0.170 354.348 C 0.525 362.460, 1.021 364.511, 4.287 371.389 C 8.892 381.086, 16.779 389.161, 26.020 393.641 C 29.584 395.369, 54.830 403.633, 82.123 412.007 L 131.746 427.232 126.280 434.851 C 115.254 450.220, 108.565 463.756, 103.069 481.825 C 99.516 493.506, 98.275 499.666, 97.098 511.477 C 96.326 519.217, 95.884 520.663, 93.890 521.977 C 79.615 531.378, 69.413 545.218, 65.522 560.460 C 63.583 568.055, 63.565 582.912, 65.487 590.289 C 68.592 602.211, 76.753 614.829, 86.642 623 C 88.972 624.925, 90.906 626.871, 90.939 627.325 C 90.973 627.778, 79.497 679.747, 65.438 742.810 C 47.456 823.467, 39.878 859.254, 39.884 863.485 C 39.899 874.100, 44.688 883.285, 53.456 889.519 C 61.903 895.524, 61.597 895.500, 128.500 895.500 C 197.901 895.500, 195.618 895.745, 205.026 887.287 C 211.717 881.271, 215.159 874.403, 215.776 865.835 C 216.208 859.839, 213.675 847.549, 190.525 743.335 L 164.794 627.500 173.245 618.947 C 182.421 609.660, 187.628 600.777, 190.485 589.540 C 192.401 582.001, 192.406 569.345, 190.494 561.240 C 187.416 548.183, 177.900 533.855, 167.067 525.966 C 160.076 520.876, 160.101 520.984, 162.888 507.482 C 166.671 489.151, 175.595 473.011, 189.416 459.500 C 193.917 455.100, 198.703 450.923, 200.050 450.217 C 202.725 448.816, 178.355 441.504, 476 533.010 C 538.975 552.371, 595.585 569.507, 601.800 571.091 C 625.278 577.075, 652.154 577.242, 675.549 571.550 C 681.022 570.218, 729.600 555.575, 783.500 539.010 C 837.400 522.444, 963.625 483.675, 1064 452.856 C 1164.375 422.037, 1249.200 395.526, 1252.500 393.943 C 1263.599 388.619, 1272.527 378.757, 1276.440 367.500 C 1277.395 364.750, 1278.587 361.719, 1279.089 360.764 C 1280.111 358.815, 1280.363 341.303, 1279.354 342.312 C 1278.999 342.668, 1277.731 340.052, 1276.535 336.501 C 1272.569 324.715, 1263.945 314.966, 1252.324 309.132 C 1246.876 306.396, 687.737 134.580, 674 131.420 C 668.225 130.091, 659.675 128.763, 655 128.469 C 650.325 128.174, 644.700 127.802, 642.500 127.642 C 640.300 127.481, 633.550 127.682, 627.500 128.087 M 0.360 352 C 0.360 357.225, 0.529 359.363, 0.735 356.750 C 0.941 354.137, 0.941 349.863, 0.735 347.250 C 0.529 344.637, 0.360 346.775, 0.360 352 M 283.537 542.285 C 283.272 543.503, 276.788 594.900, 269.128 656.500 C 253.444 782.640, 253.949 774.221, 261.183 789 C 269.009 804.988, 290.183 823.198, 316.812 836.842 C 369.409 863.792, 452.702 883.774, 544.500 891.466 C 577.080 894.195, 599.985 895.063, 639.500 895.063 C 693.049 895.063, 729.555 892.909, 776.500 886.980 C 865.003 875.803, 939.232 853.452, 982.500 824.950 C 989.769 820.161, 996.918 814.278, 1003.578 807.602 C 1011.966 799.195, 1014.354 796.074, 1017.812 789 C 1025.076 774.142, 1025.609 782.848, 1009.596 654.761 C 1001.777 592.218, 995.182 540.860, 994.940 540.632 C 994.698 540.403, 966.825 548.724, 933 559.121 C 674.399 638.615, 691.360 633.583, 671.500 636.711 C 656.057 639.144, 622.759 639.095, 607 636.616 C 591.009 634.101, 583.406 632.049, 535 617.180 C 511.625 610, 446.150 589.907, 389.500 572.529 C 332.850 555.151, 285.942 540.739, 285.260 540.502 C 284.578 540.265, 283.803 541.067, 283.537 542.285" stroke="none" fill="#ff6a3d" fill-rule="evenodd"/></svg>
