<svg xmlns="http://www.w3.org/2000/svg" width="285" height="389" viewBox="0 0 285 389" version="1.1"><path d="M 65.923 4.923 C 64.315 6.531, 62.991 8.443, 62.980 9.173 C 62.956 10.764, 62.110 16.327, 57.991 42 C 56.270 52.725, 53.738 68.700, 52.363 77.500 C 50.988 86.300, 48.754 100.475, 47.398 109 C 46.043 117.525, 44.080 130.125, 43.037 137 C 41.994 143.875, 40.437 153.775, 39.576 159 C 38.715 164.225, 36.871 175.700, 35.477 184.500 C 31.547 209.320, 28.242 230.059, 25.505 247.083 C 22.891 263.347, 22.632 265.702, 23.560 264.773 C 23.869 264.465, 24.549 261.127, 25.072 257.356 C 25.595 253.585, 26.302 249.825, 26.644 249 C 26.985 248.175, 27.406 246.425, 27.579 245.110 C 27.752 243.796, 28.205 241.996, 28.585 241.110 C 28.966 240.225, 29.184 238.082, 29.070 236.349 C 28.957 234.616, 29.568 230.827, 30.429 227.929 C 31.289 225.031, 31.774 222.440, 31.505 222.172 C 31.237 221.904, 31.454 221.158, 31.988 220.515 C 32.522 219.872, 33.050 216.005, 33.162 211.923 C 33.274 207.840, 33.531 205.231, 33.732 206.125 C 33.951 207.096, 35.108 207.750, 36.608 207.750 C 38.395 207.750, 38.957 207.330, 38.559 206.293 C 38.252 205.492, 37.986 203.861, 37.970 202.668 C 37.942 200.708, 37.841 200.669, 36.915 202.258 C 36.352 203.225, 36.168 204.462, 36.505 205.008 C 36.842 205.554, 36.672 206, 36.126 206 C 34.570 206, 33.713 202.050, 34.947 200.564 C 35.598 199.780, 35.833 197.413, 35.513 194.862 C 35.122 191.734, 35.231 191.066, 35.899 192.500 C 36.737 194.300, 36.902 194.175, 37.540 191.250 C 38.307 187.737, 38.940 187.340, 40.800 189.200 C 41.733 190.133, 42.267 190.133, 43.200 189.200 C 45.382 187.018, 46.271 187.941, 45.659 191.750 C 45.314 193.896, 45.413 194.930, 45.889 194.166 C 46.559 193.094, 46.841 193.143, 47.329 194.416 C 48.116 196.465, 51.607 196.467, 52.393 194.418 C 53.296 192.064, 53.237 192, 50.139 192 C 47.586 192, 47.332 191.716, 47.782 189.362 C 48.148 187.446, 47.698 186.281, 46.138 185.104 C 44.177 183.625, 44.100 183.182, 45.245 179.992 C 45.935 178.072, 47.063 176.140, 47.750 175.700 C 48.567 175.178, 49 172.317, 49 167.450 L 49 160 55 160 C 58.333 160, 61 160.444, 61 161 C 61 161.550, 61.675 162, 62.500 162 C 63.722 162, 64 160.333, 64 153 L 64 144 72 144 C 78.476 144, 80 143.712, 80 142.486 C 80 140.998, 81.922 136.980, 83.102 136 C 83.433 135.725, 84.497 133.813, 85.466 131.750 C 86.435 129.688, 87.820 128, 88.544 128 C 89.268 128, 90.015 126.987, 90.204 125.750 C 90.393 124.513, 91.099 123.612, 91.774 123.750 C 92.448 123.887, 93 123.100, 93 122 C 93 120.889, 93.667 120, 94.500 120 C 95.794 120, 96.246 118.838, 95.915 116.362 C 95.868 116.011, 96.290 115.439, 96.854 115.091 C 97.417 114.742, 98.084 113.342, 98.336 111.979 C 99.081 107.949, 101.222 104, 102.661 104 C 103.476 104, 104 102.850, 104 101.059 C 104 99.441, 104.449 97.841, 104.997 97.502 C 105.545 97.163, 106.948 94.668, 108.114 91.957 C 109.280 89.245, 110.627 87.269, 111.106 87.565 C 111.585 87.862, 111.727 87.451, 111.420 86.653 C 111.114 85.855, 111.344 84.905, 111.932 84.542 C 112.519 84.179, 113.007 84.471, 113.015 85.191 C 113.027 86.197, 113.237 86.174, 113.923 85.091 C 114.413 84.316, 114.553 83, 114.234 82.167 C 113.452 80.129, 118.229 84.929, 119.523 87.481 C 120.796 89.992, 125.232 90.630, 126.958 88.551 C 128.319 86.910, 132.525 86.342, 131.543 87.931 C 131.226 88.443, 131.425 89.144, 131.984 89.490 C 132.543 89.835, 133 89.718, 133 89.228 C 133 88.738, 134.125 87.736, 135.500 87 C 138.580 85.352, 139.146 80.467, 136.167 81.246 C 135.051 81.538, 134.333 81.192, 134.333 80.363 C 134.333 79.613, 134.694 79, 135.135 79 C 135.576 79, 135.664 78.287, 135.329 77.416 C 134.840 76.141, 134.557 76.092, 133.876 77.166 C 132.186 79.832, 133.054 76.814, 135.158 72.710 C 136.348 70.388, 137.515 69.086, 137.760 69.808 C 138.005 70.527, 137.473 71.925, 136.579 72.913 C 135.038 74.615, 135.309 78, 136.985 78 C 137.409 78, 138.462 76.988, 139.326 75.750 C 140.553 73.990, 140.907 73.858, 140.948 75.143 C 141.020 77.425, 143.924 78.361, 144.696 76.351 C 145.037 75.462, 144.795 73.901, 144.158 72.881 C 143.521 71.861, 143.029 69.784, 143.063 68.264 C 143.124 65.612, 143.163 65.591, 144.031 67.750 C 144.830 69.738, 145.645 70, 151.027 70 C 155.314 70, 156.910 70.336, 156.417 71.134 C 155.932 71.920, 156.679 72.127, 158.846 71.809 C 161.351 71.442, 162.118 71.765, 162.686 73.425 C 163.077 74.566, 163.263 75.950, 163.100 76.500 C 161.990 80.249, 162.031 82.155, 163.213 81.742 C 163.921 81.495, 164.352 80.484, 164.172 79.497 C 163.866 77.825, 163.958 77.815, 165.500 79.357 C 166.696 80.553, 166.967 81.872, 166.477 84.106 C 165.859 86.918, 165.988 87.138, 167.899 86.532 C 169.372 86.065, 170 86.297, 170 87.310 C 170 88.105, 170.615 89.266, 171.367 89.890 C 172.119 90.513, 173.511 93.494, 174.460 96.512 C 175.477 99.744, 176.764 102, 177.593 102 C 178.820 102, 179.493 103.876, 179.118 106.250 C 179.053 106.662, 179.563 107.007, 180.250 107.015 C 181.170 107.027, 181.142 107.258, 180.143 107.890 C 179.197 108.490, 179.122 108.957, 179.893 109.434 C 180.502 109.810, 181.002 109.754, 181.005 109.309 C 181.014 107.971, 185.935 116.394, 185.969 117.804 C 185.986 118.522, 155.963 149.270, 119.250 186.135 C 56.034 249.612, 51.344 254.360, 52.456 253.750 C 53.722 253.056, 188 118.427, 188 117.851 C 188 117.482, 186.274 114.101, 184.165 110.340 C 180.140 103.161, 174.120 91.886, 164.495 73.500 C 153.301 52.118, 152.780 51.494, 147.074 52.635 C 144.453 53.159, 143.249 54.559, 139.126 61.877 C 136.453 66.619, 132.177 74.662, 129.623 79.750 C 127.069 84.838, 124.352 89, 123.585 89 C 122.142 89, 120.308 86.140, 113.004 72.500 C 110.648 68.100, 108.400 64.050, 108.008 63.500 C 107.617 62.950, 105.260 58.675, 102.771 54 C 98.295 45.594, 87.140 24.839, 81.161 13.795 C 76.319 4.850, 75.725 4.100, 72.621 3.018 C 68.826 1.695, 69.280 1.566, 65.923 4.923" stroke="none" fill="#ffa715" fill-rule="evenodd"/><path d="M 118.388 96.250 C 116.934 99.138, 113.951 104.875, 111.760 109 C 109.569 113.125, 105.512 120.775, 102.745 126 C 99.977 131.225, 96.265 138.200, 94.496 141.500 C 92.726 144.800, 87.330 154.925, 82.504 164 C 77.677 173.075, 71.921 183.875, 69.712 188 C 67.503 192.125, 65.364 196.175, 64.960 197 C 64.058 198.838, 59.178 208.407, 57.056 212.499 C 56.200 214.149, 55.269 215.724, 54.986 215.999 C 54.704 216.275, 53.221 218.975, 51.690 222 C 48.581 228.147, 42.795 238.933, 38.548 246.500 C 37.004 249.250, 33.018 256.675, 29.690 263 C 26.363 269.325, 23.255 274.761, 22.784 275.081 C 22.314 275.400, 21.668 277.425, 21.348 279.581 C 20.680 284.087, 15.729 288.791, 107.455 197.774 L 156.409 149.198 153.822 145.349 C 151.519 141.923, 148.862 137.075, 138.282 117 C 129.583 100.495, 125.696 93.370, 124.779 92.250 C 122.839 89.881, 121.026 91.015, 118.388 96.250" stroke="none" fill="#f68411" fill-rule="evenodd"/><path d="M 153.520 60.634 C 153.038 62.118, 152.244 62.615, 150.914 62.267 C 149.793 61.974, 149 62.278, 149 63 C 149 63.784, 149.933 64.055, 151.560 63.744 C 153.533 63.367, 154.503 63.856, 155.784 65.877 C 156.700 67.320, 158.316 69.287, 159.377 70.250 C 161.263 71.961, 161.245 72, 158.594 72 C 157.041 72, 156.146 71.573, 156.500 71 C 156.886 70.375, 154.833 70, 151.027 70 C 145.645 70, 144.830 69.738, 144.031 67.750 C 143.163 65.591, 143.124 65.612, 143.063 68.264 C 143.029 69.784, 143.521 71.861, 144.158 72.881 C 144.795 73.901, 145.037 75.462, 144.696 76.351 C 143.924 78.361, 141.020 77.425, 140.948 75.143 C 140.907 73.858, 140.553 73.990, 139.326 75.750 C 138.462 76.987, 137.409 78, 136.985 78 C 135.309 78, 135.038 74.615, 136.579 72.913 C 137.473 71.925, 138.005 70.527, 137.760 69.808 C 137.515 69.086, 136.348 70.388, 135.158 72.710 C 133.054 76.814, 132.186 79.832, 133.876 77.166 C 134.557 76.092, 134.840 76.141, 135.329 77.416 C 135.664 78.287, 135.576 79, 135.135 79 C 134.694 79, 134.333 79.613, 134.333 80.363 C 134.333 81.192, 135.051 81.538, 136.167 81.246 C 139.146 80.467, 138.580 85.352, 135.500 87 C 134.125 87.736, 133 88.738, 133 89.228 C 133 89.718, 132.543 89.835, 131.984 89.490 C 131.425 89.144, 131.226 88.443, 131.543 87.931 C 132.525 86.342, 128.319 86.910, 126.958 88.551 C 125.232 90.630, 120.796 89.992, 119.523 87.481 C 118.229 84.929, 113.452 80.129, 114.234 82.167 C 114.553 83, 114.413 84.316, 113.923 85.091 C 113.237 86.174, 113.027 86.197, 113.015 85.191 C 113.007 84.471, 112.519 84.179, 111.932 84.542 C 111.344 84.905, 111.114 85.855, 111.420 86.653 C 111.727 87.451, 111.585 87.862, 111.106 87.565 C 110.627 87.269, 109.280 89.245, 108.114 91.957 C 106.948 94.668, 105.545 97.163, 104.997 97.502 C 104.449 97.841, 104 99.441, 104 101.059 C 104 102.850, 103.476 104, 102.661 104 C 101.222 104, 99.081 107.949, 98.336 111.979 C 98.084 113.342, 97.417 114.742, 96.854 115.091 C 96.290 115.439, 95.868 116.011, 95.915 116.362 C 96.246 118.838, 95.794 120, 94.500 120 C 93.667 120, 93 120.889, 93 122 C 93 123.100, 92.448 123.887, 91.774 123.750 C 91.099 123.612, 90.393 124.513, 90.204 125.750 C 90.015 126.987, 89.268 128, 88.544 128 C 87.820 128, 86.435 129.688, 85.466 131.750 C 84.497 133.813, 83.433 135.725, 83.102 136 C 81.922 136.980, 80 140.998, 80 142.486 C 80 143.712, 78.476 144, 72 144 L 64 144 64 153 C 64 160.333, 63.722 162, 62.500 162 C 61.675 162, 61 161.550, 61 161 C 61 160.444, 58.333 160, 55 160 L 49 160 49 167.450 C 49 172.317, 48.567 175.178, 47.750 175.700 C 47.063 176.140, 45.935 178.072, 45.245 179.992 C 44.100 183.182, 44.177 183.625, 46.138 185.104 C 47.698 186.281, 48.148 187.446, 47.782 189.362 C 47.328 191.733, 47.577 192, 50.246 192 C 52.542 192, 53.076 192.358, 52.607 193.582 C 52.273 194.452, 52 195.352, 52 195.582 C 52 196.800, 47.846 195.763, 47.329 194.416 C 46.841 193.143, 46.559 193.094, 45.889 194.166 C 45.413 194.930, 45.314 193.896, 45.659 191.750 C 46.271 187.941, 45.382 187.018, 43.200 189.200 C 42.267 190.133, 41.733 190.133, 40.800 189.200 C 38.940 187.340, 38.307 187.737, 37.540 191.250 C 36.902 194.175, 36.737 194.300, 35.899 192.500 C 35.231 191.066, 35.122 191.734, 35.513 194.862 C 35.833 197.413, 35.598 199.780, 34.947 200.564 C 33.713 202.050, 34.570 206, 36.126 206 C 36.672 206, 36.842 205.554, 36.505 205.008 C 36.168 204.462, 36.352 203.225, 36.915 202.258 C 37.841 200.669, 37.942 200.708, 37.970 202.668 C 37.986 203.861, 38.252 205.492, 38.559 206.293 C 38.957 207.330, 38.395 207.750, 36.608 207.750 C 35.108 207.750, 33.951 207.096, 33.732 206.125 C 33.531 205.231, 33.274 207.840, 33.162 211.923 C 33.050 216.005, 32.522 219.872, 31.988 220.515 C 31.454 221.158, 31.237 221.904, 31.505 222.172 C 31.774 222.440, 31.289 225.031, 30.429 227.929 C 29.568 230.827, 28.957 234.616, 29.070 236.349 C 29.184 238.082, 28.966 240.225, 28.585 241.110 C 28.205 241.996, 27.752 243.796, 27.579 245.110 C 27.406 246.425, 26.985 248.175, 26.644 249 C 26.302 249.825, 25.572 253.425, 25.022 257 C 24.471 260.575, 23.538 265.909, 22.947 268.853 C 22.356 271.797, 22.126 274.459, 22.436 274.769 C 23.190 275.524, 22.872 276.039, 29.710 263 C 33.027 256.675, 37.004 249.250, 38.548 246.500 C 42.795 238.933, 48.581 228.147, 51.690 222 C 53.221 218.975, 54.704 216.275, 54.986 215.999 C 55.269 215.724, 56.200 214.149, 57.056 212.499 C 59.178 208.407, 64.058 198.838, 64.960 197 C 65.364 196.175, 67.503 192.125, 69.712 188 C 71.921 183.875, 77.675 173.075, 82.498 164 C 87.322 154.925, 92.488 145.250, 93.979 142.500 C 97.766 135.514, 107.741 116.651, 114.866 103 C 118.168 96.675, 121.502 91.368, 122.276 91.207 C 124.426 90.760, 124.599 91.037, 138.282 117 C 148.803 136.963, 151.502 141.898, 153.656 145.110 L 156.078 148.720 171.039 133.929 C 179.268 125.794, 185.986 118.544, 185.969 117.819 C 185.931 116.214, 181.486 108.827, 180.619 108.928 C 178.824 109.137, 178.648 108.874, 180 108 C 181 107.354, 181.083 107.026, 180.250 107.015 C 179.562 107.007, 179.053 106.662, 179.118 106.250 C 179.493 103.876, 178.820 102, 177.593 102 C 176.764 102, 175.477 99.744, 174.460 96.512 C 173.511 93.494, 172.119 90.513, 171.367 89.890 C 170.615 89.266, 170 88.105, 170 87.310 C 170 86.297, 169.372 86.065, 167.899 86.532 C 165.988 87.138, 165.859 86.918, 166.477 84.106 C 166.967 81.872, 166.696 80.553, 165.500 79.357 C 163.958 77.815, 163.866 77.825, 164.172 79.497 C 164.352 80.484, 163.921 81.495, 163.213 81.742 C 162.311 82.057, 162.066 81.420, 162.394 79.612 C 162.651 78.194, 163.110 76.631, 163.414 76.139 C 163.718 75.648, 162.858 73.728, 161.505 71.873 C 160.151 70.018, 158.480 67.375, 157.792 66 C 157.104 64.625, 156.246 63.275, 155.886 63 C 155.526 62.725, 155.002 61.600, 154.722 60.500 C 154.226 58.554, 154.193 58.557, 153.520 60.634" stroke="none" fill="#ffa510" fill-rule="evenodd"/><path d="M 66.206 1.048 C 62.990 2.338, 61.442 6.734, 59.532 20 C 58.621 26.325, 57.037 36.675, 56.012 43 C 53.029 61.403, 50.412 77.959, 44 119 C 40.692 140.175, 37.087 163.125, 35.989 170 C 34.892 176.875, 32.861 189.700, 31.478 198.500 C 26.199 232.073, 24.922 240.150, 21.460 261.878 C 19.499 274.186, 18.031 285.149, 18.197 286.241 C 18.603 288.901, 135.690 354.126, 143.361 355.967 C 150.720 357.732, 154.622 356.435, 174 345.780 C 196.214 333.567, 199.415 331.815, 207.151 327.646 C 225.530 317.739, 277.619 288.717, 278.440 287.926 C 279.371 287.029, 277.915 276.019, 272.563 243.500 C 268.644 219.686, 265.044 197.666, 262.508 182 C 261.217 174.025, 258.977 160.300, 257.531 151.500 C 254.248 131.521, 250.657 109.371, 247.990 92.643 C 245.173 74.972, 243.992 73, 236.220 73 C 232.846 73, 231.152 74.446, 210.914 94.609 L 189.223 116.217 184.731 107.859 C 182.260 103.261, 176.067 91.625, 170.969 82 C 165.870 72.375, 160.388 62.025, 158.785 59 C 157.183 55.975, 154.950 52.712, 153.825 51.750 C 151.092 49.413, 145.890 49.522, 143.261 51.972 C 142.097 53.056, 137.255 61.381, 132.500 70.472 C 127.745 79.562, 123.688 87, 123.484 87 C 123.060 87, 114.546 71.819, 107.502 58.500 C 104.883 53.550, 99.045 42.750, 94.526 34.500 C 90.008 26.250, 84.179 15.537, 81.573 10.694 C 75.993 0.324, 72.879 -1.630, 66.206 1.048 M 65.923 4.923 C 64.315 6.531, 62.991 8.443, 62.980 9.173 C 62.956 10.764, 62.110 16.327, 57.991 42 C 56.270 52.725, 53.738 68.700, 52.363 77.500 C 50.988 86.300, 48.754 100.475, 47.398 109 C 46.043 117.525, 44.080 130.125, 43.037 137 C 41.994 143.875, 40.437 153.775, 39.576 159 C 38.715 164.225, 36.906 175.475, 35.556 184 C 34.205 192.525, 31.887 207.150, 30.404 216.500 C 28.921 225.850, 25.791 245.200, 23.449 259.500 C 21.107 273.800, 19.359 285.673, 19.564 285.885 C 20.118 286.458, 187.192 119.835, 187.784 118.120 C 187.940 117.668, 186.327 114.193, 184.199 110.399 C 180.143 103.167, 174.143 91.930, 164.495 73.500 C 153.301 52.118, 152.780 51.494, 147.074 52.635 C 144.453 53.159, 143.249 54.559, 139.126 61.877 C 136.453 66.619, 132.177 74.662, 129.623 79.750 C 127.069 84.838, 124.352 89, 123.585 89 C 122.142 89, 120.308 86.140, 113.004 72.500 C 110.648 68.100, 108.400 64.050, 108.008 63.500 C 107.617 62.950, 105.260 58.675, 102.771 54 C 98.295 45.594, 87.140 24.839, 81.161 13.795 C 76.319 4.850, 75.725 4.100, 72.621 3.018 C 68.826 1.695, 69.280 1.566, 65.923 4.923" stroke="none" fill="#ffcb2f" fill-rule="evenodd"/></svg>