<svg xmlns="http://www.w3.org/2000/svg" width="532" height="469" viewBox="0 0 532 469" version="1.1"><path d="M 259.693 41.064 C 172.191 47.335, 98.539 107.809, 74.648 193 C 69.887 209.975, 68 225.277, 68 246.898 C 68 272.564, 71.160 291.768, 79.290 315.500 C 97.998 370.115, 141.971 416.112, 196.893 438.519 C 209.261 443.564, 215.038 444.331, 219.357 441.501 C 223.648 438.690, 224.207 434.901, 223.420 413.949 L 222.703 394.845 214.101 395.673 C 189.619 398.028, 174.803 394.444, 162.868 383.280 C 159.221 379.868, 156.611 375.878, 152.451 367.356 C 146.083 354.309, 139.905 346.354, 131.186 339.973 C 120.268 331.984, 120.454 328.500, 131.800 328.500 C 143.871 328.500, 154.301 335.616, 164.425 350.760 C 170.497 359.842, 175.512 364.409, 183.533 368.162 C 191.969 372.110, 201.202 372.891, 211.137 370.496 C 222.208 367.828, 223.361 367.020, 224.940 360.833 C 226.875 353.245, 229.566 347.336, 233.142 342.820 C 234.847 340.668, 235.971 338.637, 235.640 338.307 C 235.309 337.976, 230.192 336.885, 224.269 335.881 C 199.446 331.677, 181.280 323.442, 168.358 310.535 C 152.961 295.157, 144.864 274.091, 143.362 245.500 C 142.050 220.542, 147.576 201.359, 160.691 185.336 L 164.099 181.173 162.343 174.836 C 158.978 162.701, 160.249 141.900, 165.090 129.860 C 166.526 126.289, 170.432 125.659, 179.504 127.533 C 191.157 129.939, 201.975 134.786, 216.660 144.178 L 222.820 148.118 231.453 146.068 C 259.070 139.508, 290.158 139.505, 317.928 146.058 L 326.356 148.047 331.428 144.683 C 345.750 135.185, 363.189 127.915, 375.084 126.483 C 382.234 125.623, 383.092 126.464, 386.010 137.198 C 388.918 147.895, 389.175 164.322, 386.590 174.251 L 384.832 181.003 389.559 187.251 C 402.805 204.762, 407.539 224.228, 405.086 251.100 C 401.830 286.774, 387.721 310.643, 362.075 323.865 C 349.858 330.163, 341.673 332.602, 317.797 337.058 L 312.094 338.122 316.554 344.180 C 324.553 355.047, 325.977 364.814, 325.233 403.707 C 324.949 418.539, 325.035 432.371, 325.424 434.446 C 327.107 443.418, 334.728 445.231, 348.523 439.941 C 376.871 429.069, 401.468 412.666, 423.285 390.084 C 454.401 357.877, 472.993 319.750, 479.467 274.872 C 481.513 260.690, 481.474 233.147, 479.387 218.682 C 474.366 183.868, 461.196 151.873, 440.364 123.882 C 408.633 81.246, 360.424 51.829, 308 43.113 C 301.718 42.069, 275.054 39.877, 272 40.154 C 271.175 40.228, 265.637 40.638, 259.693 41.064 M 141.374 334.469 C 140.611 336.457, 141.759 338, 144 338 C 147.543 338, 147.344 335.035, 143.712 333.694 C 142.595 333.281, 141.718 333.572, 141.374 334.469 M 149.309 341.636 C 148.477 343.805, 150.210 346.426, 152.725 346.803 C 155.600 347.234, 156.349 344.349, 153.977 341.977 C 151.572 339.572, 150.142 339.467, 149.309 341.636 M 157.667 351.667 C 156.394 352.939, 157.011 355.700, 158.963 357.466 C 161.299 359.580, 164 358.849, 164 356.103 C 164 352.722, 159.655 349.679, 157.667 351.667 M 166.643 364.487 C 165.813 366.650, 170.278 371.491, 172.365 370.690 C 174.943 369.701, 175.436 367.139, 173.466 364.963 C 171.370 362.646, 167.455 362.373, 166.643 364.487 M 181.637 372.276 C 179.380 373.926, 180.441 376.837, 183.758 378.098 C 188.443 379.879, 190.871 375.424, 186.777 372.557 C 184.089 370.673, 183.847 370.660, 181.637 372.276 M 214.582 373.316 C 211.606 375.492, 212.954 378.500, 216.905 378.500 C 220.981 378.500, 223.087 376.014, 221.070 373.584 C 219.469 371.656, 216.993 371.554, 214.582 373.316 M 198.250 374.662 C 196.554 375.347, 196.670 378.481, 198.445 379.954 C 200.343 381.530, 204.026 380.931, 205.340 378.834 C 207.356 375.616, 202.690 372.871, 198.250 374.662" stroke="none" fill="#ffffff" fill-rule="evenodd"/></svg>