<svg xmlns="http://www.w3.org/2000/svg" width="1200" height="1200" viewBox="0 0 1200 1200" version="1.1"><path d="M 588.500 31.936 C 575.918 33.994, 563.981 39.033, 554.500 46.289 C 551.200 48.815, 524.876 74.533, 496.002 103.442 L 443.505 156.003 509.080 221.578 L 574.654 287.153 580.577 285.517 C 588.886 283.222, 607.208 282.438, 616.739 283.969 C 633.820 286.712, 649.316 294.504, 662.232 306.844 C 675.726 319.736, 683.796 334.425, 687.542 352.912 C 689.628 363.208, 689.149 380.027, 686.462 390.817 L 684.640 398.134 747.570 461.102 C 798.516 512.078, 810.881 523.960, 812.500 523.495 C 826.834 519.380, 844.795 518.504, 857.630 521.293 C 892.151 528.794, 919.410 557.825, 924.959 593 C 931.536 634.684, 905.331 676.334, 864.629 688.890 C 831.731 699.039, 794.469 687.831, 772.361 661.137 C 766.077 653.550, 757.817 637.557, 755.248 628 C 753.914 623.039, 753.512 617.711, 753.551 605.500 C 753.596 591.083, 753.863 588.659, 756.250 581 L 758.899 572.500 699.949 513.501 L 641 454.502 641 609.678 L 641 764.853 646.250 767.870 C 664.651 778.445, 680.031 798.230, 686.025 819.039 C 689.105 829.730, 689.799 847.950, 687.550 859.050 C 683.796 877.576, 675.736 892.255, 662.232 905.156 C 645.501 921.140, 625.812 929, 602.500 929 C 585.466 929, 571.018 924.958, 557.144 916.311 C 542.494 907.180, 531.386 894.587, 524.093 878.844 C 519.020 867.893, 517.007 859.741, 516.298 847.280 C 514.350 813.071, 532.366 781.669, 563.250 765.438 L 570 761.891 570 605.646 L 570 449.402 566.565 448.160 C 560.739 446.053, 547.891 437.078, 541.478 430.634 C 530.611 419.716, 523.301 407.045, 518.780 391.289 C 515.573 380.109, 515.632 357.917, 518.898 347 C 520.132 342.875, 521.396 338.438, 521.708 337.140 C 522.202 335.085, 514.053 326.558, 458.390 270.890 C 423.254 235.751, 394.053 207, 393.499 207 C 391.863 207, 47.541 552.077, 44.264 557 C 35.217 570.593, 31.560 582.746, 31.625 599 C 31.699 617.317, 36.564 631.122, 47.909 645.204 C 57.729 657.394, 553.618 1152.110, 560.429 1156.512 C 585.881 1172.963, 617.570 1172.665, 643 1155.735 C 649.261 1151.567, 1149.150 651.893, 1154.455 644.500 C 1172.654 619.139, 1173.450 586.643, 1156.514 560.429 C 1152.169 553.704, 657.640 58.033, 645.219 47.954 C 636.816 41.135, 626.271 35.753, 616.985 33.543 C 608.939 31.629, 595.136 30.850, 588.500 31.936" stroke="none" fill="#f05030" fill-rule="evenodd"/></svg>