<svg xmlns="http://www.w3.org/2000/svg" width="272" height="300" viewBox="0 0 272 300" version="1.1"><path d="M 151.972 123.196 C 122.562 140.121, 98.187 153.976, 97.804 153.984 C 97.421 153.993, 92.347 145.563, 86.529 135.250 C 80.710 124.938, 74.629 115.285, 73.014 113.799 C 69.124 110.221, 62.821 108.548, 57.916 109.793 C 55.845 110.319, 41.978 117.443, 27.101 125.625 L 0.051 140.500 0.025 158.357 C 0.003 174.018, 0.189 176.141, 1.537 175.624 C 2.383 175.300, 14.819 168.502, 29.174 160.517 C 43.529 152.533, 55.549 146.016, 55.887 146.036 C 56.224 146.055, 60.294 152.918, 64.930 161.286 C 78.027 184.922, 79.385 186.841, 84.682 189.184 C 93.799 193.216, 91.723 194.183, 166.921 150.878 C 204.552 129.206, 235.479 111.031, 235.647 110.488 C 235.816 109.944, 229.089 105.658, 220.698 100.961 L 205.444 92.423 151.972 123.196" stroke="none" fill="#ccf6ff" fill-rule="evenodd"/><path d="M 20.834 2.319 C 14.217 5.110, 10.531 7.941, 6.181 13.575 C -0.100 21.711, 0 20.585, 0 83.126 C 0 114.407, 0.277 140, 0.615 140 C 0.954 140, 13.126 133.422, 27.664 125.381 C 42.202 117.341, 55.804 110.330, 57.890 109.800 C 62.823 108.548, 69.114 110.211, 73.014 113.799 C 74.629 115.285, 80.710 124.938, 86.529 135.250 C 92.347 145.562, 97.387 154, 97.729 154 C 99.465 154, 204.947 92.555, 204.281 91.932 C 203.323 91.037, 54.284 6.182, 48 2.954 C 41.113 -0.584, 28.420 -0.881, 20.834 2.319 M 234 112.010 C 232.625 113.013, 201.575 131.034, 165 152.058 C 91.903 194.075, 93.779 193.207, 84.682 189.184 C 79.381 186.839, 78.007 184.896, 64.930 161.266 C 60.294 152.888, 56.024 146.138, 55.443 146.266 C 54.862 146.395, 42.162 153.250, 27.222 161.500 L 0.057 176.500 0.029 225.212 C 0.001 272.186, 0.074 274.124, 2.086 279.501 C 4.590 286.194, 11.584 293.607, 18.632 297.040 C 25.532 300.400, 38.503 300.967, 45.502 298.215 C 53.008 295.263, 256.875 178.713, 261.520 174.718 C 268.035 169.115, 271.305 162.016, 271.811 152.379 C 272.745 134.588, 267.079 126.993, 243 113.760 C 236.576 110.230, 236.471 110.209, 234 112.010" stroke="none" fill="#2f80ed" fill-rule="evenodd"/></svg>