<svg xmlns="http://www.w3.org/2000/svg" width="768" height="768" viewBox="0 0 768 768" version="1.1"><path d="M 272.727 209.750 L 321.955 210.019 322.251 228.259 L 322.548 246.500 322.774 227.750 L 323 209 273.250 209.240 L 223.500 209.481 272.727 209.750 M 692 237.029 C 656.525 249.055, 626.947 258.918, 626.271 258.947 C 625.348 258.987, 624.969 254.079, 624.749 239.250 C 624.587 228.387, 624.353 254.715, 624.228 297.755 L 624 376.010 634.268 363.755 C 639.916 357.015, 667.048 324.725, 694.563 292 C 761.620 212.246, 759.510 214.835, 757.250 215.082 C 756.837 215.127, 727.475 225.003, 692 237.029 M 252.242 307.223 L 252 368.945 237.750 369.252 L 223.500 369.559 237.781 369.780 C 248.452 369.944, 252.184 369.684, 252.541 368.750 C 252.804 368.063, 252.898 340.050, 252.751 306.500 L 252.484 245.500 252.242 307.223 M 323.449 622.933 L 331.398 623.500 274.295 658 C 242.889 676.975, 217.285 692.598, 217.397 692.718 C 217.934 693.289, 225 690.552, 225 689.773 C 225 689.283, 225.370 689.110, 225.822 689.390 C 226.274 689.669, 227.849 689.272, 229.322 688.508 C 230.795 687.744, 232 687.333, 232 687.594 C 232 687.856, 233.012 687.514, 234.250 686.834 C 235.488 686.154, 237.281 685.467, 238.235 685.307 C 239.190 685.148, 252.421 680.479, 267.638 674.932 C 282.855 669.385, 296.024 665.037, 296.903 665.271 C 297.781 665.504, 311.080 673.751, 326.455 683.598 C 341.830 693.444, 354.604 701.349, 354.843 701.165 C 355.081 700.980, 355.552 701.265, 355.888 701.798 C 356.225 702.331, 366.400 684.841, 378.500 662.931 L 400.500 623.094 406.500 622.740 C 409.800 622.545, 390.675 622.381, 364 622.376 C 337.325 622.371, 319.077 622.622, 323.449 622.933" stroke="none" fill="#665fbf" fill-rule="evenodd"/><path d="M 493.733 55.203 C 474.611 78.356, 459.115 97.448, 459.297 97.630 C 459.479 97.812, 487.426 88.694, 521.401 77.367 C 555.376 66.041, 582.797 56.448, 582.337 56.050 C 578.426 52.671, 529.062 13.012, 528.818 13.054 C 528.643 13.083, 512.855 32.050, 493.733 55.203 M 728.531 616.750 C 713.719 643.563, 700.577 667.160, 699.327 669.188 L 697.053 672.876 700.777 671.351 C 702.825 670.513, 708.100 668.134, 712.500 666.065 C 716.900 663.996, 725.675 660.374, 732 658.015 C 738.325 655.656, 745.330 652.887, 747.566 651.863 C 749.802 650.838, 752.147 650, 752.778 650 C 753.485 650, 753.954 647.987, 754 644.750 C 754.042 641.862, 754.268 634.100, 754.503 627.500 C 754.738 620.900, 755.164 606.950, 755.449 596.500 C 755.735 586.050, 756.182 575.362, 756.444 572.750 C 756.706 570.138, 756.593 568, 756.192 568 C 755.791 568, 743.344 589.938, 728.531 616.750" stroke="none" fill="#037cf8" fill-rule="evenodd"/><path d="M 55.113 151.616 C 21.146 244.775, 0.190 303.590, 0.760 304.160 C 1.270 304.670, 29.989 314.453, 64.580 325.900 L 127.473 346.712 138.486 339.964 L 149.500 333.215 149.755 240.607 L 150.010 148 302.005 148 C 385.602 148, 454 147.730, 454 147.400 C 454 147.069, 449.798 141.999, 444.661 136.133 C 439.525 130.267, 435.137 124.942, 434.911 124.301 C 434.685 123.660, 416.500 102.596, 394.500 77.491 C 372.500 52.387, 354.037 31.257, 353.472 30.536 C 352.761 29.630, 315.664 24.707, 233.469 14.612 C 168.032 6.575, 113.571 0, 112.443 0 C 110.628 0, 104.049 17.400, 55.113 151.616" stroke="none" fill="#fb2e5f" fill-rule="evenodd"/><path d="M 41.605 390.165 C 18.901 432.373, 8.988 451.724, 9.605 452.631 C 10.639 454.149, 118.745 539.971, 120.400 540.588 C 121.078 540.840, 126.966 522.864, 135.750 493.725 L 150 446.453 149.996 400.477 L 149.991 354.500 113.246 342.079 C 93.036 335.247, 76.050 329.512, 75.500 329.335 C 74.950 329.157, 59.697 356.530, 41.605 390.165" stroke="none" fill="#f97b0a" fill-rule="evenodd"/><path d="M 138.725 339.797 C 132.798 343.401, 128.298 346.665, 128.725 347.050 C 129.929 348.139, 149.067 354.266, 149.600 353.734 C 149.860 353.473, 149.944 348.757, 149.786 343.253 L 149.500 333.245 138.725 339.797 M 135.291 494.791 C 127.476 520.481, 119.245 547.350, 117.001 554.500 C 112.298 569.480, 60.937 749.283, 61.275 749.583 C 61.643 749.908, 195.347 701.203, 197.236 700.055 C 198.191 699.475, 199.569 699, 200.299 699 C 201.028 699, 203.486 698.101, 205.761 697.002 C 208.035 695.902, 210.707 694.868, 211.698 694.703 C 214.287 694.271, 213.186 694.917, 274.942 657.603 L 331.384 623.500 322.442 622.856 C 317.524 622.502, 276.715 622.164, 231.755 622.106 L 150.011 622 149.755 535.041 L 149.500 448.081 135.291 494.791" stroke="none" fill="#9351a3" fill-rule="evenodd"/><path d="M 545 25.456 C 545 25.697, 553.212 32.516, 563.250 40.610 C 573.288 48.703, 581.877 55.651, 582.338 56.050 C 582.798 56.449, 555.798 65.892, 522.338 77.035 C 488.877 88.178, 460.864 97.530, 460.086 97.817 C 459.189 98.149, 458.936 97.912, 459.395 97.170 C 459.793 96.526, 459.902 96, 459.638 96 C 458.986 96, 436 123.817, 436 124.605 C 436 124.949, 440.526 130.353, 446.059 136.615 L 456.117 148 539.895 148 L 623.673 148 624.349 203.179 C 624.720 233.527, 625.234 258.568, 625.491 258.825 C 625.749 259.082, 655.529 249.338, 691.670 237.170 C 727.812 225.003, 757.577 215.244, 757.815 215.482 C 758.370 216.037, 754.704 220.472, 694.563 292 C 667.048 324.725, 639.916 357.015, 634.268 363.755 L 624 376.010 624 499.005 L 624 622 521.154 622 C 464.588 622, 414.288 622.285, 409.375 622.634 L 400.443 623.268 378.722 662.522 C 366.775 684.111, 357.020 702.164, 357.045 702.638 C 357.093 703.541, 456.209 767.295, 458.318 767.778 C 459.243 767.990, 640.614 695.806, 658 688.306 C 663.534 685.919, 664.622 685.477, 681 678.974 C 689.525 675.589, 697.018 672.298, 697.652 671.660 C 698.286 671.022, 711.492 647.550, 727 619.500 C 742.508 591.450, 755.490 568.275, 755.848 568 C 756.765 567.297, 756.734 567.779, 757.409 544 C 757.744 532.175, 758.255 517.100, 758.543 510.500 C 759.412 490.612, 767.999 219.041, 767.997 211.500 L 767.996 204.500 696.765 147 C 657.588 115.375, 617.426 82.965, 607.517 74.978 C 575.253 48.972, 545 25.008, 545 25.456" stroke="none" fill="#0e7dee" fill-rule="evenodd"/><path d="M 224 228 L 224 246 238.508 246 L 253.015 246 252.758 307.750 L 252.500 369.500 238.250 369.777 L 224 370.055 224 388.027 L 224 406 273 406 L 322 406 322 388 L 322 370 308.500 370 L 295 370 295 308 L 295 246 308.500 246 L 322 246 322 228 L 322 210 273 210 L 224 210 224 228 M 442 277.684 C 442 355.059, 442.100 353.952, 434.399 361.654 C 427.261 368.792, 417.469 370.624, 405.770 367.011 C 398.651 364.812, 393.043 361.202, 385.500 353.963 L 380.500 349.164 368.500 362.656 C 351.934 381.283, 352.933 379.314, 357.595 384.146 C 367.495 394.406, 381.178 402.775, 393.577 406.151 C 399.947 407.885, 404.343 408.315, 416 408.344 C 428.921 408.376, 431.443 408.091, 439.156 405.722 C 453.190 401.411, 458.740 398.296, 467.118 390.022 C 473.182 384.035, 475.561 380.765, 478.779 374 C 481.003 369.325, 483.386 363.250, 484.076 360.500 C 485.004 356.799, 485.430 336.604, 485.718 282.750 L 486.108 210 464.054 210 L 442 210 442 277.684 M 194.438 534.300 C 194.164 535.016, 194.065 541.653, 194.220 549.050 L 194.500 562.500 283.250 562.755 L 372 563.011 372 548.005 L 372 533 283.469 533 C 211.734 533, 194.843 533.247, 194.438 534.300" stroke="none" fill="#ffffff" fill-rule="evenodd"/><path d="M 150 385 L 150 622 387 622 L 624 622 624 385 L 624 148 387 148 L 150 148 150 385 M 224 227.500 L 224 246 238 246 L 252 246 252 307.500 L 252 369 238 369 L 224 369 224 387.500 L 224 406 273.523 406 L 323.045 406 322.773 387.750 L 322.500 369.500 308.750 369.222 L 295 368.944 295 307.472 L 295 246 309 246 L 323 246 323 227.500 L 323 209 273.500 209 L 224 209 224 227.500 M 441.994 274.750 C 441.991 312.921, 441.577 343.010, 441.008 346.485 C 438.776 360.115, 431.852 366.848, 419.130 367.759 C 415.207 368.039, 409.970 367.712, 407.009 367.002 C 401.013 365.564, 388.747 357.754, 384.009 352.358 C 380.252 348.078, 382.519 346.443, 365.152 365.959 L 353.175 379.419 355.521 382.207 C 359.598 387.052, 369.969 395.613, 376.349 399.400 C 379.732 401.408, 386.100 404.256, 390.500 405.728 C 397.904 408.205, 399.766 408.407, 415.500 408.432 C 431.531 408.457, 432.985 408.297, 441 405.629 C 453.657 401.415, 460.721 397.293, 468.201 389.754 C 472.998 384.920, 476.058 380.656, 478.970 374.750 C 485.955 360.579, 486 359.971, 486 279.912 L 486 209 464 209 L 442 209 441.994 274.750 M 194 548 L 194 563 283 563 L 372 563 372 548 L 372 533 283 533 L 194 533 194 548" stroke="none" fill="#000000" fill-rule="evenodd"/></svg>