<svg xmlns="http://www.w3.org/2000/svg" width="436" height="515" viewBox="0 0 436 515" version="1.1"><path d="M 340.129 276.576 C 332.681 278.580, 328.379 280.772, 326.616 283.463 L 325.115 285.755 331.307 283.792 C 346.879 278.858, 363.135 285.655, 369.753 299.865 C 371.872 304.414, 372.179 306.253, 371.772 311.947 C 371.043 322.133, 366.522 330.470, 356 341.033 C 346.483 350.587, 338.838 356.279, 325.280 363.907 C 311.092 371.888, 311.190 373.352, 325.624 369.064 C 347.864 362.457, 364.307 353.577, 377.122 341.253 C 383.445 335.172, 386.645 331.166, 389.122 326.231 C 392.210 320.077, 392.500 318.729, 392.500 310.500 C 392.500 302.690, 392.134 300.754, 389.730 295.858 C 386.668 289.623, 380.373 283.251, 374.130 280.066 C 364.441 275.123, 350.754 273.718, 340.129 276.576 M 357.403 278.843 C 357.796 279.479, 359.232 280, 360.594 280 C 363.624 280, 368 282.727, 368 284.615 C 368 286.483, 367.101 286.359, 363.136 283.942 C 361.286 282.814, 358.811 282.041, 357.636 282.224 C 355.777 282.514, 355.954 282.795, 359 284.393 C 360.925 285.402, 363.693 287.344, 365.151 288.707 L 367.802 291.185 369.159 288.355 C 370.619 285.308, 374 283.880, 374 286.310 C 374 287.111, 374.900 288.002, 376 288.290 C 377.704 288.735, 378 289.654, 378 294.490 C 378 301.988, 375.822 301.457, 374.636 293.670 C 373.938 289.086, 373.412 288, 371.886 288 C 369.125 288, 369.476 291.567, 373 299.340 C 376.130 306.242, 376.845 312.553, 374.907 316.173 C 374.117 317.650, 374.117 318.517, 374.907 319.307 C 375.508 319.908, 376 321.435, 376 322.700 C 376 325.642, 378.289 325.669, 380.326 322.750 C 381.574 320.960, 381.906 320.841, 381.948 322.167 C 381.976 323.083, 382.531 324.010, 383.180 324.227 C 383.873 324.458, 384.074 325.364, 383.668 326.423 C 383.114 327.867, 382.689 327.987, 381.532 327.027 C 379.323 325.193, 378 326.704, 378 331.059 C 378 335.494, 380.359 336.611, 381.572 332.750 C 381.960 331.512, 383.340 329.509, 384.639 328.298 C 385.938 327.087, 387 324.963, 387 323.578 C 387 322.194, 387.941 319.385, 389.091 317.338 C 390.803 314.290, 391.062 312.655, 390.521 308.323 C 390.158 305.413, 389.442 302.773, 388.930 302.457 C 388.419 302.141, 388 300.591, 388 299.012 C 388 295.679, 385.597 292.834, 383.471 293.649 C 382.470 294.033, 382 293.557, 382 292.159 C 382 289.028, 374.296 282, 370.864 282 C 370.200 282, 368.914 281.327, 368.006 280.505 C 365.933 278.629, 356.342 277.126, 357.403 278.843 M 143.768 280.112 C 124.144 282.005, 102.759 287.812, 85.452 295.947 C 71.526 302.493, 68.974 306.092, 74.657 311.168 C 79.274 315.292, 100.972 319.850, 126.500 322.059 C 143.464 323.527, 197.513 323.537, 216 322.076 C 249.597 319.420, 291.398 312.778, 297 309.205 C 298.375 308.327, 303.550 305.456, 308.500 302.824 C 313.856 299.976, 316.625 298.031, 315.339 298.019 C 314.150 298.009, 306.050 299.108, 297.339 300.462 C 277.521 303.543, 250.612 306.556, 228.500 308.170 C 204.979 309.888, 137.205 309.896, 125.500 308.183 C 114.458 306.566, 108 303.944, 108 301.076 C 108 297.109, 122.692 290.517, 146.353 283.871 C 153.373 281.898, 157.487 280.293, 156.739 279.818 C 156.058 279.385, 154.825 279.085, 154 279.150 C 153.175 279.216, 148.571 279.649, 143.768 280.112 M 86.638 298.500 C 86.972 299.368, 88.467 300, 90.190 300 C 94.990 300, 92.951 302.386, 87.420 303.242 C 84.714 303.660, 81.719 304.452, 80.764 305.002 C 78.556 306.271, 78 306.259, 78 304.941 C 78 304.359, 78.403 304.131, 78.895 304.435 C 79.388 304.740, 80.048 304.316, 80.364 303.494 C 80.679 302.672, 82.076 302, 83.469 302 C 84.861 302, 86 301.550, 86 301 C 86 298.900, 81.302 300.131, 78.077 303.077 L 74.709 306.153 76.971 308.327 C 78.554 309.847, 79.374 310.124, 79.700 309.250 C 80.235 307.816, 83 307.536, 83 308.917 C 83 309.421, 82.438 310.040, 81.750 310.293 C 81.063 310.546, 81.850 311.095, 83.500 311.513 C 85.150 311.930, 87.706 312.964, 89.180 313.810 C 91.607 315.203, 92.351 315.190, 97.045 313.674 C 102.888 311.787, 107.580 311.511, 108.500 313 C 108.840 313.550, 110.415 314, 112 314 C 113.585 314, 115.160 314.450, 115.500 315 C 116.301 316.296, 123.731 316.305, 124.167 315.010 C 124.350 314.465, 127.326 313.725, 130.781 313.364 C 134.236 313.004, 137.337 312.264, 137.673 311.720 C 138.068 311.080, 134.263 310.899, 126.892 311.205 C 118.596 311.550, 114.606 311.307, 112.210 310.309 C 110.400 309.556, 109.169 308.535, 109.474 308.042 C 109.779 307.548, 109.123 306.856, 108.015 306.505 C 106.907 306.153, 106 305.236, 106 304.468 C 106 302.162, 102.592 300.902, 100.405 302.398 C 99.357 303.115, 97.150 304.001, 95.500 304.366 C 92.673 304.992, 92.612 304.943, 94.441 303.515 C 95.509 302.682, 97.251 302, 98.314 302 C 99.900 302, 100.027 301.737, 99.024 300.529 C 98.353 299.720, 96.835 299.158, 95.652 299.279 C 94.379 299.410, 93.602 298.990, 93.750 298.250 C 93.916 297.418, 92.673 297, 90.031 297 C 86.915 297, 86.186 297.322, 86.638 298.500 M 277.988 306.514 C 277.042 307.655, 275.224 307.930, 270.616 307.631 C 266.661 307.374, 265.913 307.458, 268.500 307.867 C 273.013 308.581, 272.135 309.917, 267.500 309.390 C 260.925 308.642, 240.496 309.104, 239.578 310.022 C 239.040 310.560, 237.002 311.053, 235.050 311.118 L 231.500 311.237 234.500 311.890 C 240.380 313.169, 235.014 314.123, 221.852 314.138 C 213.128 314.148, 208.477 313.772, 208.012 313.020 C 207.248 311.783, 197.850 311.856, 195.813 313.116 C 194.709 313.798, 204.338 315.724, 206.250 315.204 C 206.662 315.092, 207 315.675, 207 316.500 C 207 317.690, 205.559 318, 200.035 318 C 194.181 318, 192.906 317.693, 192.039 316.073 C 191.219 314.541, 191.366 314.052, 192.754 313.689 C 193.714 313.437, 191.800 313.225, 188.500 313.216 C 184.567 313.205, 183.358 313.438, 184.990 313.892 C 190.889 315.534, 183.427 316.031, 154.952 315.891 C 134.625 315.791, 124.563 316.088, 124.122 316.802 C 123.762 317.385, 121.675 318.060, 119.484 318.302 C 117.293 318.544, 118.293 318.628, 121.706 318.489 C 125.120 318.351, 128.045 318.568, 128.206 318.973 C 128.368 319.377, 132.028 320.021, 136.340 320.404 C 141.385 320.852, 143.964 320.750, 143.574 320.119 C 142.323 318.095, 145.562 317.819, 160.820 318.648 L 176.500 319.500 165.500 320.052 L 154.500 320.605 168 320.703 C 175.425 320.757, 180.375 320.483, 179 320.094 L 176.500 319.387 179 318.707 C 183.905 317.373, 190.842 317.896, 191.838 319.674 C 192.685 321.189, 193.685 321.236, 202.329 320.174 C 207.584 319.528, 215.059 319, 218.942 319 C 224.668 319, 226 318.706, 226 317.441 C 226 316.584, 226.430 316.148, 226.955 316.472 C 227.480 316.797, 233.668 316.410, 240.705 315.612 C 247.742 314.814, 255.300 314.167, 257.500 314.173 C 261.952 314.185, 276.509 312.366, 273.750 312.142 C 271.782 311.982, 271.301 308.987, 273.250 309.024 C 273.938 309.037, 276.170 309.436, 278.212 309.910 C 280.713 310.491, 281.855 310.428, 281.712 309.718 C 281.595 309.138, 282.520 308.131, 283.768 307.481 C 287.590 305.487, 287.496 305, 283.289 305 C 280.897 305, 278.731 305.619, 277.988 306.514 M 126.676 338.965 C 105.666 347.927, 105.022 358.835, 125.059 366.367 C 154.161 377.307, 211.710 378.606, 262 369.459 C 274.098 367.258, 296.340 361.916, 297.372 360.962 C 297.851 360.519, 296.011 359.026, 293.284 357.644 C 290.556 356.262, 286.158 353.477, 283.509 351.455 L 278.694 347.780 262.597 350.355 C 229.234 355.694, 205.572 357.229, 177.236 355.892 C 134.609 353.882, 125.658 350.630, 133.500 340 C 134.875 338.136, 136 336.474, 136 336.306 C 136 335.439, 132.810 336.348, 126.676 338.965 M 122 344.485 C 117.026 347.499, 114.901 350.376, 117.500 350.578 C 120.904 350.841, 126 352.360, 126 353.111 C 126 353.600, 127.350 354, 129 354 C 132.161 354, 133.041 355.386, 130.500 356.362 C 128.720 357.045, 126 356.157, 126 354.893 C 126 354.402, 124.463 354, 122.583 354 C 120.704 354, 119.017 353.583, 118.833 353.074 C 118.650 352.565, 117.204 351.826, 115.620 351.433 C 113.396 350.881, 112.844 351.035, 113.197 352.109 C 113.448 352.874, 114.810 353.638, 116.223 353.806 C 117.636 353.975, 119.584 354.987, 120.551 356.056 C 121.518 357.125, 123.050 358, 123.955 358 C 124.860 358, 126.057 358.457, 126.615 359.015 C 127.795 360.195, 143 358.159, 143 356.821 C 143 356.369, 142.297 356, 141.438 356 C 137.799 356, 129.069 350.844, 127.548 347.797 C 125.663 344.017, 125.662 344, 127.393 344 C 128.159 344, 129.045 343.325, 129.362 342.500 C 130.236 340.221, 128.078 340.803, 122 344.485 M 274 352.607 C 274 353.988, 272.844 354.151, 265.750 353.769 C 261.212 353.525, 256.142 353.695, 254.482 354.146 C 251.197 355.039, 245.807 355.826, 242.250 355.933 C 238.570 356.043, 239.698 358, 243.441 358 C 245.334 358, 247.160 357.550, 247.500 357 C 247.840 356.450, 250.068 356, 252.452 356 C 257.324 356, 258 356.862, 258 363.082 C 258 366.773, 258.175 367, 261.014 367 C 263.071 367, 264.897 366.060, 266.764 364.041 C 269.342 361.253, 269.760 361.135, 274 361.998 C 281.470 363.517, 284.120 363.258, 284.724 360.949 C 285.162 359.271, 285.827 358.996, 288.380 359.437 C 290.096 359.734, 290.833 359.684, 290.018 359.328 C 289.203 358.971, 287.933 358.076, 287.196 357.339 C 286.460 356.603, 284.989 356, 283.929 356 C 282.868 356, 282 355.487, 282 354.860 C 282 353.179, 278.829 351.068, 276.250 351.032 C 274.837 351.012, 274 351.598, 274 352.607 M 143.500 359.628 C 140.200 360.867, 135.430 361.908, 132.899 361.941 C 127.919 362.005, 122 360.355, 122 358.902 C 122 358.406, 120.838 358, 119.417 358 C 116.702 358, 116.497 359.782, 119.060 361.095 C 122.965 363.097, 128.025 364.881, 133 366.012 C 136.025 366.699, 139.068 367.713, 139.763 368.264 C 140.871 369.143, 144.941 369.022, 156.899 367.754 C 160.688 367.353, 160.604 369.810, 156.812 370.297 C 154.990 370.530, 156.425 370.520, 160 370.273 C 163.575 370.027, 166.928 369.414, 167.450 368.913 C 168.043 368.343, 167.927 368, 167.141 368 C 166.449 368, 166.160 367.550, 166.500 367 C 166.840 366.450, 169.131 366, 171.591 366 C 175.295 366, 176.220 366.387, 176.969 368.250 C 177.466 369.488, 177.902 369.938, 177.937 369.250 C 178.011 367.785, 190.013 367.457, 191.550 368.878 C 192.871 370.100, 240.845 371.059, 241.575 369.878 C 241.911 369.335, 240.844 369.175, 239.024 369.496 C 237.304 369.799, 233.709 369.397, 231.035 368.603 C 228.361 367.809, 225.910 367.424, 225.587 367.746 C 225.264 368.069, 225 367.749, 225 367.035 C 225 366.034, 223.062 365.854, 216.500 366.247 C 211.825 366.527, 208 366.410, 208 365.985 C 208 364.885, 210.690 364, 214.032 364 C 215.610 364, 217.283 363.316, 217.751 362.481 C 218.821 360.569, 232 359.065, 232 360.855 C 232 361.524, 230.337 362, 228 362 C 225.301 362, 224 362.441, 224 363.355 C 224 364.725, 232.398 365.977, 241.691 365.993 C 246.268 366.001, 248.398 367.594, 244.765 368.292 C 243.519 368.532, 245.537 368.789, 249.250 368.864 C 254.566 368.971, 256 368.690, 256 367.539 C 256 365.018, 246.382 363.270, 237.598 364.195 C 235.929 364.370, 234.512 363.968, 234.264 363.250 C 233.973 362.404, 234.981 362, 237.385 362 C 243.179 362, 240.752 359.599, 233.583 358.239 C 229.106 357.390, 225.614 357.318, 221.854 357.997 C 218.909 358.530, 205.361 359.130, 191.747 359.331 C 171.445 359.632, 166.786 359.447, 165.835 358.301 C 164.009 356.101, 150.802 356.885, 143.500 359.628 M 141.500 390.877 C 133.902 393.620, 130.494 395.624, 127.619 399.041 C 119.102 409.163, 133.003 419.931, 162.394 425.978 C 191.706 432.009, 227.432 430.882, 259.843 422.902 C 271.301 420.082, 287.458 414.661, 289.292 413.023 C 289.728 412.634, 283.950 409.295, 276.452 405.604 L 262.820 398.892 247.160 401.424 C 216.569 406.370, 198.579 406.828, 167.500 403.453 C 152.988 401.877, 148.592 400.846, 145.862 398.375 C 143.368 396.119, 143.516 394.393, 146.455 391.455 C 149.352 388.557, 148.275 388.431, 141.500 390.877 M 135.441 396.468 C 134.313 397.321, 134.032 397.950, 134.769 397.968 C 135.583 397.989, 135.835 398.809, 135.471 400.258 C 135.044 401.962, 135.791 403.371, 138.522 406.008 C 141.866 409.235, 142.238 409.367, 143.430 407.750 C 144.402 406.432, 146.051 406.026, 150.110 406.105 L 155.500 406.210 151.653 407.402 C 149.537 408.058, 147.378 409.361, 146.854 410.297 C 146.006 411.811, 146.517 412, 151.450 412 C 154.503 412, 157 411.550, 157 411 C 157 410.450, 157.675 410, 158.500 410 C 159.325 410, 160 409.576, 160 409.057 C 160 408.539, 161.912 407.971, 164.250 407.795 L 168.500 407.474 164.607 406.278 C 161.740 405.397, 160.172 405.373, 158.655 406.185 C 157.137 406.997, 156.495 406.986, 156.214 406.143 C 156.005 405.515, 154.948 405, 153.867 405 C 152.786 405, 150.525 404.288, 148.843 403.419 C 147.161 402.549, 144.796 402.085, 143.587 402.389 C 141.814 402.834, 141.089 402.277, 139.834 399.507 C 138.752 397.122, 138.617 395.934, 139.389 395.616 C 140 395.364, 139.799 395.122, 138.941 395.079 C 138.084 395.036, 136.509 395.661, 135.441 396.468 M 258.542 402.933 C 258.225 403.446, 256.688 403.829, 255.127 403.785 C 253.566 403.740, 251.798 404.007, 251.200 404.377 C 250.601 404.747, 247.042 405.078, 243.291 405.113 C 239.494 405.149, 235.370 405.787, 233.986 406.553 C 231.554 407.900, 231.590 407.930, 235.691 407.965 C 237.996 407.984, 240.120 408.386, 240.412 408.857 C 240.703 409.329, 243.236 409.986, 246.039 410.318 C 248.843 410.650, 252.526 411.615, 254.222 412.461 C 255.919 413.307, 259.065 414, 261.213 414 C 263.562 414, 264.872 414.399, 264.500 415 C 264.160 415.550, 261.659 416, 258.941 416 C 256.223 416, 254 415.550, 254 415 C 254 414.429, 251.020 414, 247.059 414 C 243.241 414, 239.840 414.450, 239.500 415 C 239.160 415.550, 237.810 416, 236.500 416 C 235.190 416, 233.840 415.550, 233.500 415 C 233.132 414.405, 234.323 414, 236.441 414 C 239.333 414, 240 413.625, 240 412 C 240 410.171, 239.338 410.001, 232.250 410.015 C 226.877 410.026, 224.960 410.328, 226 411 C 226.825 411.533, 228.287 411.976, 229.250 411.985 C 230.213 411.993, 231 412.450, 231 413 C 231 413.550, 229.425 414, 227.500 414 C 225.575 414, 224 413.550, 224 413 C 224 412.417, 220.686 412, 216.059 412 C 211.691 412, 207.840 412.450, 207.500 413 C 207.131 413.597, 200.660 414, 191.452 414 L 176.022 414 176.229 411.500 C 176.404 409.389, 176.941 409, 179.687 409 C 182.091 409, 182.795 409.371, 182.390 410.427 C 181.686 412.259, 190.355 413.780, 192.301 412.165 C 193.006 411.580, 196.715 410.966, 200.542 410.800 C 212.264 410.294, 208.141 408.479, 195.756 408.694 C 188.553 408.819, 185.087 408.557, 186.032 407.959 C 187.039 407.322, 185.758 407.026, 181.950 407.015 C 178.898 407.007, 175.973 407.424, 175.450 407.942 C 174.928 408.460, 171.637 409.343, 168.138 409.905 C 164.638 410.466, 161.263 411.563, 160.638 412.343 C 160.012 413.122, 158.244 414.052, 156.709 414.409 C 155.174 414.766, 154.188 415.495, 154.518 416.029 C 154.848 416.563, 154.979 417.011, 154.809 417.024 C 154.639 417.038, 152.137 417.314, 149.250 417.637 C 145.708 418.035, 144 417.864, 144 417.113 C 144 416.501, 144.873 416, 145.941 416 C 149.291 416, 149.135 414.247, 145.740 413.739 C 142.910 413.316, 141.068 414.211, 141.015 416.034 C 140.983 417.153, 146.918 420, 149.282 420 C 150.643 420, 153.451 420.708, 155.523 421.574 C 157.679 422.475, 159.549 422.756, 159.895 422.231 C 160.228 421.727, 161.923 421.038, 163.663 420.700 C 166.288 420.189, 167.099 420.503, 168.436 422.542 C 170.240 425.296, 175.408 425.984, 176.326 423.593 C 176.739 422.516, 178.530 422.274, 183.974 422.560 C 187.884 422.765, 191.514 423.200, 192.041 423.526 C 194.194 424.856, 192.733 425.911, 188.250 426.265 C 185.637 426.471, 189.350 426.717, 196.500 426.812 C 203.650 426.907, 212.305 426.530, 215.733 425.973 C 220.414 425.214, 222.455 425.267, 223.929 426.188 C 225.524 427.184, 226.512 427.106, 229.196 425.771 L 232.500 424.128 224.500 423.977 C 220.100 423.894, 214.994 423.672, 213.154 423.484 C 207.100 422.864, 208.535 422, 215.583 422.021 C 235.335 422.079, 258.386 421.013, 259.397 419.994 C 260.204 419.180, 260.058 419.050, 258.851 419.509 C 257.944 419.854, 256.904 419.654, 256.539 419.064 C 256.095 418.345, 256.997 418.169, 259.278 418.532 C 262.713 419.078, 269.566 417.157, 267.250 416.297 C 266.563 416.042, 266 415.463, 266 415.010 C 266 414.045, 269.975 414.880, 271.672 416.202 C 272.383 416.756, 273.561 416.732, 274.672 416.141 C 275.677 415.605, 277.962 414.625, 279.750 413.962 C 281.538 413.299, 283 412.410, 283 411.986 C 283 411.028, 280.432 410, 278.041 410 C 277.053 410, 275.685 409.325, 275 408.500 C 274.315 407.675, 273.015 407, 272.110 407 C 271.205 407, 268.809 405.875, 266.785 404.500 C 263.011 401.935, 259.563 401.280, 258.542 402.933 M 82.500 425.581 C 65.521 429.325, 47.410 436.771, 38.202 443.795 C 33.476 447.400, 31.491 452.166, 33.217 455.765 C 35.892 461.339, 44.314 464.167, 69.500 467.948 C 170.220 483.068, 286.140 478.214, 347.082 456.325 C 362.639 450.737, 372 443.713, 372 437.626 C 372 435.251, 367.244 430.281, 363.833 429.092 C 360.869 428.058, 360.777 428.096, 362.264 429.747 C 368.620 436.800, 361.713 444.024, 343.892 448.963 C 326.919 453.666, 296.496 457.849, 259 460.634 C 226.680 463.035, 157.202 463.027, 131.500 460.620 C 94.410 457.146, 66.413 450.847, 64.367 445.514 C 62.271 440.053, 86.605 429.632, 104.636 428.268 C 111.563 427.744, 111.894 427.614, 109.887 426.209 C 106.752 424.013, 91.226 423.657, 82.500 425.581 M 54.441 437.468 C 53.374 438.276, 51.761 438.951, 50.857 438.968 C 48.858 439.007, 47.641 441.675, 49.306 442.368 C 49.963 442.641, 49.124 442.631, 47.442 442.346 C 44.872 441.910, 43.612 442.526, 39.535 446.218 C 35.515 449.857, 34.792 451.027, 35.312 453.054 C 36.221 456.602, 42.285 461.034, 46.444 461.190 C 48.355 461.262, 49.750 461.595, 49.544 461.929 C 49.337 462.264, 51.446 462.641, 54.230 462.768 C 57.015 462.895, 59.853 463.463, 60.538 464.032 C 61.330 464.689, 65.101 464.822, 70.892 464.397 C 77.106 463.941, 80 464.069, 80 464.798 C 80 465.386, 78.763 466.047, 77.250 466.268 C 75.737 466.488, 78.513 466.446, 83.419 466.174 C 90.961 465.755, 92.251 465.904, 91.777 467.140 C 91.312 468.350, 92.683 468.600, 99.791 468.600 C 105.572 468.600, 108.497 468.991, 108.767 469.800 C 109.343 471.528, 112 471.281, 112 469.500 C 112 468.367, 113.222 468, 117 468 C 121.816 468, 123.860 469.421, 120.250 470.260 C 119.287 470.484, 124.912 470.503, 132.750 470.302 C 145.865 469.967, 147.006 470.080, 147.070 471.719 C 147.132 473.278, 147.248 473.250, 148 471.500 C 148.692 469.890, 148.873 469.827, 148.930 471.177 C 148.989 472.583, 150.383 472.905, 157.599 473.177 C 162.328 473.354, 166.394 473.180, 166.634 472.788 C 166.874 472.397, 168.067 472.433, 169.285 472.868 C 171.430 473.634, 186.292 474.479, 196.500 474.414 C 199.250 474.396, 206.073 473.809, 211.662 473.108 C 219.160 472.169, 222.365 472.125, 223.891 472.942 C 225.028 473.550, 227.071 473.769, 228.430 473.428 C 229.790 473.087, 235.086 472.693, 240.201 472.553 C 245.315 472.413, 251.300 471.792, 253.500 471.173 C 255.700 470.554, 259.188 470.037, 261.250 470.024 C 263.313 470.011, 265 469.550, 265 469 C 265 468.450, 262.975 468, 260.500 468 C 258.025 468, 256 467.550, 256 467 C 256 466.450, 255.100 466, 254 466 C 252.900 466, 252 465.498, 252 464.883 C 252 464.192, 252.856 464.024, 254.250 464.443 C 257.654 465.467, 270.165 466.874, 273 466.553 C 274.375 466.397, 274.712 466.465, 273.750 466.704 C 272.788 466.944, 272 467.772, 272 468.545 C 272 469.994, 275.488 469.795, 281 468.031 C 282.375 467.592, 286.176 467.181, 289.447 467.119 C 292.718 467.057, 295.845 466.555, 296.397 466.003 C 296.949 465.451, 299.587 465, 302.259 465 C 305.244 465, 306.880 464.614, 306.500 464 C 306.117 463.380, 308.278 462.936, 312.191 462.832 C 316.378 462.720, 317.239 462.532, 314.750 462.272 C 312.688 462.056, 311 461.504, 311 461.045 C 311 459.959, 319 459.191, 319.634 460.216 C 320.467 461.565, 324.227 461.072, 325.407 459.458 C 326.027 458.610, 328.327 457.756, 330.517 457.560 C 332.708 457.363, 334.950 457.150, 335.500 457.086 C 336.050 457.022, 335.825 456.533, 335 456 C 333.095 454.769, 326 454.699, 326 455.911 C 326 456.783, 323.473 457.123, 305.500 458.668 C 299.810 459.157, 298.366 459.524, 300.500 459.938 C 303.907 460.599, 304.076 462.564, 300.709 462.377 C 288.726 461.712, 280.210 461.388, 283.250 461.714 C 285.313 461.934, 287 462.539, 287 463.057 C 287 464.349, 273.277 464.257, 272.475 462.959 C 272.121 462.387, 271.082 462.156, 270.166 462.445 C 269.250 462.735, 262.563 463.160, 255.307 463.391 C 248.052 463.622, 241.567 464.149, 240.898 464.563 C 240.228 464.977, 217.815 465.320, 191.090 465.326 C 164.366 465.332, 146.469 465.504, 151.320 465.709 C 157.648 465.975, 160.026 466.422, 159.737 467.290 C 159.515 467.955, 158.808 468.455, 158.167 468.400 C 157.525 468.345, 153.241 468.233, 148.646 468.150 C 141.233 468.017, 139.988 467.718, 137.595 465.500 C 134.475 462.609, 128 461.934, 128 464.500 C 128 466.176, 124.902 466.339, 116.306 465.113 C 113.450 464.706, 111.339 464.739, 111.615 465.186 C 112.237 466.193, 107.822 466.259, 105.332 465.280 C 104.017 464.763, 105.477 464.057, 110.500 462.778 L 117.500 460.996 106.750 461.530 C 100.134 461.858, 96 461.692, 96 461.097 C 96 460.528, 94.048 460.375, 91.250 460.724 C 84.382 461.582, 75.873 461.283, 72.688 460.071 C 70.482 459.233, 69.814 459.321, 69.357 460.511 C 68.746 462.103, 63 462.633, 63 461.098 C 63 460.602, 64.384 459.713, 66.075 459.124 C 69.575 457.904, 69.138 456, 65.358 456 C 63.770 456, 62.997 455.536, 63.274 454.750 C 63.830 453.174, 65.046 453.348, 72.618 456.087 C 78.366 458.165, 78.877 458.199, 81.090 456.649 L 83.445 455 80.973 455.010 C 79.613 455.015, 75.013 453.785, 70.750 452.277 C 65.042 450.257, 63 449.069, 63 447.767 C 63 446.560, 62.226 446, 60.557 446 C 59.157 446, 57.441 445.039, 56.537 443.750 C 55.671 442.512, 54.745 441.613, 54.481 441.750 C 53.259 442.385, 51 441.898, 51 441 C 51 439.771, 55.243 439.672, 56.550 440.871 C 57.072 441.350, 58.625 441.996, 60 442.307 C 61.886 442.733, 62.941 442.273, 64.297 440.436 C 65.285 439.096, 65.622 438, 65.047 438 C 64.471 438, 64 438.450, 64 439 C 64 440.869, 60.815 440.010, 60.290 438 C 59.673 435.641, 57.159 435.412, 54.441 437.468 M 389.041 457.091 C 362.729 479.178, 263.042 494.760, 171.434 491.105 C 146.753 490.120, 108.739 486.976, 102.464 485.402 C 98.537 484.416, 98.857 486.725, 102.870 488.331 C 112.131 492.037, 129.483 495.323, 151.978 497.631 C 172.002 499.685, 235.447 500.555, 259.500 499.105 C 335.537 494.523, 383.961 480.381, 391.536 460.546 C 393.817 454.573, 393.146 453.645, 389.041 457.091 M 339.441 482.470 C 337.939 483.607, 335.689 483.807, 329.500 483.353 C 322.151 482.815, 321.663 482.893, 323.500 484.312 C 325.363 485.751, 325.379 485.904, 323.737 486.540 C 322.768 486.916, 321.319 486.679, 320.517 486.014 C 318.864 484.642, 309 485.567, 309 487.094 C 309 487.592, 311.264 488, 314.031 488 C 317.538 488, 319.234 488.446, 319.627 489.471 C 320.107 490.721, 320.780 490.643, 324.091 488.953 C 326.370 487.791, 330.174 486.918, 333.245 486.853 C 336.135 486.792, 339.388 486.125, 340.473 485.371 C 341.557 484.617, 344.257 483.993, 346.473 483.985 C 352.684 483.961, 353.987 482.407, 348.433 481.646 C 341.998 480.764, 341.652 480.796, 339.441 482.470 M 290 488.374 C 284.775 488.999, 279.906 489.892, 279.180 490.358 C 278.453 490.824, 275.356 491.175, 272.297 491.139 C 268.933 491.099, 265.909 491.651, 264.645 492.536 C 262.214 494.239, 257.413 494.477, 256.464 492.941 C 256.071 492.305, 254.550 492.161, 252.655 492.580 C 250.920 492.964, 244.775 493.257, 239 493.232 C 231.065 493.198, 229.233 493.416, 231.500 494.122 C 233.150 494.637, 235.738 495.113, 237.250 495.181 C 238.762 495.249, 240 495.686, 240 496.152 C 240 496.618, 242.813 496.993, 246.250 496.985 C 250.654 496.974, 252.057 496.683, 251 496 C 249.865 495.266, 250.305 495.027, 252.809 495.015 C 254.764 495.006, 255.865 495.409, 255.500 496 C 254.702 497.291, 261.520 497.327, 263.916 496.045 C 264.897 495.520, 271.955 494.831, 279.600 494.515 C 294.568 493.896, 309.754 492.500, 306.500 492.042 C 303.087 491.562, 298.713 491.714, 293.250 492.501 C 288.756 493.149, 288 493.023, 288 491.629 C 288 490.336, 289.084 489.991, 293.250 489.955 C 296.137 489.930, 299.850 489.292, 301.500 488.536 C 304.394 487.211, 304.412 487.164, 302 487.200 C 300.625 487.221, 295.225 487.749, 290 488.374 M 135.171 492.504 C 137.158 494.492, 186.314 497.921, 191.904 496.462 L 194.500 495.785 192 494.824 C 190.625 494.295, 185.450 493.895, 180.500 493.935 C 169.343 494.025, 149.639 493.311, 141.033 492.506 C 137.477 492.172, 134.839 492.172, 135.171 492.504" stroke="none" fill="#3374b6" fill-rule="evenodd"/><path d="M 340.129 276.576 C 332.681 278.580, 328.379 280.772, 326.616 283.463 L 325.115 285.755 331.307 283.792 C 346.879 278.858, 363.135 285.655, 369.753 299.865 C 371.872 304.414, 372.179 306.253, 371.772 311.947 C 371.043 322.133, 366.522 330.470, 356 341.033 C 346.483 350.587, 338.838 356.279, 325.280 363.907 C 311.092 371.888, 311.190 373.352, 325.624 369.064 C 347.864 362.457, 364.307 353.577, 377.122 341.253 C 383.445 335.172, 386.645 331.166, 389.122 326.231 C 392.210 320.077, 392.500 318.729, 392.500 310.500 C 392.500 302.690, 392.134 300.754, 389.730 295.858 C 386.668 289.623, 380.373 283.251, 374.130 280.066 C 364.441 275.123, 350.754 273.718, 340.129 276.576 M 357.403 278.843 C 357.796 279.479, 359.232 280, 360.594 280 C 363.624 280, 368 282.727, 368 284.615 C 368 286.483, 367.101 286.359, 363.136 283.942 C 361.286 282.814, 358.811 282.041, 357.636 282.224 C 355.777 282.514, 355.954 282.795, 359 284.393 C 360.925 285.402, 363.693 287.344, 365.151 288.707 L 367.802 291.185 369.159 288.355 C 370.619 285.308, 374 283.880, 374 286.310 C 374 287.111, 374.900 288.002, 376 288.290 C 377.704 288.735, 378 289.654, 378 294.490 C 378 301.988, 375.822 301.457, 374.636 293.670 C 373.938 289.086, 373.412 288, 371.886 288 C 369.125 288, 369.476 291.567, 373 299.340 C 376.130 306.242, 376.845 312.553, 374.907 316.173 C 374.117 317.650, 374.117 318.517, 374.907 319.307 C 375.508 319.908, 376 321.435, 376 322.700 C 376 325.642, 378.289 325.669, 380.326 322.750 C 381.574 320.960, 381.906 320.841, 381.948 322.167 C 381.976 323.083, 382.531 324.010, 383.180 324.227 C 383.873 324.458, 384.074 325.364, 383.668 326.423 C 383.114 327.867, 382.689 327.987, 381.532 327.027 C 379.323 325.193, 378 326.704, 378 331.059 C 378 335.494, 380.359 336.611, 381.572 332.750 C 381.960 331.512, 383.340 329.509, 384.639 328.298 C 385.938 327.087, 387 324.963, 387 323.578 C 387 322.194, 387.941 319.385, 389.091 317.338 C 390.803 314.290, 391.062 312.655, 390.521 308.323 C 390.158 305.413, 389.442 302.773, 388.930 302.457 C 388.419 302.141, 388 300.591, 388 299.012 C 388 295.679, 385.597 292.834, 383.471 293.649 C 382.470 294.033, 382 293.557, 382 292.159 C 382 289.028, 374.296 282, 370.864 282 C 370.200 282, 368.914 281.327, 368.006 280.505 C 365.933 278.629, 356.342 277.126, 357.403 278.843 M 143.768 280.112 C 124.144 282.005, 102.759 287.812, 85.452 295.947 C 71.526 302.493, 68.974 306.092, 74.657 311.168 C 79.274 315.292, 100.972 319.850, 126.500 322.059 C 143.464 323.527, 197.513 323.537, 216 322.076 C 249.597 319.420, 291.398 312.778, 297 309.205 C 298.375 308.327, 303.550 305.456, 308.500 302.824 C 313.856 299.976, 316.625 298.031, 315.339 298.019 C 314.150 298.009, 306.050 299.108, 297.339 300.462 C 277.521 303.543, 250.612 306.556, 228.500 308.170 C 204.979 309.888, 137.205 309.896, 125.500 308.183 C 114.458 306.566, 108 303.944, 108 301.076 C 108 297.109, 122.692 290.517, 146.353 283.871 C 153.373 281.898, 157.487 280.293, 156.739 279.818 C 156.058 279.385, 154.825 279.085, 154 279.150 C 153.175 279.216, 148.571 279.649, 143.768 280.112 M 86.638 298.500 C 86.972 299.368, 88.467 300, 90.190 300 C 94.990 300, 92.951 302.386, 87.420 303.242 C 84.714 303.660, 81.719 304.452, 80.764 305.002 C 78.556 306.271, 78 306.259, 78 304.941 C 78 304.359, 78.403 304.131, 78.895 304.435 C 79.388 304.740, 80.048 304.316, 80.364 303.494 C 80.679 302.672, 82.076 302, 83.469 302 C 84.861 302, 86 301.550, 86 301 C 86 298.900, 81.302 300.131, 78.077 303.077 L 74.709 306.153 76.971 308.327 C 78.554 309.847, 79.374 310.124, 79.700 309.250 C 80.235 307.816, 83 307.536, 83 308.917 C 83 309.421, 82.438 310.040, 81.750 310.293 C 81.063 310.546, 81.850 311.095, 83.500 311.513 C 85.150 311.930, 87.706 312.964, 89.180 313.810 C 91.607 315.203, 92.351 315.190, 97.045 313.674 C 102.888 311.787, 107.580 311.511, 108.500 313 C 108.840 313.550, 110.415 314, 112 314 C 113.585 314, 115.160 314.450, 115.500 315 C 116.301 316.296, 123.731 316.305, 124.167 315.010 C 124.350 314.465, 127.326 313.725, 130.781 313.364 C 134.236 313.004, 137.337 312.264, 137.673 311.720 C 138.068 311.080, 134.263 310.899, 126.892 311.205 C 118.596 311.550, 114.606 311.307, 112.210 310.309 C 110.400 309.556, 109.169 308.535, 109.474 308.042 C 109.779 307.548, 109.123 306.856, 108.015 306.505 C 106.907 306.153, 106 305.236, 106 304.468 C 106 302.162, 102.592 300.902, 100.405 302.398 C 99.357 303.115, 97.150 304.001, 95.500 304.366 C 92.673 304.992, 92.612 304.943, 94.441 303.515 C 95.509 302.682, 97.251 302, 98.314 302 C 99.900 302, 100.027 301.737, 99.024 300.529 C 98.353 299.720, 96.835 299.158, 95.652 299.279 C 94.379 299.410, 93.602 298.990, 93.750 298.250 C 93.916 297.418, 92.673 297, 90.031 297 C 86.915 297, 86.186 297.322, 86.638 298.500 M 277.988 306.514 C 277.042 307.655, 275.224 307.930, 270.616 307.631 C 266.661 307.374, 265.913 307.458, 268.500 307.867 C 273.013 308.581, 272.135 309.917, 267.500 309.390 C 260.925 308.642, 240.496 309.104, 239.578 310.022 C 239.040 310.560, 237.002 311.053, 235.050 311.118 L 231.500 311.237 234.500 311.890 C 240.380 313.169, 235.014 314.123, 221.852 314.138 C 213.128 314.148, 208.477 313.772, 208.012 313.020 C 207.248 311.783, 197.850 311.856, 195.813 313.116 C 194.709 313.798, 204.338 315.724, 206.250 315.204 C 206.662 315.092, 207 315.675, 207 316.500 C 207 317.690, 205.559 318, 200.035 318 C 194.181 318, 192.906 317.693, 192.039 316.073 C 191.219 314.541, 191.366 314.052, 192.754 313.689 C 193.714 313.437, 191.800 313.225, 188.500 313.216 C 184.567 313.205, 183.358 313.438, 184.990 313.892 C 190.889 315.534, 183.427 316.031, 154.952 315.891 C 134.625 315.791, 124.563 316.088, 124.122 316.802 C 123.762 317.385, 121.675 318.060, 119.484 318.302 C 117.293 318.544, 118.293 318.628, 121.706 318.489 C 125.120 318.351, 128.045 318.568, 128.206 318.973 C 128.368 319.377, 132.028 320.021, 136.340 320.404 C 141.385 320.852, 143.964 320.750, 143.574 320.119 C 142.323 318.095, 145.562 317.819, 160.820 318.648 L 176.500 319.500 165.500 320.052 L 154.500 320.605 168 320.703 C 175.425 320.757, 180.375 320.483, 179 320.094 L 176.500 319.387 179 318.707 C 183.905 317.373, 190.842 317.896, 191.838 319.674 C 192.685 321.189, 193.685 321.236, 202.329 320.174 C 207.584 319.528, 215.059 319, 218.942 319 C 224.668 319, 226 318.706, 226 317.441 C 226 316.584, 226.430 316.148, 226.955 316.472 C 227.480 316.797, 233.668 316.410, 240.705 315.612 C 247.742 314.814, 255.300 314.167, 257.500 314.173 C 261.952 314.185, 276.509 312.366, 273.750 312.142 C 271.782 311.982, 271.301 308.987, 273.250 309.024 C 273.938 309.037, 276.170 309.436, 278.212 309.910 C 280.713 310.491, 281.855 310.428, 281.712 309.718 C 281.595 309.138, 282.520 308.131, 283.768 307.481 C 287.590 305.487, 287.496 305, 283.289 305 C 280.897 305, 278.731 305.619, 277.988 306.514 M 126.676 338.965 C 105.666 347.927, 105.022 358.835, 125.059 366.367 C 154.161 377.307, 211.710 378.606, 262 369.459 C 274.098 367.258, 296.340 361.916, 297.372 360.962 C 297.851 360.519, 296.011 359.026, 293.284 357.644 C 290.556 356.262, 286.158 353.477, 283.509 351.455 L 278.694 347.780 262.597 350.355 C 229.234 355.694, 205.572 357.229, 177.236 355.892 C 134.609 353.882, 125.658 350.630, 133.500 340 C 134.875 338.136, 136 336.474, 136 336.306 C 136 335.439, 132.810 336.348, 126.676 338.965 M 122 344.485 C 117.026 347.499, 114.901 350.376, 117.500 350.578 C 120.904 350.841, 126 352.360, 126 353.111 C 126 353.600, 127.350 354, 129 354 C 132.161 354, 133.041 355.386, 130.500 356.362 C 128.720 357.045, 126 356.157, 126 354.893 C 126 354.402, 124.463 354, 122.583 354 C 120.704 354, 119.017 353.583, 118.833 353.074 C 118.650 352.565, 117.204 351.826, 115.620 351.433 C 113.396 350.881, 112.844 351.035, 113.197 352.109 C 113.448 352.874, 114.810 353.638, 116.223 353.806 C 117.636 353.975, 119.584 354.987, 120.551 356.056 C 121.518 357.125, 123.050 358, 123.955 358 C 124.860 358, 126.057 358.457, 126.615 359.015 C 127.795 360.195, 143 358.159, 143 356.821 C 143 356.369, 142.297 356, 141.438 356 C 137.799 356, 129.069 350.844, 127.548 347.797 C 125.663 344.017, 125.662 344, 127.393 344 C 128.159 344, 129.045 343.325, 129.362 342.500 C 130.236 340.221, 128.078 340.803, 122 344.485 M 274 352.607 C 274 353.988, 272.844 354.151, 265.750 353.769 C 261.212 353.525, 256.142 353.695, 254.482 354.146 C 251.197 355.039, 245.807 355.826, 242.250 355.933 C 238.570 356.043, 239.698 358, 243.441 358 C 245.334 358, 247.160 357.550, 247.500 357 C 247.840 356.450, 250.068 356, 252.452 356 C 257.324 356, 258 356.862, 258 363.082 C 258 366.773, 258.175 367, 261.014 367 C 263.071 367, 264.897 366.060, 266.764 364.041 C 269.342 361.253, 269.760 361.135, 274 361.998 C 281.470 363.517, 284.120 363.258, 284.724 360.949 C 285.162 359.271, 285.827 358.996, 288.380 359.437 C 290.096 359.734, 290.833 359.684, 290.018 359.328 C 289.203 358.971, 287.933 358.076, 287.196 357.339 C 286.460 356.603, 284.989 356, 283.929 356 C 282.868 356, 282 355.487, 282 354.860 C 282 353.179, 278.829 351.068, 276.250 351.032 C 274.837 351.012, 274 351.598, 274 352.607 M 143.500 359.628 C 140.200 360.867, 135.430 361.908, 132.899 361.941 C 127.919 362.005, 122 360.355, 122 358.902 C 122 358.406, 120.838 358, 119.417 358 C 116.702 358, 116.497 359.782, 119.060 361.095 C 122.965 363.097, 128.025 364.881, 133 366.012 C 136.025 366.699, 139.068 367.713, 139.763 368.264 C 140.871 369.143, 144.941 369.022, 156.899 367.754 C 160.688 367.353, 160.604 369.810, 156.812 370.297 C 154.990 370.530, 156.425 370.520, 160 370.273 C 163.575 370.027, 166.928 369.414, 167.450 368.913 C 168.043 368.343, 167.927 368, 167.141 368 C 166.449 368, 166.160 367.550, 166.500 367 C 166.840 366.450, 169.131 366, 171.591 366 C 175.295 366, 176.220 366.387, 176.969 368.250 C 177.466 369.488, 177.902 369.938, 177.937 369.250 C 178.011 367.785, 190.013 367.457, 191.550 368.878 C 192.871 370.100, 240.845 371.059, 241.575 369.878 C 241.911 369.335, 240.844 369.175, 239.024 369.496 C 237.304 369.799, 233.709 369.397, 231.035 368.603 C 228.361 367.809, 225.910 367.424, 225.587 367.746 C 225.264 368.069, 225 367.749, 225 367.035 C 225 366.034, 223.062 365.854, 216.500 366.247 C 211.825 366.527, 208 366.410, 208 365.985 C 208 364.885, 210.690 364, 214.032 364 C 215.610 364, 217.283 363.316, 217.751 362.481 C 218.821 360.569, 232 359.065, 232 360.855 C 232 361.524, 230.337 362, 228 362 C 225.301 362, 224 362.441, 224 363.355 C 224 364.725, 232.398 365.977, 241.691 365.993 C 246.268 366.001, 248.398 367.594, 244.765 368.292 C 243.519 368.532, 245.537 368.789, 249.250 368.864 C 254.566 368.971, 256 368.690, 256 367.539 C 256 365.018, 246.382 363.270, 237.598 364.195 C 235.929 364.370, 234.512 363.968, 234.264 363.250 C 233.973 362.404, 234.981 362, 237.385 362 C 243.179 362, 240.752 359.599, 233.583 358.239 C 229.106 357.390, 225.614 357.318, 221.854 357.997 C 218.909 358.530, 205.361 359.130, 191.747 359.331 C 171.445 359.632, 166.786 359.447, 165.835 358.301 C 164.009 356.101, 150.802 356.885, 143.500 359.628 M 141.500 390.877 C 133.902 393.620, 130.494 395.624, 127.619 399.041 C 119.102 409.163, 133.003 419.931, 162.394 425.978 C 191.706 432.009, 227.432 430.882, 259.843 422.902 C 271.301 420.082, 287.458 414.661, 289.292 413.023 C 289.728 412.634, 283.950 409.295, 276.452 405.604 L 262.820 398.892 247.160 401.424 C 216.569 406.370, 198.579 406.828, 167.500 403.453 C 152.988 401.877, 148.592 400.846, 145.862 398.375 C 143.368 396.119, 143.516 394.393, 146.455 391.455 C 149.352 388.557, 148.275 388.431, 141.500 390.877 M 135.441 396.468 C 134.313 397.321, 134.032 397.950, 134.769 397.968 C 135.583 397.989, 135.835 398.809, 135.471 400.258 C 135.044 401.962, 135.791 403.371, 138.522 406.008 C 141.866 409.235, 142.238 409.367, 143.430 407.750 C 144.402 406.432, 146.051 406.026, 150.110 406.105 L 155.500 406.210 151.653 407.402 C 149.537 408.058, 147.378 409.361, 146.854 410.297 C 146.006 411.811, 146.517 412, 151.450 412 C 154.503 412, 157 411.550, 157 411 C 157 410.450, 157.675 410, 158.500 410 C 159.325 410, 160 409.576, 160 409.057 C 160 408.539, 161.912 407.971, 164.250 407.795 L 168.500 407.474 164.607 406.278 C 161.740 405.397, 160.172 405.373, 158.655 406.185 C 157.137 406.997, 156.495 406.986, 156.214 406.143 C 156.005 405.515, 154.948 405, 153.867 405 C 152.786 405, 150.525 404.288, 148.843 403.419 C 147.161 402.549, 144.796 402.085, 143.587 402.389 C 141.814 402.834, 141.089 402.277, 139.834 399.507 C 138.752 397.122, 138.617 395.934, 139.389 395.616 C 140 395.364, 139.799 395.122, 138.941 395.079 C 138.084 395.036, 136.509 395.661, 135.441 396.468 M 258.542 402.933 C 258.225 403.446, 256.688 403.829, 255.127 403.785 C 253.566 403.740, 251.798 404.007, 251.200 404.377 C 250.601 404.747, 247.042 405.078, 243.291 405.113 C 239.494 405.149, 235.370 405.787, 233.986 406.553 C 231.554 407.900, 231.590 407.930, 235.691 407.965 C 237.996 407.984, 240.120 408.386, 240.412 408.857 C 240.703 409.329, 243.236 409.986, 246.039 410.318 C 248.843 410.650, 252.526 411.615, 254.222 412.461 C 255.919 413.307, 259.065 414, 261.213 414 C 263.562 414, 264.872 414.399, 264.500 415 C 264.160 415.550, 261.659 416, 258.941 416 C 256.223 416, 254 415.550, 254 415 C 254 414.429, 251.020 414, 247.059 414 C 243.241 414, 239.840 414.450, 239.500 415 C 239.160 415.550, 237.810 416, 236.500 416 C 235.190 416, 233.840 415.550, 233.500 415 C 233.132 414.405, 234.323 414, 236.441 414 C 239.333 414, 240 413.625, 240 412 C 240 410.171, 239.338 410.001, 232.250 410.015 C 226.877 410.026, 224.960 410.328, 226 411 C 226.825 411.533, 228.287 411.976, 229.250 411.985 C 230.213 411.993, 231 412.450, 231 413 C 231 413.550, 229.425 414, 227.500 414 C 225.575 414, 224 413.550, 224 413 C 224 412.417, 220.686 412, 216.059 412 C 211.691 412, 207.840 412.450, 207.500 413 C 207.131 413.597, 200.660 414, 191.452 414 L 176.022 414 176.229 411.500 C 176.404 409.389, 176.941 409, 179.687 409 C 182.091 409, 182.795 409.371, 182.390 410.427 C 181.686 412.259, 190.355 413.780, 192.301 412.165 C 193.006 411.580, 196.715 410.966, 200.542 410.800 C 212.264 410.294, 208.141 408.479, 195.756 408.694 C 188.553 408.819, 185.087 408.557, 186.032 407.959 C 187.039 407.322, 185.758 407.026, 181.950 407.015 C 178.898 407.007, 175.973 407.424, 175.450 407.942 C 174.928 408.460, 171.637 409.343, 168.138 409.905 C 164.638 410.466, 161.263 411.563, 160.638 412.343 C 160.012 413.122, 158.244 414.052, 156.709 414.409 C 155.174 414.766, 154.188 415.495, 154.518 416.029 C 154.848 416.563, 154.979 417.011, 154.809 417.024 C 154.639 417.038, 152.137 417.314, 149.250 417.637 C 145.708 418.035, 144 417.864, 144 417.113 C 144 416.501, 144.873 416, 145.941 416 C 149.291 416, 149.135 414.247, 145.740 413.739 C 142.910 413.316, 141.068 414.211, 141.015 416.034 C 140.983 417.153, 146.918 420, 149.282 420 C 150.643 420, 153.451 420.708, 155.523 421.574 C 157.679 422.475, 159.549 422.756, 159.895 422.231 C 160.228 421.727, 161.923 421.038, 163.663 420.700 C 166.288 420.189, 167.099 420.503, 168.436 422.542 C 170.240 425.296, 175.408 425.984, 176.326 423.593 C 176.739 422.516, 178.530 422.274, 183.974 422.560 C 187.884 422.765, 191.514 423.200, 192.041 423.526 C 194.194 424.856, 192.733 425.911, 188.250 426.265 C 185.637 426.471, 189.350 426.717, 196.500 426.812 C 203.650 426.907, 212.305 426.530, 215.733 425.973 C 220.414 425.214, 222.455 425.267, 223.929 426.188 C 225.524 427.184, 226.512 427.106, 229.196 425.771 L 232.500 424.128 224.500 423.977 C 220.100 423.894, 214.994 423.672, 213.154 423.484 C 207.100 422.864, 208.535 422, 215.583 422.021 C 235.335 422.079, 258.386 421.013, 259.397 419.994 C 260.204 419.180, 260.058 419.050, 258.851 419.509 C 257.944 419.854, 256.904 419.654, 256.539 419.064 C 256.095 418.345, 256.997 418.169, 259.278 418.532 C 262.713 419.078, 269.566 417.157, 267.250 416.297 C 266.563 416.042, 266 415.463, 266 415.010 C 266 414.045, 269.975 414.880, 271.672 416.202 C 272.383 416.756, 273.561 416.732, 274.672 416.141 C 275.677 415.605, 277.962 414.625, 279.750 413.962 C 281.538 413.299, 283 412.410, 283 411.986 C 283 411.028, 280.432 410, 278.041 410 C 277.053 410, 275.685 409.325, 275 408.500 C 274.315 407.675, 273.015 407, 272.110 407 C 271.205 407, 268.809 405.875, 266.785 404.500 C 263.011 401.935, 259.563 401.280, 258.542 402.933 M 82.500 425.581 C 65.521 429.325, 47.410 436.771, 38.202 443.795 C 33.476 447.400, 31.491 452.166, 33.217 455.765 C 35.892 461.339, 44.314 464.167, 69.500 467.948 C 170.220 483.068, 286.140 478.214, 347.082 456.325 C 362.639 450.737, 372 443.713, 372 437.626 C 372 435.251, 367.244 430.281, 363.833 429.092 C 360.869 428.058, 360.777 428.096, 362.264 429.747 C 368.620 436.800, 361.713 444.024, 343.892 448.963 C 326.919 453.666, 296.496 457.849, 259 460.634 C 226.680 463.035, 157.202 463.027, 131.500 460.620 C 94.410 457.146, 66.413 450.847, 64.367 445.514 C 62.271 440.053, 86.605 429.632, 104.636 428.268 C 111.563 427.744, 111.894 427.614, 109.887 426.209 C 106.752 424.013, 91.226 423.657, 82.500 425.581 M 54.441 437.468 C 53.374 438.276, 51.761 438.951, 50.857 438.968 C 48.858 439.007, 47.641 441.675, 49.306 442.368 C 49.963 442.641, 49.124 442.631, 47.442 442.346 C 44.872 441.910, 43.612 442.526, 39.535 446.218 C 35.515 449.857, 34.792 451.027, 35.312 453.054 C 36.221 456.602, 42.285 461.034, 46.444 461.190 C 48.355 461.262, 49.750 461.595, 49.544 461.929 C 49.337 462.264, 51.446 462.641, 54.230 462.768 C 57.015 462.895, 59.853 463.463, 60.538 464.032 C 61.330 464.689, 65.101 464.822, 70.892 464.397 C 77.106 463.941, 80 464.069, 80 464.798 C 80 465.386, 78.763 466.047, 77.250 466.268 C 75.737 466.488, 78.513 466.446, 83.419 466.174 C 90.961 465.755, 92.251 465.904, 91.777 467.140 C 91.312 468.350, 92.683 468.600, 99.791 468.600 C 105.572 468.600, 108.497 468.991, 108.767 469.800 C 109.343 471.528, 112 471.281, 112 469.500 C 112 468.367, 113.222 468, 117 468 C 121.816 468, 123.860 469.421, 120.250 470.260 C 119.287 470.484, 124.912 470.503, 132.750 470.302 C 145.865 469.967, 147.006 470.080, 147.070 471.719 C 147.132 473.278, 147.248 473.250, 148 471.500 C 148.692 469.890, 148.873 469.827, 148.930 471.177 C 148.989 472.583, 150.383 472.905, 157.599 473.177 C 162.328 473.354, 166.394 473.180, 166.634 472.788 C 166.874 472.397, 168.067 472.433, 169.285 472.868 C 171.430 473.634, 186.292 474.479, 196.500 474.414 C 199.250 474.396, 206.073 473.809, 211.662 473.108 C 219.160 472.169, 222.365 472.125, 223.891 472.942 C 225.028 473.550, 227.071 473.769, 228.430 473.428 C 229.790 473.087, 235.086 472.693, 240.201 472.553 C 245.315 472.413, 251.300 471.792, 253.500 471.173 C 255.700 470.554, 259.188 470.037, 261.250 470.024 C 263.313 470.011, 265 469.550, 265 469 C 265 468.450, 262.975 468, 260.500 468 C 258.025 468, 256 467.550, 256 467 C 256 466.450, 255.100 466, 254 466 C 252.900 466, 252 465.498, 252 464.883 C 252 464.192, 252.856 464.024, 254.250 464.443 C 257.654 465.467, 270.165 466.874, 273 466.553 C 274.375 466.397, 274.712 466.465, 273.750 466.704 C 272.788 466.944, 272 467.772, 272 468.545 C 272 469.994, 275.488 469.795, 281 468.031 C 282.375 467.592, 286.176 467.181, 289.447 467.119 C 292.718 467.057, 295.845 466.555, 296.397 466.003 C 296.949 465.451, 299.587 465, 302.259 465 C 305.244 465, 306.880 464.614, 306.500 464 C 306.117 463.380, 308.278 462.936, 312.191 462.832 C 316.378 462.720, 317.239 462.532, 314.750 462.272 C 312.688 462.056, 311 461.504, 311 461.045 C 311 459.959, 319 459.191, 319.634 460.216 C 320.467 461.565, 324.227 461.072, 325.407 459.458 C 326.027 458.610, 328.327 457.756, 330.517 457.560 C 332.708 457.363, 334.950 457.150, 335.500 457.086 C 336.050 457.022, 335.825 456.533, 335 456 C 333.095 454.769, 326 454.699, 326 455.911 C 326 456.783, 323.473 457.123, 305.500 458.668 C 299.810 459.157, 298.366 459.524, 300.500 459.938 C 303.907 460.599, 304.076 462.564, 300.709 462.377 C 288.726 461.712, 280.210 461.388, 283.250 461.714 C 285.313 461.934, 287 462.539, 287 463.057 C 287 464.349, 273.277 464.257, 272.475 462.959 C 272.121 462.387, 271.082 462.156, 270.166 462.445 C 269.250 462.735, 262.563 463.160, 255.307 463.391 C 248.052 463.622, 241.567 464.149, 240.898 464.563 C 240.228 464.977, 217.815 465.320, 191.090 465.326 C 164.366 465.332, 146.469 465.504, 151.320 465.709 C 157.648 465.975, 160.026 466.422, 159.737 467.290 C 159.515 467.955, 158.808 468.455, 158.167 468.400 C 157.525 468.345, 153.241 468.233, 148.646 468.150 C 141.233 468.017, 139.988 467.718, 137.595 465.500 C 134.475 462.609, 128 461.934, 128 464.500 C 128 466.176, 124.902 466.339, 116.306 465.113 C 113.450 464.706, 111.339 464.739, 111.615 465.186 C 112.237 466.193, 107.822 466.259, 105.332 465.280 C 104.017 464.763, 105.477 464.057, 110.500 462.778 L 117.500 460.996 106.750 461.530 C 100.134 461.858, 96 461.692, 96 461.097 C 96 460.528, 94.048 460.375, 91.250 460.724 C 84.382 461.582, 75.873 461.283, 72.688 460.071 C 70.482 459.233, 69.814 459.321, 69.357 460.511 C 68.746 462.103, 63 462.633, 63 461.098 C 63 460.602, 64.384 459.713, 66.075 459.124 C 69.575 457.904, 69.138 456, 65.358 456 C 63.770 456, 62.997 455.536, 63.274 454.750 C 63.830 453.174, 65.046 453.348, 72.618 456.087 C 78.366 458.165, 78.877 458.199, 81.090 456.649 L 83.445 455 80.973 455.010 C 79.613 455.015, 75.013 453.785, 70.750 452.277 C 65.042 450.257, 63 449.069, 63 447.767 C 63 446.560, 62.226 446, 60.557 446 C 59.157 446, 57.441 445.039, 56.537 443.750 C 55.671 442.512, 54.745 441.613, 54.481 441.750 C 53.259 442.385, 51 441.898, 51 441 C 51 439.771, 55.243 439.672, 56.550 440.871 C 57.072 441.350, 58.625 441.996, 60 442.307 C 61.886 442.733, 62.941 442.273, 64.297 440.436 C 65.285 439.096, 65.622 438, 65.047 438 C 64.471 438, 64 438.450, 64 439 C 64 440.869, 60.815 440.010, 60.290 438 C 59.673 435.641, 57.159 435.412, 54.441 437.468 M 389.041 457.091 C 362.729 479.178, 263.042 494.760, 171.434 491.105 C 146.753 490.120, 108.739 486.976, 102.464 485.402 C 98.537 484.416, 98.857 486.725, 102.870 488.331 C 112.131 492.037, 129.483 495.323, 151.978 497.631 C 172.002 499.685, 235.447 500.555, 259.500 499.105 C 335.537 494.523, 383.961 480.381, 391.536 460.546 C 393.817 454.573, 393.146 453.645, 389.041 457.091 M 339.441 482.470 C 337.939 483.607, 335.689 483.807, 329.500 483.353 C 322.151 482.815, 321.663 482.893, 323.500 484.312 C 325.363 485.751, 325.379 485.904, 323.737 486.540 C 322.768 486.916, 321.319 486.679, 320.517 486.014 C 318.864 484.642, 309 485.567, 309 487.094 C 309 487.592, 311.264 488, 314.031 488 C 317.538 488, 319.234 488.446, 319.627 489.471 C 320.107 490.721, 320.780 490.643, 324.091 488.953 C 326.370 487.791, 330.174 486.918, 333.245 486.853 C 336.135 486.792, 339.388 486.125, 340.473 485.371 C 341.557 484.617, 344.257 483.993, 346.473 483.985 C 352.684 483.961, 353.987 482.407, 348.433 481.646 C 341.998 480.764, 341.652 480.796, 339.441 482.470 M 290 488.374 C 284.775 488.999, 279.906 489.892, 279.180 490.358 C 278.453 490.824, 275.356 491.175, 272.297 491.139 C 268.933 491.099, 265.909 491.651, 264.645 492.536 C 262.214 494.239, 257.413 494.477, 256.464 492.941 C 256.071 492.305, 254.550 492.161, 252.655 492.580 C 250.920 492.964, 244.775 493.257, 239 493.232 C 231.065 493.198, 229.233 493.416, 231.500 494.122 C 233.150 494.637, 235.738 495.113, 237.250 495.181 C 238.762 495.249, 240 495.686, 240 496.152 C 240 496.618, 242.813 496.993, 246.250 496.985 C 250.654 496.974, 252.057 496.683, 251 496 C 249.865 495.266, 250.305 495.027, 252.809 495.015 C 254.764 495.006, 255.865 495.409, 255.500 496 C 254.702 497.291, 261.520 497.327, 263.916 496.045 C 264.897 495.520, 271.955 494.831, 279.600 494.515 C 294.568 493.896, 309.754 492.500, 306.500 492.042 C 303.087 491.562, 298.713 491.714, 293.250 492.501 C 288.756 493.149, 288 493.023, 288 491.629 C 288 490.336, 289.084 489.991, 293.250 489.955 C 296.137 489.930, 299.850 489.292, 301.500 488.536 C 304.394 487.211, 304.412 487.164, 302 487.200 C 300.625 487.221, 295.225 487.749, 290 488.374 M 135.171 492.504 C 137.158 494.492, 186.314 497.921, 191.904 496.462 L 194.500 495.785 192 494.824 C 190.625 494.295, 185.450 493.895, 180.500 493.935 C 169.343 494.025, 149.639 493.311, 141.033 492.506 C 137.477 492.172, 134.839 492.172, 135.171 492.504" stroke="none" fill="#3374b6" fill-rule="evenodd"/><path d="M 357.403 278.843 C 357.796 279.479, 359.232 280, 360.594 280 C 363.624 280, 368 282.727, 368 284.615 C 368 286.483, 367.101 286.359, 363.136 283.942 C 361.286 282.814, 358.811 282.041, 357.636 282.224 C 355.777 282.514, 355.954 282.795, 359 284.393 C 360.925 285.402, 363.693 287.344, 365.151 288.707 L 367.802 291.185 369.159 288.355 C 370.619 285.308, 374 283.880, 374 286.310 C 374 287.111, 374.900 288.002, 376 288.290 C 377.704 288.735, 378 289.654, 378 294.490 C 378 301.988, 375.822 301.457, 374.636 293.670 C 373.938 289.086, 373.412 288, 371.886 288 C 369.125 288, 369.476 291.567, 373 299.340 C 376.130 306.242, 376.845 312.553, 374.907 316.173 C 374.117 317.650, 374.117 318.517, 374.907 319.307 C 375.508 319.908, 376 321.435, 376 322.700 C 376 325.642, 378.289 325.669, 380.326 322.750 C 381.574 320.960, 381.906 320.841, 381.948 322.167 C 381.976 323.083, 382.531 324.010, 383.180 324.227 C 383.873 324.458, 384.074 325.364, 383.668 326.423 C 383.114 327.867, 382.689 327.987, 381.532 327.027 C 379.323 325.193, 378 326.704, 378 331.059 C 378 335.494, 380.359 336.611, 381.572 332.750 C 381.960 331.512, 383.340 329.509, 384.639 328.298 C 385.938 327.087, 387 324.963, 387 323.578 C 387 322.194, 387.941 319.385, 389.091 317.338 C 390.803 314.290, 391.062 312.655, 390.521 308.323 C 390.158 305.413, 389.442 302.773, 388.930 302.457 C 388.419 302.141, 388 300.591, 388 299.012 C 388 295.679, 385.597 292.834, 383.471 293.649 C 382.470 294.033, 382 293.557, 382 292.159 C 382 289.028, 374.296 282, 370.864 282 C 370.200 282, 368.914 281.327, 368.006 280.505 C 365.933 278.629, 356.342 277.126, 357.403 278.843 M 86.638 298.500 C 86.972 299.368, 88.467 300, 90.190 300 C 94.990 300, 92.951 302.386, 87.420 303.242 C 84.714 303.660, 81.719 304.452, 80.764 305.002 C 78.556 306.271, 78 306.259, 78 304.941 C 78 304.359, 78.403 304.131, 78.895 304.435 C 79.388 304.740, 80.048 304.316, 80.364 303.494 C 80.679 302.672, 82.076 302, 83.469 302 C 84.861 302, 86 301.550, 86 301 C 86 298.900, 81.302 300.131, 78.077 303.077 L 74.709 306.153 76.971 308.327 C 78.554 309.847, 79.374 310.124, 79.700 309.250 C 80.235 307.816, 83 307.536, 83 308.917 C 83 309.421, 82.438 310.040, 81.750 310.293 C 81.063 310.546, 81.850 311.095, 83.500 311.513 C 85.150 311.930, 87.706 312.964, 89.180 313.810 C 91.607 315.203, 92.351 315.190, 97.045 313.674 C 102.888 311.787, 107.580 311.511, 108.500 313 C 108.840 313.550, 110.415 314, 112 314 C 113.585 314, 115.160 314.450, 115.500 315 C 116.301 316.296, 123.731 316.305, 124.167 315.010 C 124.350 314.465, 127.326 313.725, 130.781 313.364 C 134.236 313.004, 137.337 312.264, 137.673 311.720 C 138.068 311.080, 134.263 310.899, 126.892 311.205 C 118.596 311.550, 114.606 311.307, 112.210 310.309 C 110.400 309.556, 109.169 308.535, 109.474 308.042 C 109.779 307.548, 109.123 306.856, 108.015 306.505 C 106.907 306.153, 106 305.236, 106 304.468 C 106 302.162, 102.592 300.902, 100.405 302.398 C 99.357 303.115, 97.150 304.001, 95.500 304.366 C 92.673 304.992, 92.612 304.943, 94.441 303.515 C 95.509 302.682, 97.251 302, 98.314 302 C 99.900 302, 100.027 301.737, 99.024 300.529 C 98.353 299.720, 96.835 299.158, 95.652 299.279 C 94.379 299.410, 93.602 298.990, 93.750 298.250 C 93.916 297.418, 92.673 297, 90.031 297 C 86.915 297, 86.186 297.322, 86.638 298.500 M 277.988 306.514 C 277.042 307.655, 275.224 307.930, 270.616 307.631 C 266.661 307.374, 265.913 307.458, 268.500 307.867 C 273.013 308.581, 272.135 309.917, 267.500 309.390 C 260.925 308.642, 240.496 309.104, 239.578 310.022 C 239.040 310.560, 237.002 311.053, 235.050 311.118 L 231.500 311.237 234.500 311.890 C 240.380 313.169, 235.014 314.123, 221.852 314.138 C 213.128 314.148, 208.477 313.772, 208.012 313.020 C 207.248 311.783, 197.850 311.856, 195.813 313.116 C 194.709 313.798, 204.338 315.724, 206.250 315.204 C 206.662 315.092, 207 315.675, 207 316.500 C 207 317.690, 205.559 318, 200.035 318 C 194.181 318, 192.906 317.693, 192.039 316.073 C 191.219 314.541, 191.366 314.052, 192.754 313.689 C 193.714 313.437, 191.800 313.225, 188.500 313.216 C 184.567 313.205, 183.358 313.438, 184.990 313.892 C 190.889 315.534, 183.427 316.031, 154.952 315.891 C 134.625 315.791, 124.563 316.088, 124.122 316.802 C 123.762 317.385, 121.675 318.060, 119.484 318.302 C 117.293 318.544, 118.293 318.628, 121.706 318.489 C 125.120 318.351, 128.045 318.568, 128.206 318.973 C 128.368 319.377, 132.028 320.021, 136.340 320.404 C 141.385 320.852, 143.964 320.750, 143.574 320.119 C 142.323 318.095, 145.562 317.819, 160.820 318.648 L 176.500 319.500 165.500 320.052 L 154.500 320.605 168 320.703 C 175.425 320.757, 180.375 320.483, 179 320.094 L 176.500 319.387 179 318.707 C 183.905 317.373, 190.842 317.896, 191.838 319.674 C 192.685 321.189, 193.685 321.236, 202.329 320.174 C 207.584 319.528, 215.059 319, 218.942 319 C 224.668 319, 226 318.706, 226 317.441 C 226 316.584, 226.430 316.148, 226.955 316.472 C 227.480 316.797, 233.668 316.410, 240.705 315.612 C 247.742 314.814, 255.300 314.167, 257.500 314.173 C 261.952 314.185, 276.509 312.366, 273.750 312.142 C 271.782 311.982, 271.301 308.987, 273.250 309.024 C 273.938 309.037, 276.170 309.436, 278.212 309.910 C 280.713 310.491, 281.855 310.428, 281.712 309.718 C 281.595 309.138, 282.520 308.131, 283.768 307.481 C 287.590 305.487, 287.496 305, 283.289 305 C 280.897 305, 278.731 305.619, 277.988 306.514 M 122 344.485 C 117.026 347.499, 114.901 350.376, 117.500 350.578 C 120.904 350.841, 126 352.360, 126 353.111 C 126 353.600, 127.350 354, 129 354 C 132.161 354, 133.041 355.386, 130.500 356.362 C 128.720 357.045, 126 356.157, 126 354.893 C 126 354.402, 124.463 354, 122.583 354 C 120.704 354, 119.017 353.583, 118.833 353.074 C 118.650 352.565, 117.204 351.826, 115.620 351.433 C 113.396 350.881, 112.844 351.035, 113.197 352.109 C 113.448 352.874, 114.810 353.638, 116.223 353.806 C 117.636 353.975, 119.584 354.987, 120.551 356.056 C 121.518 357.125, 123.050 358, 123.955 358 C 124.860 358, 126.057 358.457, 126.615 359.015 C 127.795 360.195, 143 358.159, 143 356.821 C 143 356.369, 142.297 356, 141.438 356 C 137.799 356, 129.069 350.844, 127.548 347.797 C 125.663 344.017, 125.662 344, 127.393 344 C 128.159 344, 129.045 343.325, 129.362 342.500 C 130.236 340.221, 128.078 340.803, 122 344.485 M 274 352.607 C 274 353.988, 272.844 354.151, 265.750 353.769 C 261.212 353.525, 256.142 353.695, 254.482 354.146 C 251.197 355.039, 245.807 355.826, 242.250 355.933 C 238.570 356.043, 239.698 358, 243.441 358 C 245.334 358, 247.160 357.550, 247.500 357 C 247.840 356.450, 250.068 356, 252.452 356 C 257.324 356, 258 356.862, 258 363.082 C 258 366.773, 258.175 367, 261.014 367 C 263.071 367, 264.897 366.060, 266.764 364.041 C 269.342 361.253, 269.760 361.135, 274 361.998 C 281.470 363.517, 284.120 363.258, 284.724 360.949 C 285.162 359.271, 285.827 358.996, 288.380 359.437 C 290.096 359.734, 290.833 359.684, 290.018 359.328 C 289.203 358.971, 287.933 358.076, 287.196 357.339 C 286.460 356.603, 284.989 356, 283.929 356 C 282.868 356, 282 355.487, 282 354.860 C 282 353.179, 278.829 351.068, 276.250 351.032 C 274.837 351.012, 274 351.598, 274 352.607 M 143.500 359.628 C 140.200 360.867, 135.430 361.908, 132.899 361.941 C 127.919 362.005, 122 360.355, 122 358.902 C 122 358.406, 120.838 358, 119.417 358 C 116.702 358, 116.497 359.782, 119.060 361.095 C 122.965 363.097, 128.025 364.881, 133 366.012 C 136.025 366.699, 139.068 367.713, 139.763 368.264 C 140.871 369.143, 144.941 369.022, 156.899 367.754 C 160.688 367.353, 160.604 369.810, 156.812 370.297 C 154.990 370.530, 156.425 370.520, 160 370.273 C 163.575 370.027, 166.928 369.414, 167.450 368.913 C 168.043 368.343, 167.927 368, 167.141 368 C 166.449 368, 166.160 367.550, 166.500 367 C 166.840 366.450, 169.131 366, 171.591 366 C 175.295 366, 176.220 366.387, 176.969 368.250 C 177.466 369.488, 177.902 369.938, 177.937 369.250 C 178.011 367.785, 190.013 367.457, 191.550 368.878 C 192.871 370.100, 240.845 371.059, 241.575 369.878 C 241.911 369.335, 240.844 369.175, 239.024 369.496 C 237.304 369.799, 233.709 369.397, 231.035 368.603 C 228.361 367.809, 225.910 367.424, 225.587 367.746 C 225.264 368.069, 225 367.749, 225 367.035 C 225 366.034, 223.062 365.854, 216.500 366.247 C 211.825 366.527, 208 366.410, 208 365.985 C 208 364.885, 210.690 364, 214.032 364 C 215.610 364, 217.283 363.316, 217.751 362.481 C 218.821 360.569, 232 359.065, 232 360.855 C 232 361.524, 230.337 362, 228 362 C 225.301 362, 224 362.441, 224 363.355 C 224 364.725, 232.398 365.977, 241.691 365.993 C 246.268 366.001, 248.398 367.594, 244.765 368.292 C 243.519 368.532, 245.537 368.789, 249.250 368.864 C 254.566 368.971, 256 368.690, 256 367.539 C 256 365.018, 246.382 363.270, 237.598 364.195 C 235.929 364.370, 234.512 363.968, 234.264 363.250 C 233.973 362.404, 234.981 362, 237.385 362 C 243.179 362, 240.752 359.599, 233.583 358.239 C 229.106 357.390, 225.614 357.318, 221.854 357.997 C 218.909 358.530, 205.361 359.130, 191.747 359.331 C 171.445 359.632, 166.786 359.447, 165.835 358.301 C 164.009 356.101, 150.802 356.885, 143.500 359.628 M 135.441 396.468 C 134.313 397.321, 134.032 397.950, 134.769 397.968 C 135.583 397.989, 135.835 398.809, 135.471 400.258 C 135.044 401.962, 135.791 403.371, 138.522 406.008 C 141.866 409.235, 142.238 409.367, 143.430 407.750 C 144.402 406.432, 146.051 406.026, 150.110 406.105 L 155.500 406.210 151.653 407.402 C 149.537 408.058, 147.378 409.361, 146.854 410.297 C 146.006 411.811, 146.517 412, 151.450 412 C 154.503 412, 157 411.550, 157 411 C 157 410.450, 157.675 410, 158.500 410 C 159.325 410, 160 409.576, 160 409.057 C 160 408.539, 161.912 407.971, 164.250 407.795 L 168.500 407.474 164.607 406.278 C 161.740 405.397, 160.172 405.373, 158.655 406.185 C 157.137 406.997, 156.495 406.986, 156.214 406.143 C 156.005 405.515, 154.948 405, 153.867 405 C 152.786 405, 150.525 404.288, 148.843 403.419 C 147.161 402.549, 144.796 402.085, 143.587 402.389 C 141.814 402.834, 141.089 402.277, 139.834 399.507 C 138.752 397.122, 138.617 395.934, 139.389 395.616 C 140 395.364, 139.799 395.122, 138.941 395.079 C 138.084 395.036, 136.509 395.661, 135.441 396.468 M 258.542 402.933 C 258.225 403.446, 256.688 403.829, 255.127 403.785 C 253.566 403.740, 251.798 404.007, 251.200 404.377 C 250.601 404.747, 247.042 405.078, 243.291 405.113 C 239.494 405.149, 235.370 405.787, 233.986 406.553 C 231.554 407.900, 231.590 407.930, 235.691 407.965 C 237.996 407.984, 240.120 408.386, 240.412 408.857 C 240.703 409.329, 243.236 409.986, 246.039 410.318 C 248.843 410.650, 252.526 411.615, 254.222 412.461 C 255.919 413.307, 259.065 414, 261.213 414 C 263.562 414, 264.872 414.399, 264.500 415 C 264.160 415.550, 261.659 416, 258.941 416 C 256.223 416, 254 415.550, 254 415 C 254 414.429, 251.020 414, 247.059 414 C 243.241 414, 239.840 414.450, 239.500 415 C 239.160 415.550, 237.810 416, 236.500 416 C 235.190 416, 233.840 415.550, 233.500 415 C 233.132 414.405, 234.323 414, 236.441 414 C 239.333 414, 240 413.625, 240 412 C 240 410.171, 239.338 410.001, 232.250 410.015 C 226.877 410.026, 224.960 410.328, 226 411 C 226.825 411.533, 228.287 411.976, 229.250 411.985 C 230.213 411.993, 231 412.450, 231 413 C 231 413.550, 229.425 414, 227.500 414 C 225.575 414, 224 413.550, 224 413 C 224 412.417, 220.686 412, 216.059 412 C 211.691 412, 207.840 412.450, 207.500 413 C 207.131 413.597, 200.660 414, 191.452 414 L 176.022 414 176.229 411.500 C 176.404 409.389, 176.941 409, 179.687 409 C 182.091 409, 182.795 409.371, 182.390 410.427 C 181.686 412.259, 190.355 413.780, 192.301 412.165 C 193.006 411.580, 196.715 410.966, 200.542 410.800 C 212.264 410.294, 208.141 408.479, 195.756 408.694 C 188.553 408.819, 185.087 408.557, 186.032 407.959 C 187.039 407.322, 185.758 407.026, 181.950 407.015 C 178.898 407.007, 175.973 407.424, 175.450 407.942 C 174.928 408.460, 171.637 409.343, 168.138 409.905 C 164.638 410.466, 161.263 411.563, 160.638 412.343 C 160.012 413.122, 158.244 414.052, 156.709 414.409 C 155.174 414.766, 154.188 415.495, 154.518 416.029 C 154.848 416.563, 154.979 417.011, 154.809 417.024 C 154.639 417.038, 152.137 417.314, 149.250 417.637 C 145.708 418.035, 144 417.864, 144 417.113 C 144 416.501, 144.873 416, 145.941 416 C 149.291 416, 149.135 414.247, 145.740 413.739 C 142.910 413.316, 141.068 414.211, 141.015 416.034 C 140.983 417.153, 146.918 420, 149.282 420 C 150.643 420, 153.451 420.708, 155.523 421.574 C 157.679 422.475, 159.549 422.756, 159.895 422.231 C 160.228 421.727, 161.923 421.038, 163.663 420.700 C 166.288 420.189, 167.099 420.503, 168.436 422.542 C 170.240 425.296, 175.408 425.984, 176.326 423.593 C 176.739 422.516, 178.530 422.274, 183.974 422.560 C 187.884 422.765, 191.514 423.200, 192.041 423.526 C 194.194 424.856, 192.733 425.911, 188.250 426.265 C 185.637 426.471, 189.350 426.717, 196.500 426.812 C 203.650 426.907, 212.305 426.530, 215.733 425.973 C 220.414 425.214, 222.455 425.267, 223.929 426.188 C 225.524 427.184, 226.512 427.106, 229.196 425.771 L 232.500 424.128 224.500 423.977 C 220.100 423.894, 214.994 423.672, 213.154 423.484 C 207.100 422.864, 208.535 422, 215.583 422.021 C 235.335 422.079, 258.386 421.013, 259.397 419.994 C 260.204 419.180, 260.058 419.050, 258.851 419.509 C 257.944 419.854, 256.904 419.654, 256.539 419.064 C 256.095 418.345, 256.997 418.169, 259.278 418.532 C 262.713 419.078, 269.566 417.157, 267.250 416.297 C 266.563 416.042, 266 415.463, 266 415.010 C 266 414.045, 269.975 414.880, 271.672 416.202 C 272.383 416.756, 273.561 416.732, 274.672 416.141 C 275.677 415.605, 277.962 414.625, 279.750 413.962 C 281.538 413.299, 283 412.410, 283 411.986 C 283 411.028, 280.432 410, 278.041 410 C 277.053 410, 275.685 409.325, 275 408.500 C 274.315 407.675, 273.015 407, 272.110 407 C 271.205 407, 268.809 405.875, 266.785 404.500 C 263.011 401.935, 259.563 401.280, 258.542 402.933 M 54.441 437.468 C 53.374 438.276, 51.761 438.951, 50.857 438.968 C 48.858 439.007, 47.641 441.675, 49.306 442.368 C 49.963 442.641, 49.124 442.631, 47.442 442.346 C 44.872 441.910, 43.612 442.526, 39.535 446.218 C 35.515 449.857, 34.792 451.027, 35.312 453.054 C 36.221 456.602, 42.285 461.034, 46.444 461.190 C 48.355 461.262, 49.750 461.595, 49.544 461.929 C 49.337 462.264, 51.446 462.641, 54.230 462.768 C 57.015 462.895, 59.853 463.463, 60.538 464.032 C 61.330 464.689, 65.101 464.822, 70.892 464.397 C 77.106 463.941, 80 464.069, 80 464.798 C 80 465.386, 78.763 466.047, 77.250 466.268 C 75.737 466.488, 78.513 466.446, 83.419 466.174 C 90.961 465.755, 92.251 465.904, 91.777 467.140 C 91.312 468.350, 92.683 468.600, 99.791 468.600 C 105.572 468.600, 108.497 468.991, 108.767 469.800 C 109.343 471.528, 112 471.281, 112 469.500 C 112 468.367, 113.222 468, 117 468 C 121.816 468, 123.860 469.421, 120.250 470.260 C 119.287 470.484, 124.912 470.503, 132.750 470.302 C 145.865 469.967, 147.006 470.080, 147.070 471.719 C 147.132 473.278, 147.248 473.250, 148 471.500 C 148.692 469.890, 148.873 469.827, 148.930 471.177 C 148.989 472.583, 150.383 472.905, 157.599 473.177 C 162.328 473.354, 166.394 473.180, 166.634 472.788 C 166.874 472.397, 168.067 472.433, 169.285 472.868 C 171.430 473.634, 186.292 474.479, 196.500 474.414 C 199.250 474.396, 206.073 473.809, 211.662 473.108 C 219.160 472.169, 222.365 472.125, 223.891 472.942 C 225.028 473.550, 227.071 473.769, 228.430 473.428 C 229.790 473.087, 235.086 472.693, 240.201 472.553 C 245.315 472.413, 251.300 471.792, 253.500 471.173 C 255.700 470.554, 259.188 470.037, 261.250 470.024 C 263.313 470.011, 265 469.550, 265 469 C 265 468.450, 262.975 468, 260.500 468 C 258.025 468, 256 467.550, 256 467 C 256 466.450, 255.100 466, 254 466 C 252.900 466, 252 465.498, 252 464.883 C 252 464.192, 252.856 464.024, 254.250 464.443 C 257.654 465.467, 270.165 466.874, 273 466.553 C 274.375 466.397, 274.712 466.465, 273.750 466.704 C 272.788 466.944, 272 467.772, 272 468.545 C 272 469.994, 275.488 469.795, 281 468.031 C 282.375 467.592, 286.176 467.181, 289.447 467.119 C 292.718 467.057, 295.845 466.555, 296.397 466.003 C 296.949 465.451, 299.587 465, 302.259 465 C 305.244 465, 306.880 464.614, 306.500 464 C 306.117 463.380, 308.278 462.936, 312.191 462.832 C 316.378 462.720, 317.239 462.532, 314.750 462.272 C 312.688 462.056, 311 461.504, 311 461.045 C 311 459.959, 319 459.191, 319.634 460.216 C 320.467 461.565, 324.227 461.072, 325.407 459.458 C 326.027 458.610, 328.327 457.756, 330.517 457.560 C 332.708 457.363, 334.950 457.150, 335.500 457.086 C 336.050 457.022, 335.825 456.533, 335 456 C 333.095 454.769, 326 454.699, 326 455.911 C 326 456.783, 323.473 457.123, 305.500 458.668 C 299.810 459.157, 298.366 459.524, 300.500 459.938 C 303.907 460.599, 304.076 462.564, 300.709 462.377 C 288.726 461.712, 280.210 461.388, 283.250 461.714 C 285.313 461.934, 287 462.539, 287 463.057 C 287 464.349, 273.277 464.257, 272.475 462.959 C 272.121 462.387, 271.082 462.156, 270.166 462.445 C 269.250 462.735, 262.563 463.160, 255.307 463.391 C 248.052 463.622, 241.567 464.149, 240.898 464.563 C 240.228 464.977, 217.815 465.320, 191.090 465.326 C 164.366 465.332, 146.469 465.504, 151.320 465.709 C 157.648 465.975, 160.026 466.422, 159.737 467.290 C 159.515 467.955, 158.808 468.455, 158.167 468.400 C 157.525 468.345, 153.241 468.233, 148.646 468.150 C 141.233 468.017, 139.988 467.718, 137.595 465.500 C 134.475 462.609, 128 461.934, 128 464.500 C 128 466.176, 124.902 466.339, 116.306 465.113 C 113.450 464.706, 111.339 464.739, 111.615 465.186 C 112.237 466.193, 107.822 466.259, 105.332 465.280 C 104.017 464.763, 105.477 464.057, 110.500 462.778 L 117.500 460.996 106.750 461.530 C 100.134 461.858, 96 461.692, 96 461.097 C 96 460.528, 94.048 460.375, 91.250 460.724 C 84.382 461.582, 75.873 461.283, 72.688 460.071 C 70.482 459.233, 69.814 459.321, 69.357 460.511 C 68.746 462.103, 63 462.633, 63 461.098 C 63 460.602, 64.384 459.713, 66.075 459.124 C 69.575 457.904, 69.138 456, 65.358 456 C 63.770 456, 62.997 455.536, 63.274 454.750 C 63.830 453.174, 65.046 453.348, 72.618 456.087 C 78.366 458.165, 78.877 458.199, 81.090 456.649 L 83.445 455 80.973 455.010 C 79.613 455.015, 75.013 453.785, 70.750 452.277 C 65.042 450.257, 63 449.069, 63 447.767 C 63 446.560, 62.226 446, 60.557 446 C 59.157 446, 57.441 445.039, 56.537 443.750 C 55.671 442.512, 54.745 441.613, 54.481 441.750 C 53.259 442.385, 51 441.898, 51 441 C 51 439.771, 55.243 439.672, 56.550 440.871 C 57.072 441.350, 58.625 441.996, 60 442.307 C 61.886 442.733, 62.941 442.273, 64.297 440.436 C 65.285 439.096, 65.622 438, 65.047 438 C 64.471 438, 64 438.450, 64 439 C 64 440.869, 60.815 440.010, 60.290 438 C 59.673 435.641, 57.159 435.412, 54.441 437.468 M 339.441 482.470 C 337.939 483.607, 335.689 483.807, 329.500 483.353 C 322.151 482.815, 321.663 482.893, 323.500 484.312 C 325.363 485.751, 325.379 485.904, 323.737 486.540 C 322.768 486.916, 321.319 486.679, 320.517 486.014 C 318.864 484.642, 309 485.567, 309 487.094 C 309 487.592, 311.264 488, 314.031 488 C 317.538 488, 319.234 488.446, 319.627 489.471 C 320.107 490.721, 320.780 490.643, 324.091 488.953 C 326.370 487.791, 330.174 486.918, 333.245 486.853 C 336.135 486.792, 339.388 486.125, 340.473 485.371 C 341.557 484.617, 344.257 483.993, 346.473 483.985 C 352.684 483.961, 353.987 482.407, 348.433 481.646 C 341.998 480.764, 341.652 480.796, 339.441 482.470 M 290 488.374 C 284.775 488.999, 279.906 489.892, 279.180 490.358 C 278.453 490.824, 275.356 491.175, 272.297 491.139 C 268.933 491.099, 265.909 491.651, 264.645 492.536 C 262.214 494.239, 257.413 494.477, 256.464 492.941 C 256.071 492.305, 254.550 492.161, 252.655 492.580 C 250.920 492.964, 244.775 493.257, 239 493.232 C 231.065 493.198, 229.233 493.416, 231.500 494.122 C 233.150 494.637, 235.738 495.113, 237.250 495.181 C 238.762 495.249, 240 495.686, 240 496.152 C 240 496.618, 242.813 496.993, 246.250 496.985 C 250.654 496.974, 252.057 496.683, 251 496 C 249.865 495.266, 250.305 495.027, 252.809 495.015 C 254.764 495.006, 255.865 495.409, 255.500 496 C 254.702 497.291, 261.520 497.327, 263.916 496.045 C 264.897 495.520, 271.955 494.831, 279.600 494.515 C 294.568 493.896, 309.754 492.500, 306.500 492.042 C 303.087 491.562, 298.713 491.714, 293.250 492.501 C 288.756 493.149, 288 493.023, 288 491.629 C 288 490.336, 289.084 489.991, 293.250 489.955 C 296.137 489.930, 299.850 489.292, 301.500 488.536 C 304.394 487.211, 304.412 487.164, 302 487.200 C 300.625 487.221, 295.225 487.749, 290 488.374 M 135.171 492.504 C 137.158 494.492, 186.314 497.921, 191.904 496.462 L 194.500 495.785 192 494.824 C 190.625 494.295, 185.450 493.895, 180.500 493.935 C 169.343 494.025, 149.639 493.311, 141.033 492.506 C 137.477 492.172, 134.839 492.172, 135.171 492.504" stroke="none" fill="#3075ba" fill-rule="evenodd"/><path d="M 265 21.741 C 265 22.763, 265.495 24.095, 266.100 24.700 C 267.459 26.059, 266.723 42.508, 265.013 49 C 264.361 51.475, 263.869 55.001, 263.920 56.836 C 264.034 60.965, 263.106 62.718, 261.791 60.857 C 261.137 59.932, 261.017 60.569, 261.412 62.855 C 261.854 65.411, 261.673 66.088, 260.652 65.697 C 259.681 65.324, 259.446 65.882, 259.798 67.722 C 260.154 69.585, 259.913 70.135, 258.892 69.786 C 258.016 69.487, 255.900 71.734, 253.185 75.848 C 248.946 82.269, 244.849 87.535, 241.003 91.507 C 239.667 92.887, 239.246 94.293, 239.655 96.007 C 240.190 98.247, 240.110 98.328, 238.875 96.805 C 237.625 95.264, 236.534 95.945, 226.865 104.305 C 221.016 109.362, 214.798 114.625, 213.048 116 C 207.656 120.236, 205.038 122.391, 201.809 125.250 C 200.101 126.763, 198.350 128, 197.919 128 C 197.488 128, 196.849 128.900, 196.500 130 C 196.151 131.100, 195.180 132, 194.342 132 C 192.746 132, 186.572 137, 176.546 146.411 C 173.271 149.485, 171.134 152, 171.796 152 C 172.458 152, 173 152.498, 173 153.107 C 173 153.726, 172.271 153.934, 171.346 153.579 C 170.196 153.138, 168.366 154.367, 165.346 157.611 C 162.956 160.178, 161 162.874, 161 163.604 C 161 164.333, 160.060 165.432, 158.912 166.047 C 157.348 166.884, 156.977 167.770, 157.431 169.582 C 158.050 172.048, 156.578 173.020, 155.662 170.750 C 155.385 170.063, 155.122 170.744, 155.079 172.264 C 155.036 173.784, 154.550 175.921, 154 177.014 C 153.450 178.106, 152.550 179.894, 152 180.986 C 150.830 183.311, 150.657 189, 151.756 189 C 152.827 189, 154.855 193.886, 155.495 198.008 C 155.929 200.804, 155.728 200.554, 154.488 196.750 C 153.636 194.137, 152.503 192, 151.970 192 C 148.893 192, 153.760 208.076, 159.388 216.500 C 161.225 219.250, 163.016 222.330, 163.369 223.345 C 163.722 224.360, 164.933 225.431, 166.062 225.726 C 167.375 226.070, 167.907 226.801, 167.539 227.758 C 166.654 230.066, 168.924 232.308, 170.675 230.855 C 171.743 229.969, 172.366 229.966, 173.242 230.842 C 174.119 231.719, 173.988 232, 172.700 232 C 168.977 232, 171.372 235.197, 186.393 250.278 C 191.253 255.158, 194.075 257.395, 193.737 256.101 C 193.435 254.946, 193.595 254, 194.094 254 C 195.979 254, 194.872 251.709, 191.321 248.261 C 189.298 246.296, 187.582 243.971, 187.507 243.094 C 187.332 241.031, 184.093 235.104, 184.040 236.750 C 184.018 237.438, 183.273 238, 182.383 238 C 181.175 238, 180.894 237.333, 181.272 235.359 C 181.614 233.568, 180.686 230.624, 178.388 226.216 C 176.525 222.641, 175 218.931, 175 217.972 C 175 217.013, 174.345 214.967, 173.545 213.424 C 172.576 211.556, 172.290 209.166, 172.688 206.263 C 173.156 202.847, 172.984 201.969, 171.892 202.203 C 170.995 202.394, 170.500 201.612, 170.500 200 C 170.500 198.388, 170.995 197.606, 171.892 197.797 C 172.994 198.033, 173.152 197.127, 172.650 193.463 C 172.119 189.589, 172.436 188.112, 174.585 184.446 C 176.337 181.455, 176.934 179.367, 176.462 177.879 C 175.928 176.196, 176.110 175.828, 177.260 176.270 C 178.715 176.828, 181 173.421, 181 170.693 C 181 170.027, 181.900 168.919, 183 168.232 C 184.100 167.545, 185 166.542, 185 166.003 C 185 164.782, 187.473 161.703, 191.910 157.399 C 194.789 154.607, 195.120 153.850, 194.038 152.545 C 192.967 151.256, 193.033 151, 194.437 151 C 195.361 151, 195.840 151.450, 195.500 152 C 194.604 153.450, 195.916 153.226, 197.481 151.662 C 198.299 150.844, 198.491 149.795, 197.975 148.960 C 196.756 146.988, 197.923 145.691, 199.636 147.113 C 200.830 148.104, 201.868 147.564, 205.358 144.139 C 207.703 141.838, 209.932 140.265, 210.311 140.644 C 210.690 141.023, 211 140.557, 211 139.608 C 211 138.659, 211.399 138.129, 211.887 138.430 C 213.104 139.182, 215.325 136.335, 214.528 135.045 C 214.139 134.417, 214.794 134.102, 216.178 134.251 C 217.666 134.413, 218.787 133.797, 219.368 132.500 C 219.861 131.400, 221.667 129.825, 223.382 129 C 225.288 128.083, 226.395 126.861, 226.230 125.855 C 226.064 124.839, 227.021 123.805, 228.730 123.152 C 231.752 121.998, 236 118.640, 236 117.404 C 236 116.978, 234.988 115.515, 233.750 114.153 C 232.512 112.792, 231.950 111.884, 232.500 112.136 C 233.050 112.388, 234.739 113.213, 236.254 113.968 C 238.770 115.223, 239.222 115.140, 241.504 112.997 C 242.877 111.707, 244 110.312, 244 109.897 C 244 109.482, 246.025 107.029, 248.500 104.446 C 250.975 101.863, 253 99.324, 253 98.803 C 253 98.283, 253.679 97.178, 254.509 96.348 C 255.339 95.518, 255.788 94.465, 255.506 94.009 C 255.223 93.553, 256.528 91.598, 258.405 89.666 C 260.281 87.733, 262.111 85.105, 262.471 83.826 C 263.232 81.123, 265.246 76.725, 266.055 76 C 267.512 74.695, 269.111 68.924, 268.525 67.080 C 268.032 65.525, 268.231 65.151, 269.329 65.573 C 270.434 65.997, 270.957 64.963, 271.484 61.316 C 272.543 53.977, 272.385 41.086, 271.166 35.500 C 270.567 32.750, 269.783 29.038, 269.424 27.250 C 269.066 25.462, 268.374 24, 267.887 24 C 267.399 24, 267 23.352, 267 22.559 C 267 21.766, 266.550 20.840, 266 20.500 C 265.450 20.160, 265 20.719, 265 21.741 M 284.750 126.277 C 283.238 126.887, 282 127.749, 282 128.193 C 282 128.637, 281.212 129.002, 280.250 129.004 C 279.288 129.006, 277.027 129.906, 275.226 131.004 C 273.425 132.102, 271.288 133, 270.476 133 C 269.664 133, 269 133.450, 269 134 C 269 134.550, 268.100 135, 267 135 C 265.900 135, 265 135.450, 265 136 C 265 136.550, 264.148 137, 263.107 137 C 262.066 137, 260.955 137.675, 260.638 138.500 C 260.322 139.325, 259.437 140, 258.672 140 C 255.595 140, 232.047 158.829, 230.685 162.379 C 230.343 163.271, 229.602 164, 229.040 164 C 227.849 164, 221.374 175.075, 221.800 176.383 C 221.959 176.868, 220.885 179.002, 219.414 181.124 C 216.980 184.637, 216.801 185.522, 217.420 190.992 C 217.868 194.952, 217.741 197, 217.050 197 C 216.472 197, 215.948 195.988, 215.884 194.750 C 215.801 193.130, 215.642 192.977, 215.320 194.204 C 214.671 196.670, 218.770 214.766, 220.924 218.946 C 221.931 220.901, 223.272 223.783, 223.903 225.352 C 224.875 227.770, 225.284 228.009, 226.588 226.927 C 227.920 225.822, 228.042 225.986, 227.498 228.151 C 227.017 230.069, 227.572 231.400, 229.884 233.876 C 231.542 235.650, 233.141 237.866, 233.438 238.801 C 233.735 239.735, 235.008 241.625, 236.267 243 C 240.770 247.916, 243.247 252.208, 245.101 258.308 C 247.105 264.896, 247.579 271.524, 246.110 272.432 C 244.637 273.342, 244.335 279.589, 245.703 280.867 C 246.690 281.789, 247.662 281.384, 250.132 279.024 C 252.430 276.828, 252.845 276, 251.648 276 C 250.667 276, 250 275.191, 250 274 C 250 271.579, 250.377 271.520, 252.472 273.615 C 253.959 275.102, 254.249 275.084, 256.123 273.388 C 257.616 272.038, 258.023 270.739, 257.647 268.523 C 257.366 266.860, 257.367 266.063, 257.651 266.750 C 258.722 269.345, 260.735 267.823, 262.943 262.750 C 264.200 259.863, 265.627 256.719, 266.114 255.764 C 266.601 254.809, 267 250.871, 267 247.014 C 267 241.289, 266.710 240, 265.421 240 C 264.189 240, 263.966 239.284, 264.409 236.750 C 264.721 234.963, 264.719 234.063, 264.405 234.750 C 263.449 236.840, 261.820 236.144, 262.518 233.944 C 262.985 232.473, 262.431 231.202, 260.573 229.480 C 259.145 228.156, 258.094 226.713, 258.238 226.274 C 258.382 225.834, 256.134 222.220, 253.243 218.242 C 250.351 214.265, 247.997 210.779, 248.011 210.496 C 248.024 210.212, 246.554 207.173, 244.743 203.740 C 240.726 196.130, 239 191.261, 239 187.545 C 239 184.346, 240.918 177.075, 242.218 175.346 C 242.696 174.711, 242.767 172.911, 242.377 171.346 C 241.713 168.680, 241.784 168.595, 243.500 170 C 245.218 171.407, 245.287 171.319, 244.603 168.575 C 243.975 166.055, 244.081 165.822, 245.367 166.890 C 246.594 167.908, 247.062 167.754, 247.986 166.027 C 248.604 164.871, 248.796 162.932, 248.411 161.720 C 247.802 159.800, 247.914 159.684, 249.286 160.822 C 250.615 161.926, 251.028 161.816, 251.937 160.118 C 252.787 158.530, 252.669 157.914, 251.378 157.192 C 250.146 156.502, 250.049 156.088, 250.983 155.510 C 251.689 155.074, 252.603 155.337, 253.104 156.122 C 254.483 158.280, 263.300 148.351, 262.716 145.297 C 262.475 144.034, 262.635 143, 263.072 143 C 263.509 143, 264.010 144.223, 264.184 145.719 L 264.500 148.437 267.947 145.348 C 271.283 142.359, 271.323 142.237, 269.197 141.562 C 267.988 141.179, 267 140.221, 267 139.433 C 267 137.244, 269.575 137.727, 271.235 140.227 L 272.714 142.454 274.409 139.176 C 275.771 136.542, 276.536 136.019, 278.302 136.515 C 280.034 137, 280.182 136.908, 279 136.081 C 277.505 135.034, 277.710 134.916, 281.500 134.644 C 282.600 134.565, 283.944 133.488, 284.487 132.250 C 285.030 131.012, 286.155 129.997, 286.987 129.993 C 288.991 129.985, 294.951 126.019, 293 125.993 C 292.175 125.982, 290.600 125.792, 289.500 125.570 C 288.400 125.349, 286.262 125.667, 284.750 126.277" stroke="none" fill="#c83231" fill-rule="evenodd"/><path d="M 262.758 14.575 C 262.442 14.892, 262.592 16.576, 263.091 18.319 C 264.449 23.052, 264.121 42.717, 262.580 49 C 259.336 62.225, 254.261 71.943, 244.114 84.361 C 236.220 94.022, 230.192 99.433, 203 121.273 C 177.602 141.673, 160.354 158.365, 154.796 167.927 C 143.753 186.924, 147.210 205.505, 166.686 231.835 C 173.548 241.114, 208.168 276, 210.513 276 C 212.718 276, 207.992 267.314, 198.272 253.500 C 180.092 227.667, 174.686 215.542, 174.639 200.500 C 174.574 179.674, 185.062 164.377, 218.553 136.445 C 243.591 115.564, 255.712 101.753, 264.961 83.567 C 272.595 68.557, 274.493 61.426, 274.429 48 C 274.367 35.160, 272.717 28.041, 267.766 19.250 C 264.919 14.196, 263.998 13.336, 262.758 14.575 M 265 21.741 C 265 22.763, 265.495 24.095, 266.100 24.700 C 267.459 26.059, 266.723 42.508, 265.013 49 C 264.361 51.475, 263.869 55.001, 263.920 56.836 C 264.034 60.965, 263.106 62.718, 261.791 60.857 C 261.137 59.932, 261.017 60.569, 261.412 62.855 C 261.854 65.411, 261.673 66.088, 260.652 65.697 C 259.681 65.324, 259.446 65.882, 259.798 67.722 C 260.154 69.585, 259.913 70.135, 258.892 69.786 C 258.016 69.487, 255.900 71.734, 253.185 75.848 C 248.946 82.269, 244.849 87.535, 241.003 91.507 C 239.667 92.887, 239.246 94.293, 239.655 96.007 C 240.190 98.247, 240.110 98.328, 238.875 96.805 C 237.625 95.264, 236.534 95.945, 226.865 104.305 C 221.016 109.362, 214.798 114.625, 213.048 116 C 207.656 120.236, 205.038 122.391, 201.809 125.250 C 200.101 126.763, 198.350 128, 197.919 128 C 197.488 128, 196.849 128.900, 196.500 130 C 196.151 131.100, 195.180 132, 194.342 132 C 192.746 132, 186.572 137, 176.546 146.411 C 173.271 149.485, 171.134 152, 171.796 152 C 172.458 152, 173 152.498, 173 153.107 C 173 153.726, 172.271 153.934, 171.346 153.579 C 170.196 153.138, 168.366 154.367, 165.346 157.611 C 162.956 160.178, 161 162.874, 161 163.604 C 161 164.333, 160.060 165.432, 158.912 166.047 C 157.348 166.884, 156.977 167.770, 157.431 169.582 C 158.050 172.048, 156.578 173.020, 155.662 170.750 C 155.385 170.063, 155.122 170.744, 155.079 172.264 C 155.036 173.784, 154.550 175.921, 154 177.014 C 153.450 178.106, 152.550 179.894, 152 180.986 C 150.830 183.311, 150.657 189, 151.756 189 C 152.827 189, 154.855 193.886, 155.495 198.008 C 155.929 200.804, 155.728 200.554, 154.488 196.750 C 153.636 194.137, 152.503 192, 151.970 192 C 148.893 192, 153.760 208.076, 159.388 216.500 C 161.225 219.250, 163.016 222.330, 163.369 223.345 C 163.722 224.360, 164.933 225.431, 166.062 225.726 C 167.375 226.070, 167.907 226.801, 167.539 227.758 C 166.654 230.066, 168.924 232.308, 170.675 230.855 C 171.743 229.969, 172.366 229.966, 173.242 230.842 C 174.119 231.719, 173.988 232, 172.700 232 C 168.977 232, 171.372 235.197, 186.393 250.278 C 191.253 255.158, 194.075 257.395, 193.737 256.101 C 193.435 254.946, 193.595 254, 194.094 254 C 195.979 254, 194.872 251.709, 191.321 248.261 C 189.298 246.296, 187.582 243.971, 187.507 243.094 C 187.332 241.031, 184.093 235.104, 184.040 236.750 C 184.018 237.438, 183.273 238, 182.383 238 C 181.175 238, 180.894 237.333, 181.272 235.359 C 181.614 233.568, 180.686 230.624, 178.388 226.216 C 176.525 222.641, 175 218.931, 175 217.972 C 175 217.013, 174.345 214.967, 173.545 213.424 C 172.576 211.556, 172.290 209.166, 172.688 206.263 C 173.156 202.847, 172.984 201.969, 171.892 202.203 C 170.995 202.394, 170.500 201.612, 170.500 200 C 170.500 198.388, 170.995 197.606, 171.892 197.797 C 172.994 198.033, 173.152 197.127, 172.650 193.463 C 172.119 189.589, 172.436 188.112, 174.585 184.446 C 176.337 181.455, 176.934 179.367, 176.462 177.879 C 175.928 176.196, 176.110 175.828, 177.260 176.270 C 178.715 176.828, 181 173.421, 181 170.693 C 181 170.027, 181.900 168.919, 183 168.232 C 184.100 167.545, 185 166.542, 185 166.003 C 185 164.782, 187.473 161.703, 191.910 157.399 C 194.789 154.607, 195.120 153.850, 194.038 152.545 C 192.967 151.256, 193.033 151, 194.437 151 C 195.361 151, 195.840 151.450, 195.500 152 C 194.604 153.450, 195.916 153.226, 197.481 151.662 C 198.299 150.844, 198.491 149.795, 197.975 148.960 C 196.756 146.988, 197.923 145.691, 199.636 147.113 C 200.830 148.104, 201.868 147.564, 205.358 144.139 C 207.703 141.838, 209.932 140.265, 210.311 140.644 C 210.690 141.023, 211 140.557, 211 139.608 C 211 138.659, 211.399 138.129, 211.887 138.430 C 213.104 139.182, 215.325 136.335, 214.528 135.045 C 214.139 134.417, 214.794 134.102, 216.178 134.251 C 217.666 134.413, 218.787 133.797, 219.368 132.500 C 219.861 131.400, 221.667 129.825, 223.382 129 C 225.288 128.083, 226.395 126.861, 226.230 125.855 C 226.064 124.839, 227.021 123.805, 228.730 123.152 C 231.752 121.998, 236 118.640, 236 117.404 C 236 116.978, 234.988 115.515, 233.750 114.153 C 232.512 112.792, 231.950 111.884, 232.500 112.136 C 233.050 112.388, 234.739 113.213, 236.254 113.968 C 238.770 115.223, 239.222 115.140, 241.504 112.997 C 242.877 111.707, 244 110.312, 244 109.897 C 244 109.482, 246.025 107.029, 248.500 104.446 C 250.975 101.863, 253 99.324, 253 98.803 C 253 98.283, 253.679 97.178, 254.509 96.348 C 255.339 95.518, 255.788 94.465, 255.506 94.009 C 255.223 93.553, 256.528 91.598, 258.405 89.666 C 260.281 87.733, 262.111 85.105, 262.471 83.826 C 263.232 81.123, 265.246 76.725, 266.055 76 C 267.512 74.695, 269.111 68.924, 268.525 67.080 C 268.032 65.525, 268.231 65.151, 269.329 65.573 C 270.434 65.997, 270.957 64.963, 271.484 61.316 C 272.543 53.977, 272.385 41.086, 271.166 35.500 C 270.567 32.750, 269.783 29.038, 269.424 27.250 C 269.066 25.462, 268.374 24, 267.887 24 C 267.399 24, 267 23.352, 267 22.559 C 267 21.766, 266.550 20.840, 266 20.500 C 265.450 20.160, 265 20.719, 265 21.741 M 305 116.382 C 255.494 133.487, 223.742 157.285, 215.877 183.178 C 214.109 188.999, 213.830 191.864, 214.249 199.853 C 215.063 215.345, 219.354 224.921, 233.614 243.073 C 242.825 254.798, 244.348 258.537, 243.841 268.189 C 243.418 276.237, 241.099 282.097, 235.364 289.610 C 233.521 292.025, 232.496 294, 233.087 294 C 235.545 294, 246.040 286.072, 253.583 278.519 C 263.731 268.356, 268.031 260.294, 268.764 250.057 C 269.349 241.873, 267.453 234.930, 262.738 228 C 244.756 201.570, 242.002 196.230, 242.001 187.788 C 241.998 168.241, 260.458 149.661, 310.750 118.593 C 324.104 110.344, 323.334 110.047, 305 116.382 M 284.750 126.277 C 283.238 126.887, 282 127.749, 282 128.193 C 282 128.637, 281.212 129.002, 280.250 129.004 C 279.288 129.006, 277.027 129.906, 275.226 131.004 C 273.425 132.102, 271.288 133, 270.476 133 C 269.664 133, 269 133.450, 269 134 C 269 134.550, 268.100 135, 267 135 C 265.900 135, 265 135.450, 265 136 C 265 136.550, 264.148 137, 263.107 137 C 262.066 137, 260.955 137.675, 260.638 138.500 C 260.322 139.325, 259.437 140, 258.672 140 C 255.595 140, 232.047 158.829, 230.685 162.379 C 230.343 163.271, 229.602 164, 229.040 164 C 227.849 164, 221.374 175.075, 221.800 176.383 C 221.959 176.868, 220.885 179.002, 219.414 181.124 C 216.980 184.637, 216.801 185.522, 217.420 190.992 C 217.868 194.952, 217.741 197, 217.050 197 C 216.472 197, 215.948 195.988, 215.884 194.750 C 215.801 193.130, 215.642 192.977, 215.320 194.204 C 214.671 196.670, 218.770 214.766, 220.924 218.946 C 221.931 220.901, 223.272 223.783, 223.903 225.352 C 224.875 227.770, 225.284 228.009, 226.588 226.927 C 227.920 225.822, 228.042 225.986, 227.498 228.151 C 227.017 230.069, 227.572 231.400, 229.884 233.876 C 231.542 235.650, 233.141 237.866, 233.438 238.801 C 233.735 239.735, 235.008 241.625, 236.267 243 C 240.770 247.916, 243.247 252.208, 245.101 258.308 C 247.105 264.896, 247.579 271.524, 246.110 272.432 C 244.637 273.342, 244.335 279.589, 245.703 280.867 C 246.690 281.789, 247.662 281.384, 250.132 279.024 C 252.430 276.828, 252.845 276, 251.648 276 C 250.667 276, 250 275.191, 250 274 C 250 271.579, 250.377 271.520, 252.472 273.615 C 253.959 275.102, 254.249 275.084, 256.123 273.388 C 257.616 272.038, 258.023 270.739, 257.647 268.523 C 257.366 266.860, 257.367 266.063, 257.651 266.750 C 258.722 269.345, 260.735 267.823, 262.943 262.750 C 264.200 259.863, 265.627 256.719, 266.114 255.764 C 266.601 254.809, 267 250.871, 267 247.014 C 267 241.289, 266.710 240, 265.421 240 C 264.189 240, 263.966 239.284, 264.409 236.750 C 264.721 234.963, 264.719 234.063, 264.405 234.750 C 263.449 236.840, 261.820 236.144, 262.518 233.944 C 262.985 232.473, 262.431 231.202, 260.573 229.480 C 259.145 228.156, 258.094 226.713, 258.238 226.274 C 258.382 225.834, 256.134 222.220, 253.243 218.242 C 250.351 214.265, 247.997 210.779, 248.011 210.496 C 248.024 210.212, 246.554 207.173, 244.743 203.740 C 240.726 196.130, 239 191.261, 239 187.545 C 239 184.346, 240.918 177.075, 242.218 175.346 C 242.696 174.711, 242.767 172.911, 242.377 171.346 C 241.713 168.680, 241.784 168.595, 243.500 170 C 245.218 171.407, 245.287 171.319, 244.603 168.575 C 243.975 166.055, 244.081 165.822, 245.367 166.890 C 246.594 167.908, 247.062 167.754, 247.986 166.027 C 248.604 164.871, 248.796 162.932, 248.411 161.720 C 247.802 159.800, 247.914 159.684, 249.286 160.822 C 250.615 161.926, 251.028 161.816, 251.937 160.118 C 252.787 158.530, 252.669 157.914, 251.378 157.192 C 250.146 156.502, 250.049 156.088, 250.983 155.510 C 251.689 155.074, 252.603 155.337, 253.104 156.122 C 254.483 158.280, 263.300 148.351, 262.716 145.297 C 262.475 144.034, 262.635 143, 263.072 143 C 263.509 143, 264.010 144.223, 264.184 145.719 L 264.500 148.437 267.947 145.348 C 271.283 142.359, 271.323 142.237, 269.197 141.562 C 267.988 141.179, 267 140.221, 267 139.433 C 267 137.244, 269.575 137.727, 271.235 140.227 L 272.714 142.454 274.409 139.176 C 275.771 136.542, 276.536 136.019, 278.302 136.515 C 280.034 137, 280.182 136.908, 279 136.081 C 277.505 135.034, 277.710 134.916, 281.500 134.644 C 282.600 134.565, 283.944 133.488, 284.487 132.250 C 285.030 131.012, 286.155 129.997, 286.987 129.993 C 288.991 129.985, 294.951 126.019, 293 125.993 C 292.175 125.982, 290.600 125.792, 289.500 125.570 C 288.400 125.349, 286.262 125.667, 284.750 126.277" stroke="none" fill="#c43434" fill-rule="evenodd"/></svg>