<svg xmlns="http://www.w3.org/2000/svg" width="1767" height="2048" viewBox="0 0 1767 2048" version="1.1"><path d="M 836.500 196.686 C 811.397 197.972, 772.743 202.357, 745.448 207.014 C 554.044 239.669, 381.254 340.431, 258.460 491 C 223.793 533.509, 188.678 587.755, 164.181 636.644 C 151.480 661.992, 128.392 715.779, 129.217 718.099 C 129.373 718.536, 132.200 715.713, 135.500 711.825 C 144.786 700.886, 173.093 672.742, 187.505 660.119 C 267.407 590.137, 367.028 534.904, 484.500 495.456 C 586.666 461.148, 688.552 442.232, 811 434.838 C 855.481 432.152, 935.544 433.391, 987 437.562 C 1195.418 454.455, 1388.933 521.230, 1526.531 623.734 C 1564.017 651.660, 1593.622 678.352, 1623.317 711 L 1631.049 719.500 1628.002 711.122 C 1615.954 677.987, 1595.076 634.074, 1573.528 596.544 C 1523.385 509.209, 1454.364 429.510, 1374.500 366.722 C 1246.525 266.111, 1092.526 207.646, 927.517 197.028 C 913.289 196.113, 852.165 195.883, 836.500 196.686 M 129.559 1258 C 129.941 1259.375, 132.851 1267.025, 136.025 1275 C 165.018 1347.831, 205.611 1417.406, 255.338 1479.500 C 287.890 1520.148, 333.740 1566.331, 373.894 1598.919 C 493.947 1696.350, 638.453 1756.912, 791.500 1773.938 C 824.096 1777.565, 840.044 1778.380, 879 1778.414 C 923.292 1778.451, 949.613 1776.781, 988.500 1771.465 C 1182.363 1744.963, 1360.949 1647.493, 1488.159 1498.757 C 1545.300 1431.947, 1591.235 1355.803, 1624.049 1273.500 C 1627.777 1264.150, 1630.646 1256.318, 1630.425 1256.095 C 1630.205 1255.873, 1628.106 1257.891, 1625.762 1260.580 C 1553.112 1343.911, 1440.272 1417.849, 1312.942 1465.553 C 1201.847 1507.176, 1090.015 1530.314, 957 1539.198 C 930.909 1540.940, 827.182 1540.945, 802 1539.205 C 675.284 1530.448, 565.871 1508.557, 463.500 1471.480 C 326.085 1421.710, 217.016 1352.415, 136.142 1263.500 C 131.077 1257.932, 129.076 1256.260, 129.559 1258" stroke="none" fill="#f37821" fill-rule="evenodd"/><path d="M 836.500 196.686 C 811.397 197.972, 772.743 202.357, 745.448 207.014 C 554.044 239.669, 381.254 340.431, 258.460 491 C 223.793 533.509, 188.678 587.755, 164.181 636.644 C 151.480 661.992, 128.392 715.779, 129.217 718.099 C 129.373 718.536, 132.200 715.713, 135.500 711.825 C 144.786 700.886, 173.093 672.742, 187.505 660.119 C 267.407 590.137, 367.028 534.904, 484.500 495.456 C 586.666 461.148, 688.552 442.232, 811 434.838 C 855.481 432.152, 935.544 433.391, 987 437.562 C 1195.418 454.455, 1388.933 521.230, 1526.531 623.734 C 1564.017 651.660, 1593.622 678.352, 1623.317 711 L 1631.049 719.500 1628.002 711.122 C 1615.954 677.987, 1595.076 634.074, 1573.528 596.544 C 1523.385 509.209, 1454.364 429.510, 1374.500 366.722 C 1246.525 266.111, 1092.526 207.646, 927.517 197.028 C 913.289 196.113, 852.165 195.883, 836.500 196.686 M 129.559 1258 C 129.941 1259.375, 132.851 1267.025, 136.025 1275 C 165.018 1347.831, 205.611 1417.406, 255.338 1479.500 C 287.890 1520.148, 333.740 1566.331, 373.894 1598.919 C 493.947 1696.350, 638.453 1756.912, 791.500 1773.938 C 824.096 1777.565, 840.044 1778.380, 879 1778.414 C 923.292 1778.451, 949.613 1776.781, 988.500 1771.465 C 1182.363 1744.963, 1360.949 1647.493, 1488.159 1498.757 C 1545.300 1431.947, 1591.235 1355.803, 1624.049 1273.500 C 1627.777 1264.150, 1630.646 1256.318, 1630.425 1256.095 C 1630.205 1255.873, 1628.106 1257.891, 1625.762 1260.580 C 1553.112 1343.911, 1440.272 1417.849, 1312.942 1465.553 C 1201.847 1507.176, 1090.015 1530.314, 957 1539.198 C 930.909 1540.940, 827.182 1540.945, 802 1539.205 C 675.284 1530.448, 565.871 1508.557, 463.500 1471.480 C 326.085 1421.710, 217.016 1352.415, 136.142 1263.500 C 131.077 1257.932, 129.076 1256.260, 129.559 1258" stroke="none" fill="#f37821" fill-rule="evenodd"/><path d="M 1171.518 789.652 C 1159.428 792.574, 1148.965 795.183, 1148.268 795.451 C 1147.281 795.829, 1147 802.927, 1147 827.469 L 1147 859 1126.477 859 L 1105.955 859 1106.227 877.250 L 1106.500 895.500 1126.818 895.771 L 1147.137 896.042 1146.968 978.771 C 1146.821 1050.417, 1147.007 1062.453, 1148.357 1068.615 C 1151.547 1083.178, 1158.831 1098.607, 1166.383 1106.800 C 1173.595 1114.623, 1185.205 1121.368, 1197.017 1124.596 C 1210.061 1128.161, 1244.020 1126.125, 1257.594 1120.964 L 1260.254 1119.953 1259.564 1103.727 C 1258.711 1083.631, 1258.713 1083.641, 1254.651 1084.360 C 1252.918 1084.667, 1246.624 1085.457, 1240.664 1086.116 C 1228.614 1087.448, 1219.779 1086.458, 1213.043 1083.022 C 1208.309 1080.607, 1202.305 1073.943, 1199.838 1068.367 C 1195.222 1057.932, 1195 1053.522, 1195 972.412 L 1195 896 1229 896 L 1263 896 1263 877.500 L 1263 859 1229 859 L 1195 859 1195 822.059 C 1195 801.741, 1194.662 784.943, 1194.250 784.729 C 1193.838 784.516, 1183.608 786.731, 1171.518 789.652 M 660 854.066 C 644.494 855.947, 628.251 861.869, 614.824 870.534 C 606.445 875.942, 591.995 889.993, 586.792 897.792 L 583.262 903.084 582.617 890.792 C 582.262 884.031, 581.700 874.337, 581.367 869.250 L 580.762 860 558.774 860 C 538.173 860, 536.840 860.110, 537.643 861.750 C 538.114 862.712, 538.725 945.625, 539 1046 L 539.500 1228.500 563.250 1228.768 L 587 1229.036 587.011 1157.768 L 587.022 1086.500 589.678 1090 C 594.334 1096.136, 605.291 1106.464, 611.878 1110.927 C 627.155 1121.278, 641.914 1125.916, 662 1126.678 C 717.771 1128.795, 762.266 1097.268, 779.970 1043.091 C 786.145 1024.195, 787.497 1014.082, 787.469 987 C 787.447 965.285, 787.184 961.307, 785.162 952 C 773.806 899.745, 743.029 865.450, 699 855.988 C 688.596 853.752, 670.096 852.840, 660 854.066 M 1715 853.693 C 1696.158 856.860, 1676.773 867.748, 1665.583 881.448 C 1660.400 887.794, 1653.573 899.882, 1652.001 905.496 C 1651.308 907.973, 1650.349 910, 1649.870 910 C 1649.392 910, 1649 898.525, 1649 884.500 L 1649 859 1626.886 859 L 1604.773 859 1605.612 863.750 C 1606.073 866.362, 1606.298 925.087, 1606.112 994.250 L 1605.773 1120 1629.887 1120 L 1654 1120 1654.006 1044.250 C 1654.011 974.639, 1654.164 967.609, 1655.895 957.500 C 1658.138 944.398, 1660.647 937.404, 1666.163 928.869 C 1679.325 908.505, 1700.337 898.152, 1728.750 898.031 L 1736 898 1736 875.500 L 1736 853 1726.750 853.136 C 1721.662 853.211, 1716.375 853.461, 1715 853.693 M 1404.597 856.554 C 1355.602 865.730, 1319.868 903.095, 1308.058 957.500 C 1303.284 979.492, 1302.653 1018.471, 1306.820 1034 C 1311.024 1049.667, 1315.524 1060.305, 1322.592 1071.283 C 1339.496 1097.538, 1365.472 1116.355, 1395.531 1124.118 C 1405.979 1126.816, 1409.731 1127.276, 1425.054 1127.734 C 1445.692 1128.351, 1464.451 1126.927, 1482 1123.409 C 1496.883 1120.426, 1522.300 1112.235, 1521.693 1110.617 C 1521.462 1110.003, 1519.542 1101.726, 1517.425 1092.224 C 1514.237 1077.916, 1513.311 1075.060, 1512.038 1075.596 C 1490.153 1084.809, 1460.122 1089.818, 1433.500 1088.695 C 1410.289 1087.716, 1393.931 1081.089, 1377.753 1066.111 C 1362.292 1051.797, 1352.491 1030.330, 1351.791 1009.249 L 1351.500 1000.500 1443.184 1000.245 L 1534.869 999.990 1535.542 997.867 C 1536.515 994.801, 1535.103 965.234, 1533.423 953.500 C 1526.228 903.250, 1499.373 869.197, 1458.372 858.330 C 1449.825 856.065, 1446.084 855.671, 1430.500 855.394 C 1417.631 855.165, 1410.247 855.495, 1404.597 856.554 M 91.486 858.250 C 91.237 858.938, 90.881 919.350, 90.693 992.500 C 90.445 1089.445, 90.027 1127.669, 89.150 1133.500 C 85.889 1155.195, 80.412 1168.681, 71.587 1176.747 C 61.399 1186.058, 43.521 1193.552, 28.768 1194.695 C 21.563 1195.253, 21.068 1195.437, 21.507 1197.397 C 21.766 1198.554, 22.920 1206.475, 24.071 1215 C 25.222 1223.525, 26.555 1230.906, 27.033 1231.401 C 28.398 1232.816, 49.363 1230.306, 60 1227.454 C 72.372 1224.138, 84.617 1218.679, 95.287 1211.724 C 105.872 1204.824, 110.185 1200.574, 116.902 1190.417 C 127.016 1175.126, 134.164 1157.902, 138.164 1139.183 C 140.669 1127.456, 140.573 1134.890, 140.250 978.250 L 140 857 115.969 857 C 97.651 857, 91.830 857.297, 91.486 858.250 M 401.741 944.250 C 401.369 1041.112, 401.855 1034.704, 393.685 1050.500 C 386.522 1064.351, 373.133 1075.840, 357.242 1081.770 C 349.033 1084.834, 330.716 1085.977, 320.721 1084.049 C 297.933 1079.653, 283.998 1062.153, 278.355 1030.843 C 276.892 1022.731, 276.616 1010.858, 276.258 940.750 L 275.845 860 251.923 860 L 228 860 228 944.276 C 228 1028.178, 228.279 1036.598, 231.597 1052.767 C 238.018 1084.061, 253.917 1106.672, 277.467 1118.004 C 292.821 1125.393, 298.280 1126.494, 319.500 1126.484 C 339.006 1126.476, 342.640 1125.851, 358.352 1119.800 C 373.491 1113.970, 392.174 1099.117, 401.588 1085.429 L 405.500 1079.740 406.651 1096.120 C 407.284 1105.129, 407.847 1114.412, 407.901 1116.750 L 408 1121 429.782 1121 L 451.565 1121 450.890 1112.250 C 449.996 1100.661, 449.921 1068.611, 450.521 953.750 L 451.020 858 426.547 858 L 402.073 858 401.741 944.250 M 821.546 862.750 C 823.472 867.341, 891.696 1036.157, 908.130 1076.997 C 921.028 1109.046, 921.491 1111.054, 918.075 1120.043 C 915.273 1127.418, 906.744 1142.436, 900.778 1150.500 C 893.773 1159.969, 880.241 1173.411, 870.415 1180.661 C 862.241 1186.693, 848.465 1194.259, 839.750 1197.503 C 837.138 1198.476, 835 1199.864, 835 1200.587 C 835 1202.146, 845.859 1239.193, 846.506 1239.839 C 847.435 1240.768, 867.219 1233.788, 875.670 1229.549 C 891.227 1221.747, 907.954 1208.597, 920.253 1194.500 C 941.047 1170.667, 963.182 1127.821, 991.808 1056 C 1003.368 1026.994, 1067 861.165, 1067 860.043 C 1067 859.346, 1058.620 859.002, 1041.750 859.007 L 1016.500 859.013 989.181 939.257 C 964.320 1012.279, 958.885 1028.754, 950.511 1056.471 L 947.801 1065.443 942.941 1049.471 C 935.628 1025.435, 934.261 1021.616, 902.751 937.250 L 873.525 859 846.749 859 L 819.973 859 821.546 862.750 M 1415 887.516 C 1381.374 894.387, 1355.942 922.562, 1352.350 956.922 L 1351.715 963 1421.286 963 L 1490.856 963 1491.526 957.636 C 1492.315 951.322, 1490.763 939.978, 1487.934 931.375 C 1480.805 909.695, 1460.767 892.183, 1437.792 887.553 C 1428.706 885.722, 1423.818 885.714, 1415 887.516 M 657 892.629 C 648.144 894.344, 638.288 897.760, 630.500 901.813 C 623.280 905.570, 619.621 908.375, 612 915.998 C 597.173 930.828, 590.151 945.429, 587.876 966.160 C 586.345 980.118, 587.346 1022.982, 589.426 1032.500 C 594.210 1054.389, 612.458 1075.582, 633.667 1083.883 C 652.073 1091.087, 675.328 1090.377, 693.464 1082.057 C 715.113 1072.126, 730.712 1049.979, 737.525 1019.500 C 739.736 1009.611, 740.590 981.256, 739.025 969.727 C 734.630 937.353, 718.574 911.537, 695.734 900.120 C 691.205 897.856, 684.800 895.323, 681.500 894.490 C 675.126 892.882, 661.168 891.821, 657 892.629" stroke="none" fill="#4d4d4d" fill-rule="evenodd"/><path d="M 1456 27.636 C 1446.908 28.487, 1434.727 31.153, 1426.225 34.151 C 1380.828 50.163, 1350.192 88.955, 1344.799 137.256 C 1340.984 171.418, 1354.193 208.782, 1378.971 233.914 C 1389.248 244.339, 1398.473 251.023, 1411.500 257.487 C 1429.796 266.564, 1445.383 270.206, 1466 270.222 C 1498.782 270.247, 1527.668 258.303, 1551.102 235.034 C 1574.845 211.458, 1587 182.158, 1587 148.500 C 1587 89.748, 1547.567 41.526, 1489.759 29.585 C 1481.987 27.980, 1463.643 26.921, 1456 27.636" stroke="none" fill="#777778" fill-rule="evenodd"/><path d="M 265.500 1731.074 C 214.596 1738.055, 170.275 1769.458, 147.753 1814.500 C 126.011 1857.984, 125.994 1907.832, 147.706 1951.500 C 168.870 1994.064, 208.538 2024.010, 256.536 2033.657 C 270.118 2036.386, 300.997 2036.153, 314.259 2033.221 C 346.147 2026.170, 369.620 2013.447, 392.072 1991.045 C 410.589 1972.569, 422.180 1953.913, 430.010 1929.982 C 438.862 1902.927, 439.442 1867.911, 431.493 1840.500 C 423.698 1813.623, 411.583 1793.277, 391.568 1773.448 C 370.811 1752.884, 345.211 1739.276, 315.500 1733.014 C 303.911 1730.572, 276.826 1729.521, 265.500 1731.074" stroke="none" fill="#9f9f9f" fill-rule="evenodd"/><path d="M 144.500 219.583 C 129.729 222.833, 114.768 230.760, 103.311 241.405 C 90.821 253.010, 81.666 268.222, 77.375 284.500 C 74.738 294.506, 74.750 318.854, 77.398 328 C 82.223 344.670, 91.081 359.232, 103.311 370.595 C 119.819 385.934, 140.218 394, 162.500 394 C 204.972 394, 241.016 364.215, 249.548 322.066 C 251.791 310.986, 251.105 292.730, 248.047 282.117 C 239.621 252.878, 216.190 229.455, 186.829 220.921 C 176.973 218.056, 154.647 217.350, 144.500 219.583" stroke="none" fill="#616262" fill-rule="evenodd"/><path d="" stroke="none" fill="#555557" fill-rule="evenodd"/></svg>