<svg xmlns="http://www.w3.org/2000/svg" width="257" height="257" viewBox="0 0 257 257" version="1.1"><path d="M 23 17 C 23 17.550, 22.114 18, 21.031 18 C 19.727 18, 19.250 18.487, 19.616 19.443 C 20.255 21.107, 24.101 20.042, 26.647 17.496 C 27.975 16.168, 27.854 16, 25.571 16 C 24.157 16, 23 16.450, 23 17 M 81.655 61.829 C 80.153 63.488, 80 69.265, 80 124.154 L 80 184.651 82.314 186.826 C 85.744 190.048, 95.747 189.963, 98.826 186.686 C 100.905 184.473, 101.004 183.475, 101.093 163.936 L 101.186 143.500 109.607 135.597 C 114.239 131.251, 118.188 127.876, 118.384 128.097 C 118.833 128.604, 134.465 151.780, 147.085 170.647 C 160.287 190.386, 158.619 189, 169.171 189 L 178.032 189 179.727 185.446 C 180.871 183.047, 181.110 181.450, 180.461 180.532 C 179.932 179.784, 176.935 175.421, 173.800 170.836 C 170.665 166.251, 165.715 159.057, 162.800 154.849 C 159.885 150.641, 155.718 144.566, 153.539 141.349 C 151.361 138.132, 146.073 130.505, 141.789 124.400 C 137.505 118.295, 134 112.898, 134 112.408 C 134 111.918, 143.916 101.593, 156.035 89.465 L 178.071 67.413 176.522 63.707 L 174.973 60 165.701 60 L 156.429 60 129.511 86.933 C 114.706 101.747, 102.235 113.645, 101.797 113.374 C 101.358 113.104, 101 102.093, 101 88.906 C 101 59.369, 101.228 60, 90.540 60 C 84.806 60, 82.968 60.378, 81.655 61.829" stroke="none" fill="#fbffff" fill-rule="evenodd"/><path d="M 26.647 17.496 C 25.824 18.319, 23.992 19.433, 22.575 19.971 L 20 20.950 20 126.956 L 20 232.962 22.250 233.521 C 25.803 234.404, 235.356 233.593, 236.750 232.691 C 237.737 232.052, 238 209.317, 238 124.548 C 238 27.596, 237.847 17.155, 236.418 16.607 C 235.548 16.273, 188.330 16, 131.490 16 C 41.078 16, 27.956 16.187, 26.647 17.496 M 81.655 61.829 C 80.153 63.488, 80 69.265, 80 124.154 L 80 184.651 82.314 186.826 C 85.744 190.048, 95.747 189.963, 98.826 186.686 C 100.905 184.473, 101.004 183.475, 101.093 163.936 L 101.186 143.500 109.607 135.597 C 114.239 131.251, 118.188 127.876, 118.384 128.097 C 118.833 128.604, 134.465 151.780, 147.085 170.647 C 160.287 190.386, 158.619 189, 169.171 189 L 178.032 189 179.727 185.446 C 180.871 183.047, 181.110 181.450, 180.461 180.532 C 179.932 179.784, 176.935 175.421, 173.800 170.836 C 170.665 166.251, 165.715 159.057, 162.800 154.849 C 159.885 150.641, 155.718 144.566, 153.539 141.349 C 151.361 138.132, 146.073 130.505, 141.789 124.400 C 137.505 118.295, 134 112.898, 134 112.408 C 134 111.918, 143.916 101.593, 156.035 89.465 L 178.071 67.413 176.522 63.707 L 174.973 60 165.701 60 L 156.429 60 129.511 86.933 C 114.706 101.747, 102.235 113.645, 101.797 113.374 C 101.358 113.104, 101 102.093, 101 88.906 C 101 59.369, 101.228 60, 90.540 60 C 84.806 60, 82.968 60.378, 81.655 61.829" stroke="none" fill="#d00000" fill-rule="evenodd"/></svg>