<svg xmlns="http://www.w3.org/2000/svg" width="2048" height="2048" viewBox="0 0 2048 2048" version="1.1"><path d="M 1174.500 988.142 C 1149.200 995.248, 1114.775 1004.847, 1098 1009.473 L 1067.500 1017.884 1145.605 1017.942 L 1223.711 1018 1224.348 1011.250 C 1225.163 1002.623, 1225.165 987.018, 1224.352 980.250 C 1223.875 976.279, 1223.329 975.027, 1222.111 975.111 C 1221.225 975.173, 1199.800 981.037, 1174.500 988.142" stroke="none" fill="#6969d7" fill-rule="evenodd"/><path d="M 1174.500 988.142 C 1149.200 995.248, 1114.775 1004.847, 1098 1009.473 L 1067.500 1017.884 1145.605 1017.942 L 1223.711 1018 1224.348 1011.250 C 1225.163 1002.623, 1225.165 987.018, 1224.352 980.250 C 1223.875 976.279, 1223.329 975.027, 1222.111 975.111 C 1221.225 975.173, 1199.800 981.037, 1174.500 988.142" stroke="none" fill="#6969d7" fill-rule="evenodd"/><path d="M 1061.101 1061.500 C 1061.982 1062.600, 1075.660 1079.925, 1091.497 1100 C 1119.624 1135.655, 1121.034 1137.247, 1152.395 1168.774 L 1184.500 1201.049 1180.680 1204.274 L 1176.859 1207.500 1183.538 1216 C 1187.211 1220.675, 1190.390 1224.685, 1190.603 1224.911 C 1190.815 1225.137, 1193.166 1223.486, 1195.828 1221.242 L 1200.667 1217.162 1281.032 1297.532 C 1361.259 1377.764, 1361.395 1377.906, 1359.505 1379.994 C 1358.464 1381.145, 1352.075 1386.893, 1345.306 1392.768 C 1338.538 1398.643, 1333.007 1403.686, 1333.015 1403.975 C 1333.024 1404.264, 1336.087 1408.368, 1339.824 1413.095 L 1346.617 1421.689 1352.559 1416.742 C 1355.826 1414.021, 1362.812 1407.827, 1368.082 1402.977 L 1377.664 1394.159 1458.082 1474.653 L 1538.500 1555.147 1529.500 1563.676 C 1520.993 1571.738, 1496.811 1592.934, 1490.673 1597.709 L 1487.847 1599.909 1494.544 1608.204 C 1498.228 1612.767, 1501.848 1616.500, 1502.588 1616.500 C 1504.261 1616.500, 1530.653 1594.034, 1544.409 1580.901 L 1554.644 1571.129 1580.565 1597.065 C 1594.821 1611.329, 1606.916 1623, 1607.441 1623 C 1607.967 1623, 1611.877 1619.478, 1616.129 1615.174 L 1623.862 1607.348 1597.496 1580.996 L 1571.129 1554.643 1580.901 1544.409 C 1594.034 1530.653, 1616.500 1504.261, 1616.500 1502.588 C 1616.500 1501.364, 1600.138 1487.346, 1599.651 1488.154 C 1597.566 1491.608, 1561.666 1532.333, 1557.076 1536.449 L 1554.903 1538.398 1474.466 1457.966 L 1394.029 1377.534 1398.925 1372.517 C 1401.617 1369.758, 1407.856 1362.813, 1412.788 1357.084 L 1421.755 1346.669 1413.127 1339.850 C 1408.382 1336.099, 1404.264 1333.024, 1403.975 1333.015 C 1403.686 1333.007, 1398.643 1338.538, 1392.768 1345.306 C 1386.893 1352.075, 1381.145 1358.464, 1379.994 1359.505 C 1377.906 1361.395, 1377.764 1361.259, 1297.532 1281.032 L 1217.162 1200.667 1221.257 1195.810 C 1223.661 1192.959, 1224.970 1190.609, 1224.426 1190.119 C 1223.917 1189.661, 1219.904 1186.484, 1215.509 1183.059 L 1207.517 1176.833 1204.283 1180.667 L 1201.049 1184.500 1168.774 1152.382 C 1137.216 1120.976, 1135.690 1119.625, 1100 1091.474 C 1079.925 1075.640, 1062.600 1061.969, 1061.500 1061.093 C 1059.575 1059.559, 1059.560 1059.575, 1061.101 1061.500" stroke="none" fill="#cc7a41" fill-rule="evenodd"/><path d="M 1221.209 1195.867 L 1217.162 1200.667 1297.464 1280.964 C 1344.329 1327.826, 1378.226 1360.979, 1378.869 1360.581 C 1381.288 1359.086, 1403.006 1333.517, 1402.683 1332.543 C 1402.424 1331.759, 1295.115 1246.164, 1230.878 1195.502 L 1225.256 1191.068 1221.209 1195.867 M 1195.810 1221.307 L 1191.120 1225.500 1261.310 1313.918 C 1299.915 1362.549, 1331.976 1402.495, 1332.557 1402.687 C 1333.642 1403.047, 1360.079 1380.301, 1360.672 1378.498 C 1360.853 1377.947, 1324.888 1341.411, 1280.751 1297.306 L 1200.500 1217.115 1195.810 1221.307 M 1413.927 1355.735 C 1409.842 1360.539, 1403.714 1367.429, 1400.308 1371.045 L 1394.116 1377.620 1474.509 1458.009 L 1554.903 1538.398 1557.076 1536.449 C 1560.067 1533.766, 1581.852 1509.528, 1591.480 1498.170 C 1597.245 1491.369, 1599.133 1488.475, 1598.444 1487.494 C 1597.596 1486.285, 1422.307 1347, 1421.633 1347 C 1421.479 1347, 1418.011 1350.931, 1413.927 1355.735 M 1374.467 1397.056 C 1371.870 1399.787, 1357.973 1412.171, 1349.629 1419.190 L 1346.758 1421.605 1416.917 1510.053 C 1455.505 1558.699, 1487.719 1598.500, 1488.505 1598.500 C 1490.143 1598.500, 1514.917 1577.483, 1529 1564.145 L 1538.500 1555.148 1457.967 1474.542 L 1377.435 1393.937 1374.467 1397.056 M 1615.521 1504.871 C 1611.109 1510.743, 1588.909 1536.065, 1580.306 1545.038 L 1571.113 1554.627 1597.398 1580.898 L 1623.683 1607.169 1635.227 1594.835 C 1653.978 1574.799, 1675.041 1550.177, 1674.959 1548.389 C 1674.925 1547.646, 1653.420 1530.316, 1624.059 1507.371 L 1617.496 1502.241 1615.521 1504.871 M 1544.424 1580.824 C 1538.882 1586.155, 1527.283 1596.555, 1518.650 1603.936 C 1510.016 1611.317, 1503.101 1617.802, 1503.282 1618.347 C 1504.129 1620.887, 1547.641 1674.927, 1548.679 1674.727 C 1551.254 1674.231, 1593.862 1637.158, 1603.730 1626.827 L 1606.960 1623.446 1580.730 1597.289 L 1554.500 1571.132 1544.424 1580.824" stroke="none" fill="#e5935c" fill-rule="evenodd"/><path d="M 1023.116 1055.284 C 1023.052 1055.716, 1020.868 1065.166, 1018.263 1076.284 L 1013.526 1096.500 1013.013 1179.500 L 1012.500 1262.500 1007 1262.212 C 1003.975 1262.053, 996.408 1261.220, 990.185 1260.360 C 983.962 1259.500, 978.611 1259.056, 978.294 1259.373 C 977.647 1260.020, 972.956 1280.290, 973.360 1280.694 C 973.989 1281.322, 994.371 1284.136, 1003 1284.785 L 1012.500 1285.500 1012.754 1399.400 L 1013.009 1513.300 999.754 1512.611 C 980.489 1511.611, 959.805 1509.307, 941 1506.066 C 931.925 1504.502, 924.215 1503.510, 923.866 1503.861 C 922.702 1505.034, 918.926 1524.327, 919.719 1525.051 C 920.671 1525.920, 954.864 1531.522, 968 1532.961 C 977.346 1533.984, 1004.869 1535.954, 1010.250 1535.985 C 1012.328 1535.996, 1013 1536.489, 1013 1538 C 1013 1539.879, 1013.667 1540, 1024 1540 C 1034.333 1540, 1035 1539.879, 1035 1538 C 1035 1536.588, 1035.667 1536, 1037.267 1536 C 1049.239 1536, 1100.386 1531.116, 1106.119 1529.426 C 1107.599 1528.989, 1107.573 1528.028, 1105.821 1518.259 C 1104.766 1512.380, 1103.742 1507.409, 1103.545 1507.212 C 1103.348 1507.015, 1098.307 1507.552, 1092.343 1508.407 C 1077.932 1510.471, 1064.342 1511.765, 1048.246 1512.607 L 1034.991 1513.300 1035.246 1399.400 L 1035.500 1285.500 1039.500 1285.250 C 1044.717 1284.924, 1063.438 1282.891, 1063.711 1282.620 C 1063.967 1282.367, 1060.107 1260.759, 1059.751 1260.450 C 1059.613 1260.331, 1056.946 1260.587, 1053.824 1261.020 C 1050.702 1261.453, 1045.302 1261.963, 1041.824 1262.154 L 1035.500 1262.500 1035.269 1191.217 L 1035.038 1119.934 1029.505 1088.717 C 1023.781 1056.425, 1023.311 1053.967, 1023.116 1055.284" stroke="none" fill="#41be95" fill-rule="evenodd"/><path d="M 995.589 1179.500 C 986.287 1221.300, 978.492 1256.210, 978.267 1257.078 C 977.934 1258.357, 979.469 1258.897, 986.357 1259.921 C 998.813 1261.775, 1011.390 1262.808, 1012.256 1262.050 C 1012.672 1261.686, 1012.897 1225.863, 1012.756 1182.444 L 1012.500 1103.500 995.589 1179.500 M 1035.363 1192.500 L 1035.500 1262.500 1038 1262.321 C 1052.997 1261.246, 1057.788 1260.749, 1058.722 1260.172 C 1059.487 1259.699, 1056.184 1239.004, 1047.923 1192.496 C 1041.378 1155.648, 1035.844 1124.825, 1035.624 1124 C 1035.405 1123.175, 1035.287 1154, 1035.363 1192.500 M 972.665 1282.645 C 972.370 1283.665, 961.260 1333.499, 947.976 1393.386 C 931.246 1468.809, 924.165 1502.484, 924.937 1502.961 C 928.721 1505.300, 975.487 1511.345, 999.375 1512.584 L 1013.009 1513.291 1012.754 1399.396 L 1012.500 1285.500 1007.500 1285.226 C 1001.938 1284.922, 981.145 1282.379, 976.310 1281.412 C 973.823 1280.915, 973.094 1281.161, 972.665 1282.645 M 1056.500 1283.665 C 1055.400 1283.880, 1050.225 1284.381, 1045 1284.778 L 1035.500 1285.500 1035.246 1399.396 L 1034.991 1513.291 1048.625 1512.584 C 1063.137 1511.831, 1083.520 1509.836, 1096.239 1507.924 C 1103.377 1506.851, 1103.939 1506.595, 1103.471 1504.630 C 1103.193 1503.459, 1094.426 1454.350, 1083.990 1395.500 C 1073.553 1336.650, 1064.750 1287.263, 1064.428 1285.750 C 1063.830 1282.950, 1062.256 1282.536, 1056.500 1283.665" stroke="none" fill="#5cd7af" fill-rule="evenodd"/><path d="M 801.244 1138.381 L 791.049 1143.500 794.619 1150 C 796.582 1153.575, 799.534 1158.624, 801.178 1161.219 L 804.169 1165.938 813.334 1159.822 C 818.375 1156.458, 822.677 1153.557, 822.893 1153.377 C 823.108 1153.196, 822.761 1152.417, 822.121 1151.646 C 821.481 1150.874, 818.815 1146.422, 816.197 1141.753 L 811.438 1133.262 801.244 1138.381" stroke="none" fill="#41b2b2" fill-rule="evenodd"/><path d="M 881.228 1099.455 C 843.678 1117.746, 812.694 1132.973, 812.374 1133.293 C 811.736 1133.931, 819.012 1147.581, 821.778 1150.936 C 823.485 1153.007, 824.069 1152.639, 886.860 1110.069 C 921.708 1086.443, 950.471 1066.862, 950.777 1066.556 C 952.445 1064.888, 943.705 1069.022, 881.228 1099.455 M 723.514 1176.044 C 687.222 1193.659, 657.110 1208.490, 656.598 1209.002 C 654.868 1210.732, 672.296 1254.492, 674.389 1253.672 C 675 1253.433, 703.850 1234.024, 738.500 1210.541 C 773.150 1187.058, 802.115 1167.495, 802.867 1167.067 C 803.928 1166.463, 803.109 1164.417, 799.196 1157.895 C 796.425 1153.278, 793.600 1148.263, 792.919 1146.750 C 792.237 1145.237, 791.189 1144.004, 790.589 1144.008 C 789.990 1144.012, 759.806 1158.429, 723.514 1176.044" stroke="none" fill="#5ccaca" fill-rule="evenodd"/><path d="M 557.414 812.674 C 530.982 871.257, 516.068 933.624, 512.441 1000.750 L 511.779 1013 406.389 1013 L 301 1013 301 1024.250 L 301 1035.500 406.500 1035.241 L 512 1034.982 512.015 1038.241 C 512.055 1046.645, 514.219 1073.105, 516.073 1087.861 C 517.204 1096.859, 517.918 1104.771, 517.660 1105.442 C 517.316 1106.340, 519.744 1106.179, 526.846 1104.832 C 532.156 1103.825, 537.682 1102.909, 539.127 1102.797 C 541.467 1102.616, 541.664 1102.315, 540.930 1100.047 C 539.147 1094.533, 535.009 1052.440, 535.002 1039.746 L 535 1034.991 648.750 1035.246 L 762.500 1035.500 762.753 1040.500 C 762.892 1043.250, 763.480 1049.282, 764.061 1053.905 C 764.904 1060.625, 764.854 1062.499, 763.808 1063.250 C 762.851 1063.937, 762.971 1064.037, 764.253 1063.625 C 766.166 1063.009, 783.465 1059.925, 786.183 1059.715 C 787.427 1059.618, 787.741 1058.920, 787.384 1057.042 C 786.532 1052.549, 785.282 1036.526, 785.722 1035.726 C 785.956 1035.300, 817.727 1034.980, 856.324 1035.015 L 926.500 1035.077 964 1028.531 C 984.625 1024.931, 1002.175 1021.850, 1003 1021.684 C 1003.825 1021.518, 1000.785 1019.490, 996.244 1017.177 L 987.989 1012.972 886.744 1012.736 L 785.500 1012.500 785.814 1006.500 C 786.984 984.162, 795.638 948.392, 804.238 930.345 L 806.500 925.598 796.037 920.472 L 785.574 915.346 782.263 923.423 C 771.956 948.565, 763.956 982.867, 762.770 1007 L 762.500 1012.500 648.750 1012.754 L 535 1013.009 535.004 1008.254 C 535.011 999.584, 537.023 975.719, 539.068 960.042 C 545.186 913.133, 558.686 865.621, 578.310 821.937 L 580.809 816.374 571.234 811.937 C 565.968 809.497, 561.295 807.353, 560.851 807.174 C 560.406 806.994, 558.859 809.469, 557.414 812.674" stroke="none" fill="#ccb241" fill-rule="evenodd"/><path d="M 363.590 720.761 C 326.207 807.332, 306.526 891.512, 302.047 984 C 301.474 995.825, 301.004 1007.188, 301.003 1009.250 L 301 1013 406.389 1013 L 511.779 1013 512.441 1000.750 C 516.020 934.527, 530.233 874.175, 555.924 816.121 C 558.207 810.962, 559.945 806.629, 559.787 806.492 C 558.830 805.663, 368.169 714.002, 367.420 714.011 C 366.914 714.017, 365.190 717.055, 363.590 720.761 M 574.639 830.475 C 556.461 873.145, 544.917 915.196, 539.068 960.042 C 537.023 975.719, 535.011 999.584, 535.004 1008.254 L 535 1013.009 648.750 1012.754 L 762.500 1012.500 762.770 1007 C 763.940 983.191, 771.084 951.954, 781.247 926.205 C 783.600 920.245, 784.930 915.571, 784.405 915.104 C 783.337 914.151, 584.214 817.972, 581.965 817.323 C 580.813 816.990, 578.987 820.268, 574.639 830.475 M 803.978 930.750 C 795.022 950.857, 786.970 984.439, 785.814 1006.500 L 785.500 1012.500 886 1012.694 C 952.303 1012.822, 985.990 1012.553, 985 1011.902 C 982.684 1010.380, 807.675 926, 806.835 926 C 806.427 926, 805.142 928.138, 803.978 930.750 M 301.917 1035.416 C 301.077 1036.255, 303.041 1071.070, 305.041 1090.769 C 307.097 1111.035, 311.338 1140.672, 312.322 1141.656 C 313.009 1142.342, 516.242 1106.946, 517.363 1105.944 C 517.843 1105.516, 517.293 1097.694, 516.125 1088.337 C 514.230 1073.158, 512.055 1046.657, 512.015 1038.250 L 512 1035 407.167 1035 C 349.508 1035, 302.146 1035.187, 301.917 1035.416 M 535 1039.558 C 535 1052.772, 539.820 1100.154, 541.317 1101.650 C 541.800 1102.134, 758.794 1064.708, 763.331 1063.358 C 764.928 1062.883, 765.069 1062.156, 764.433 1057.657 C 764.032 1054.821, 763.433 1048.675, 763.102 1044 L 762.500 1035.500 648.750 1035.246 L 535 1034.991 535 1039.558 M 785.713 1035.750 C 785.062 1036.956, 787.072 1057.421, 787.928 1058.304 C 788.640 1059.038, 920.852 1036.481, 921.885 1035.449 C 922.131 1035.202, 891.685 1035, 854.226 1035 C 816.766 1035, 785.936 1035.338, 785.713 1035.750" stroke="none" fill="#e5ca5c" fill-rule="evenodd"/><path d="M 832.500 285.909 C 727.487 313.713, 634.630 360.095, 549.431 427.304 C 546.505 429.612, 544.087 431.857, 544.056 432.294 C 543.972 433.487, 557.172 449, 558.271 449 C 558.794 449, 561.310 447.270, 563.861 445.156 C 581.872 430.229, 617.965 405.225, 644.567 389.245 C 705.930 352.382, 778.539 322.405, 845 306.495 C 851.325 304.980, 856.809 303.462, 857.187 303.121 C 857.774 302.591, 857.110 299.036, 853.479 283.250 C 853.195 282.012, 852.408 281.032, 851.731 281.072 C 851.054 281.111, 842.400 283.288, 832.500 285.909 M 894 528.572 C 841.066 542.377, 785.167 567.684, 738.500 598.974 C 726.787 606.827, 704.530 623.333, 703.580 624.871 C 703.266 625.378, 706.178 629.614, 710.050 634.284 L 717.089 642.775 729.451 633.479 C 772.051 601.441, 820.095 576.207, 870.349 559.476 C 885.805 554.331, 910.669 547.678, 911.810 548.383 C 912.248 548.653, 911.457 543.729, 910.053 537.439 C 907.090 524.169, 908.308 524.841, 894 528.572 M 959 770.202 C 936.535 777.068, 923.347 782.098, 908.500 789.463 C 893.523 796.893, 874.586 808.497, 865.184 816.008 L 862.045 818.516 869.165 827.285 C 875.472 835.053, 876.485 835.908, 878.027 834.777 C 890.294 825.778, 907.300 815.371, 919.458 809.424 C 933.225 802.691, 958.985 793.044, 963.281 793.013 C 966.189 792.992, 966.284 790.691, 963.830 779.789 C 961.533 769.585, 961.465 769.449, 959 770.202" stroke="none" fill="#cc9541" fill-rule="evenodd"/><path d="M 829 213.627 C 783.155 225.674, 767.901 230.229, 740.321 240.107 C 657.979 269.599, 582.149 311.067, 511.317 365.340 C 504.024 370.928, 498.044 375.832, 498.029 376.238 C 498.005 376.854, 538.691 426.848, 542.411 430.773 C 543.375 431.790, 545.310 430.705, 552.058 425.362 C 635.109 359.614, 732.474 311.518, 836.292 284.959 C 846.427 282.366, 852.926 280.234, 852.683 279.582 C 852.463 278.987, 848.977 263.538, 844.937 245.250 C 839.098 218.817, 837.275 212.019, 836.046 212.091 C 835.196 212.141, 832.025 212.832, 829 213.627 M 846 306.166 C 775.358 323.678, 706.302 352.159, 644.567 389.245 C 617.861 405.288, 584.261 428.571, 563.277 445.575 L 558.054 449.807 629.627 536.653 C 668.993 584.419, 701.543 623.865, 701.961 624.311 C 702.380 624.757, 708.297 620.893, 715.111 615.726 C 767.900 575.690, 834.611 543.329, 895 528.460 C 901.325 526.903, 906.647 525.528, 906.827 525.404 C 907.139 525.189, 858.119 303.705, 857.701 303.442 C 857.590 303.373, 852.325 304.599, 846 306.166 M 896.500 551.608 C 847.439 564.774, 798.294 586.966, 754.942 615.530 C 739.775 625.523, 718 641.647, 718 642.885 C 718 643.889, 860.778 817.335, 861.980 817.791 C 862.403 817.952, 864.042 817.001, 865.624 815.678 C 873.476 809.112, 893.282 797.009, 908.500 789.479 C 923.540 782.036, 943.756 774.299, 956.867 770.969 C 961.209 769.866, 961.230 769.839, 960.603 766.180 C 960.257 764.156, 949.255 714.350, 936.155 655.500 C 918.678 576.985, 911.959 548.449, 910.919 548.310 C 910.138 548.205, 903.650 549.689, 896.500 551.608 M 957.500 794.478 C 934.655 801.249, 911.071 812.278, 892.337 824.952 C 876.579 835.611, 876.501 835.677, 877.698 837.219 C 878.245 837.923, 903.922 869.100, 934.758 906.500 C 989.485 972.877, 1011.851 998.028, 1010.789 992 C 1009.267 983.355, 966.405 792.018, 966 792.058 C 965.725 792.084, 961.900 793.173, 957.500 794.478" stroke="none" fill="#e5af5c" fill-rule="evenodd"/><path d="M 1204.372 556.308 L 1200.268 567.464 1210.884 571.773 C 1243.472 585.001, 1283.431 607.520, 1312.829 629.226 C 1317.961 633.014, 1322.546 635.976, 1323.020 635.807 C 1323.494 635.638, 1326.840 631.740, 1330.455 627.145 L 1337.027 618.791 1328.445 612.317 C 1299.140 590.213, 1256.048 565.716, 1221.468 551.502 C 1214.885 548.796, 1209.270 546.261, 1208.988 545.868 C 1208.707 545.474, 1206.629 550.172, 1204.372 556.308 M 1120.584 781.864 C 1120.290 782.339, 1118.730 786.277, 1117.116 790.614 C 1115.502 794.951, 1113.891 799.228, 1113.535 800.118 C 1113.018 801.410, 1115.976 803.254, 1128.193 809.252 C 1136.612 813.385, 1148.450 820.082, 1154.500 824.133 C 1160.550 828.185, 1165.993 831.821, 1166.595 832.213 C 1167.247 832.637, 1170.573 829.325, 1174.816 824.026 L 1181.942 815.126 1174.221 809.730 C 1162.311 801.406, 1150.586 794.628, 1135.781 787.509 C 1121.242 780.517, 1121.384 780.570, 1120.584 781.864" stroke="none" fill="#b1be41" fill-rule="evenodd"/><path d="M 1226.208 498.168 C 1216.734 523.651, 1208.994 544.950, 1209.006 545.500 C 1209.019 546.050, 1213.410 548.238, 1218.765 550.363 C 1232.178 555.685, 1262.042 570.224, 1276.500 578.470 C 1291.164 586.835, 1317.392 603.925, 1328.259 612.197 C 1333.833 616.441, 1336.682 618.032, 1337.580 617.404 C 1339.076 616.357, 1401.998 536.782, 1401.999 535.936 C 1402 535.031, 1378.693 518.949, 1364 509.716 C 1340.853 495.172, 1313.683 480.605, 1288.834 469.417 C 1275.435 463.384, 1249.571 453.064, 1246.121 452.374 L 1243.433 451.837 1226.208 498.168 M 1183.155 613.750 C 1134.019 745.505, 1121.071 780.395, 1121.276 780.500 C 1121.399 780.563, 1129.375 784.494, 1139 789.235 C 1148.625 793.976, 1162.212 801.689, 1169.192 806.375 L 1181.885 814.894 1252.373 725.736 L 1322.861 636.578 1314.181 630.163 C 1284.613 608.313, 1250.221 588.626, 1216.236 574.098 C 1208.391 570.744, 1201.578 568, 1201.095 568 C 1200.612 568, 1192.539 588.587, 1183.155 613.750 M 1112.481 803.259 C 1111.063 807.173, 1046.678 980.189, 1045.408 983.500 L 1043.873 987.500 1047.851 983.500 C 1051.973 979.356, 1165.792 835.705, 1166.579 833.654 C 1166.824 833.017, 1162.609 829.502, 1157.214 825.842 C 1140.787 814.702, 1113.353 800.852, 1112.481 803.259" stroke="none" fill="#cad75c" fill-rule="evenodd"/><path d="M 831.345 201.540 C 718.993 227.809, 615.267 275.244, 522.485 342.785 C 506.108 354.707, 481.996 373.775, 482.009 374.794 C 482.014 375.182, 493.529 389.450, 507.598 406.500 C 521.666 423.550, 533.409 437.871, 533.693 438.324 C 533.977 438.777, 533.159 440.352, 531.874 441.824 C 530.590 443.296, 531.780 442.428, 534.519 439.897 C 537.259 437.365, 540.448 434.665, 541.607 433.897 C 543.640 432.549, 542.916 431.539, 520.891 405 C 508.338 389.875, 498.165 376.984, 498.284 376.354 C 498.575 374.811, 514.636 362.337, 536.279 346.845 C 615.983 289.790, 706.939 246.536, 801.624 220.661 C 822.981 214.825, 836.870 211.537, 837.501 212.167 C 837.716 212.383, 841.286 227.803, 845.434 246.434 C 849.581 265.065, 853.093 280.414, 853.237 280.543 C 853.382 280.672, 856.425 280.235, 860 279.572 C 863.575 278.909, 865.887 278.155, 865.138 277.896 C 864.239 277.586, 860.809 264.094, 855.045 238.203 C 850.243 216.631, 846.131 198.812, 845.907 198.605 C 845.683 198.399, 839.130 199.720, 831.345 201.540 M 864 301.717 C 860.975 302.522, 858.415 303.262, 858.311 303.362 C 858.207 303.463, 869.232 353.485, 882.811 414.523 L 907.500 525.502 912.368 524.299 C 915.046 523.638, 917.443 522.890, 917.696 522.637 C 917.949 522.384, 907.268 473.200, 893.960 413.339 C 880.653 353.477, 869.705 303.488, 869.632 302.251 C 869.560 301.014, 869.500 300.058, 869.500 300.128 C 869.500 300.197, 867.025 300.912, 864 301.717 M 1236.607 437.827 C 1234.943 440.519, 1198.057 541.284, 1198.483 541.973 C 1198.769 542.435, 1201.046 543.509, 1203.544 544.360 C 1207.983 545.873, 1208.103 545.858, 1208.911 543.704 C 1209.366 542.492, 1217.278 521.250, 1226.493 496.500 C 1235.709 471.750, 1243.374 451.356, 1243.527 451.180 C 1244.129 450.490, 1274.497 462.714, 1292.500 470.893 C 1313.490 480.428, 1342.331 495.836, 1361.221 507.604 C 1377.396 517.682, 1401.088 534.066, 1401.667 535.575 C 1402.049 536.569, 1346.486 608.114, 1338.116 617.405 C 1336.677 619.002, 1335.985 620.036, 1336.579 619.701 C 1337.172 619.367, 1339.363 620.499, 1341.447 622.217 C 1344.091 624.396, 1345.644 625.062, 1346.585 624.420 C 1348.331 623.229, 1418 534.959, 1418 533.939 C 1418 532.753, 1397.941 518.210, 1380.313 506.617 C 1340.832 480.651, 1294.844 457.593, 1250.416 441.489 C 1236.688 436.513, 1237.316 436.679, 1236.607 437.827 M 553.750 453.158 C 551.688 454.828, 550 456.588, 550 457.068 C 550 458.035, 692.694 631.356, 693.805 631.740 C 694.187 631.871, 696.352 630.507, 698.615 628.708 L 702.729 625.437 631.923 539.555 C 592.980 492.320, 560.303 452.874, 559.309 451.898 C 557.574 450.195, 557.347 450.247, 553.750 453.158 M 917.408 546.418 L 912.316 547.500 937.029 658.500 C 955.690 742.317, 962.072 769.421, 963.090 769.177 C 963.832 768.999, 966.621 768.595, 969.289 768.279 C 971.957 767.963, 973.746 767.434, 973.263 767.102 C 972.781 766.771, 961.426 717, 948.031 656.500 C 934.635 596, 923.411 546.238, 923.088 545.918 C 922.764 545.597, 920.209 545.822, 917.408 546.418 M 1189 564.160 C 1189 564.692, 1172.531 609.312, 1152.403 663.314 C 1132.275 717.316, 1114.522 764.959, 1112.952 769.186 L 1110.098 776.872 1115.049 778.516 C 1117.772 779.421, 1120.039 780.687, 1120.086 781.330 C 1120.133 781.974, 1120.530 781.375, 1120.967 780 C 1122.045 776.610, 1197.826 573.356, 1199.556 569.213 C 1200.311 567.405, 1200.523 566.177, 1200.028 566.483 C 1199.532 566.789, 1196.848 566.174, 1194.063 565.116 C 1191.278 564.058, 1189 563.628, 1189 564.160 M 1252.500 725.752 C 1214 774.502, 1182.378 814.668, 1182.228 815.009 C 1182.079 815.351, 1183.957 817.067, 1186.403 818.823 L 1190.849 822.016 1261.354 732.845 L 1331.860 643.674 1327.490 640.337 C 1325.087 638.502, 1322.980 637.026, 1322.810 637.058 C 1322.639 637.090, 1291 677.002, 1252.500 725.752 M 713.091 646.283 C 710.841 648.013, 709 649.724, 709 650.086 C 709 650.448, 741.396 690.039, 780.992 738.066 L 852.983 825.389 850.742 827.916 C 849.509 829.306, 851.474 827.756, 855.108 824.472 C 860.610 819.500, 861.514 818.249, 860.508 817 C 856.142 811.584, 722.119 648.871, 719.922 646.319 L 717.183 643.139 713.091 646.283 M 354.532 713.218 C 315.003 802.329, 293.470 895.731, 290.202 992.251 L 289.500 1013.002 295.093 1013.001 L 300.687 1013 301.363 992.637 C 304.169 908.227, 321.311 825.915, 352.526 746.965 C 356.557 736.771, 361.447 724.934, 363.394 720.662 C 366.444 713.970, 367.181 713.024, 368.717 713.833 C 369.698 714.350, 408.750 733.224, 455.500 755.777 C 502.250 778.330, 545 798.984, 550.500 801.676 L 560.500 806.570 563 801.481 L 565.500 796.392 464.131 747.446 C 408.377 720.526, 362.435 698.373, 362.036 698.218 C 361.637 698.064, 358.260 704.814, 354.532 713.218 M 972.564 790.626 C 969.849 791.320, 967.366 791.726, 967.047 791.529 C 966.291 791.062, 1011.620 994.953, 1012.458 995.791 C 1012.809 996.142, 1012.918 984.520, 1012.700 969.964 L 1012.305 943.500 994.903 866.432 L 977.500 789.363 972.564 790.626 M 1087.425 837.795 C 1079.291 859.633, 1064.315 899.550, 1054.144 926.500 L 1035.652 975.500 1035.261 986 L 1034.870 996.500 1038.251 993.232 C 1040.110 991.435, 1041.885 990.219, 1042.196 990.529 C 1042.506 990.839, 1043.024 990.060, 1043.346 988.797 C 1043.668 987.533, 1059.407 944.987, 1078.321 894.250 C 1097.234 843.513, 1112.662 802, 1112.605 801.999 C 1112.547 801.999, 1110.186 801.119, 1107.357 800.044 L 1102.215 798.090 1087.425 837.795 M 583.179 811.569 C 581.930 814.139, 581.042 816.340, 581.204 816.461 C 581.367 816.581, 623.800 837.066, 675.500 861.983 C 727.200 886.900, 773.480 909.273, 778.345 911.701 C 783.209 914.129, 786.952 915.731, 786.661 915.261 C 786.371 914.792, 787.416 912.062, 788.984 909.196 C 790.551 906.330, 791.482 904.202, 791.052 904.468 C 790.621 904.734, 745.096 883.123, 689.885 856.445 C 634.673 829.766, 588.589 807.703, 587.475 807.417 C 585.845 806.998, 585.005 807.810, 583.179 811.569 M 1128 883.334 C 1106.275 910.850, 1080.688 943.294, 1071.140 955.432 L 1053.781 977.500 1085.640 946 C 1151.447 880.937, 1185 847.494, 1185 846.966 C 1185 846.667, 1171.861 859.588, 1155.803 875.680 C 1139.745 891.773, 1126.436 904.770, 1126.229 904.563 C 1126.022 904.355, 1136.824 890.307, 1150.235 873.343 C 1163.645 856.379, 1174.973 841.908, 1175.409 841.183 C 1176.191 839.882, 1175.653 839.281, 1170 835.136 L 1167.500 833.304 1128 883.334 M 871.709 839.929 C 869.113 842.074, 867.394 843.980, 867.889 844.165 C 869.065 844.603, 898 879.731, 898 880.721 C 898 881.138, 890.125 873.613, 880.500 864 C 870.875 854.387, 863 846.763, 863 847.058 C 863 847.354, 890.773 875.024, 924.717 908.548 C 961.110 944.490, 983.549 966.012, 979.403 961 C 975.536 956.325, 951.074 926.625, 925.043 895 C 899.012 863.375, 877.424 837.169, 877.071 836.764 C 876.718 836.360, 874.305 837.784, 871.709 839.929 M 913.500 929.837 C 949.800 966.367, 979.050 996.028, 978.500 995.751 C 977.950 995.473, 940.375 977.349, 895 955.475 C 849.625 933.601, 812.336 915.280, 812.136 914.761 C 811.936 914.241, 810.631 916.340, 809.235 919.424 C 807.840 922.508, 806.879 925.194, 807.099 925.393 C 807.320 925.592, 845.525 944.090, 892 966.499 C 938.475 988.908, 979.425 1008.674, 983 1010.424 C 987.979 1012.861, 990.319 1013.472, 993 1013.038 L 996.500 1012.470 922 937.945 C 850.680 866.601, 850.317 866.255, 913.500 929.837 M 1125.984 937.710 C 1055.462 1008.446, 1051.660 1012.440, 1054.500 1012.805 C 1056.150 1013.017, 1064.475 1012.963, 1073 1012.685 L 1088.500 1012.180 1156 993.232 C 1221.262 974.913, 1223.522 974.354, 1224.150 976.392 C 1224.508 977.551, 1224.845 986.263, 1224.900 995.750 L 1225 1013 1230.500 1013 L 1236 1013 1235.923 995.750 C 1235.881 986.263, 1235.319 974.450, 1234.673 969.500 C 1233.612 961.357, 1233.310 960.533, 1231.500 960.844 C 1230.400 961.033, 1191.700 971.687, 1145.500 984.520 C 1099.300 997.353, 1060.150 1008.161, 1058.500 1008.539 C 1056.183 1009.069, 1072.123 992.576, 1128.497 936.113 C 1168.646 895.901, 1201.264 863, 1200.982 863 C 1200.700 863, 1166.951 896.619, 1125.984 937.710 M 927.876 1035.081 C 898.602 1040.114, 788.434 1059.388, 788.248 1059.508 C 788.110 1059.597, 788.289 1062.475, 788.648 1065.902 C 789.006 1069.330, 789.569 1071.743, 789.899 1071.265 C 790.230 1070.787, 798.825 1068.949, 809 1067.181 C 819.175 1065.413, 862.329 1057.890, 904.897 1050.464 C 947.466 1043.038, 982.458 1037.124, 982.657 1037.324 C 982.856 1037.523, 943.752 1056.706, 895.760 1079.953 C 847.767 1103.200, 808.137 1122.556, 807.693 1122.967 C 806.904 1123.697, 810.862 1133.014, 811.949 1132.985 C 812.252 1132.977, 843.518 1117.908, 881.430 1099.498 C 919.341 1081.088, 950.494 1066.160, 950.658 1066.325 C 950.823 1066.489, 922.197 1086.109, 887.044 1109.923 L 823.132 1153.222 826.272 1157.968 L 829.413 1162.715 838.457 1156.504 C 848.883 1149.343, 939.265 1088.174, 946 1083.719 C 948.475 1082.083, 927.100 1104.313, 898.500 1133.121 C 869.900 1161.928, 861.717 1170.423, 880.315 1151.999 C 898.914 1133.575, 932.594 1099.725, 955.160 1076.777 L 996.190 1035.054 963.722 1034.777 C 945.864 1034.625, 929.734 1034.761, 927.876 1035.081 M 290.407 1049.250 C 292.383 1090.151, 300.328 1153.421, 303.649 1154.695 C 304.392 1154.980, 353.530 1146.746, 412.846 1136.397 L 520.693 1117.581 519.790 1113.561 C 519.293 1111.350, 519.095 1108.746, 519.349 1107.775 C 519.721 1106.353, 519.355 1106.124, 517.468 1106.597 C 516.180 1106.921, 469.536 1115.160, 413.813 1124.908 C 345.810 1136.804, 312.287 1142.281, 311.853 1141.566 C 310.941 1140.065, 306.352 1107.406, 304.537 1089.500 C 303.165 1075.966, 301.034 1044.700, 301.010 1037.750 C 301 1035.076, 300.844 1035, 295.360 1035 L 289.719 1035 290.407 1049.250 M 936.997 1126.750 L 862.500 1201.500 937.346 1127 C 978.511 1086.025, 1011.939 1053.400, 1011.630 1054.500 C 1009.841 1060.875, 967.006 1255.339, 967.321 1255.654 C 967.531 1255.864, 969.941 1256.617, 972.677 1257.326 L 977.651 1258.617 995.326 1179.055 L 1013 1099.493 1013 1075.746 C 1013 1062.686, 1012.661 1052, 1012.247 1052 C 1011.834 1052, 977.971 1085.638, 936.997 1126.750 M 1035.125 1086.414 L 1035 1118.328 1047.500 1188.559 C 1054.375 1227.186, 1060 1259.090, 1060 1259.456 C 1060 1259.823, 1062.138 1259.798, 1064.750 1259.402 C 1067.362 1259.006, 1070.043 1258.679, 1070.706 1258.674 C 1071.369 1258.670, 1071.737 1258.384, 1071.524 1258.039 C 1071.153 1257.439, 1037.609 1069.874, 1036.017 1059.500 C 1035.560 1056.525, 1035.199 1067.424, 1035.125 1086.414 M 1103.500 1087.042 C 1135.221 1119.217, 1135.811 1119.747, 1171.168 1147.853 C 1190.785 1163.448, 1207.128 1176.184, 1207.485 1176.157 C 1208.504 1176.078, 1214.085 1168.747, 1213.776 1167.894 C 1213.624 1167.473, 1182.450 1142.520, 1144.500 1112.443 C 1106.550 1082.366, 1074.600 1057.044, 1073.500 1056.171 C 1072.400 1055.298, 1085.900 1069.190, 1103.500 1087.042 M 760.500 1064.193 C 757.750 1064.718, 707.350 1073.573, 648.500 1083.871 L 541.500 1102.594 541.849 1106.477 C 542.041 1108.612, 542.491 1111.091, 542.849 1111.985 C 543.426 1113.426, 555.998 1111.419, 653.500 1094.315 C 714 1083.702, 764.513 1075.177, 765.750 1075.370 C 768.348 1075.777, 768.292 1075.899, 767.033 1072.586 C 766.501 1071.187, 765.959 1068.458, 765.828 1066.521 C 765.698 1064.584, 765.571 1063.053, 765.546 1063.119 C 765.521 1063.184, 763.250 1063.667, 760.500 1064.193 M 1058.219 1076 C 1085.693 1111.011, 1167.342 1213.569, 1167.906 1213.776 C 1168.749 1214.086, 1176.078 1208.498, 1176.157 1207.485 C 1176.184 1207.128, 1163.448 1190.785, 1147.853 1171.168 C 1119.816 1135.897, 1119.139 1135.144, 1087.094 1103.500 C 1069.271 1085.900, 1056.277 1073.525, 1058.219 1076 M 714.322 1167.848 C 675.174 1186.907, 642.891 1202.758, 642.582 1203.073 C 641.826 1203.845, 649.632 1226.872, 655.269 1240.500 C 663.611 1260.668, 668.888 1271.187, 670.246 1270.353 C 670.936 1269.929, 702.164 1248.808, 739.642 1223.417 C 777.120 1198.026, 808.302 1176.931, 808.936 1176.540 C 809.569 1176.148, 810.855 1176.415, 811.794 1177.134 C 812.778 1177.887, 812.593 1177.395, 811.355 1175.970 C 810.175 1174.611, 808.087 1171.822, 806.715 1169.772 L 804.219 1166.044 739.860 1209.639 C 704.462 1233.616, 675 1253.431, 674.389 1253.671 C 672.296 1254.493, 654.867 1210.733, 656.598 1209.002 C 657.370 1208.230, 787.648 1144.653, 790.373 1143.718 C 790.853 1143.553, 790.058 1141.074, 788.606 1138.209 C 787.154 1135.344, 785.861 1133.044, 785.733 1133.098 C 785.605 1133.153, 753.470 1148.790, 714.322 1167.848 M 1229.636 1185.624 C 1227.553 1188.718, 1226.220 1191.585, 1226.674 1191.997 C 1227.128 1192.409, 1267.099 1224.123, 1315.497 1262.472 L 1403.494 1332.198 1407.177 1327.921 L 1410.861 1323.644 1393.103 1309.572 C 1257.590 1202.189, 1233.003 1182.435, 1233.442 1181.291 C 1234.345 1178.938, 1233.464 1179.941, 1229.636 1185.624 M 1186.266 1229.209 L 1182.033 1232.334 1185.342 1236.417 C 1188.268 1240.025, 1323.095 1410.184, 1323.443 1410.707 C 1323.519 1410.822, 1325.520 1409.246, 1327.889 1407.205 L 1332.196 1403.495 1262.027 1314.998 C 1223.434 1266.324, 1191.552 1226.406, 1191.179 1226.292 C 1190.805 1226.178, 1188.595 1227.490, 1186.266 1229.209 M 961.054 1281.954 C 960.553 1283.905, 949.467 1333.650, 936.421 1392.500 C 923.374 1451.350, 912.317 1499.752, 911.849 1500.059 C 911.381 1500.367, 913.744 1501.073, 917.100 1501.628 C 921.382 1502.336, 923.314 1502.318, 923.577 1501.569 C 923.783 1500.981, 934.779 1451.675, 948.011 1392 C 961.243 1332.325, 972.278 1282.809, 972.534 1281.965 C 972.890 1280.788, 971.711 1280.194, 967.483 1279.419 L 961.967 1278.409 961.054 1281.954 M 1073 1281 C 1071.625 1281.440, 1069.029 1281.845, 1067.231 1281.900 C 1064.373 1281.987, 1064.027 1282.283, 1064.480 1284.250 C 1064.765 1285.487, 1073.559 1334.875, 1084.022 1394 C 1094.485 1453.125, 1103.282 1502.672, 1103.571 1504.105 C 1104.086 1506.664, 1104.185 1506.693, 1109.298 1505.767 C 1112.159 1505.248, 1114.622 1504.704, 1114.770 1504.558 C 1114.919 1504.412, 1106.243 1454.839, 1095.491 1394.396 C 1084.738 1333.953, 1075.856 1283.487, 1075.752 1282.250 C 1075.649 1281.013, 1075.549 1280.045, 1075.532 1280.100 C 1075.514 1280.155, 1074.375 1280.560, 1073 1281 M 1427.628 1338.752 C 1426.845 1340.266, 1425.259 1342.361, 1424.102 1343.407 C 1422.946 1344.454, 1422 1345.661, 1422 1346.090 C 1422 1346.518, 1461.037 1377.796, 1508.750 1415.596 C 1556.463 1453.396, 1596.428 1485.150, 1597.562 1486.159 C 1599.593 1487.968, 1599.694 1487.911, 1604.535 1482.247 C 1607.237 1479.086, 1608.784 1477.024, 1607.974 1477.664 C 1606.765 1478.619, 1590.567 1466.180, 1518 1408.570 C 1469.325 1369.928, 1429.612 1337.791, 1429.750 1337.156 C 1430.195 1335.096, 1429.088 1335.930, 1427.628 1338.752 M 1342.743 1424.750 C 1340.800 1426.263, 1338.376 1428.055, 1337.355 1428.734 C 1336.237 1429.478, 1336.062 1429.875, 1336.916 1429.734 C 1337.740 1429.598, 1367.753 1466.553, 1408.592 1517.988 C 1466.520 1590.946, 1478.644 1606.736, 1477.675 1607.961 C 1477.029 1608.779, 1479.086 1607.237, 1482.247 1604.535 C 1487.911 1599.694, 1487.968 1599.593, 1486.159 1597.562 C 1485.150 1596.428, 1453.396 1556.463, 1415.596 1508.750 C 1377.796 1461.037, 1346.735 1422, 1346.572 1422 C 1346.409 1422, 1344.686 1423.237, 1342.743 1424.750 M 1621.146 1497.704 C 1619.301 1500.173, 1618.176 1502.524, 1618.646 1502.930 C 1619.116 1503.336, 1632.199 1513.708, 1647.720 1525.979 L 1675.939 1548.289 1673.034 1551.957 C 1665.711 1561.203, 1644.111 1585.784, 1634.451 1595.865 L 1623.785 1606.996 1630.828 1614.748 C 1634.702 1619.012, 1659.048 1643.646, 1684.931 1669.491 L 1731.991 1716.483 1736.745 1711.506 L 1741.500 1706.529 1736.730 1710.993 L 1731.959 1715.457 1681.795 1665.293 L 1631.631 1615.129 1641.066 1605.288 C 1656.075 1589.632, 1690.674 1549.358, 1691.374 1546.728 C 1691.465 1546.387, 1635.985 1501.961, 1625.500 1493.978 C 1624.932 1493.546, 1623.052 1495.154, 1621.146 1497.704 M 905.575 1531.170 C 904.582 1536.083, 903.934 1540.232, 904.135 1540.391 C 904.876 1540.976, 934.868 1546.011, 946 1547.419 C 959.599 1549.139, 979.015 1550.668, 998.750 1551.572 L 1013 1552.225 1013 1546.112 L 1013 1540 999.750 1539.994 C 983.297 1539.987, 956.630 1537.702, 935.216 1534.463 C 926.259 1533.108, 918.476 1532, 917.920 1532 C 917.309 1532, 917.166 1530.634, 917.558 1528.545 C 918.157 1525.349, 917.992 1525.043, 915.353 1524.462 C 913.784 1524.117, 911.348 1523.475, 909.940 1523.036 C 907.405 1522.244, 907.364 1522.321, 905.575 1531.170 M 1113.250 1528.284 C 1110.071 1528.810, 1108 1529.663, 1108 1530.446 C 1108 1532.518, 1074.446 1537.264, 1043.750 1539.533 L 1035 1540.180 1035 1545.875 L 1035 1551.571 1044.750 1550.766 C 1066.905 1548.938, 1085.483 1546.724, 1101.981 1543.945 C 1111.596 1542.325, 1119.860 1541, 1120.346 1541 C 1121.286 1541, 1120.261 1530.229, 1119.152 1528.457 C 1118.720 1527.766, 1116.730 1527.708, 1113.250 1528.284 M 1497.367 1621.361 L 1493.233 1624.613 1519.860 1658.197 L 1546.487 1691.782 1550.494 1688.646 C 1566.620 1676.020, 1592.896 1653.108, 1606.760 1639.582 L 1615.021 1631.523 1665.239 1681.741 L 1715.457 1731.959 1710.993 1736.730 L 1706.529 1741.500 1711.515 1736.717 L 1716.500 1731.934 1662.005 1677.589 L 1607.510 1623.245 1596.235 1634.084 C 1586.081 1643.846, 1561.416 1665.542, 1551.953 1673.038 L 1548.280 1675.947 1525.518 1647.223 C 1512.999 1631.425, 1502.474 1618.412, 1502.128 1618.305 C 1501.783 1618.197, 1499.640 1619.573, 1497.367 1621.361" stroke="none" fill="#9a9a9a" fill-rule="evenodd"/><path d="M 985.500 11.671 C 768.596 20.323, 562.911 96.448, 394.500 230.404 C 343.126 271.267, 292.822 319.997, 250.395 370 C 118.468 525.484, 35.825 720.510, 16.059 923 C 12.205 962.482, 11.558 977.017, 11.558 1024 C 11.558 1070.983, 12.205 1085.518, 16.059 1125 C 34.916 1318.181, 109.610 1501.735, 231.795 1655.153 C 383.695 1845.883, 599.705 1975.769, 838.530 2019.980 C 895.068 2030.446, 947.033 2035.573, 1007.500 2036.651 C 1164.867 2039.456, 1319.100 2005.956, 1460.500 1938.257 C 1766.527 1791.740, 1979.983 1501.063, 2026.887 1166.970 C 2034.183 1115.006, 2036.432 1081.311, 2036.432 1024 C 2036.432 966.703, 2034.189 933.096, 2026.888 881 C 2000.616 693.530, 1920.711 515.462, 1797.586 370 C 1763.418 329.633, 1718.367 284.582, 1678 250.414 C 1493.841 94.535, 1260.049 9.540, 1020 11.201 C 1004.875 11.306, 989.350 11.517, 985.500 11.671 M 979 34.690 C 764.353 44.764, 562.449 122.195, 396.500 258.081 C 375.262 275.472, 332 314.247, 332 315.892 C 332 316.229, 368.196 352.698, 412.435 396.935 L 492.870 477.365 502.582 468.433 C 514.539 457.436, 537.386 437.157, 540.645 434.648 C 543.554 432.409, 543.632 432.462, 551.881 442.435 L 557.975 449.802 548.737 457.237 C 543.657 461.326, 534.598 469.133, 528.607 474.586 C 522.615 480.039, 515.640 486.382, 513.107 488.683 L 508.500 492.866 588.998 573.434 C 633.272 617.746, 669.806 653.888, 670.183 653.751 C 670.834 653.513, 685.676 640.439, 696.500 630.568 C 699.250 628.060, 701.950 626.028, 702.500 626.052 C 704.141 626.123, 717.373 643.146, 716.336 643.851 C 712.288 646.600, 706.249 651.555, 699.136 657.964 C 694.536 662.109, 689.586 666.489, 688.136 667.697 L 685.500 669.894 765.998 750.447 C 810.271 794.751, 846.845 831, 847.273 831 C 847.701 831, 850.985 828.270, 854.573 824.932 C 858.160 821.595, 861.473 819.008, 861.935 819.182 C 863.852 819.907, 876.226 836.163, 875.400 836.871 C 874.905 837.295, 871.878 839.832, 868.672 842.509 L 862.845 847.375 926.359 910.438 C 969.475 953.247, 993.143 977.515, 1000.053 986 C 1005.651 992.875, 1010.843 999.147, 1011.590 999.938 C 1012.735 1001.151, 1012.954 984.366, 1012.987 893.058 L 1013.025 784.740 1004.762 785.422 C 994.373 786.280, 980.160 788.537, 973.020 790.463 C 970.006 791.275, 967.246 791.616, 966.886 791.220 C 965.683 789.896, 961.927 770.673, 962.719 769.896 C 963.843 768.792, 986.412 765.176, 1000.750 763.801 L 1013 762.627 1013 648.813 L 1013 535 1004.250 535.009 C 983.083 535.029, 940.162 540.552, 919.500 545.914 C 912.468 547.739, 912.368 547.670, 910.582 539.759 C 909.682 535.777, 908.683 530.869, 908.361 528.853 L 907.775 525.189 913.137 524.104 C 940.185 518.634, 973.261 514.370, 997.658 513.207 L 1012.500 512.500 1012.754 398.137 L 1013.008 283.775 998.754 284.433 C 950.984 286.641, 900.277 292.956, 869.139 300.575 C 863.440 301.970, 858.566 302.900, 858.309 302.642 C 857.623 301.957, 853.109 281.567, 853.545 281.126 C 854.889 279.765, 906.688 270.816, 929 268.089 C 954.493 264.974, 993.322 262.068, 1010.250 262.010 L 1013 262 1013 148 L 1013 34 999.250 34.193 C 991.688 34.299, 982.575 34.523, 979 34.690 M 1035 147.841 L 1035 262 1037.353 262 C 1056.824 262, 1108.824 266.334, 1134.500 270.097 C 1286.260 292.336, 1425.850 358.887, 1539.849 463.351 C 1547.741 470.583, 1554.491 476.613, 1554.850 476.751 C 1555.210 476.888, 1591.728 440.744, 1636.002 396.429 L 1716.500 315.856 1709 308.839 C 1691.555 292.516, 1671.552 274.699, 1658 263.410 C 1487.515 121.393, 1276.874 41.209, 1056.250 34.344 L 1035 33.683 1035 147.841 M 1035.246 398.137 L 1035.500 512.500 1041.500 512.721 C 1089.562 514.490, 1137.880 522.983, 1183.442 537.673 C 1204.276 544.390, 1207.533 545.691, 1207.227 547.176 C 1206.708 549.688, 1200.746 565.502, 1200.012 566.312 C 1199.607 566.759, 1195.276 565.570, 1190.388 563.671 C 1149.602 547.822, 1084.250 535.048, 1043.750 535.009 L 1035 535 1035 648.862 L 1035 762.725 1043.750 763.417 C 1055.013 764.308, 1069.721 766.499, 1081.322 769.013 C 1090.497 771.001, 1118.670 779.337, 1119.702 780.368 C 1120.002 780.669, 1118.550 785.681, 1116.474 791.507 C 1113.429 800.054, 1112.391 801.974, 1111.100 801.450 C 1089.919 792.862, 1066.455 787.293, 1043.750 785.467 L 1035 784.763 1035 890.578 L 1035 996.392 1038.316 993.179 C 1040.139 991.411, 1041.868 990.202, 1042.158 990.491 C 1042.448 990.781, 1045.051 988.201, 1047.943 984.759 C 1050.836 981.317, 1082.955 948.985, 1119.319 912.911 L 1185.435 847.321 1181.559 843.911 C 1179.427 842.035, 1176.516 839.741, 1175.091 838.812 C 1173.666 837.884, 1171.431 836.265, 1170.124 835.213 L 1167.748 833.302 1174.526 824.651 C 1178.253 819.893, 1181.624 816, 1182.017 816 C 1183.052 816, 1187.666 819.642, 1194.307 825.701 C 1197.501 828.616, 1200.427 831, 1200.809 831 C 1201.192 831, 1237.729 794.755, 1282.002 750.455 L 1362.500 669.910 1358.338 666.205 C 1346.105 655.316, 1333.846 644.949, 1328.752 641.185 L 1323.004 636.938 1330.080 627.967 C 1338.134 617.757, 1336.535 617.845, 1347.131 627.034 C 1355.037 633.890, 1371.595 648.508, 1375.281 651.885 L 1378.062 654.433 1458.531 573.969 C 1502.789 529.714, 1539 493.242, 1539 492.921 C 1539 491.930, 1511.648 467.266, 1497.255 455.278 C 1386.735 363.229, 1252.197 305.507, 1110 289.130 C 1091.291 286.975, 1072.213 285.501, 1049.246 284.436 L 1034.992 283.775 1035.246 398.137 M 300.742 347.750 C 267.901 383.331, 244.019 412.462, 218.557 448 C 104.374 607.369, 40.524 795.847, 34.352 991.750 L 33.683 1013 147.841 1013 L 262 1013 262.010 1010.250 C 262.033 1003.613, 264.084 967.471, 265.032 957 C 277.705 817.003, 326.332 687.650, 408.821 574.500 C 425.459 551.678, 445.740 527.206, 468.433 502.568 L 477.365 492.870 396.935 412.435 C 352.698 368.196, 316.229 332, 315.892 332 C 315.555 332, 308.738 339.087, 300.742 347.750 M 1651.065 412.435 L 1570.635 492.870 1579.567 502.531 C 1688.353 620.185, 1756.160 761.009, 1777.932 914.500 C 1782.155 944.272, 1785.916 988.964, 1785.990 1010.250 L 1786 1013 1900.159 1013 L 2014.317 1013 2013.657 991.750 C 2008.070 812.046, 1953.482 637.467, 1855.687 486.544 C 1822.482 435.300, 1787.823 391.179, 1743.125 343.250 C 1737.354 337.063, 1732.377 332, 1732.064 332 C 1731.751 332, 1695.302 368.196, 1651.065 412.435 M 480.321 522.250 C 411.352 597.870, 362.047 678.839, 328.188 772.082 C 301.978 844.262, 288.320 915.018, 284.436 998.750 L 283.775 1013 292.388 1013 L 301 1013 301 1024 L 301 1035 292.500 1035 L 284 1035 284.005 1038.250 C 284.008 1040.037, 284.462 1050.050, 285.015 1060.500 C 294.416 1238.324, 362.573 1398.850, 484.507 1530.351 L 492.991 1539.500 573.677 1458.818 L 654.363 1378.135 648.432 1371.464 C 618.904 1338.255, 599.614 1312.085, 581.011 1280 C 555.434 1235.886, 534.734 1182.723, 524.554 1135 C 523.088 1128.125, 521.182 1119.483, 520.320 1115.795 C 519.457 1112.107, 518.978 1108.499, 519.256 1107.776 C 519.958 1105.946, 540.069 1102.494, 541.024 1104.039 C 541.407 1104.658, 542.250 1109.065, 542.898 1113.832 C 543.547 1118.600, 546.076 1130.641, 548.518 1140.592 C 568.279 1221.085, 607.357 1293.925, 663.865 1355.594 L 670.099 1362.397 750.549 1281.951 C 794.797 1237.705, 831 1201.156, 831 1200.730 C 831 1200.304, 829.266 1198.053, 827.146 1195.728 C 821.041 1189.031, 805 1167.880, 805 1166.527 C 805 1165.304, 821.152 1154, 822.901 1154 C 823.407 1154, 825.732 1157.037, 828.069 1160.750 C 832.406 1167.643, 842.153 1180.069, 845.748 1183.290 C 847.707 1185.045, 849.164 1183.649, 921.936 1110.290 L 996.126 1035.500 964.012 1035 L 931.897 1034.500 966.199 1028.581 C 985.064 1025.325, 1001.625 1022.354, 1003 1021.980 C 1005.238 1021.370, 1004.678 1020.889, 997.663 1017.399 C 989.946 1013.560, 989.877 1013.492, 993.163 1012.986 C 996.481 1012.475, 996.069 1012.039, 922.081 937.734 C 849.651 864.994, 847.609 863.043, 845.706 864.748 C 837.452 872.141, 819.388 898.403, 811.838 913.985 C 809.036 919.768, 806.623 924.640, 806.477 924.812 C 806.330 924.983, 801.640 922.830, 796.055 920.028 L 785.900 914.932 791.134 905.216 C 801.206 886.519, 810.702 872.086, 821.420 859.180 C 824.764 855.154, 828.385 850.753, 829.468 849.400 L 831.435 846.940 750.970 766.470 C 706.714 722.211, 670.259 686, 669.958 686 C 669.002 686, 646.381 712.095, 637.444 723.508 C 619.328 746.642, 596.446 783.144, 585.872 805.778 L 581.071 816.056 577.785 814.663 C 570.593 811.614, 561 806.525, 561 805.759 C 561 804.158, 579.403 770.333, 587.230 757.549 C 604.755 728.923, 621.429 706.850, 648.431 676.527 L 654.362 669.866 573.933 589.433 C 529.697 545.195, 493.257 509, 492.955 509 C 492.653 509, 486.967 514.962, 480.321 522.250 M 1474.067 589.433 L 1393.638 669.866 1399.569 676.527 C 1421.903 701.608, 1436.714 720.548, 1451.268 742.639 C 1501.453 818.813, 1530.496 907.487, 1534.793 997.658 L 1535.500 1012.500 1649.750 1012.754 L 1764 1013.008 1764 1010.651 C 1764 1001.488, 1761.580 964.131, 1759.942 948 C 1745.127 802.148, 1686.810 663.577, 1592.777 550.796 C 1580.705 536.317, 1556.066 509, 1555.079 509 C 1554.758 509, 1518.303 545.195, 1474.067 589.433 M 1297.030 766.470 L 1216.565 846.940 1218.532 849.400 C 1219.615 850.753, 1223.395 855.331, 1226.933 859.575 C 1242.021 877.671, 1258.112 905.329, 1267.455 929.224 C 1276.742 952.975, 1282.482 978.175, 1284.544 1004.250 L 1285.237 1013 1399.118 1013 L 1513 1013 1512.991 1004.250 C 1512.974 986.760, 1509.559 956.348, 1504.878 932 C 1489.777 853.456, 1456.294 780.771, 1406.543 718.532 C 1397.248 706.904, 1378.910 686, 1378.004 686 C 1377.724 686, 1341.286 722.211, 1297.030 766.470 M 1125.954 937.780 L 1051.500 1012.500 1067.500 1012.854 L 1083.500 1013.209 1075.500 1015.528 L 1067.500 1017.848 1145.750 1017.924 L 1224 1018 1224.136 1013.250 C 1224.211 1010.638, 1224.467 1009.513, 1224.706 1010.750 C 1225.137 1012.989, 1225.233 1013, 1244.070 1013 L 1263 1013 1263 1010.461 C 1263 1004.698, 1260.733 987.704, 1258.402 976 C 1252.955 948.642, 1239.372 915.896, 1223.703 892.343 C 1216.496 881.510, 1206.235 868.278, 1202.329 864.780 C 1200.473 863.117, 1197.925 865.553, 1125.954 937.780 M 34.344 1056.250 C 41.120 1274.022, 119.298 1482.013, 258.081 1651.500 C 275.208 1672.416, 314.268 1716, 315.886 1716 C 316.226 1716, 352.698 1679.804, 396.935 1635.565 L 477.365 1555.130 468.433 1545.429 C 437.499 1511.834, 414.310 1482.645, 391.032 1448 C 319.405 1341.396, 276.762 1220.575, 265.032 1091 C 264.084 1080.529, 262.033 1044.387, 262.010 1037.750 L 262 1035 147.841 1035 L 33.683 1035 34.344 1056.250 M 1093.143 1077.091 C 1116.439 1100.241, 1133.475 1117.682, 1131 1115.848 C 1128.525 1114.014, 1114.575 1103.058, 1100 1091.501 C 1063.408 1062.488, 1059.269 1059.300, 1061.100 1061.541 C 1065.984 1067.520, 1117.421 1132.741, 1118.245 1134 C 1118.784 1134.825, 1100.282 1116.446, 1077.127 1093.157 L 1035.028 1050.815 1034.764 1083.157 L 1034.500 1115.500 1029.055 1084.661 C 1025.952 1067.087, 1023.322 1054.613, 1022.940 1055.661 C 1022.572 1056.673, 1020.297 1066.500, 1017.885 1077.500 L 1013.500 1097.500 1013.231 1074.750 C 1013.083 1062.237, 1012.632 1052, 1012.229 1052 C 1011.825 1052, 978.047 1085.450, 937.166 1126.334 L 862.837 1200.668 867.978 1205.290 C 888.448 1223.695, 919.231 1241.152, 948.500 1250.954 C 956.750 1253.717, 964.265 1255.982, 965.201 1255.989 C 966.136 1255.995, 969.174 1256.487, 971.951 1257.083 C 977.895 1258.358, 977.851 1258.152, 974.910 1270.924 C 973.067 1278.932, 972.565 1280, 970.649 1280 C 967.001 1280, 941.187 1272.156, 929 1267.344 C 905.103 1257.909, 878.811 1242.621, 860.183 1227.328 C 855.609 1223.572, 850.758 1219.614, 849.402 1218.532 L 846.938 1216.563 766.270 1297.232 L 685.602 1377.900 692.405 1384.134 C 751.664 1438.434, 823.350 1477.724, 899.049 1497.392 C 906.447 1499.314, 914.643 1501.189, 917.262 1501.559 C 919.882 1501.928, 922.273 1502.633, 922.577 1503.125 C 923.031 1503.859, 919.217 1523.725, 918.410 1524.833 C 917.557 1526.004, 867.804 1511.709, 850 1505.177 C 784.483 1481.140, 733.086 1449.849, 676.536 1399.568 L 669.865 1393.637 589.182 1474.323 L 508.500 1555.009 517.649 1563.493 C 649.214 1685.486, 810.568 1753.929, 987.897 1762.961 C 999.115 1763.533, 1009.352 1764, 1010.647 1764 L 1013 1764 1013 1652 L 1013 1540 1024 1540 L 1035 1540 1035 1652.102 L 1035 1764.205 1048.750 1763.564 C 1072.242 1762.469, 1091.806 1760.971, 1110 1758.872 C 1227.912 1745.275, 1341.055 1703.156, 1439.500 1636.210 C 1453.508 1626.684, 1475.843 1610.110, 1483.648 1603.449 L 1487.797 1599.909 1494.076 1607.704 C 1497.529 1611.992, 1500.752 1616.029, 1501.238 1616.676 C 1503.008 1619.032, 1447.128 1658.806, 1415.500 1677.702 C 1306.713 1742.697, 1187.953 1778.541, 1060 1784.997 C 1049.275 1785.538, 1039.263 1785.985, 1037.750 1785.990 L 1035 1786 1035 1900.159 L 1035 2014.317 1056.250 2013.657 C 1283.109 2006.605, 1499.094 1922.081, 1672 1772.688 C 1686.646 1760.034, 1716 1732.918, 1716 1732.043 C 1716 1731.677, 1691.700 1707.162, 1662 1677.565 C 1632.300 1647.968, 1608 1623.682, 1608 1623.596 C 1608 1623.293, 1623.148 1608, 1623.448 1608 C 1623.615 1608, 1647.968 1632.300, 1677.565 1662 C 1707.162 1691.700, 1731.679 1716, 1732.049 1716 C 1732.829 1716, 1757.772 1689.104, 1770.534 1674.500 C 1843.498 1591.011, 1903.527 1492.678, 1944.529 1389.482 C 1986.584 1283.638, 2010.114 1170.208, 2013.657 1056.250 L 2014.317 1035 1900.261 1035 L 1786.205 1035 1785.559 1048.750 C 1783.126 1100.524, 1778.554 1138.227, 1769.461 1181.500 C 1752.309 1263.124, 1722.061 1340.670, 1679.161 1413 C 1659.904 1445.467, 1619.113 1503.070, 1616.676 1501.238 C 1616.029 1500.752, 1611.992 1497.529, 1607.704 1494.076 L 1599.909 1487.797 1603.449 1483.648 C 1610.426 1475.472, 1626.890 1453.224, 1637.229 1438 C 1705.147 1337.988, 1747.664 1220.880, 1759.942 1100 C 1761.580 1083.869, 1764 1046.512, 1764 1037.349 L 1764 1034.992 1649.750 1035.246 L 1535.500 1035.500 1534.793 1050.342 C 1530.982 1130.315, 1507.336 1210.356, 1466.925 1280.070 C 1455.052 1300.551, 1433.580 1332.209, 1424.388 1342.786 L 1421.275 1346.367 1412.638 1339.522 C 1407.887 1335.757, 1404 1332.447, 1404 1332.166 C 1404 1331.885, 1406.159 1329.145, 1408.798 1326.078 C 1416.674 1316.920, 1422.204 1309.315, 1433.226 1292.477 C 1472.535 1232.429, 1497.116 1168.478, 1507.978 1098 C 1510.528 1081.453, 1513 1054.782, 1513 1043.813 L 1513 1035 1399.118 1035 L 1285.237 1035 1284.560 1043.750 C 1281.190 1087.315, 1266.127 1131.552, 1242.725 1166.611 C 1233.395 1180.587, 1226.821 1189.992, 1226.047 1190.471 C 1225.515 1190.800, 1221.741 1188.062, 1210.593 1179.260 C 1207.940 1177.166, 1207.854 1176.874, 1209.257 1174.760 C 1210.082 1173.517, 1212.035 1171.150, 1213.597 1169.500 C 1224.640 1157.832, 1243.001 1123.410, 1250.936 1099.500 C 1257.434 1079.915, 1263 1051.332, 1263 1037.539 L 1263 1035 1156.893 1035 L 1050.786 1035 1093.143 1077.091 M 774.500 1061.927 C 764.225 1063.824, 764.800 1062.683, 767.668 1075.500 C 772.227 1095.879, 776.848 1110.465, 784.655 1129.128 C 791.203 1144.782, 789.873 1144.043, 801.303 1138.365 C 806.636 1135.716, 811 1133.204, 811 1132.782 C 811 1132.360, 809.010 1128.074, 806.579 1123.258 C 798.962 1108.171, 790.553 1080.982, 788.483 1064.750 C 787.781 1059.241, 788.385 1059.363, 774.500 1061.927 M 1172.395 1211.084 C 1170.261 1212.779, 1168.283 1214.543, 1167.999 1215.002 C 1166.472 1217.472, 1142.498 1232.111, 1129.500 1238.509 C 1110.408 1247.908, 1085.305 1256.533, 1071.500 1258.437 C 1060.573 1259.944, 1059.913 1260.147, 1060.411 1261.844 C 1060.678 1262.755, 1061.384 1266.425, 1061.981 1270 C 1064.029 1282.275, 1063.918 1282.001, 1066.829 1281.990 C 1071.249 1281.975, 1099.679 1274.441, 1112.426 1269.908 C 1129.847 1263.713, 1153.373 1251.652, 1170.500 1240.137 C 1178.750 1234.590, 1186.746 1229.028, 1188.269 1227.776 L 1191.038 1225.500 1184.269 1216.784 C 1180.546 1211.990, 1177.224 1208.053, 1176.888 1208.034 C 1176.551 1208.015, 1174.529 1209.388, 1172.395 1211.084 M 1327.500 1407.617 C 1315.561 1418.187, 1285.870 1438.421, 1264.500 1450.551 C 1220.241 1475.673, 1159.663 1497.785, 1116.500 1504.574 C 1110.450 1505.525, 1105.196 1506.573, 1104.824 1506.902 C 1104.188 1507.466, 1107.517 1527.850, 1108.388 1528.721 C 1109.427 1529.760, 1147.123 1521.050, 1167.931 1514.963 C 1225.476 1498.128, 1278.966 1471.551, 1328.500 1435.183 C 1334.550 1430.741, 1340.950 1426.070, 1342.722 1424.803 C 1344.495 1423.536, 1345.957 1422.120, 1345.972 1421.656 C 1346.006 1420.613, 1332.903 1403.986, 1332.089 1404.038 C 1331.765 1404.058, 1329.700 1405.669, 1327.500 1407.617 M 412.248 1651.252 C 368.112 1695.391, 332 1731.781, 332 1732.118 C 332 1734.028, 378.062 1774.971, 401.500 1793.896 C 570.638 1930.463, 776.079 2006.952, 991.750 2013.657 L 1013 2014.317 1013 1900.159 L 1013 1786 1010.250 1785.990 C 1001.914 1785.961, 966.239 1783.800, 952 1782.462 C 796.007 1767.798, 648.154 1705.116, 529 1603.132 C 524.875 1599.601, 515.280 1591.040, 507.677 1584.106 C 500.075 1577.173, 493.549 1571.387, 493.175 1571.249 C 492.802 1571.112, 456.385 1607.113, 412.248 1651.252" stroke="none" fill="#818181" fill-rule="evenodd"/><path d="M 986.500 35.053 C 847.214 40.171, 711.081 74.597, 586.918 136.102 C 494.772 181.747, 416.054 236.667, 341.500 307.323 L 332.500 315.853 412.498 395.926 C 456.496 439.967, 492.796 476, 493.163 476 C 493.531 476, 498.033 472.062, 503.168 467.250 C 508.303 462.437, 517.341 454.284, 523.252 449.130 C 529.164 443.977, 533.980 439.477, 533.955 439.130 C 533.931 438.784, 522.039 424.147, 507.528 406.604 L 481.146 374.709 493.823 364.532 C 530.823 334.829, 573.105 306.764, 617.123 282.692 C 681.456 247.509, 754.372 219.580, 826.460 202.510 C 836.888 200.041, 845.719 198.353, 846.084 198.760 C 846.449 199.167, 850.622 217.005, 855.357 238.400 C 860.092 259.794, 864.140 277.474, 864.354 277.687 C 864.567 277.900, 871.887 276.738, 880.621 275.105 C 921.383 267.482, 971.536 262.037, 1001.250 262.010 L 1012 262 1012 148 L 1012 34 1009.250 34.159 C 1007.737 34.246, 997.500 34.648, 986.500 35.053 M 1036 148.116 L 1036 262 1046.420 262 C 1067.013 262, 1104.917 265.252, 1135 269.599 C 1286.735 291.526, 1433.834 362.380, 1544.224 466.711 C 1549.629 471.820, 1554.379 476, 1554.778 476 C 1555.178 476, 1591.504 439.967, 1635.502 395.927 L 1715.500 315.854 1706 306.810 C 1588.329 194.787, 1442.657 112.370, 1286.633 69.544 C 1210.027 48.517, 1133.643 37.288, 1049.250 34.647 L 1036 34.233 1036 148.116 M 976.500 286.091 C 957.851 287.337, 934.127 289.875, 915.500 292.618 C 896.746 295.379, 873.399 299.649, 870.889 300.776 C 869.476 301.411, 872.284 315.017, 893.634 411 C 907.031 471.225, 918.185 521.011, 918.421 521.636 C 918.729 522.452, 921.461 522.236, 928.126 520.869 C 943.300 517.757, 972.190 514.182, 992.750 512.873 L 1012 511.648 1012 398.324 L 1012 285 1000.250 285.145 C 993.788 285.224, 983.100 285.650, 976.500 286.091 M 1036 398.358 L 1036 511.717 1048.250 512.398 C 1096.572 515.087, 1140.571 523.129, 1182.516 536.939 C 1190.741 539.647, 1197.517 541.781, 1197.574 541.681 C 1197.631 541.582, 1206.413 517.990, 1217.089 489.255 C 1227.765 460.520, 1237.026 437.007, 1237.670 437.005 C 1238.313 437.002, 1246.173 439.751, 1255.137 443.112 C 1310.052 463.708, 1363.799 492.702, 1408.257 525.713 L 1419.013 533.700 1382.600 579.600 L 1346.188 625.500 1350.826 629.500 C 1353.377 631.700, 1359.441 637.100, 1364.302 641.500 C 1369.162 645.900, 1374.246 650.385, 1375.599 651.468 L 1378.060 653.435 1458.030 573.470 C 1502.014 529.489, 1538 493.197, 1538 492.820 C 1538 491.772, 1510.667 467.117, 1495.762 454.720 C 1392.197 368.583, 1265.799 312.178, 1132.500 292.615 C 1103.931 288.422, 1065.201 285.049, 1045.250 285.015 L 1036 285 1036 398.358 M 303.374 345.750 C 271.959 379.420, 248.432 407.777, 223.348 442.208 C 148.647 544.745, 92.614 665.073, 63.024 786.500 C 45.858 856.940, 37.335 920.607, 34.608 998.750 L 34.146 1012 147.915 1012 L 261.684 1012 262.327 992.750 C 266.856 857.079, 311.057 719.940, 387.462 604.500 C 411.336 568.430, 439.693 532.279, 465.511 505 C 469.936 500.325, 474.187 495.682, 474.957 494.682 C 476.244 493.012, 469.813 486.318, 396.432 412.932 C 352.472 368.969, 316.227 333, 315.887 333 C 315.548 333, 309.917 338.738, 303.374 345.750 M 1651.545 412.955 L 1571.596 492.909 1575.548 497.396 C 1577.722 499.863, 1583.920 506.704, 1589.323 512.597 C 1626.155 552.772, 1662.160 602.988, 1690.785 654.105 C 1747.856 756.024, 1781.817 877.224, 1785.673 992.750 L 1786.316 1012 1900.194 1012 L 2014.072 1012 2013.555 1003.250 C 2013.271 998.438, 2012.787 987.300, 2012.480 978.500 C 2012.173 969.700, 2011.254 954.175, 2010.438 944 C 1997.108 777.865, 1942.446 619.128, 1850.482 479.500 C 1825.366 441.367, 1793.331 399.590, 1764.598 367.500 C 1751.231 352.572, 1732.814 333, 1732.134 333 C 1731.783 333, 1695.518 368.980, 1651.545 412.955 M 536.321 468.337 C 529.819 474.088, 521.125 481.958, 517 485.825 L 509.500 492.857 589.498 572.929 C 633.496 616.968, 669.908 653, 670.413 653 C 670.917 653, 674.068 650.408, 677.415 647.240 C 680.762 644.071, 685.794 639.452, 688.598 636.974 L 693.696 632.468 622.016 545.540 C 582.591 497.729, 549.842 458.447, 549.239 458.246 C 548.636 458.045, 542.823 462.586, 536.321 468.337 M 482.824 520.250 C 460.588 544.439, 442.462 566.474, 425.035 590.500 C 355.314 686.622, 309.818 798.283, 292.615 915.500 C 288.422 944.069, 285.049 982.799, 285.015 1002.750 C 285 1011.790, 285.053 1012, 287.344 1012 L 289.688 1012 290.329 988.750 C 292.520 909.393, 310.552 822.350, 340.723 745.500 C 346.627 730.460, 359.815 700.027, 361.011 698.680 C 361.412 698.229, 407.529 719.961, 463.494 746.973 C 519.459 773.984, 565.343 795.953, 565.458 795.792 C 565.573 795.632, 568.643 789.801, 572.279 782.835 C 584.844 758.764, 603.830 729.656, 621.410 707.510 C 630.657 695.862, 645.411 678.792, 649.890 674.563 C 651.601 672.948, 653 671.146, 653 670.561 C 653 669.455, 493.974 510, 492.871 510 C 492.528 510, 488.007 514.612, 482.824 520.250 M 1474.748 589.752 C 1430.886 633.616, 1395 669.834, 1395 670.237 C 1395 670.640, 1398.644 674.914, 1403.099 679.735 C 1407.553 684.556, 1416.259 694.800, 1422.445 702.500 C 1449.053 735.618, 1466.482 763.165, 1485.053 801.454 C 1514.388 861.934, 1530.786 924.581, 1535.127 992.750 L 1536.352 1012 1649.834 1012 L 1763.316 1012 1762.660 994.250 C 1756.721 833.380, 1696.598 676.489, 1593.277 552.238 C 1580.891 537.342, 1556.229 510, 1555.180 510 C 1554.803 510, 1518.609 545.889, 1474.748 589.752 M 996 535.685 C 975.459 536.862, 926.106 543.561, 924.242 545.424 C 923.632 546.035, 971.916 765.033, 972.912 766.172 C 973.236 766.541, 979.125 766, 986 764.968 C 992.875 763.936, 1000.826 763.071, 1003.668 763.046 C 1006.511 763.021, 1009.548 762.727, 1010.418 762.393 C 1011.848 761.844, 1012 750.870, 1012 648.393 L 1012 535 1006.750 535.185 C 1003.862 535.287, 999.025 535.512, 996 535.685 M 1036 648.284 C 1036 750.860, 1036.152 761.844, 1037.582 762.393 C 1038.452 762.727, 1041.264 763.008, 1043.832 763.018 C 1055.048 763.062, 1079.395 767.447, 1097.394 772.664 C 1103.936 774.560, 1109.635 775.749, 1110.059 775.306 C 1110.741 774.592, 1187.664 568.859, 1188.718 564.929 C 1189.132 563.385, 1178.264 559.392, 1156.500 553.092 C 1125.679 544.171, 1085.655 537.706, 1047.250 535.444 L 1036 534.781 1036 648.284 M 1261.172 733.181 L 1190.845 822.255 1195.672 826.561 L 1200.500 830.866 1280.750 750.685 C 1324.888 706.586, 1361 670.189, 1361 669.802 C 1361 669.069, 1333.411 644.647, 1332.196 644.304 C 1331.813 644.196, 1299.853 684.191, 1261.172 733.181 M 697.250 660.101 C 691.612 665.096, 687 669.481, 687 669.844 C 687 670.207, 723.127 706.630, 767.283 750.783 L 847.567 831.062 850.220 828.281 L 852.874 825.500 781.187 738.579 C 741.759 690.772, 709.050 651.514, 708.500 651.339 C 707.950 651.163, 702.888 655.106, 697.250 660.101 M 658.744 698.816 C 632.490 728.605, 611.988 757.797, 593.664 791.479 C 589.481 799.168, 586.383 805.775, 586.779 806.161 C 587.416 806.781, 750.762 885.875, 779.697 899.574 L 790.894 904.875 795.018 897.187 C 801.143 885.769, 812.977 868.504, 822.410 857.223 L 830.752 847.247 750.624 767.124 C 706.553 723.056, 670.194 687, 669.827 687 C 669.459 687, 664.472 692.317, 658.744 698.816 M 1297.315 767.250 L 1217.134 847.500 1221.644 852.500 C 1244.299 877.619, 1265.406 916.141, 1275.340 950.500 C 1280.373 967.912, 1285 993.752, 1285 1004.453 C 1285 1006.864, 1285.273 1009.548, 1285.607 1010.418 C 1286.156 1011.848, 1297.140 1012, 1399.716 1012 L 1513.219 1012 1512.558 1000.750 C 1505.757 884.964, 1464.694 784.413, 1389.256 698.816 C 1383.528 692.317, 1378.539 687, 1378.169 687 C 1377.798 687, 1341.414 723.112, 1297.315 767.250 M 989.500 787.660 C 984 788.454, 979.165 789.437, 978.756 789.846 C 978.174 790.427, 1009.861 936.438, 1011.451 940.500 C 1011.666 941.050, 1011.878 906.513, 1011.921 863.750 L 1012 786 1005.750 786.108 C 1002.313 786.168, 995 786.866, 989.500 787.660 M 1036.079 880.099 C 1036.122 932.020, 1036.349 974.050, 1036.583 973.500 C 1036.817 972.950, 1051.596 933.350, 1069.426 885.500 C 1091.705 825.711, 1101.477 798.300, 1100.672 797.861 C 1100.027 797.510, 1094.550 795.839, 1088.500 794.147 C 1074.678 790.282, 1057.246 787.128, 1045.250 786.321 L 1036 785.698 1036.079 880.099 M 840.879 870.769 C 828.162 885.999, 810.815 913.215, 812.653 915.053 C 813.145 915.545, 849.312 933.214, 893.024 954.318 C 936.736 975.422, 974.075 993.477, 976 994.440 C 978.109 995.496, 953.272 969.924, 913.503 930.096 C 877.204 893.743, 847.279 864.008, 847.003 864.019 C 846.726 864.029, 843.971 867.067, 840.879 870.769 M 1127.998 936.595 C 1088.124 976.523, 1056.400 1008.948, 1057.500 1008.651 C 1058.600 1008.355, 1098.527 997.287, 1146.227 984.056 C 1193.926 970.825, 1233.123 960, 1233.331 960 C 1234.412 960, 1236.262 983.452, 1236.230 996.750 L 1236.193 1012 1249.247 1012 L 1262.302 1012 1261.679 1002.750 C 1259.208 966.016, 1244.706 924.869, 1222.468 891.500 C 1215.774 881.455, 1202.801 864.856, 1201.170 864.249 C 1200.799 864.111, 1167.872 896.667, 1127.998 936.595 M 34.608 1049.250 C 36.463 1102.404, 40.685 1145.602, 48.541 1191.812 C 71.268 1325.486, 122.267 1454.419, 197.538 1568.500 C 229.764 1617.342, 266.034 1662.933, 307.323 1706.500 L 315.853 1715.500 395.926 1635.502 C 439.967 1591.504, 476 1555.108, 476 1554.624 C 476 1554.139, 472.249 1549.863, 467.664 1545.121 C 429.102 1505.237, 387.359 1448.086, 357.286 1394 C 299.580 1290.216, 266.195 1171.121, 262.327 1055.250 L 261.684 1036 147.915 1036 L 34.146 1036 34.608 1049.250 M 285.348 1054.250 C 287.749 1120.402, 300.095 1189.263, 321.096 1253.634 C 354.815 1356.988, 409.696 1449.376, 485.858 1531 L 492.856 1538.500 572.928 1458.502 C 616.968 1414.504, 653 1378.132, 653 1377.676 C 653 1377.221, 649.203 1372.720, 644.562 1367.674 C 612.469 1332.779, 586.877 1295.008, 564.494 1249.500 C 544.805 1209.468, 531.297 1170.775, 523.298 1131.500 C 521.842 1124.350, 520.550 1118.358, 520.426 1118.184 C 520.302 1118.009, 472.343 1126.198, 413.850 1136.380 C 355.358 1146.562, 306.375 1155.030, 305 1155.197 C 302.548 1155.494, 302.458 1155.260, 300.323 1143 C 295.418 1114.832, 291.681 1080.450, 290.398 1051.696 L 289.698 1036 287.192 1036 L 284.686 1036 285.348 1054.250 M 1060.025 1043.551 C 1064.136 1047.704, 1099.654 1076.616, 1138.952 1107.801 C 1178.251 1138.985, 1211.398 1165.288, 1212.612 1166.251 C 1214.811 1167.996, 1214.847 1167.960, 1222.647 1156.251 C 1244.630 1123.253, 1259.224 1081.751, 1261.679 1045.250 L 1262.302 1036 1157.426 1036 L 1052.550 1036 1060.025 1043.551 M 1285.607 1037.582 C 1285.273 1038.452, 1285 1041.136, 1285 1043.547 C 1285 1049.576, 1282.287 1068.628, 1279.880 1079.500 C 1272.299 1113.747, 1258.131 1146.024, 1238.265 1174.307 C 1235.249 1178.601, 1232.943 1182.272, 1233.141 1182.465 C 1233.338 1182.657, 1273.325 1214.394, 1321.999 1252.990 L 1410.499 1323.165 1413.252 1319.867 C 1427.867 1302.361, 1452.039 1262.864, 1465.545 1234.420 C 1493.411 1175.735, 1508.551 1115.459, 1512.558 1047.250 L 1513.219 1036 1399.716 1036 C 1297.140 1036, 1286.156 1036.152, 1285.607 1037.582 M 1535.127 1055.250 C 1530.799 1123.216, 1514.072 1187.115, 1484.976 1246.819 C 1468.662 1280.298, 1455.600 1301.568, 1430.205 1336.013 C 1429.035 1337.599, 1437.107 1344.266, 1513.205 1404.568 C 1559.567 1441.307, 1599.624 1473.115, 1602.220 1475.252 L 1606.941 1479.136 1617.566 1464.818 C 1706.558 1344.897, 1757.209 1201.398, 1762.660 1053.750 L 1763.316 1036 1649.834 1036 L 1536.352 1036 1535.127 1055.250 M 1785.673 1055.250 C 1784.625 1086.666, 1781.461 1116.914, 1775.501 1152.500 C 1755.920 1269.427, 1707.810 1381.960, 1636.169 1478.407 L 1625.096 1493.313 1652.298 1514.920 C 1667.259 1526.804, 1682.313 1538.725, 1685.750 1541.411 C 1689.704 1544.501, 1691.701 1546.700, 1691.186 1547.398 C 1683.232 1558.164, 1656.871 1588.819, 1641.704 1604.940 L 1631.882 1615.380 1682.009 1665.440 L 1732.135 1715.500 1740.703 1706.500 C 1849.645 1592.065, 1930.990 1450.806, 1974.500 1300.500 C 1998.039 1219.186, 2010.205 1140.590, 2013.392 1049.250 L 2013.854 1036 1900.085 1036 L 1786.316 1036 1785.673 1055.250 M 885.500 1053.969 L 790.500 1070.688 790.769 1074.094 C 791.196 1079.488, 797.776 1101.551, 802.223 1112.500 C 804.457 1118, 806.372 1122.614, 806.479 1122.753 C 806.677 1123.011, 982.161 1038.117, 982.917 1037.397 C 983.644 1036.704, 982.247 1036.942, 885.500 1053.969 M 937.516 1126.984 L 863.537 1200.968 867.019 1203.971 C 892.815 1226.226, 924.847 1243.734, 956.962 1253.135 C 962.168 1254.659, 966.494 1255.815, 966.576 1255.703 C 966.755 1255.459, 1011.707 1053, 1011.582 1053 C 1011.534 1053, 978.204 1086.293, 937.516 1126.984 M 1035.959 1055.025 C 1035.937 1056.386, 1043.915 1102.626, 1053.689 1157.779 L 1071.459 1258.058 1074.479 1257.461 C 1076.141 1257.132, 1082.909 1255.343, 1089.520 1253.485 C 1113.095 1246.858, 1135.809 1236.330, 1156.746 1222.326 C 1167.934 1214.842, 1167.982 1214.793, 1166.246 1212.604 C 1165.285 1211.395, 1138.985 1178.251, 1107.801 1138.952 C 1051.341 1067.802, 1036.043 1049.930, 1035.959 1055.025 M 753.500 1077.017 C 748 1078.009, 699.175 1086.534, 645 1095.962 C 590.825 1105.390, 545.761 1113.418, 544.857 1113.802 C 543.356 1114.440, 543.420 1115.493, 545.600 1126 C 562.892 1209.353, 604.879 1290.483, 664.372 1355.500 L 669.862 1361.500 750.315 1281.119 L 830.767 1200.738 823.133 1191.596 C 818.935 1186.568, 814.346 1180.928, 812.936 1179.061 L 810.373 1175.668 742.436 1221.675 C 705.071 1246.980, 673.257 1268.484, 671.739 1269.464 L 668.977 1271.245 663.439 1259.594 C 653.612 1238.919, 641.003 1204.594, 642.638 1202.965 C 643.378 1202.228, 718.899 1165.376, 769.677 1140.975 L 785.854 1133.201 781.460 1122.569 C 775.913 1109.145, 771.393 1094.547, 767.585 1077.750 C 766.861 1074.557, 767.083 1074.568, 753.500 1077.017 M 889.657 1121.955 C 857.293 1143.899, 830.562 1162.104, 830.256 1162.411 C 829.727 1162.940, 837.526 1173.458, 844.025 1180.982 L 847.033 1184.464 898.265 1133.232 C 926.443 1105.054, 949.273 1082.013, 948.999 1082.028 C 948.724 1082.043, 922.020 1100.010, 889.657 1121.955 M 766.881 1297.676 L 686.500 1378.119 691.500 1382.722 C 735.759 1423.462, 787.519 1456.186, 842.500 1478.187 C 866.187 1487.666, 910.368 1501.117, 911.983 1499.341 C 912.656 1498.601, 959.341 1289.834, 960.684 1281.562 L 961.208 1278.332 951.354 1275.544 C 917.861 1266.066, 883.818 1247.907, 856.381 1224.885 L 847.262 1217.233 766.881 1297.676 M 1176 1237.088 C 1161.112 1247.968, 1138.453 1260.277, 1119.304 1267.888 C 1108.605 1272.141, 1087.570 1278.565, 1080.802 1279.648 C 1078.617 1279.997, 1076.613 1280.846, 1076.349 1281.534 C 1076.085 1282.222, 1084.673 1332.296, 1095.434 1392.809 C 1106.195 1453.322, 1115 1503.157, 1115 1503.553 C 1115 1505.695, 1149.046 1497.547, 1174.357 1489.347 C 1213.686 1476.607, 1249.885 1459.728, 1283.814 1438.309 C 1298.327 1429.147, 1319.832 1414.112, 1321.780 1411.765 C 1322.797 1410.540, 1311.242 1395.461, 1252.915 1321.896 C 1214.367 1273.278, 1182.529 1233.403, 1182.164 1233.284 C 1181.799 1233.166, 1179.025 1234.877, 1176 1237.088 M 589.498 1475.072 L 509.500 1555.144 517 1562.142 C 649.555 1685.826, 816.496 1755.939, 994.422 1762.651 L 1012 1763.314 1012 1657.791 L 1012 1552.267 995.250 1551.593 C 968.116 1550.501, 941.773 1547.590, 915.750 1542.808 C 902.421 1540.359, 903.067 1541.145, 905.555 1530.417 C 906.411 1526.729, 906.748 1523.397, 906.305 1523.014 C 905.862 1522.630, 900.550 1521.066, 894.500 1519.537 C 843.144 1506.560, 784.796 1480.273, 739 1449.482 C 718.059 1435.402, 697.761 1419.473, 680.326 1403.438 C 675.280 1398.797, 670.779 1395, 670.324 1395 C 669.868 1395, 633.496 1431.032, 589.498 1475.072 M 1328 1436.137 C 1296.188 1459.544, 1259.957 1480.198, 1223 1495.993 C 1196.448 1507.342, 1154.885 1520.251, 1127.892 1525.533 L 1119.284 1527.217 1120.492 1533.643 C 1121.156 1537.176, 1121.399 1540.253, 1121.033 1540.480 C 1117.608 1542.597, 1067.969 1549.493, 1048.063 1550.618 L 1036 1551.300 1036 1657.306 L 1036 1763.312 1053.753 1762.646 C 1201.675 1757.093, 1345.574 1706.321, 1464.771 1617.629 L 1479.042 1607.011 1469.708 1595.255 C 1464.574 1588.790, 1433.462 1549.525, 1400.569 1508 C 1367.676 1466.475, 1340.029 1431.745, 1339.131 1430.823 C 1337.611 1429.260, 1336.856 1429.620, 1328 1436.137 M 412.498 1652.074 L 332.500 1732.147 341.500 1740.677 C 465.522 1858.216, 612.838 1939.950, 778 1982.858 C 840.224 1999.023, 917.610 2010.430, 979 2012.484 C 988.075 2012.788, 999.212 2013.256, 1003.750 2013.524 L 1012 2014.012 1012 1900.164 L 1012 1786.316 992.750 1785.673 C 877.318 1781.820, 755.938 1747.808, 654.098 1690.781 C 598.982 1659.917, 544.515 1620.156, 502.785 1580.320 C 497.991 1575.744, 493.715 1572, 493.282 1572 C 492.849 1572, 456.496 1608.033, 412.498 1652.074 M 1480.584 1634.573 C 1372.247 1716.051, 1241.327 1767.624, 1106.500 1781.935 C 1082.722 1784.459, 1059.950 1786, 1046.420 1786 L 1036 1786 1036 1900.006 L 1036 2014.012 1044.250 2013.524 C 1048.787 2013.256, 1059.925 2012.788, 1069 2012.484 C 1078.075 2012.180, 1093.825 2011.264, 1104 2010.447 C 1270.828 1997.055, 1429.846 1942.122, 1570 1849.468 C 1617.731 1817.913, 1663.440 1781.483, 1706.500 1740.677 L 1715.500 1732.149 1665.560 1682.131 L 1615.620 1632.113 1611.397 1635.806 C 1609.075 1637.838, 1601.623 1644.623, 1594.837 1650.884 C 1583.266 1661.562, 1554.699 1685.926, 1548.879 1690.081 L 1546.258 1691.953 1541.393 1685.726 C 1538.717 1682.302, 1526.793 1667.246, 1514.896 1652.268 L 1493.265 1625.036 1480.584 1634.573" stroke="none" fill="#ffffff" fill-rule="evenodd"/></svg>