<svg xmlns="http://www.w3.org/2000/svg" width="256" height="256" viewBox="0 0 256 256" version="1.1"><path d="M 121.994 2.876 C 114.577 5.304, 108.199 10.867, 105.551 17.218 C 103.306 22.600, 103.534 32.664, 106.011 37.522 L 108.023 41.467 95.691 53.800 L 83.359 66.132 67.429 57.728 L 51.500 49.324 51.384 43.196 C 51.046 25.366, 35.274 13.939, 18.765 19.564 C 9.347 22.774, 3.044 31.968, 3.044 42.500 C 3.044 64.183, 26.168 75.312, 43.681 62.057 L 48.750 58.220 62.125 65.170 C 69.481 68.993, 75.830 72.446, 76.234 72.844 C 77.178 73.776, 43.355 107.561, 41.726 107.314 C 41.052 107.212, 38.700 106.444, 36.500 105.608 C 25.113 101.280, 11.969 106.401, 6.549 117.278 C 0.418 129.581, 5.520 145.264, 17.483 150.887 C 23.294 153.619, 32.843 153.708, 38.618 151.086 L 42.737 149.216 59.970 166.470 L 77.204 183.725 62.493 191.453 L 47.782 199.181 44.641 196.141 C 35.748 187.534, 20.345 187.860, 10.658 196.860 C 5.612 201.548, 3.544 206.708, 3.587 214.500 C 3.662 227.803, 11.943 237.140, 25.045 238.692 C 32.768 239.606, 38.659 237.452, 44.555 231.555 C 50.341 225.769, 52.534 219.913, 51.795 212.221 L 51.335 207.428 66.978 199.260 L 82.621 191.092 95.225 203.796 L 107.830 216.500 105.915 219.984 C 104.576 222.420, 104 225.446, 104 230.038 C 104 252.775, 129.976 263.240, 145.699 246.838 C 150.162 242.182, 152 237.151, 152 229.589 L 152 223.114 180.673 208.594 L 209.347 194.074 211.910 196.637 C 221.024 205.751, 235.779 205.854, 245.524 196.871 C 251.397 191.458, 253.327 186.147, 252.851 176.714 C 252.542 170.610, 251.946 168.446, 249.462 164.429 C 242.933 153.868, 229.636 150.008, 218.521 155.446 C 215.112 157.114, 212.517 157.818, 211.645 157.312 C 209.395 156.008, 176.098 128.550, 176.098 128 C 176.098 127.447, 209.401 99.989, 211.660 98.679 C 212.549 98.163, 214.992 98.814, 218.234 100.429 C 230.485 106.534, 244.865 101.864, 251.106 89.753 C 255.399 81.425, 254.127 70.191, 248.064 62.874 C 239.595 52.655, 220.822 51.854, 212.099 61.339 L 209.698 63.950 180.869 49.225 L 152.040 34.500 152.020 27.718 C 152.009 23.902, 151.322 19.310, 150.449 17.218 C 148.483 12.502, 143.608 7.396, 138.622 4.827 C 134.313 2.607, 125.849 1.614, 121.994 2.876 M 124.110 19.396 C 118.598 22.451, 117.592 28.745, 121.923 33.077 C 125.406 36.559, 129.579 36.905, 133.253 34.016 C 138.230 30.101, 137.515 22.352, 131.909 19.453 C 128.497 17.688, 127.207 17.679, 124.110 19.396 M 22.888 35.500 C 16.878 38.766, 16.963 48.499, 23.024 51.010 C 28.416 53.243, 34.199 49.923, 35.539 43.824 C 36.313 40.297, 34.009 36.334, 30.383 34.955 C 27.111 33.711, 26.035 33.789, 22.888 35.500 M 144.942 44.617 C 138.985 51.093, 126.702 53.173, 117.764 49.220 L 113.260 47.227 102.224 58.938 L 91.188 70.648 99.640 74.840 L 108.092 79.031 111.296 76.634 C 117.508 71.985, 121.257 70.634, 128 70.614 C 133.290 70.598, 135.480 71.129, 139.767 73.466 C 145.574 76.631, 150.537 83.016, 151.602 88.690 C 152.263 92.217, 151.662 100.924, 150.501 104.618 C 149.943 106.395, 151.337 107.964, 159.166 114.368 C 164.297 118.566, 168.721 121.992, 168.998 121.983 C 169.274 121.974, 176.475 116.068, 185 108.858 C 193.525 101.649, 201.976 94.530, 203.780 93.038 L 207.060 90.326 205.543 84.505 C 204.679 81.187, 204.284 77.075, 204.625 74.943 L 205.223 71.203 176.910 56.852 C 161.338 48.958, 148.325 42.379, 147.991 42.231 C 147.658 42.083, 146.286 43.156, 144.942 44.617 M 225.500 71.155 C 222.323 72.893, 221 75.127, 221 78.757 C 221 83.460, 222.435 85.658, 226.348 86.950 C 235.579 89.996, 242.278 78.777, 234.923 72.589 C 231.642 69.828, 228.735 69.385, 225.500 71.155 M 66.117 95.383 C 56.018 105.493, 47.923 114.190, 48.128 114.709 C 48.332 115.228, 60.875 111.561, 76 106.559 L 103.500 97.466 103.793 91.980 L 104.085 86.494 94.529 81.747 C 89.274 79.136, 84.862 77, 84.727 77 C 84.591 77, 76.217 85.272, 66.117 95.383 M 121.923 88.923 C 118.665 92.181, 118.293 94.732, 120.463 98.928 C 122.091 102.076, 123.801 103, 128 103 C 132.199 103, 133.909 102.076, 135.537 98.928 C 137.707 94.732, 137.335 92.181, 134.077 88.923 C 130.147 84.993, 125.853 84.993, 121.923 88.923 M 78.596 114.798 L 51.692 123.519 51.692 127.965 L 51.692 132.411 78.684 141.388 L 105.676 150.365 109.520 146.110 C 115.074 139.962, 120.124 137.645, 128.035 137.614 C 133.303 137.593, 135.504 138.111, 139.395 140.285 C 142.049 141.768, 144.733 142.677, 145.360 142.305 C 148.284 140.568, 162 129.599, 162 128.998 C 162 128.359, 147.835 116.194, 145.347 114.696 C 144.713 114.314, 141.788 115.122, 138.847 116.491 C 127.770 121.648, 114.969 118.397, 108.378 108.753 C 107.345 107.242, 106.275 106.022, 106 106.041 C 105.725 106.061, 93.393 110.001, 78.596 114.798 M 20.455 122.455 C 16.328 126.581, 17.402 133.023, 22.684 135.837 C 26.046 137.627, 28.562 137.239, 31.923 134.411 C 38.020 129.281, 34.527 120, 26.500 120 C 24.021 120, 22.149 120.760, 20.455 122.455 M 159 142.228 C 152.655 147.547, 150.576 149.879, 150.801 151.427 C 152.087 160.298, 152.067 167.902, 150.750 171.045 C 144.258 186.542, 123.023 190.982, 110.884 179.382 L 108.267 176.882 99.634 181.164 C 94.885 183.519, 91 185.690, 91 185.989 C 91 186.288, 96.067 191.585, 102.261 197.761 L 113.521 208.990 118.771 206.995 C 127.893 203.529, 135.811 204.683, 143.576 210.610 L 148.199 214.138 176.502 199.824 L 204.806 185.509 204.765 178.972 C 204.739 174.802, 205.317 171.288, 206.361 169.268 L 207.998 166.102 189.062 150.551 C 178.648 141.998, 169.535 135.023, 168.813 135.052 C 168.091 135.080, 163.675 138.310, 159 142.228 M 47.614 141.815 C 47.337 142.264, 55.341 150.852, 65.401 160.902 L 83.692 179.173 93.729 174.136 L 103.766 169.099 103.261 164.300 C 102.983 161.660, 102.474 159.219, 102.128 158.875 C 101.488 158.238, 50.068 141, 48.809 141 C 48.429 141, 47.891 141.367, 47.614 141.815 M 122.712 155.012 C 117.488 159.121, 118.411 167.020, 124.408 169.526 C 133.882 173.485, 141.319 161.329, 133.288 155.012 C 131.881 153.905, 129.502 153, 128 153 C 126.498 153, 124.119 153.905, 122.712 155.012 M 225.329 170.458 C 219.615 172.943, 218.218 179.308, 222.455 183.545 C 227.103 188.194, 235.053 186.178, 237.309 179.778 C 238.426 176.609, 235.950 171.877, 232.397 170.392 C 228.480 168.756, 229.257 168.749, 225.329 170.458 M 20.455 207.455 C 16.328 211.581, 17.402 218.023, 22.684 220.837 C 26.046 222.627, 28.562 222.239, 31.923 219.411 C 38.020 214.281, 34.527 205, 26.500 205 C 24.021 205, 22.149 205.760, 20.455 207.455 M 122.747 222.984 C 116.049 228.253, 119.777 238, 128.491 238 C 129.810 238, 132.129 236.933, 133.644 235.630 C 141.776 228.635, 131.186 216.346, 122.747 222.984" stroke="none" fill="#ff6a3d" fill-rule="evenodd"/></svg>
