<svg xmlns="http://www.w3.org/2000/svg" width="1200" height="1600" viewBox="0 0 1200 1600" version="1.1"><path d="M 857 645.500 L 857 1120 926.500 1120 L 996 1120 996 645.500 L 996 171 926.500 171 L 857 171 857 645.500 M 425 388 L 425 531 494 531 L 563 531 563 388 L 563 245 494 245 L 425 245 425 388 M 204 954.500 L 204 1429 273 1429 L 342 1429 342 954.500 L 342 480 273 480 L 204 480 204 954.500 M 641 622.993 L 641 766 710.503 766 L 780.007 766 779.753 623.250 L 779.500 480.500 710.250 480.243 L 641 479.986 641 622.993 M 425.247 974.250 L 425.500 1117.500 494.250 1117.757 L 563 1118.014 563 974.507 L 563 831 493.997 831 L 424.993 831 425.247 974.250 M 641 1210.007 L 641 1353.014 710.250 1352.757 L 779.500 1352.500 779.753 1209.750 L 780.007 1067 710.503 1067 L 641 1067 641 1210.007" stroke="none" fill="#0b0153" fill-rule="evenodd"/><path d="M 425 681.500 L 425 749 494 749 L 563 749 563 681.500 L 563 614 494 614 L 425 614 425 681.500" stroke="none" fill="#ffcb00" fill-rule="evenodd"/><path d="M 641 916.500 L 641 984 710.500 984 L 780 984 780 916.500 L 780 849 710.500 849 L 641 849 641 916.500" stroke="none" fill="#e80089" fill-rule="evenodd"/></svg>