<?xml version="1.0" encoding="UTF-8" standalone="no" ?>
<!DOCTYPE svg PUBLIC "-//W3C//DTD SVG 1.1//EN" "http://www.w3.org/Graphics/SVG/1.1/DTD/svg11.dtd">
<svg xmlns="http://www.w3.org/2000/svg" xmlns:xlink="http://www.w3.org/1999/xlink" version="1.1" width="1000" height="380" viewBox="0 0 1000 380" xml:space="preserve">
<desc>Created with Fabric.js 5.2.4</desc>
<defs>
</defs>
<g transform="matrix(1 0 0 1 500 190)" id="5d6fb89c-d17d-4853-a55e-be7030f469b0"  >
<rect style="stroke: none; stroke-width: 1; stroke-dasharray: none; stroke-linecap: butt; stroke-dashoffset: 0; stroke-linejoin: miter; stroke-miterlimit: 4; fill: rgb(255,255,255); fill-rule: nonzero; opacity: 1; visibility: hidden;" vector-effect="non-scaling-stroke"  x="-500" y="-190" rx="0" ry="0" width="1000" height="380" />
</g>
<g transform="matrix(Infinity NaN NaN Infinity 0 0)" id="377d2852-4cb0-478f-aacf-8f664e8c081e"  >
</g>
<g transform="matrix(0.55 0 0 0.55 501.57 183.03)"  >
<g style="" vector-effect="non-scaling-stroke"   >
		<g transform="matrix(1 0 0 1 109.06 122.57)"  >
<path style="stroke: none; stroke-width: 1; stroke-dasharray: none; stroke-linecap: butt; stroke-dashoffset: 0; stroke-linejoin: miter; stroke-miterlimit: 4; fill: rgb(255,255,255); fill-rule: evenodd; opacity: 1;" vector-effect="non-scaling-stroke"  transform=" translate(-1389.45, -644.1)" d="M 1727.247 458.745 C 1726.25 459.443 1726.045 489.704 1726.247 606.561 L 1726.5 753.5 L 1756.5 753.78 C 1773 753.934 1787.513 753.813 1788.75 753.511 L 1791 752.962 L 1791 727.575 L 1791 702.189 L 1802.536 689.344 C 1808.882 682.28 1814.419 676.379 1814.842 676.231 C 1815.266 676.084 1816.358 677.434 1817.271 679.231 C 1819.107 682.849 1818.86 682.415 1842.776 724 L 1859.742 753.5 L 1894.436 753.763 C 1913.518 753.908 1929.753 753.678 1930.513 753.253 C 1931.583 752.654 1930.583 750.449 1926.085 743.49 C 1884.963 679.872 1854.663 632.42 1854.331 631.117 C 1854.07 630.092 1866.622 614.706 1888.621 589.083 C 1922.99 549.055 1923.309 548.642 1921.874 546.083 L 1920.424 543.5 L 1888.34 543.236 C 1858.894 542.994 1856.089 543.118 1854.234 544.736 C 1853.122 545.706 1838.552 563.579 1821.856 584.454 L 1791.5 622.408 L 1791 543.454 L 1790.5 464.5 L 1772 461.759 C 1752.314 458.842 1729.322 457.293 1727.247 458.745 M 934.5 475.939 C 909.366 480.402 885.19 494.664 872.416 512.565 C 862.672 526.22 858 540.578 858 556.866 C 858 582.897 868.673 604.125 889.509 619.537 C 898.695 626.333 901.968 627.93 933.135 640.828 C 964.234 653.698 975.471 659.065 979.814 663.124 C 985.716 668.64 987.621 675.004 985.847 683.285 C 983.599 693.781 973.536 699.651 956.072 700.656 C 935.46 701.841 909.147 692.462 890.249 677.192 C 886.533 674.19 885.786 673.93 884.316 675.129 C 881.886 677.11 848 718.007 848 718.958 C 848 720.483 858.859 729.022 868.874 735.372 C 882.209 743.827 899.48 751.048 914.994 754.654 C 939.815 760.425 960.378 760.404 985.242 754.582 C 1004.04 750.181 1024.571 738.391 1035.157 725.918 C 1051.087 707.148 1057.555 686.8 1055.034 663.388 C 1052.022 635.41 1038.798 616.3 1013 602.645 C 1008.325 600.171 992.395 593.36 977.601 587.511 C 937.731 571.746 930.603 567.763 927.441 559.485 C 923.846 550.072 927.907 540.15 937.219 535.594 C 940.214 534.128 946.124 532.47 950.753 531.795 C 967.276 529.387 987.687 534.789 1004.847 546.113 C 1012.725 551.312 1014.372 552.049 1015.498 550.881 C 1019.442 546.791 1046.995 511.322 1046.997 510.331 C 1047 508.956 1033.845 498.176 1026.108 493.215 C 1014.755 485.934 995.392 478.666 979.14 475.585 C 968.007 473.474 947.463 473.637 934.5 475.939 M 1664.131 538.481 C 1647.041 542.351 1630.611 554.208 1619.602 570.618 C 1616.79 574.811 1614.899 576.822 1614.606 575.932 C 1614.347 575.144 1613.363 567.75 1612.418 559.5 C 1611.474 551.25 1610.257 543.93 1609.715 543.234 C 1608.953 542.257 1602.656 542.029 1582.114 542.234 L 1555.5 542.5 L 1555.245 648.263 L 1554.991 754.027 L 1588.245 753.763 L 1621.5 753.5 L 1622 692.489 L 1622.5 631.477 L 1627 623.586 C 1632.643 613.689 1640.622 605.515 1649.011 601.034 C 1654.932 597.872 1656.375 597.536 1665.5 597.192 C 1672.389 596.933 1677.654 597.319 1682.425 598.434 C 1686.916 599.483 1689.567 599.7 1689.969 599.05 C 1691.337 596.836 1701.197 542.799 1700.375 542.016 C 1696.537 538.357 1674.27 536.185 1664.131 538.481 M 1202.387 538.931 C 1190.062 540.901 1175.905 547.274 1163.427 556.47 C 1158.585 560.038 1154.431 562.764 1154.195 562.528 C 1153.959 562.292 1152.794 557.914 1151.607 552.799 L 1149.449 543.5 L 1122.475 543.5 L 1095.5 543.5 L 1095.247 686.75 L 1094.993 830 L 1128.098 830 L 1161.203 830 L 1160.851 785 C 1160.658 760.25 1160.649 740 1160.832 740 C 1161.014 740 1163.039 741.535 1165.332 743.411 C 1171.605 748.543 1183.584 754.625 1191.98 756.938 C 1214.105 763.036 1241.006 755.188 1261.672 736.605 C 1274.734 724.861 1287.944 700.706 1292.083 681 C 1296.977 657.698 1297.09 631.339 1292.385 610.092 C 1282.773 566.683 1255.247 540.154 1218.176 538.57 C 1212.304 538.319 1205.199 538.482 1202.387 538.931 M 1397 539.421 C 1386.058 541.348 1371.563 545.473 1361.398 549.554 C 1351.964 553.341 1332.265 563.356 1330.375 565.327 C 1329.532 566.205 1332.094 571.777 1340.568 587.5 C 1346.793 599.05 1352.054 608.929 1352.26 609.452 C 1352.466 609.976 1358.23 607.646 1365.067 604.274 C 1371.905 600.901 1381.325 596.886 1386 595.349 C 1393.513 592.881 1396.01 592.553 1407.5 592.528 C 1419.943 592.501 1420.72 592.622 1425.632 595.345 C 1431.368 598.524 1434.42 602.105 1436.558 608.163 C 1439.489 616.471 1439.585 616.385 1425.25 618.343 C 1365.787 626.466 1332.767 645.679 1324.44 677 C 1322.121 685.723 1322.113 703.221 1324.423 712 C 1330.348 734.518 1346.591 750.926 1368.46 756.485 C 1377.222 758.712 1394.766 758.482 1404.59 756.01 C 1414.678 753.472 1428.915 746.47 1438.221 739.468 C 1442.219 736.461 1445.753 734 1446.075 734 C 1446.396 734 1447.437 737.712 1448.388 742.25 C 1449.339 746.788 1450.348 751.295 1450.631 752.266 C 1451.108 753.907 1453.098 754.013 1478.822 753.766 L 1506.5 753.5 L 1506.5 684.5 C 1506.5 622.189 1506.326 614.628 1504.708 606.5 C 1497.449 570.034 1479.764 549.089 1449.249 540.817 C 1439.406 538.149 1408.861 537.333 1397 539.421 M 1186.5 593.88 C 1180.391 595.03 1172.918 599.304 1166.646 605.235 L 1160.977 610.596 L 1161.239 651.497 L 1161.5 692.399 L 1165.718 695.615 C 1172.755 700.983 1180.265 703.4 1190 703.432 C 1196.796 703.454 1199.545 702.991 1203.714 701.122 C 1213.727 696.633 1220.674 686.603 1224.576 671 C 1227.212 660.458 1227.196 631.852 1224.547 621 C 1221.315 607.759 1215.16 598.636 1207.221 595.319 C 1203.072 593.585 1192.107 592.824 1186.5 593.88 M 1427.776 659.98 C 1411.403 663.433 1402.272 667.004 1395.226 672.711 C 1389.616 677.256 1386.999 682.506 1387.004 689.21 C 1387.011 700.166 1393.798 705.412 1408 705.44 C 1418.529 705.461 1425.304 702.663 1433.503 694.909 L 1439 689.71 L 1439 673.855 C 1439 661.8 1438.7 658.017 1437.75 658.07 C 1437.063 658.109 1432.574 658.968 1427.776 659.98" stroke-linecap="round" />
</g>
		<g transform="matrix(1 0 0 1 0 0)"  >
<path style="stroke: none; stroke-width: 1; stroke-dasharray: none; stroke-linecap: butt; stroke-dashoffset: 0; stroke-linejoin: miter; stroke-miterlimit: 4; fill: rgb(228,141,16); fill-rule: evenodd; opacity: 1;" vector-effect="non-scaling-stroke"  transform=" translate(-1280.4, -521.53)" d="M 1821 199.497 C 1821 200.32 1826.625 233.577 1833.5 273.401 C 1840.375 313.225 1846 346.696 1846 347.781 C 1846 349.07 1827.061 368.242 1791.368 403.083 C 1741.816 451.453 1736.958 456.479 1739.118 457.13 C 1740.428 457.524 1750.725 459.037 1762 460.492 C 1773.275 461.947 1785.425 463.721 1789 464.434 C 1792.575 465.148 1816.487 468.797 1842.138 472.544 L 1888.776 479.356 L 1917.4 537.428 C 1933.144 569.368 1948.353 600.337 1951.2 606.25 C 1954.046 612.163 1956.628 616.996 1956.937 616.99 C 1957.247 616.985 1972.78 586.022 1991.456 548.183 L 2025.411 479.386 L 2099.456 468.53 C 2140.18 462.559 2174.45 457.41 2175.61 457.087 C 2177.388 456.593 2169.07 448.074 2122.86 403.066 C 2092.687 373.678 2068.011 348.928 2068.023 348.066 C 2068.036 347.205 2073.809 313.2 2080.852 272.5 C 2087.895 231.8 2093.348 198.371 2092.97 198.214 C 2092.593 198.057 2061.845 213.93 2024.643 233.487 L 1957.003 269.047 L 1889.579 233.523 C 1852.496 213.986 1821.896 198 1821.578 198 C 1821.26 198 1821 198.673 1821 199.497 M 2009.331 268.654 L 1957.162 296.136 L 1905.457 269.026 C 1877.019 254.115 1853.559 242.107 1853.324 242.342 C 1853.089 242.577 1857.226 268.26 1862.516 299.414 C 1867.807 330.568 1871.992 356.61 1871.818 357.284 C 1871.643 357.958 1852.918 376.69 1830.207 398.912 C 1807.496 421.133 1789.271 439.637 1789.707 440.031 C 1790.143 440.424 1816.15 444.45 1847.5 448.976 C 1878.85 453.503 1904.604 457.301 1904.732 457.418 C 1904.859 457.534 1916.707 481.356 1931.06 510.354 L 1957.158 563.079 L 1979.388 518.289 C 1991.614 493.655 2003.35 469.788 2005.467 465.25 C 2007.584 460.712 2009.807 457 2010.408 457 C 2012.018 457.001 2123.285 440.895 2124.737 440.451 C 2125.417 440.243 2115.292 429.603 2102.237 416.808 C 2089.182 404.012 2070.26 385.415 2060.188 375.48 L 2041.876 357.418 L 2051.439 300.959 C 2056.699 269.907 2061.184 243.713 2061.407 242.75 C 2061.63 241.787 2061.742 241.039 2061.656 241.086 C 2061.57 241.134 2038.024 253.54 2009.331 268.654 M 385.555 473.717 C 384.421 476.672 385.08 758.349 386.224 759.75 C 387.004 760.705 395.066 760.996 420.372 760.985 C 438.593 760.976 454.058 760.615 454.74 760.182 C 455.692 759.577 456.04 748.479 456.24 712.447 L 456.5 665.5 L 485 664.862 C 500.675 664.51 515.525 663.794 518 663.269 C 561.812 653.98 588.997 631.365 598.866 596 C 605.188 573.345 603.187 543.601 593.973 523.28 C 584.85 503.16 566.826 487.862 543 480.015 C 520.765 472.693 512.243 472 444.433 472 C 390.332 472 386.167 472.121 385.555 473.717 M 456 568.784 L 456 609.133 L 479.25 608.801 C 500.273 608.501 503.061 608.259 508.359 606.272 C 519.475 602.103 527.452 594.282 531.584 583.5 C 534.412 576.12 534.279 556.379 531.357 549.949 C 527.314 541.053 519.943 534.825 509.416 531.409 C 505.962 530.289 499.295 529.688 487 529.39 C 477.375 529.157 466.462 528.847 462.75 528.7 L 456 528.435 L 456 568.784 M 624.75 539.689 C 622.618 540.247 622.581 541.001 624.48 545.216 C 625.293 547.022 633.411 567.4 642.519 590.5 C 651.627 613.6 661.49 638.575 664.437 646 C 667.385 653.425 675.06 672.775 681.493 689 C 687.926 705.225 695.452 724.125 698.216 731 C 707.147 753.212 706.996 752.569 705.037 760.026 C 701.674 772.824 695.891 780.707 686.304 785.561 C 680.664 788.417 680.102 788.498 666.372 788.414 L 652.245 788.328 L 651.041 793.914 C 649.986 798.811 647.956 807.466 642.446 830.564 C 640.3 839.563 640.478 840.682 644.25 841.86 C 661.331 847.194 693.654 845.647 710.776 838.674 C 733.945 829.24 753.454 805.454 768.129 768.749 C 770.524 762.756 784.592 722.085 798.999 679.5 C 804.395 663.55 812.712 639.025 817.482 625 C 843.253 549.217 846.005 540.621 844.749 539.824 C 844.062 539.388 829.749 539.024 812.941 539.015 C 790.017 539.004 781.972 539.312 780.739 540.25 C 779.284 541.356 775.444 553.762 768.125 581 C 767.016 585.125 763.226 599.075 759.702 612 C 754.229 632.075 751.277 643.826 746.011 666.5 C 745.5 668.7 744.114 675 742.932 680.5 C 741.75 686 740.469 690.84 740.086 691.256 C 739.702 691.671 738.56 688.746 737.546 684.756 C 729.678 653.767 724.519 636.512 706.519 581 C 703.577 571.925 699.503 559.2 697.467 552.722 C 695.064 545.078 693.127 540.603 691.948 539.972 C 690.158 539.014 628.33 538.754 624.75 539.689" stroke-linecap="round" />
</g>
</g>
</g>
</svg>