<svg xmlns="http://www.w3.org/2000/svg" width="501" height="498" viewBox="0 0 501 498" version="1.1"><path d="M 204.762 79.707 C 206.006 79.946, 207.806 79.937, 208.762 79.687 C 209.718 79.437, 208.700 79.241, 206.500 79.252 C 204.300 79.263, 203.518 79.468, 204.762 79.707 M 225.232 98 C 225.232 99.925, 225.438 100.713, 225.689 99.750 C 225.941 98.787, 225.941 97.213, 225.689 96.250 C 225.438 95.287, 225.232 96.075, 225.232 98 M 162.349 104 C 162.349 108.675, 162.522 110.587, 162.732 108.250 C 162.943 105.912, 162.943 102.087, 162.732 99.750 C 162.522 97.412, 162.349 99.325, 162.349 104 M 365.442 135 C 365.442 151.225, 365.580 157.862, 365.748 149.750 C 365.916 141.637, 365.916 128.362, 365.748 120.250 C 365.580 112.137, 365.442 118.775, 365.442 135 M 186.750 143.749 C 200.638 143.906, 223.363 143.906, 237.250 143.749 C 251.138 143.592, 239.775 143.464, 212 143.464 C 184.225 143.464, 172.863 143.592, 186.750 143.749 M 263 149.493 L 263 154.985 199.250 155.250 L 135.500 155.515 199.750 155.758 L 264 156 264 150 C 264 146.700, 263.775 144, 263.500 144 C 263.225 144, 263 146.472, 263 149.493 M 377 181.340 C 377 204.282, 376.746 208.675, 375.028 215.391 C 371.993 227.259, 366.766 236.259, 357.515 245.546 C 349.207 253.887, 343.081 257.718, 331 262.127 L 324.500 264.500 263 265 L 201.500 265.500 195.106 268.238 C 186.977 271.720, 179.111 277.653, 173.922 284.218 C 168.490 291.090, 166.255 295.685, 163.938 304.741 C 162.144 311.755, 162.001 316.090, 162.020 362.910 C 162.031 390.734, 162.458 416.391, 162.969 419.925 C 165.543 437.731, 180.416 452.763, 204.872 462.276 C 224.761 470.011, 257.863 474.368, 279 472.032 C 310.050 468.600, 336.297 459.202, 349.609 446.749 C 363.181 434.053, 364.865 428.745, 365.231 397.500 L 365.500 374.500 315.338 374.241 L 265.177 373.982 264.838 368.011 L 264.500 362.041 346 361.771 L 427.500 361.500 434.110 358.368 C 444.248 353.565, 450.836 346.331, 457.457 332.736 C 463.540 320.245, 467.859 307.657, 471.246 292.553 C 473.207 283.808, 473.493 279.769, 473.449 261.500 C 473.408 244.102, 473.013 238.442, 471.150 228.500 C 465.091 196.164, 458.669 180.436, 446.611 168.405 C 435.237 157.056, 427.731 155.248, 391.250 155.070 L 377 155 377 181.340 M 54.286 249.500 C 54.294 252.250, 54.488 253.256, 54.718 251.736 C 54.947 250.216, 54.941 247.966, 54.704 246.736 C 54.467 245.506, 54.279 246.750, 54.286 249.500 M 280.811 252.748 C 288.681 252.917, 301.281 252.917, 308.811 252.747 C 316.340 252.578, 309.900 252.439, 294.500 252.440 C 279.100 252.440, 272.940 252.579, 280.811 252.748 M 54.336 265 C 54.336 269.125, 54.513 270.813, 54.728 268.750 C 54.944 266.688, 54.944 263.313, 54.728 261.250 C 54.513 259.188, 54.336 260.875, 54.336 265 M 169 271.500 C 166.571 273.975, 164.809 276, 165.084 276 C 165.359 276, 167.571 273.975, 170 271.500 C 172.429 269.025, 174.191 267, 173.916 267 C 173.641 267, 171.429 269.025, 169 271.500 M 150.435 337 C 150.435 351.025, 150.575 356.762, 150.747 349.750 C 150.919 342.738, 150.919 331.262, 150.747 324.250 C 150.575 317.238, 150.435 322.975, 150.435 337 M 108.762 361.707 C 110.006 361.946, 111.806 361.937, 112.762 361.687 C 113.718 361.437, 112.700 361.241, 110.500 361.252 C 108.300 361.263, 107.518 361.468, 108.762 361.707 M 313.481 402.394 C 311.821 403.117, 309.028 405.343, 307.273 407.341 C 294.077 422.371, 310.593 444.669, 328.500 436 C 335.261 432.727, 338.500 427.382, 338.500 419.500 C 338.500 414.506, 337.997 412.594, 335.816 409.298 C 331.139 402.230, 321.029 399.105, 313.481 402.394" stroke="none" fill="#ffe56a" fill-rule="evenodd"/><path d="M 239 48.674 C 196.556 52.964, 177.431 60.236, 168.456 75.500 C 164.103 82.903, 163.159 89.378, 162.405 116.990 L 161.695 143 211.266 143 C 238.530 143, 261.548 143.273, 262.418 143.607 C 263.613 144.065, 264 145.656, 264 150.107 L 264 156 191.588 156 C 111.415 156, 110.138 156.085, 96.816 162.282 C 77.984 171.042, 65.926 187.479, 60.453 211.854 C 56.345 230.150, 54.853 242.659, 54.892 258.500 C 54.936 276.482, 56.923 291.916, 61.477 309.659 C 69.723 341.787, 84.987 358.247, 109.107 361.020 C 113.723 361.551, 124.813 361.988, 133.750 361.992 L 150 362 150.020 338.250 C 150.041 312.851, 150.834 304.268, 153.987 295.295 C 159.012 280.999, 171.033 267.240, 184.500 260.372 C 198.690 253.134, 197.635 253.239, 264 252.469 C 318.156 251.841, 324.045 251.610, 329.572 249.904 C 345.962 244.844, 359.063 230.521, 363.386 212.936 C 365.776 203.217, 365.801 102.894, 363.416 93.644 C 357.868 72.129, 338.406 56.002, 313.062 51.922 C 296.378 49.236, 280.181 48.049, 262 48.180 C 251.275 48.257, 240.925 48.479, 239 48.674 M 199.500 80.831 C 194.635 83.148, 191.600 86.320, 189.548 91.232 C 187.455 96.241, 187.601 100.201, 190.092 105.992 C 192.876 112.465, 198.200 116.186, 205.547 116.795 C 212.287 117.354, 215.938 115.918, 220.435 110.940 C 226.718 103.986, 227.317 94.467, 221.947 86.926 C 217.122 80.149, 206.809 77.349, 199.500 80.831" stroke="none" fill="#397bad" fill-rule="evenodd"/></svg>