<svg xmlns="http://www.w3.org/2000/svg" width="512" height="512" viewBox="0 0 512 512" version="1.1"><path d="M 344.618 43.137 C 321.556 46.096, 289.047 64.315, 262.471 89.176 L 256.064 95.170 246.772 87.081 C 195.854 42.753, 148.412 30.728, 125.404 56.318 C 107.781 75.919, 103.506 116.850, 114.016 165.342 C 115.189 170.755, 116.003 175.307, 115.824 175.456 C 115.646 175.605, 110.325 177.429, 104 179.510 C 60.642 193.773, 30.686 214.352, 19.981 237.227 C 14.624 248.675, 14.100 258.110, 18.163 269.957 C 24.345 287.982, 46.222 307.831, 75.500 321.977 C 87.395 327.724, 106.417 335.116, 112.834 336.485 C 115.849 337.128, 116.102 337.449, 115.476 339.848 C 113.098 348.968, 109.857 369.631, 108.828 382.238 C 105.770 419.679, 114.666 449.730, 132.422 461.947 C 142.634 468.972, 159.122 471.196, 174.345 467.601 C 197.071 462.234, 223.778 446.820, 248.878 424.584 L 256.256 418.047 259.997 421.274 C 289.332 446.573, 305.956 457.343, 327.295 464.872 C 367.316 478.994, 393.830 462.103, 401.474 417.619 C 404.523 399.872, 403.081 369.322, 398.069 345.500 C 397.028 340.550, 396.248 336.460, 396.338 336.411 C 396.427 336.362, 402.125 334.417, 409 332.089 C 447.808 318.948, 479.527 296.909, 489.922 275.862 C 495.311 264.953, 496.547 257.495, 494.553 247.931 C 488.999 221.295, 456.785 196.363, 406.213 179.560 C 397.074 176.524, 395.023 175.495, 395.437 174.155 C 397.861 166.310, 401.497 141.671, 402.542 126 C 403.803 107.091, 399.690 81.306, 393.412 68.760 C 383.446 48.845, 367.086 40.254, 344.618 43.137 M 150 65.113 C 142.180 67.474, 136.106 75.588, 132.495 88.500 C 129.900 97.777, 129.346 126.303, 131.464 141.500 C 133.122 153.388, 136.279 168.612, 137.298 169.632 C 137.589 169.922, 142.479 169.225, 148.164 168.082 C 161.165 165.468, 182.107 162.299, 192.312 161.401 L 200.123 160.713 210.554 146.975 C 216.292 139.419, 225.475 128.019, 230.962 121.642 L 240.939 110.048 230.219 100.924 C 210.474 84.116, 187.369 70.423, 172.188 66.531 C 163.900 64.407, 154.360 63.797, 150 65.113 M 339.500 65.905 C 320.756 71.412, 296.590 86.362, 277.724 104.121 L 270.947 110.500 280.034 121 C 285.031 126.775, 294.094 138.080, 300.173 146.122 L 311.226 160.745 318.863 161.423 C 329.502 162.368, 344.084 164.551, 360.295 167.626 C 367.882 169.065, 374.261 170.072, 374.470 169.863 C 375.268 169.065, 378.894 149.045, 380.046 139.081 C 381.617 125.493, 380.792 98.651, 378.553 90.500 C 374.740 76.615, 368.108 66.958, 361.035 64.993 C 355.735 63.521, 346.248 63.923, 339.500 65.905 M 245.647 137.250 C 240.402 143.438, 234.337 150.750, 232.169 153.500 L 228.228 158.500 255.614 158.500 C 270.676 158.500, 283 158.428, 283 158.340 C 283 157.211, 256.529 126, 255.572 126 C 255.359 126, 250.893 131.063, 245.647 137.250 M 226.911 179.923 C 219.437 180.341, 212.825 180.990, 212.217 181.366 C 209.293 183.173, 186.198 221.769, 175.679 242.428 L 168.587 256.356 175.044 268.873 C 183.101 284.495, 194.984 304.941, 204.843 320.147 L 212.395 331.794 232.948 332.534 C 252.561 333.239, 293.035 332.497, 297.713 331.346 C 301.090 330.515, 324.632 291.924, 337.140 266.715 L 342.491 255.930 336.296 243.715 C 328.712 228.761, 316.219 207.241, 306.508 192.403 C 299.278 181.356, 299.224 181.303, 294.635 180.674 C 286.940 179.619, 241.387 179.114, 226.911 179.923 M 174 185.101 C 160.719 187.195, 145.288 190.204, 144.118 190.927 C 142.694 191.807, 144.673 198.295, 152.776 219.304 L 157.329 231.107 161.303 223.804 C 163.489 219.787, 169.490 209.363, 174.639 200.641 C 179.788 191.919, 184 184.606, 184 184.391 C 184 183.837, 180.389 184.094, 174 185.101 M 327.167 184.750 C 327.350 185.162, 331.241 191.735, 335.813 199.355 C 340.386 206.976, 346.324 217.307, 349.009 222.313 C 353.552 230.783, 353.957 231.245, 354.841 228.958 C 355.364 227.606, 357.168 223.050, 358.852 218.834 C 360.535 214.617, 363.479 206.668, 365.393 201.168 L 368.874 191.169 364.187 190.127 C 353.463 187.741, 331.996 184.049, 328.667 184.017 C 327.658 184.008, 326.983 184.338, 327.167 184.750 M 107.945 200.603 C 93.034 205.644, 73.952 214.576, 64 221.173 C 47.816 231.902, 37 245.839, 37 255.963 C 37 272.591, 62.847 294.832, 98.753 309.102 C 105.280 311.696, 120.587 317, 121.545 317 C 121.705 317, 123.285 312.613, 125.058 307.250 C 129.120 294.960, 135.928 277.198, 141.106 265.382 L 145.102 256.265 139.106 242.248 C 135.808 234.538, 130.572 221.091, 127.469 212.365 C 124.367 203.639, 121.730 196.400, 121.610 196.279 C 121.489 196.157, 115.340 198.103, 107.945 200.603 M 388.495 198.880 C 387.107 204.418, 377.412 230.089, 371.956 242.671 L 366.245 255.842 370.716 265.671 C 376.429 278.229, 383.960 297.173, 387.446 307.750 C 388.941 312.288, 390.309 316, 390.485 316 C 391.622 316, 411.966 308.515, 419 305.509 C 443.585 295.002, 464.861 278.946, 471.287 266.051 C 476.805 254.978, 474.264 246.136, 462.060 233.952 C 448.053 219.968, 425.533 207.814, 396.612 198.630 L 389.151 196.261 388.495 198.880 M 248.769 213.111 C 226.310 216.293, 209.399 239.130, 212.936 261.500 C 216.747 285.601, 238.942 302.161, 262.109 298.188 C 285.629 294.155, 301.958 272.069, 298.198 249.378 C 294.213 225.328, 272.903 209.692, 248.769 213.111 M 153.189 291.871 C 146.654 308.531, 142.679 321.079, 143.634 322.034 C 144.501 322.901, 168.209 327.179, 179.427 328.494 L 185.353 329.188 183.818 326.844 C 179.344 320.013, 172.798 308.936, 165.514 295.871 L 157.358 281.241 153.189 291.871 M 349.285 289.255 C 346.967 293.790, 340.855 304.561, 335.704 313.191 C 326.984 327.801, 326.517 328.853, 328.920 328.462 C 330.339 328.231, 334.875 327.571, 339 326.996 C 353.917 324.914, 369 321.649, 369 320.502 C 369 317.604, 355.132 280.995, 354.038 281.005 C 353.742 281.007, 351.603 284.720, 349.285 289.255 M 372.500 342.552 C 369.974 343.548, 343.150 348.012, 331 349.458 C 323.575 350.342, 316.056 351.293, 314.291 351.570 C 311.627 351.989, 310.015 353.555, 304.800 360.788 C 297.765 370.544, 281.408 391.157, 275.312 397.950 L 271.318 402.400 277.308 407.946 C 297.239 426.398, 322.664 442.095, 339.644 446.431 C 348.081 448.585, 358.442 448.437, 363.616 446.087 C 370.224 443.086, 375.224 435.158, 379.233 421.323 C 381.275 414.277, 381.497 411.414, 381.468 392.500 C 381.445 377.020, 380.981 369.003, 379.704 362 C 376.056 341.992, 375.784 341.258, 372.500 342.552 M 134.163 354.250 C 130.545 373, 129.713 380.853, 129.742 396 C 129.776 413.912, 131.601 423.841, 136.723 433.965 C 142.018 444.430, 146.310 447.363, 157.046 447.851 C 174.374 448.637, 198.406 437.937, 223.225 418.382 C 232.302 411.231, 241 403.280, 241 402.134 C 241 401.702, 239.822 400.258, 238.383 398.924 C 234.318 395.159, 217.354 374.586, 208.600 362.805 L 200.701 352.173 193.600 351.517 C 183.203 350.558, 153.189 346.223, 144.970 344.494 C 141.065 343.672, 137.524 343, 137.102 343 C 136.680 343, 135.358 348.063, 134.163 354.250 M 231.554 357.750 C 235.712 363.335, 252.476 383.232, 254.751 385.282 C 256.681 387.021, 256.898 386.864, 263.706 378.782 C 271.950 368.995, 283 355.051, 283 354.434 C 283 354.196, 270.797 354, 255.881 354 L 228.763 354 231.554 357.750" stroke="none" fill="#00d8ff" fill-rule="evenodd"/></svg>