<svg xmlns="http://www.w3.org/2000/svg" width="2560" height="1378" viewBox="0 0 2560 1378" version="1.1"><path d="M 1695 678.500 L 1695 756 1704 756 L 1713 756 1713 734.228 L 1713 712.456 1721.469 704.031 C 1726.127 699.397, 1730.224 695.891, 1730.573 696.239 C 1730.922 696.588, 1739.406 710.064, 1749.428 726.187 L 1767.649 755.500 1778.804 755.783 L 1789.959 756.065 1779.832 739.783 C 1774.262 730.827, 1764.146 714.563, 1757.352 703.640 C 1750.558 692.716, 1745 683.496, 1745 683.149 C 1745 682.802, 1753.658 673.852, 1764.240 663.259 L 1783.481 644 1771.998 644 L 1760.515 644 1736.758 667.742 L 1713 691.484 1713 646.242 L 1713 601 1704 601 L 1695 601 1695 678.500 M 1858 628.500 L 1858 644 1850.500 644 L 1843 644 1843 651 L 1843 658 1850.471 658 L 1857.942 658 1858.221 703.928 C 1858.492 748.529, 1858.560 749.935, 1860.562 752.616 C 1865.583 759.338, 1873.450 761.772, 1886.250 760.562 L 1894 759.829 1894.002 752.165 L 1894.004 744.500 1887.540 744.834 C 1881.721 745.134, 1880.823 744.914, 1878.538 742.629 L 1876 740.091 1876 699.045 L 1876 658 1885 658 L 1894 658 1894 651 L 1894 644 1885 644 L 1876 644 1876 628.500 L 1876 613 1867 613 L 1858 613 1858 628.500 M 1453.634 642.586 C 1440.878 645.674, 1431.418 653.018, 1427.339 663 C 1424.605 669.691, 1424.796 683.132, 1427.703 688.595 C 1432.756 698.090, 1440.322 702.064, 1465.946 708.682 C 1485.049 713.615, 1487.256 714.479, 1491 718.486 C 1493.021 720.649, 1493.500 722.185, 1493.500 726.507 C 1493.500 733.418, 1491.227 736.585, 1483.455 740.500 C 1478.086 743.205, 1476.565 743.500, 1468 743.500 C 1452.253 743.500, 1444.470 738.915, 1441.681 727.996 L 1440.277 722.500 1431.982 722.207 C 1427.419 722.046, 1423.276 722.324, 1422.775 722.825 C 1421.586 724.014, 1423.595 735.224, 1425.965 740.622 C 1432.117 754.635, 1448.601 762.068, 1470.498 760.703 C 1497.337 759.030, 1513.485 744.094, 1511.755 722.543 C 1510.475 706.589, 1501.381 699.647, 1472.500 692.574 C 1448.210 686.626, 1442.356 682.768, 1443.312 673.341 C 1444.189 664.695, 1451.454 659.349, 1463.725 658.320 C 1477.238 657.187, 1487.119 662.640, 1488.626 672.062 L 1489.267 676.072 1498.384 675.786 L 1507.500 675.500 1507.141 671 C 1506.299 660.456, 1499.926 650.554, 1491.073 646.037 C 1481.624 641.217, 1465.452 639.726, 1453.634 642.586 M 1570.500 642.344 C 1548.382 648.131, 1534.919 667.931, 1533.338 697 C 1531.071 738.661, 1554.975 765.346, 1589.990 760.243 C 1608.276 757.578, 1619.991 747.260, 1625.388 729.068 C 1626.275 726.081, 1627 722.126, 1627 720.280 L 1627 716.922 1618.385 717.211 L 1609.769 717.500 1608.056 723 C 1605.568 730.988, 1603.563 734.363, 1598.968 738.296 C 1589.454 746.439, 1573.072 745.717, 1563.316 736.723 C 1555.411 729.437, 1551.046 717.281, 1551.025 702.500 C 1550.993 679.474, 1559.287 663.540, 1573.428 659.463 C 1588.936 654.993, 1602.514 661.823, 1606.794 676.249 L 1608.500 681.997 1617.250 681.999 C 1627.200 682, 1626.893 682.370, 1624.892 672.799 C 1623.542 666.339, 1619.782 658.495, 1616.178 654.621 C 1612.476 650.640, 1604.472 645.648, 1598.500 643.595 C 1591.887 641.322, 1576.955 640.655, 1570.500 642.344 M 1651 700 L 1651 756 1660 756 L 1669 756 1669 700 L 1669 644 1660 644 L 1651 644 1651 700 M 1808 700 L 1808 756 1817 756 L 1826 756 1826 700 L 1826 644 1817 644 L 1808 644 1808 700" stroke="none" fill="#ffffff" fill-rule="evenodd"/><path d="M 1255.500 676.324 C 1246.150 679.766, 1225.141 687.513, 1208.814 693.541 L 1179.128 704.500 1166.644 730 C 1145.050 774.105, 1131.553 806.604, 1114.370 855.866 C 1091.769 920.656, 1077.318 979.340, 1071.366 1030.500 C 1068.869 1051.955, 1068.842 1092.151, 1071.315 1104.374 C 1076.598 1130.483, 1085.610 1147.967, 1101.369 1162.684 C 1115.045 1175.456, 1128.917 1180.944, 1149.500 1181.725 C 1170.685 1182.529, 1189.122 1178.111, 1211.899 1166.770 C 1232.721 1156.404, 1265.246 1132.872, 1293.910 1107.435 C 1300.067 1101.971, 1305.422 1097.386, 1305.810 1097.247 C 1306.198 1097.109, 1307.493 1100.777, 1308.688 1105.400 C 1313.666 1124.655, 1323.177 1141.185, 1336.681 1154.053 C 1349.960 1166.706, 1363.095 1174.034, 1380.881 1178.712 C 1395.100 1182.451, 1420.503 1183.072, 1437.903 1180.105 C 1461.629 1176.060, 1480.127 1168.435, 1502.798 1153.356 C 1520.053 1141.880, 1548.669 1118.294, 1561.958 1104.595 C 1564.410 1102.068, 1566.701 1100, 1567.048 1100 C 1567.395 1100, 1568.257 1103.263, 1568.964 1107.250 C 1574.319 1137.492, 1592.497 1164.927, 1614.489 1175.959 C 1624.484 1180.972, 1631.777 1182.325, 1645.500 1181.709 C 1663.620 1180.896, 1678.733 1175.501, 1695.775 1163.765 C 1711.921 1152.645, 1738.825 1124.046, 1758.858 1096.706 L 1767.500 1084.913 1768.152 1100.206 C 1769.547 1132.937, 1774.345 1151.503, 1785.083 1165.726 C 1799.047 1184.222, 1826.335 1187.277, 1854.630 1173.513 C 1868.548 1166.743, 1886.370 1152.954, 1917.761 1124.668 C 1964.937 1082.158, 1994.871 1048.262, 2015.053 1014.500 C 2018.011 1009.550, 2020.462 1005.410, 2020.499 1005.301 C 2020.535 1005.191, 2025.050 1004.132, 2030.532 1002.946 C 2043.067 1000.235, 2058.535 995.199, 2068.574 990.561 C 2072.833 988.594, 2076.467 987.133, 2076.650 987.316 C 2076.833 987.499, 2073.158 994.015, 2068.483 1001.796 C 2039.095 1050.716, 2024.459 1090.298, 2024.593 1120.500 C 2024.656 1134.751, 2026.285 1141.980, 2032.109 1153.863 C 2037.470 1164.799, 2046.621 1174.270, 2056.482 1179.088 C 2063.351 1182.445, 2063.676 1182.500, 2076.482 1182.474 C 2088.541 1182.449, 2090.191 1182.208, 2098.889 1179.196 C 2123.888 1170.540, 2154.099 1150.347, 2187.736 1119.810 C 2194.588 1113.589, 2202.175 1106.766, 2204.597 1104.646 L 2209 1100.792 2208.992 1115.146 C 2208.981 1132.806, 2211.913 1181.165, 2213.069 1182.406 C 2213.707 1183.092, 2277.290 1169.052, 2290.250 1165.363 C 2291.847 1164.909, 2292 1162.991, 2292 1143.487 C 2292 1118.966, 2293.081 1103.746, 2296.580 1079 C 2299.500 1058.351, 2301.073 1051.633, 2304.922 1043.376 C 2309.327 1033.927, 2313.091 1028.907, 2332.654 1006.393 C 2362.093 972.514, 2387.959 948.034, 2398.978 943.625 C 2408.718 939.728, 2414.143 942.820, 2414.143 952.268 C 2414.143 961.059, 2411.108 971.046, 2398.268 1004.500 C 2376.201 1061.997, 2368.465 1089.868, 2367.316 1116.011 C 2366.299 1139.151, 2371.033 1154.548, 2383.145 1167.496 C 2390.157 1174.992, 2397.866 1179.247, 2408.500 1181.489 C 2417.450 1183.377, 2422.622 1183.369, 2433.615 1181.452 C 2466.505 1175.716, 2501.749 1153.778, 2542.778 1113.500 L 2560.095 1096.500 2559.797 1075.882 L 2559.500 1055.265 2550.031 1066.173 C 2536.937 1081.256, 2515.179 1102.426, 2505 1109.984 C 2493.402 1118.597, 2485.211 1122.349, 2477 1122.809 C 2471.472 1123.119, 2469.977 1122.822, 2467 1120.823 C 2461.609 1117.204, 2459.520 1112.013, 2459.624 1102.500 C 2459.756 1090.407, 2464.120 1075.676, 2480.209 1033.005 C 2496.903 988.731, 2506.094 958.523, 2509.028 938.290 C 2510.789 926.145, 2509.882 908.885, 2507.108 901.775 C 2502.266 889.361, 2491.597 878.830, 2480.370 875.380 C 2473.890 873.389, 2460.722 873.475, 2452.401 875.562 C 2419.917 883.708, 2384.187 912.487, 2321.851 980.713 L 2316.202 986.896 2317.617 980.698 C 2322.534 959.173, 2331.321 930.376, 2343.707 895.188 C 2347.833 883.466, 2350.989 873.656, 2350.720 873.387 C 2350.451 873.118, 2331.488 876.521, 2308.578 880.949 C 2285.669 885.377, 2266.481 889, 2265.938 889 C 2264.143 889, 2249.143 923.743, 2238.523 952.500 C 2225.168 988.662, 2218.758 1013.288, 2212.435 1052.728 C 2212.013 1055.364, 2208.400 1059.234, 2192.709 1073.857 C 2182.144 1083.702, 2170.350 1094.497, 2166.500 1097.846 C 2143.198 1118.111, 2119.918 1115.838, 2112.823 1092.605 C 2111.006 1086.655, 2110.801 1084.188, 2111.332 1074.605 C 2112.556 1052.495, 2117.801 1035.708, 2158.969 922.150 C 2168.410 896.108, 2175.943 874.610, 2175.710 874.376 C 2175.476 874.143, 2169.259 874.412, 2161.893 874.974 C 2154.527 875.535, 2147.375 876, 2146 876.006 C 2143.939 876.015, 2142.886 877.184, 2140 882.667 C 2134.369 893.366, 2121.974 911.785, 2113.867 921.500 C 2093.308 946.137, 2071.393 960.295, 2046.750 964.862 C 2043.384 965.485, 2042.003 965.415, 2042.009 964.621 C 2042.013 964.004, 2043.846 958.325, 2046.081 952 C 2051.671 936.183, 2055.934 918.241, 2056.654 907.500 C 2057.753 891.103, 2053.934 881.606, 2044.340 876.883 C 2040.120 874.805, 2038.090 874.502, 2028.500 874.518 C 2014.951 874.540, 2007.406 876.829, 1997.159 884.025 C 1988.285 890.256, 1980.870 899.678, 1973.500 914.087 C 1964.420 931.839, 1960 947.502, 1960 961.929 C 1960 978.595, 1968.315 991.286, 1985 1000.085 C 1987.475 1001.390, 1989.656 1002.548, 1989.846 1002.659 C 1990.891 1003.264, 1969.903 1031.117, 1958.305 1044.517 C 1948.391 1055.971, 1905.913 1097.382, 1897.710 1103.590 C 1887.564 1111.268, 1879.789 1114.495, 1871.427 1114.498 C 1861.998 1114.501, 1857.025 1111.418, 1853.161 1103.177 C 1850.681 1097.886, 1850.503 1096.582, 1850.547 1084 C 1850.601 1068.817, 1852.520 1056.807, 1859.096 1030.500 C 1864.092 1010.514, 1875.458 971.864, 1904.604 875.750 C 1905.087 874.159, 1904.199 874.007, 1894.817 874.079 L 1884.500 874.157 1849 893.872 L 1813.500 913.587 1810.123 907.548 C 1797.797 885.503, 1781.219 875.040, 1756 873.391 C 1722.221 871.181, 1673.051 894.764, 1635.368 931.250 C 1599.026 966.437, 1575.913 1009.298, 1568.522 1055.209 C 1568.011 1058.384, 1565.880 1060.854, 1553.712 1072.377 C 1514.549 1109.465, 1498.558 1119.425, 1472.447 1122.993 C 1465.617 1123.926, 1460.972 1123.964, 1453.450 1123.145 C 1426.987 1120.266, 1408.768 1107.095, 1397.492 1082.690 C 1393.798 1074.693, 1388.570 1057.791, 1389.203 1055.890 C 1389.413 1055.260, 1398.116 1051.926, 1408.543 1048.482 C 1502.351 1017.492, 1546.423 979.546, 1543.729 932.088 C 1542.849 916.592, 1537.783 905.015, 1527.331 894.621 C 1513.656 881.021, 1496.383 875, 1471.043 875 C 1449.359 875, 1431.997 879.276, 1412.187 889.495 C 1396.543 897.565, 1384.162 906.842, 1369.470 921.500 C 1351.300 939.627, 1335.290 961.390, 1324.995 981.955 C 1315.190 1001.544, 1307.540 1028.056, 1305.447 1049.708 L 1304.750 1056.915 1293.125 1068.246 C 1278.745 1082.263, 1259.407 1099.224, 1249.055 1106.900 C 1232.250 1119.359, 1216.006 1126.013, 1202.169 1126.103 C 1192.509 1126.166, 1187.804 1124.968, 1181.613 1120.867 C 1172.910 1115.102, 1166.070 1103.879, 1161.834 1088.410 C 1159.941 1081.500, 1159.657 1077.783, 1159.584 1059 C 1159.538 1047.175, 1159.885 1031.280, 1160.356 1023.678 L 1161.213 1009.857 1172.412 997.142 C 1260.895 896.692, 1297.996 817.516, 1298.296 728.500 C 1298.352 711.859, 1298.017 706.905, 1296.301 699 C 1292.240 680.295, 1284.673 669.914, 1275.185 670.034 C 1273.708 670.052, 1264.850 672.883, 1255.500 676.324 M 1250.415 715.427 C 1245.049 721.028, 1239.301 730.859, 1231.986 746.948 C 1212.702 789.365, 1194.500 849.936, 1177.426 928.500 C 1174.438 942.250, 1171.796 954.400, 1171.556 955.500 C 1170.417 960.707, 1193.244 932.268, 1208.478 909.500 C 1243.597 857.015, 1267.100 797.961, 1271.195 751.914 C 1273.403 727.096, 1268.267 711, 1258.140 711 C 1255.326 711, 1253.842 711.850, 1250.415 715.427 M 1745.335 903.360 C 1733.917 906.268, 1721.085 915.128, 1711.428 926.772 C 1689.829 952.813, 1668.239 999.128, 1660.473 1036.085 C 1656.953 1052.832, 1655.939 1078.356, 1658.410 1087.975 C 1664.775 1112.747, 1686.091 1121.959, 1709.984 1110.263 C 1732.254 1099.362, 1758.814 1059.321, 1775.095 1012.103 C 1787.650 975.692, 1791.038 941.541, 1783.971 922.651 C 1781.426 915.849, 1774.460 907.885, 1768.555 905.027 C 1763.022 902.348, 1752.322 901.580, 1745.335 903.360 M 1439.639 905.457 C 1431.240 908.910, 1423.487 915.428, 1415.832 925.469 C 1397.336 949.731, 1387.796 979.054, 1386.292 1016.264 L 1385.695 1031.028 1397.440 1026.979 C 1440.671 1012.072, 1464.886 990.450, 1473.634 958.942 C 1474.976 954.112, 1475.433 948.747, 1475.462 937.500 C 1475.498 923.360, 1475.350 922.179, 1472.878 916.908 C 1471.435 913.832, 1469.185 910.290, 1467.878 909.038 C 1461.214 902.653, 1449.938 901.223, 1439.639 905.457" stroke="none" fill="#000000" fill-rule="evenodd"/><path d="M 307 562.664 C 210.367 567.833, 129.150 606.150, 73.359 672.892 C 34.422 719.472, 11.195 774.425, 2.303 841 C -0.495 861.947, -0.240 916.561, 2.759 938.614 C 13.397 1016.856, 41.769 1090.023, 88.010 1158.461 C 113.938 1196.836, 151.511 1239.647, 180.501 1263.847 C 253.009 1324.375, 349.441 1359.081, 467.280 1367.057 C 490.271 1368.613, 550.640 1367.748, 572 1365.556 C 654.485 1357.092, 722.370 1336.117, 747.259 1311.405 C 756.627 1302.103, 764.472 1287.330, 772.522 1263.826 C 786.971 1221.642, 796.052 1171.525, 800.058 1111.848 C 801.621 1088.563, 800.753 1024.107, 798.592 1003 C 788.607 905.480, 761.645 825.932, 717.865 764.825 C 684.374 718.079, 629.646 669.831, 568.651 633.278 C 550.912 622.648, 510.955 602.932, 492.500 595.702 C 430.817 571.539, 363.898 559.621, 307 562.664" stroke="none" fill="#319ace" fill-rule="evenodd"/><path d="M 1630.500 1.108 C 1501.356 9.976, 1369.759 53.227, 1249 126.493 C 1181.251 167.598, 1116.283 219.236, 1059.499 277.114 C 1011.081 326.466, 974.258 378.514, 941.699 443.619 C 877.921 571.150, 845.621 727.117, 848.323 894.500 C 849.771 984.221, 859.768 1063.740, 879.008 1138.589 C 900.614 1222.641, 928.961 1278.462, 960.881 1299.813 C 1010.086 1332.726, 1118.509 1361.713, 1238 1373.903 C 1277.377 1377.919, 1286.543 1378.176, 1375.500 1377.751 C 1467.684 1377.311, 1465.816 1377.396, 1514 1371.407 C 1682.687 1350.439, 1824.823 1293.279, 1930 1204.112 C 1952.951 1184.655, 1987.930 1149.111, 2015.484 1117.249 L 2025.214 1105.998 2027.516 1095.249 C 2033.133 1069.017, 2046.718 1038.027, 2068.483 1001.796 C 2073.158 994.015, 2076.833 987.499, 2076.650 987.316 C 2076.467 987.133, 2072.833 988.594, 2068.574 990.561 C 2058.535 995.199, 2043.067 1000.235, 2030.532 1002.946 C 2025.050 1004.132, 2020.535 1005.191, 2020.499 1005.301 C 2020.462 1005.410, 2018.011 1009.550, 2015.053 1014.500 C 1994.871 1048.262, 1964.937 1082.158, 1917.761 1124.668 C 1886.370 1152.954, 1868.548 1166.743, 1854.630 1173.513 C 1826.335 1187.277, 1799.047 1184.222, 1785.083 1165.726 C 1774.345 1151.503, 1769.547 1132.937, 1768.152 1100.206 L 1767.500 1084.913 1758.858 1096.706 C 1738.825 1124.046, 1711.921 1152.645, 1695.775 1163.765 C 1678.733 1175.501, 1663.620 1180.896, 1645.500 1181.709 C 1631.777 1182.325, 1624.484 1180.972, 1614.489 1175.959 C 1592.497 1164.927, 1574.319 1137.492, 1568.964 1107.250 C 1568.257 1103.263, 1567.395 1100, 1567.048 1100 C 1566.701 1100, 1564.410 1102.068, 1561.958 1104.595 C 1548.669 1118.294, 1520.053 1141.880, 1502.798 1153.356 C 1480.127 1168.435, 1461.629 1176.060, 1437.903 1180.105 C 1420.503 1183.072, 1395.100 1182.451, 1380.881 1178.712 C 1344.660 1169.185, 1318.242 1142.358, 1308.688 1105.400 C 1307.493 1100.777, 1306.198 1097.109, 1305.810 1097.247 C 1305.422 1097.386, 1300.067 1101.971, 1293.910 1107.435 C 1265.246 1132.872, 1232.721 1156.404, 1211.899 1166.770 C 1189.122 1178.111, 1170.685 1182.529, 1149.500 1181.725 C 1128.917 1180.944, 1115.045 1175.456, 1101.369 1162.684 C 1085.610 1147.967, 1076.598 1130.483, 1071.315 1104.374 C 1068.842 1092.151, 1068.869 1051.955, 1071.366 1030.500 C 1077.318 979.340, 1091.769 920.656, 1114.370 855.866 C 1131.555 806.599, 1145.054 774.096, 1166.645 730 L 1179.130 704.500 1223.315 688.212 C 1247.617 679.254, 1269.136 671.432, 1271.136 670.830 C 1282.532 667.397, 1291.658 677.613, 1296.301 699 C 1298.017 706.905, 1298.352 711.859, 1298.296 728.500 C 1297.996 817.516, 1260.895 896.692, 1172.412 997.142 L 1161.213 1009.857 1160.356 1023.678 C 1159.885 1031.280, 1159.538 1047.175, 1159.584 1059 C 1159.657 1077.783, 1159.941 1081.500, 1161.834 1088.410 C 1166.070 1103.879, 1172.910 1115.102, 1181.613 1120.867 C 1187.804 1124.968, 1192.509 1126.166, 1202.169 1126.103 C 1216.006 1126.013, 1232.250 1119.359, 1249.055 1106.900 C 1259.407 1099.224, 1278.745 1082.263, 1293.125 1068.246 L 1304.750 1056.915 1305.447 1049.708 C 1308.164 1021.598, 1317.911 992.686, 1333.329 967 C 1347.092 944.071, 1373.033 915.222, 1392 901.754 C 1410.143 888.871, 1430.979 879.758, 1449.791 876.477 C 1460.518 874.607, 1481.606 874.573, 1491.162 876.412 C 1522.476 882.437, 1542.089 903.210, 1543.729 932.088 C 1546.423 979.546, 1502.351 1017.492, 1408.543 1048.482 C 1398.116 1051.926, 1389.413 1055.260, 1389.203 1055.890 C 1388.570 1057.791, 1393.798 1074.693, 1397.492 1082.690 C 1408.768 1107.095, 1426.987 1120.266, 1453.450 1123.145 C 1460.972 1123.964, 1465.617 1123.926, 1472.447 1122.993 C 1498.558 1119.425, 1514.549 1109.465, 1553.712 1072.377 C 1565.880 1060.854, 1568.011 1058.384, 1568.522 1055.209 C 1575.913 1009.298, 1599.026 966.437, 1635.368 931.250 C 1673.051 894.764, 1722.221 871.181, 1756 873.391 C 1781.219 875.040, 1797.797 885.503, 1810.123 907.548 L 1813.500 913.587 1849 893.872 L 1884.500 874.157 1894.817 874.079 C 1904.199 874.007, 1905.087 874.159, 1904.604 875.750 C 1875.458 971.864, 1864.092 1010.514, 1859.096 1030.500 C 1852.520 1056.807, 1850.601 1068.817, 1850.547 1084 C 1850.503 1096.582, 1850.681 1097.886, 1853.161 1103.177 C 1857.025 1111.418, 1861.998 1114.501, 1871.427 1114.498 C 1879.789 1114.495, 1887.564 1111.268, 1897.710 1103.590 C 1905.913 1097.382, 1948.391 1055.971, 1958.305 1044.517 C 1969.903 1031.117, 1990.891 1003.264, 1989.846 1002.659 C 1989.656 1002.548, 1987.475 1001.390, 1985 1000.085 C 1968.315 991.286, 1960 978.595, 1960 961.929 C 1960 947.502, 1964.420 931.839, 1973.500 914.087 C 1980.870 899.678, 1988.285 890.256, 1997.159 884.025 C 2007.406 876.829, 2014.951 874.540, 2028.500 874.518 C 2038.090 874.502, 2040.120 874.805, 2044.340 876.883 C 2053.934 881.606, 2057.753 891.103, 2056.654 907.500 C 2055.934 918.241, 2051.671 936.183, 2046.081 952 C 2043.846 958.325, 2042.013 964.004, 2042.009 964.621 C 2042.003 965.415, 2043.384 965.485, 2046.750 964.862 C 2071.393 960.295, 2093.308 946.137, 2113.867 921.500 C 2121.898 911.877, 2134.302 893.471, 2139.954 882.791 L 2143.408 876.265 2151.454 875.638 C 2155.879 875.294, 2161.581 875.009, 2164.125 875.006 L 2168.751 875 2176.833 854.750 C 2194.355 810.851, 2204.215 780.546, 2214.420 739.225 C 2228.511 682.175, 2235.418 630.711, 2236.664 573.500 C 2239.219 456.121, 2211.798 346.868, 2156.794 255.279 C 2119.014 192.371, 2066.121 136.557, 2005 95.105 C 1923.771 40.014, 1829.834 8.951, 1720.500 1.023 C 1704.294 -0.152, 1648.080 -0.099, 1630.500 1.108 M 1695 678.500 L 1695 756 1704 756 L 1713 756 1713 734.228 L 1713 712.456 1721.469 704.031 C 1726.127 699.397, 1730.224 695.891, 1730.573 696.239 C 1730.922 696.588, 1739.406 710.064, 1749.428 726.187 L 1767.649 755.500 1778.804 755.783 L 1789.959 756.065 1779.832 739.783 C 1774.262 730.827, 1764.146 714.563, 1757.352 703.640 C 1750.558 692.716, 1745 683.496, 1745 683.149 C 1745 682.802, 1753.658 673.852, 1764.240 663.259 L 1783.481 644 1771.998 644 L 1760.515 644 1736.758 667.742 L 1713 691.484 1713 646.242 L 1713 601 1704 601 L 1695 601 1695 678.500 M 1858 628.500 L 1858 644 1850.500 644 L 1843 644 1843 651 L 1843 658 1850.471 658 L 1857.942 658 1858.221 703.928 C 1858.492 748.529, 1858.560 749.935, 1860.562 752.616 C 1865.583 759.338, 1873.450 761.772, 1886.250 760.562 L 1894 759.829 1894.002 752.165 L 1894.004 744.500 1887.540 744.834 C 1881.721 745.134, 1880.823 744.914, 1878.538 742.629 L 1876 740.091 1876 699.045 L 1876 658 1885 658 L 1894 658 1894 651 L 1894 644 1885 644 L 1876 644 1876 628.500 L 1876 613 1867 613 L 1858 613 1858 628.500 M 1453.634 642.586 C 1440.878 645.674, 1431.418 653.018, 1427.339 663 C 1424.605 669.691, 1424.796 683.132, 1427.703 688.595 C 1432.756 698.090, 1440.322 702.064, 1465.946 708.682 C 1485.049 713.615, 1487.256 714.479, 1491 718.486 C 1493.021 720.649, 1493.500 722.185, 1493.500 726.507 C 1493.500 733.418, 1491.227 736.585, 1483.455 740.500 C 1478.086 743.205, 1476.565 743.500, 1468 743.500 C 1452.253 743.500, 1444.470 738.915, 1441.681 727.996 L 1440.277 722.500 1431.982 722.207 C 1427.419 722.046, 1423.276 722.324, 1422.775 722.825 C 1421.586 724.014, 1423.595 735.224, 1425.965 740.622 C 1432.117 754.635, 1448.601 762.068, 1470.498 760.703 C 1497.337 759.030, 1513.485 744.094, 1511.755 722.543 C 1510.475 706.589, 1501.381 699.647, 1472.500 692.574 C 1448.210 686.626, 1442.356 682.768, 1443.312 673.341 C 1444.189 664.695, 1451.454 659.349, 1463.725 658.320 C 1477.238 657.187, 1487.119 662.640, 1488.626 672.062 L 1489.267 676.072 1498.384 675.786 L 1507.500 675.500 1507.141 671 C 1506.299 660.456, 1499.926 650.554, 1491.073 646.037 C 1481.624 641.217, 1465.452 639.726, 1453.634 642.586 M 1570.500 642.344 C 1548.382 648.131, 1534.919 667.931, 1533.338 697 C 1531.071 738.661, 1554.975 765.346, 1589.990 760.243 C 1608.276 757.578, 1619.991 747.260, 1625.388 729.068 C 1626.275 726.081, 1627 722.126, 1627 720.280 L 1627 716.922 1618.385 717.211 L 1609.769 717.500 1608.056 723 C 1605.568 730.988, 1603.563 734.363, 1598.968 738.296 C 1589.454 746.439, 1573.072 745.717, 1563.316 736.723 C 1555.411 729.437, 1551.046 717.281, 1551.025 702.500 C 1550.993 679.474, 1559.287 663.540, 1573.428 659.463 C 1588.936 654.993, 1602.514 661.823, 1606.794 676.249 L 1608.500 681.997 1617.250 681.999 C 1627.200 682, 1626.893 682.370, 1624.892 672.799 C 1623.542 666.339, 1619.782 658.495, 1616.178 654.621 C 1612.476 650.640, 1604.472 645.648, 1598.500 643.595 C 1591.887 641.322, 1576.955 640.655, 1570.500 642.344 M 1651 700 L 1651 756 1660 756 L 1669 756 1669 700 L 1669 644 1660 644 L 1651 644 1651 700 M 1808 700 L 1808 756 1817 756 L 1826 756 1826 700 L 1826 644 1817 644 L 1808 644 1808 700 M 1250.415 715.427 C 1245.049 721.028, 1239.301 730.859, 1231.986 746.948 C 1212.702 789.365, 1194.500 849.936, 1177.426 928.500 C 1174.438 942.250, 1171.796 954.400, 1171.556 955.500 C 1170.417 960.707, 1193.244 932.268, 1208.478 909.500 C 1243.597 857.015, 1267.100 797.961, 1271.195 751.914 C 1273.403 727.096, 1268.267 711, 1258.140 711 C 1255.326 711, 1253.842 711.850, 1250.415 715.427 M 1745.335 903.360 C 1733.917 906.268, 1721.085 915.128, 1711.428 926.772 C 1689.829 952.813, 1668.239 999.128, 1660.473 1036.085 C 1656.953 1052.832, 1655.939 1078.356, 1658.410 1087.975 C 1664.775 1112.747, 1686.091 1121.959, 1709.984 1110.263 C 1732.254 1099.362, 1758.814 1059.321, 1775.095 1012.103 C 1787.650 975.692, 1791.038 941.541, 1783.971 922.651 C 1781.426 915.849, 1774.460 907.885, 1768.555 905.027 C 1763.022 902.348, 1752.322 901.580, 1745.335 903.360 M 1439.639 905.457 C 1431.240 908.910, 1423.487 915.428, 1415.832 925.469 C 1397.336 949.731, 1387.796 979.054, 1386.292 1016.264 L 1385.695 1031.028 1397.440 1026.979 C 1440.671 1012.072, 1464.886 990.450, 1473.634 958.942 C 1474.976 954.112, 1475.433 948.747, 1475.462 937.500 C 1475.498 923.360, 1475.350 922.179, 1472.878 916.908 C 1471.435 913.832, 1469.185 910.290, 1467.878 909.038 C 1461.214 902.653, 1449.938 901.223, 1439.639 905.457" stroke="none" fill="#f89a36" fill-rule="evenodd"/></svg>