<svg xmlns="http://www.w3.org/2000/svg" width="437" height="280" viewBox="0 0 437 280" version="1.1"><path d="M 74.368 35.839 C 62.524 39.933, 51.534 49.065, 46.501 58.998 C 40.850 70.150, 40.921 69.059, 41.222 140.602 L 41.500 206.500 45.191 214.230 C 49.685 223.641, 56.335 230.971, 64.543 235.561 C 76.822 242.428, 65.597 241.977, 224.568 241.989 C 382.218 242.001, 372.443 242.351, 384.446 236.272 C 390.739 233.085, 399.676 224.055, 403.371 217.150 C 408.997 206.635, 408.975 206.948, 408.988 137.295 L 409 73.091 406.650 66.617 C 400.800 50.500, 389.197 39.561, 373.500 35.361 C 369.433 34.273, 341.540 34.028, 224 34.045 C 88.273 34.064, 79.188 34.173, 74.368 35.839 M 115.407 82.974 C 91.207 88.108, 81.273 116.741, 97.449 134.733 C 105.102 143.244, 113.497 146, 131.768 146 C 143.637 146, 147.221 147.386, 150.950 153.418 C 153.704 157.875, 153.731 166.289, 151.005 170.759 C 147.251 176.917, 144.079 177.992, 129.651 177.996 C 119.862 177.999, 115.988 177.613, 113.381 176.377 C 109.192 174.389, 106.066 170.181, 105.308 165.510 L 104.738 162 96.894 162 L 89.050 162 89.611 165.250 C 92.105 179.696, 100.580 189.137, 114.187 192.629 C 122.286 194.707, 141.072 194.044, 148.500 191.417 C 155.632 188.894, 164.099 180.230, 166.502 172.994 C 170.647 160.515, 168.035 148.875, 159.080 139.920 C 151.544 132.384, 146.722 130.832, 128.498 130.073 C 116.173 129.560, 114.122 129.223, 111.372 127.265 C 104.789 122.578, 102.863 111.609, 107.439 104.875 C 111.370 99.090, 114.894 98, 129.669 98 C 141.660 98, 142.780 98.166, 146.125 100.439 C 149.836 102.960, 153 108.236, 153 111.901 C 153 113.846, 153.549 114, 160.500 114 L 168 114 168 111.182 C 168 109.631, 167.285 105.955, 166.411 103.013 C 164.325 95.988, 155.768 87.168, 148.500 84.552 C 142.809 82.504, 122.245 81.523, 115.407 82.974 M 209.271 83.476 C 198.960 86.379, 190.569 93.979, 187.284 103.391 C 185.728 107.847, 185.500 112.269, 185.500 138 C 185.500 164.454, 185.697 168.067, 187.410 172.990 C 189.941 180.264, 198.452 188.929, 205.500 191.405 C 212.162 193.746, 230.007 194.652, 238.098 193.060 L 244.291 191.842 251.153 198.652 L 258.015 205.461 263.236 200.240 L 268.457 195.020 262.714 189.216 L 256.972 183.413 260.736 176.076 L 264.500 168.738 264.500 138.119 L 264.500 107.500 261.591 101.200 C 258.116 93.673, 251.138 86.952, 244.244 84.490 C 237.563 82.103, 216.333 81.488, 209.271 83.476 M 281 138 L 281 194 321 194 L 361 194 361 186 L 361 178 329 178 L 297 178 297 130 L 297 82 289 82 L 281 82 281 138 M 207.999 100.250 C 201.245 104.861, 201 106.182, 201.002 137.984 C 201.003 169.837, 201.271 171.303, 207.898 175.730 C 210.840 177.696, 212.581 178, 220.876 178 L 230.456 178 221.995 169.495 L 213.534 160.990 218.764 155.759 L 223.995 150.529 234.825 161.325 C 244.721 171.191, 245.777 171.974, 247.077 170.409 C 248.223 169.030, 248.557 162.849, 248.793 138.712 L 249.085 108.727 246.632 105.020 C 242.716 99.103, 239.199 98, 224.247 98 C 212.459 98, 211 98.202, 207.999 100.250" stroke="none" fill="#157efb" fill-rule="evenodd"/></svg>