<svg xmlns="http://www.w3.org/2000/svg" width="577" height="433" viewBox="0 0 577 433" version="1.1"><path d="M 454 187.500 L 454 208 435.500 208 L 417 208 417 215.477 L 417 222.955 435.250 223.227 L 453.500 223.500 453.771 243.750 L 454.041 264 462 264 L 469.959 264 470.229 243.750 L 470.500 223.500 488.750 223.227 L 507 222.955 507 215.500 L 507 208.045 488.750 207.773 L 470.500 207.500 470.229 187.250 L 469.959 167 461.979 167 L 454 167 454 187.500 M 401.498 252.729 L 411 253.072 411 281.977 C 411 297.875, 411.337 311.091, 411.750 311.347 C 412.163 311.602, 412.275 298.466, 412 282.156 L 411.500 252.500 401.748 252.443 L 391.995 252.385 401.498 252.729 M 420.250 311.689 C 421.212 311.941, 422.788 311.941, 423.750 311.689 C 424.712 311.438, 423.925 311.232, 422 311.232 C 420.075 311.232, 419.288 311.438, 420.250 311.689 M 435.250 311.742 C 438.962 311.934, 445.038 311.934, 448.750 311.742 C 452.462 311.549, 449.425 311.392, 442 311.392 C 434.575 311.392, 431.538 311.549, 435.250 311.742 M 457.250 311.689 C 458.212 311.941, 459.788 311.941, 460.750 311.689 C 461.712 311.438, 460.925 311.232, 459 311.232 C 457.075 311.232, 456.288 311.438, 457.250 311.689 M 411.442 358 C 411.442 374.225, 411.580 380.863, 411.748 372.750 C 411.916 364.637, 411.916 351.362, 411.748 343.250 C 411.580 335.137, 411.442 341.775, 411.442 358 M 280 356 L 280 377 262 377 L 244 377 244 384 L 244 391 262 391 L 280 391 280 412 L 280 433 288.500 433 L 297 433 297 412 L 297 391 315.500 391 L 334 391 334 384 L 334 377 315.500 377 L 297 377 297 356 L 297 335 288.500 335 L 280 335 280 356" stroke="none" fill="#5b6693" fill-rule="evenodd"/><path d="M 391.765 282.062 L 391.500 311.124 365 311.312 L 338.500 311.500 338.211 320.250 L 337.922 329 364.961 329 L 392 329 392 358 L 392 387 401.500 387 L 411 387 411 358 L 411 329 438.500 329 L 466 329 466 320.250 L 465.999 311.500 438.750 311.500 L 411.500 311.500 411.235 282.250 L 410.970 253 401.500 253 L 392.030 253 391.765 282.062" stroke="none" fill="#1a487c" fill-rule="evenodd"/><path d="M 165.702 252.632 C 165.316 253.018, 165 266.301, 165 282.150 L 165 310.967 138.250 311.234 L 111.500 311.500 111.500 320 L 111.500 328.500 138.235 328.766 L 164.969 329.033 165.235 357.766 L 165.500 386.500 175.250 386.786 L 185 387.072 185 358.036 L 185 329 212.039 329 L 239.078 329 238.789 320.250 L 238.500 311.500 211.765 311.234 L 185.030 310.967 184.765 281.734 L 184.500 252.500 175.452 252.215 C 170.475 252.058, 166.087 252.246, 165.702 252.632" stroke="none" fill="#c72233" fill-rule="evenodd"/><path d="M 165 71.500 L 165 101 137.500 101 L 110 101 110 110 L 110 119 137.500 119 L 165 119 165 148.500 L 165 178 175 178 C 182.289 178, 185.023 177.661, 185.083 176.750 C 185.129 176.063, 185.095 162.787, 185.007 147.250 L 184.848 119 212.424 119 L 240 119 240 110 L 240 101 213.131 101 L 186.262 101 185.642 97.250 C 185.301 95.188, 185.017 81.912, 185.011 67.750 L 185 42 175 42 L 165 42 165 71.500 M 276 170.485 L 276 202.970 246.250 203.235 L 216.500 203.500 216.219 215.750 L 215.938 228 245.921 228 L 275.903 228 275.887 260.135 C 275.878 277.839, 276.275 292.675, 276.770 293.170 C 277.264 293.664, 282.806 293.941, 289.084 293.784 L 300.500 293.500 300.764 260.765 L 301.027 228.029 331.264 227.765 L 361.500 227.500 361.500 215.500 L 361.500 203.500 331.250 203.235 L 301 202.971 301 170.485 L 301 138 288.500 138 L 276 138 276 170.485 M 276.764 171.750 L 276.500 204.500 248 204.728 C 232.325 204.853, 218.938 204.966, 218.250 204.978 C 217.327 204.994, 217 207.878, 217 216 L 217 227 247 227 L 277 227 277 259.500 L 277 292 288.500 292 L 300 292 300 259.500 L 300 227 330 227 L 360 227 360 216 L 360 205 330 205 L 300 205 300 172 L 300 139 288.514 139 L 277.027 139 276.764 171.750 M 164.699 251.634 C 164.315 252.019, 164 265.301, 164 281.150 L 164 309.967 137.250 310.234 L 110.500 310.500 110.500 320 L 110.500 329.500 137.250 329.766 L 164 330.033 164 359.016 L 164 388 175 388 L 186 388 186 359.016 L 186 330.033 212.750 329.766 L 239.500 329.500 239.560 320.247 L 239.619 310.995 239.272 319.997 L 238.925 329 211.962 329 L 185 329 185 358 L 185 387 175 387 L 165 387 165 358 L 165 329 138 329 L 111 329 111 320 L 111 311 138 311 L 165 311 165 281.500 L 165 252 175 252 L 185 252 185 281.500 L 185 311 211.750 310.767 L 238.500 310.535 212.265 310.251 L 186.030 309.967 185.765 280.733 L 185.500 251.500 175.449 251.217 C 169.922 251.062, 165.084 251.249, 164.699 251.634" stroke="none" fill="#ea912d" fill-rule="evenodd"/><path d="M 276.764 171.750 L 276.500 204.500 248 204.728 C 232.325 204.853, 218.938 204.966, 218.250 204.978 C 217.327 204.994, 217 207.878, 217 216 L 217 227 247 227 L 277 227 277 259.500 L 277 292 288.500 292 L 300 292 300 259.500 L 300 227 330 227 L 360 227 360 216 L 360 205 330 205 L 300 205 300 172 L 300 139 288.514 139 L 277.027 139 276.764 171.750" stroke="none" fill="#e8762d" fill-rule="evenodd"/><path d="M 281.969 1.250 C 281.952 1.938, 281.839 10.825, 281.719 21 L 281.500 39.500 263.250 39.773 L 245 40.045 245 46.523 L 245 53 263.538 53 L 282.075 53 281.953 72.750 L 281.831 92.500 288.916 92.794 L 296 93.088 296 73.044 L 296 53 314 53 L 332 53 332 46.500 L 332 40 314 40 L 296 40 296 20 L 296 0 289 0 C 284.083 0, 281.991 0.372, 281.969 1.250 M 391 71.500 L 391 101 363.962 101 L 336.925 101 337.212 110.250 L 337.500 119.500 364.250 119.766 L 391 120.033 391 149.016 L 391 178 401.500 178 L 412 178 412 149.016 L 412 120.032 439.250 119.766 L 466.500 119.500 466.788 110.250 L 467.075 101 439.538 101 L 412 101 412 71.500 L 412 42 401.500 42 L 391 42 391 71.500 M 392 72.500 L 392 102 365 102 L 338 102 338 109.984 L 338 117.967 364.750 118.234 L 391.500 118.500 391.765 147.787 L 392.030 177.075 401.265 176.787 L 410.500 176.500 411 147.500 L 411.500 118.500 438.750 118.234 L 466 117.968 466 110 L 466 102.032 438.750 101.766 L 411.500 101.500 411.235 72.250 L 410.970 43 401.485 43 L 392 43 392 72.500 M 453 186.477 L 453 206.955 434.750 207.227 L 416.500 207.500 416.210 215.750 L 415.919 224 434.460 224 L 453 224 453 244.500 L 453 265 462.250 264.794 L 471.500 264.589 462.771 264.256 L 454.041 263.923 453.771 243.711 L 453.500 223.500 435.250 223.227 L 417 222.955 417 215.500 L 417 208.045 435.250 207.773 L 453.500 207.500 453.771 187.177 L 454.042 166.854 462.523 167.177 C 467.188 167.355, 471.004 167.162, 471.002 166.750 C 471.001 166.338, 466.950 166, 462 166 L 453 166 453 186.477 M 104.708 169.626 C 104.318 170.015, 104 179.033, 104 189.667 L 104 209 86 209 L 68 209 68 216.100 L 68 223.201 85.978 222.473 L 103.957 221.746 104.228 241.623 L 104.500 261.500 111.750 261.794 L 119 262.088 119 242.044 L 119 222 137 222 L 155 222 155 215.500 L 155 209 137.021 209 L 119.042 209 118.771 189.250 L 118.500 169.500 111.958 169.209 C 108.359 169.049, 105.097 169.237, 104.708 169.626 M 470.395 187.500 C 470.396 195.200, 470.553 198.218, 470.743 194.206 C 470.934 190.195, 470.932 183.895, 470.741 180.206 C 470.549 176.518, 470.393 179.800, 470.395 187.500 M 470.407 206.225 C 470.602 207.190, 475.084 207.566, 488.832 207.773 L 507 208.045 507 215.500 L 507 222.955 488.763 223.227 C 473.398 223.457, 470.509 223.736, 470.417 225 C 470.354 225.863, 470.486 225.969, 470.727 225.250 C 471.042 224.310, 475.722 224, 489.573 224 L 508 224 508 215.500 L 508 207 489.583 207 C 478.003 207, 470.978 206.619, 470.658 205.975 C 470.379 205.411, 470.266 205.524, 470.407 206.225 M 470.365 238.500 C 470.368 244, 470.536 246.122, 470.738 243.216 C 470.941 240.311, 470.939 235.811, 470.734 233.216 C 470.528 230.622, 470.363 233, 470.365 238.500 M 391.651 251.750 C 391.394 252.162, 394.405 252.377, 398.342 252.227 C 411.205 251.736, 412.690 251.339, 402.309 251.168 C 396.704 251.076, 391.908 251.338, 391.651 251.750 M 470.320 257 C 470.320 260.575, 470.502 262.038, 470.723 260.250 C 470.945 258.462, 470.945 255.537, 470.723 253.750 C 470.502 251.963, 470.320 253.425, 470.320 257 M 391.435 279 C 391.435 293.025, 391.575 298.762, 391.747 291.750 C 391.919 284.738, 391.919 273.262, 391.747 266.250 C 391.575 259.238, 391.435 264.975, 391.435 279 M 337.667 310.667 C 337.300 311.033, 337 315.533, 337 320.667 L 337 330 364.250 329.767 L 391.500 329.534 364.682 329.251 L 337.864 328.967 338.182 319.481 C 338.357 314.264, 338.462 309.997, 338.417 309.998 C 338.371 309.999, 338.033 310.300, 337.667 310.667 M 466 319.984 L 466 328.968 438.750 329.251 L 411.500 329.534 439.250 329.767 L 467 330 467 320.500 C 467 315.275, 466.775 311, 466.500 311 C 466.225 311, 466 315.043, 466 319.984 M 279.667 334.667 C 279.300 335.033, 279 344.483, 279 355.667 L 279 376 261 376 L 243 376 243 384 L 243 392 260.980 392 L 278.959 392 279.251 412.750 L 279.543 433.500 279.771 412.250 L 280 391 262 391 L 244 391 244 384 L 244 377 261.962 377 L 279.924 377 280.212 355.499 C 280.370 343.674, 280.462 333.999, 280.417 333.999 C 280.371 334, 280.033 334.300, 279.667 334.667 M 297.229 355.750 L 297 377 315.500 377 L 334 377 334 383.977 L 334 390.955 315.750 391.227 L 297.500 391.500 297.470 412 L 297.439 432.500 297.740 412.250 L 298.041 392 316.520 392 L 335 392 335 384 L 335 376 316.520 376 L 298.041 376 297.749 355.250 L 297.457 334.500 297.229 355.750 M 391.434 360.500 C 391.433 374.250, 391.574 380.014, 391.747 373.308 C 391.919 366.603, 391.920 355.353, 391.748 348.308 C 391.576 341.264, 391.434 346.750, 391.434 360.500 M 390.998 387.250 C 390.999 387.663, 395.837 387.924, 401.750 387.832 C 412.670 387.661, 411.368 387.268, 398.248 386.773 C 394.259 386.623, 390.997 386.837, 390.998 387.250" stroke="none" fill="#739ba7" fill-rule="evenodd"/><path d="M 392 72.500 L 392 102 365 102 L 338 102 338 109.984 L 338 117.967 364.750 118.234 L 391.500 118.500 391.765 147.787 L 392.030 177.075 401.265 176.787 L 410.500 176.500 411 147.500 L 411.500 118.500 438.500 118 L 465.500 117.500 465.792 109.766 L 466.084 102.032 438.792 101.766 L 411.500 101.500 411.235 72.250 L 410.970 43 401.485 43 L 392 43 392 72.500" stroke="none" fill="#598898" fill-rule="evenodd"/></svg>